<?xml version="1.0" encoding="UTF-8" standalone="no"?>
<!-- Created with Inkscape (http://www.inkscape.org/) -->

<svg
   xmlns:dc="http://purl.org/dc/elements/1.1/"
   xmlns:cc="http://creativecommons.org/ns#"
   xmlns:rdf="http://www.w3.org/1999/02/22-rdf-syntax-ns#"
   xmlns:svg="http://www.w3.org/2000/svg"
   xmlns="http://www.w3.org/2000/svg"
   xmlns:sodipodi="http://sodipodi.sourceforge.net/DTD/sodipodi-0.dtd"
   xmlns:inkscape="http://www.inkscape.org/namespaces/inkscape"
   width="76.236664mm"
   height="16.366081mm"
   viewBox="0 0 270.12988 57.990053"
   id="svg7985"
   version="1.1"
   inkscape:version="0.91 r13725"
   sodipodi:docname="inskop_logo_dark.svg"
   inkscape:export-filename="/Users/vwrobel/Desktop/scopethis-logo-rev.png"
   inkscape:export-xdpi="207"
   inkscape:export-ydpi="207">
  <defs
     id="defs7987" />
  <sodipodi:namedview
     id="base"
     pagecolor="#ffffff"
     bordercolor="#666666"
     borderopacity="1.0"
     inkscape:pageopacity="0.0"
     inkscape:pageshadow="2"
     inkscape:zoom="2.05"
     inkscape:cx="90.047206"
     inkscape:cy="74.448546"
     inkscape:document-units="px"
     inkscape:current-layer="g4978"
     showgrid="false"
     fit-margin-top="0"
     fit-margin-left="0"
     fit-margin-right="0"
     fit-margin-bottom="0"
     inkscape:window-width="1920"
     inkscape:window-height="1031"
     inkscape:window-x="1435"
     inkscape:window-y="0"
     inkscape:window-maximized="0" />
  <metadata
     id="metadata7990">
    <rdf:RDF>
      <cc:Work
         rdf:about="">
        <dc:format>image/svg+xml</dc:format>
        <dc:type
           rdf:resource="http://purl.org/dc/dcmitype/StillImage" />
        <dc:title />
      </cc:Work>
    </rdf:RDF>
  </metadata>
  <g
     id="g4978">
    <path
       style="opacity:1;fill:#edf1f3;fill-opacity:1;stroke:none;stroke-width:2;stroke-linecap:round;stroke-linejoin:round;stroke-miterlimit:4;stroke-dasharray:none;stroke-dashoffset:0;stroke-opacity:1"
       d="m 22.242428,9.7501394 c -0.424537,0.01135 -0.843284,0.101908 -1.236328,0.2617186 -7.908229,3.111029 -13.1198533,10.619423 -13.1269533,18.955078 -0.0071,8.333783 5.1916063,15.848553 13.0917973,18.972656 1.009942,0.421281 2.038335,0.377491 2.849609,-0.0059 0.812503,-0.383757 1.402829,-1.066594 1.726562,-1.845703 0.323742,-0.779131 0.388329,-1.678565 0.07422,-2.517578 -0.312467,-0.834402 -1.025932,-1.565892 -2.044921,-1.949219 -5.31186,-2.09658 -8.755147,-7.087415 -8.748047,-12.648438 0.0071,-5.556974 3.446824,-10.53892 8.753906,-12.630859 1.733553,-0.653364 2.46325,-2.388431 2.160156,-3.857422 -0.302961,-1.468575 -1.646763,-2.7816516 -3.5,-2.7324216 l 0,-0.002 z m 13.220703,0.002 0,0.002 c -1.851956,-0.04692 -3.194485,1.2641006 -3.496094,2.7324216 -0.300978,1.465787 0.42717,3.196245 2.152344,3.851563 l 0.01367,0.0059 c 5.307084,2.09197 8.748766,7.073966 8.755859,12.630859 0.0071,5.555153 -3.43174,10.540281 -8.734375,12.640626 l -0.01563,0.0078 c -1.019081,0.383327 -1.732455,1.112873 -2.044922,1.947266 -0.314041,0.839012 -0.249554,1.740411 0.07422,2.519531 0.323823,0.7791 0.91415,1.460003 1.726563,1.84375 0.811263,0.383764 1.839698,0.429114 2.849609,0.0078 C 44.644635,44.817567 49.842272,37.300911 49.836172,28.967047 49.829072,20.631474 44.617667,13.122875 36.709219,10.011969 36.414995,9.8922904 36.098189,9.8531764 35.783438,9.8166564 a 0.89005025,0.89005025 0 0 0 -0.314454,-0.06445 0.89005025,0.89005025 0 0 0 -0.0059,0 z"
       id="path8004"
       inkscape:connector-curvature="0" />
    <path
       id="path4915"
       transform="translate(-1.5258789e-5,0)"
       d="M 22.242188 9.7636719 C 21.81765 9.7750238 21.398903 9.8636264 21.005859 10.023438 C 13.09763 13.134467 7.8860266 20.644814 7.8789062 28.980469 C 7.8738316 34.919863 10.522042 40.435446 14.898438 44.25 C 11.7322 40.620315 9.8746607 35.94963 9.8789062 30.980469 C 9.8860266 22.644814 15.09763 15.134467 23.005859 12.023438 C 23.398903 11.863626 23.81765 11.775024 24.242188 11.763672 L 24.242188 11.765625 C 24.732268 11.752606 25.182785 11.838934 25.591797 11.994141 C 25.116356 10.742906 23.879729 9.722123 22.242188 9.765625 L 22.242188 9.7636719 z M 35.462891 9.765625 C 33.610935 9.7187018 32.268406 11.031679 31.966797 12.5 C 31.66533 13.96817 32.395723 15.700634 34.126953 16.353516 C 33.903102 15.752738 33.842568 15.105006 33.966797 14.5 C 34.268406 13.031679 35.610935 11.718702 37.462891 11.765625 A 0.89005025 0.89005025 0 0 1 37.46875 11.765625 A 0.89005025 0.89005025 0 0 1 37.783203 11.830078 C 38.097954 11.866598 38.41476 11.905712 38.708984 12.025391 C 40.994848 12.924569 43.045812 14.200154 44.820312 15.748047 C 42.667961 13.278636 39.915465 11.286708 36.708984 10.025391 C 36.41476 9.9057079 36.097954 9.8665951 35.783203 9.8300781 A 0.89005025 0.89005025 0 0 0 35.46875 9.765625 A 0.89005025 0.89005025 0 0 0 35.462891 9.765625 z M 39.890625 20.5625 C 41.791605 22.913371 42.884678 25.857841 42.888672 28.986328 C 42.895751 34.547178 39.450573 39.540149 34.138672 41.636719 L 34.154297 41.626953 C 33.126157 42.008503 32.407951 42.744961 32.09375 43.583984 C 31.779709 44.422996 31.844196 45.324396 32.167969 46.103516 C 32.491792 46.882616 33.082118 47.563519 33.894531 47.947266 C 33.973493 47.984618 34.063632 48.00241 34.146484 48.033203 C 33.846675 47.269961 33.78879 46.398735 34.09375 45.583984 C 34.407951 44.744961 35.126157 44.008503 36.154297 43.626953 L 36.138672 43.636719 C 41.450573 41.540149 44.895751 36.547178 44.888672 30.986328 C 44.883439 26.887145 43.003663 23.10662 39.890625 20.5625 z M 19.820312 39.429688 C 21.295211 41.25383 23.258149 42.719847 25.576172 43.634766 C 25.600771 43.644019 25.62029 43.658312 25.644531 43.667969 C 25.634798 43.639545 25.631685 43.610322 25.621094 43.582031 C 25.308627 42.747629 24.595162 42.018092 23.576172 41.634766 C 22.185506 41.085873 20.926447 40.333646 19.820312 39.429688 z "
       style="fill:#81a1ab;fill-rule:evenodd;stroke:none;stroke-width:1px;stroke-linecap:butt;stroke-linejoin:miter;stroke-opacity:1;fill-opacity:1" />
    <path
       style="opacity:1;fill:#ff4081;fill-opacity:1;stroke:none;stroke-width:20;stroke-linecap:round;stroke-linejoin:round;stroke-miterlimit:4;stroke-dasharray:none;stroke-dashoffset:0;stroke-opacity:1"
       d="M 28.856999,0.13661352 A 28.858136,28.858136 0 0 0 -1.5257104e-5,28.995061 28.858136,28.858136 0 0 0 28.856999,57.853427 28.858136,28.858136 0 0 0 57.715331,28.995061 28.858136,28.858136 0 0 0 28.856999,0.13661352 Z M 35.4621,9.7648267 a 0.89005025,0.89005025 0 0 1 0.0071,0 0.89005025,0.89005025 0 0 1 0.314282,0.065406 c 0.314751,0.036517 0.631922,0.074967 0.926146,0.1946493 7.908447,3.110906 13.118395,10.620619 13.125525,18.956192 0.0061,8.333864 -5.19058,15.848785 -13.090839,18.972874 -1.009911,0.421302 -2.037929,0.377664 -2.849192,-0.0061 -0.812413,-0.383747 -1.403251,-1.066162 -1.727074,-1.845262 -0.323773,-0.77912 -0.389311,-1.679307 -0.07527,-2.518319 0.314201,-0.839023 1.034161,-1.574973 2.062301,-1.956523 l -0.01658,0.0081 c 5.311901,-2.09657 8.756589,-7.08775 8.74951,-12.6486 -0.0071,-5.561755 -3.453884,-10.547422 -8.768878,-12.636159 l 0.01272,0.0051 c -1.735496,-0.651157 -2.46694,-2.386155 -2.165129,-3.856001 0.301609,-1.468321 1.643898,-2.7807651 3.495854,-2.7338419 l 0,0 z m -13.22009,0 0,0 c 1.853237,-0.049232 3.197134,1.2639143 3.500095,2.7324893 0.303094,1.468991 -0.426021,3.204071 -2.159575,3.857435 l 0.01272,-0.0051 c -5.314994,2.088707 -8.760404,7.074242 -8.767514,12.636078 -0.0071,5.561023 3.436205,10.55203 8.748065,12.64861 l -0.01617,-0.0081 c 1.028048,0.38155 1.748008,1.117511 2.062209,1.956543 0.31411,0.839013 0.248572,1.739179 -0.07517,2.51831 -0.323733,0.779109 -0.914611,1.461515 -1.727115,1.845272 -0.811274,0.38335 -1.839322,0.428381 -2.849264,0.0071 C 13.0701,44.829361 7.8724901,37.314359 7.8796105,28.980576 7.8867308,20.644921 13.096852,13.135331 21.005081,10.024302 21.398125,9.8644914 21.816731,9.7756802 22.241268,9.7643283 Z"
       id="path8021"
       inkscape:connector-curvature="0"
       inkscape:export-filename="/Users/vwrobel/Desktop/scopethis-logo-rev.png"
       inkscape:export-xdpi="77.595932"
       inkscape:export-ydpi="77.595932" />
  </g>
  <flowRoot
     xml:space="preserve"
     id="flowRoot4150"
     style="font-style:normal;font-variant:normal;font-weight:bold;font-stretch:normal;font-size:20px;line-height:125%;font-family:Sans;-inkscape-font-specification:'Sans Bold';letter-spacing:0px;word-spacing:0px;fill:#000000;fill-opacity:1;stroke:none;stroke-width:1px;stroke-linecap:butt;stroke-linejoin:miter;stroke-opacity:1"
     transform="translate(139.6084,-105.88256)"><flowRegion
       id="flowRegion4152"><rect
         id="rect4154"
         width="156.9697"
         height="66.060608"
         x="-293.93939"
         y="-125.22366"
         style="font-style:normal;font-variant:normal;font-weight:bold;font-stretch:normal;font-family:Sans;-inkscape-font-specification:'Sans Bold'" /></flowRegion><flowPara
       id="flowPara4156" /></flowRoot>  <g
     id="g4965">
    <path
       inkscape:connector-curvature="0"
       id="path4347"
       style="font-style:normal;font-variant:normal;font-weight:500;font-stretch:normal;font-size:90px;line-height:125%;font-family:'Blogger Sans';-inkscape-font-specification:'Blogger Sans Medium';letter-spacing:0px;word-spacing:0px;fill:#182124;fill-opacity:1;stroke:none;stroke-width:1px;stroke-linecap:butt;stroke-linejoin:miter;stroke-opacity:1"
       d="m 88.62818,24.183457 c 0,-0.393705 -0.05625,-0.843633 -0.168727,-1.349784 1.855949,-1.124834 3.599415,-1.743459 5.28664,-1.743459 2.812045,0 4.443027,2.080883 4.443027,5.624084 l 0,15.522469 c 0,1.574733 1.068577,2.812042 3.03701,2.812042 1.91219,0 3.03701,-1.237309 3.03701,-2.812042 l 0,-15.522469 c 0,-6.467718 -3.26197,-10.79827 -9.785915,-10.79827 -2.474598,0 -5.230399,0.731159 -7.761237,2.474618 -0.674892,-1.01233 -1.574745,-1.630985 -2.643322,-1.630985 -1.687225,0 -2.924525,1.124805 -2.924525,2.587064 0,0.674906 0.224949,1.01233 0.674892,1.687237 0.337444,0.562402 0.731132,0.674877 0.731132,3.149495 l 0,18.05331 c 0,1.574733 1.012333,2.812042 3.037006,2.812042 2.02467,0 3.037006,-1.237309 3.037006,-2.812042 l 0,-18.05331 z" />
    <path
       inkscape:connector-curvature="0"
       id="path4186-3-5"
       d="m 204.04528,15.064051 c -3.02649,0 -5.80188,1.079874 -8.33719,2.345988 -0.63541,-0.666033 -1.41713,-1.215375 -2.43386,-1.215375 -1.43031,0 -2.83217,1.12513 -2.83217,2.749452 0,0.67529 0.29246,1.195621 0.5372,1.551412 0.60063,0.873352 0.79872,1.72468 0.79872,3.524686 l 0,30.81595 c 0,0.239395 0.0298,0.475931 0.0827,0.705745 l 0,0.438164 c 0,0.536046 0.25639,0.994936 0.76802,1.377762 0.51184,0.421154 1.18673,0.632217 2.02739,0.632217 0.84076,0 1.53714,-0.211093 2.08554,-0.632217 0.50426,-0.330112 0.78978,-0.717302 0.85896,-1.161274 0.21069,-0.416702 0.31559,-0.884142 0.31559,-1.360397 l 0,-9.680305 c 1.89927,0.514848 3.89612,0.855927 5.66131,0.855927 3.87134,0 6.62157,-1.2851 8.28103,-3.499125 1.65946,-2.214084 2.2398,-5.226811 2.2398,-8.671247 l 0,-7.33526 c 0,-3.284347 -0.81148,-6.13053 -2.50942,-8.187091 -1.6979,-2.05659 -4.2913,-3.255012 -7.54365,-3.255012 z m -0.93348,5.494805 c 1.75589,0 2.87474,0.48569 3.64517,1.418654 0.77043,0.932965 1.21027,2.429776 1.21027,4.528644 l 0,7.33526 c 0,2.55257 -0.3945,4.288216 -1.14187,5.301815 -0.74731,1.013598 -1.85121,1.489146 -3.82694,1.489146 -1.22297,0 -3.42088,-0.334682 -5.08222,-0.978456 l 0,-15.633705 c 0,-0.573075 -0.11803,-1.214136 -0.22978,-1.853782 1.77356,-0.974741 3.78029,-1.607576 5.42537,-1.607576 z"
       style="color:#000000;font-style:normal;font-variant:normal;font-weight:normal;font-stretch:normal;font-size:medium;line-height:125%;font-family:'Blogger Sans';-inkscape-font-specification:'Blogger Sans';text-indent:0;text-align:start;text-decoration:none;text-decoration-line:none;text-decoration-style:solid;text-decoration-color:#000000;letter-spacing:0px;word-spacing:0px;text-transform:none;direction:ltr;block-progression:tb;writing-mode:lr-tb;baseline-shift:baseline;text-anchor:start;white-space:normal;clip-rule:nonzero;display:inline;overflow:visible;visibility:visible;opacity:1;isolation:auto;mix-blend-mode:normal;color-interpolation:sRGB;color-interpolation-filters:linearRGB;solid-color:#000000;solid-opacity:1;fill:#182124;fill-opacity:1;fill-rule:nonzero;stroke:none;stroke-width:3.02117038;stroke-linecap:butt;stroke-linejoin:miter;stroke-miterlimit:4;stroke-dasharray:none;stroke-dashoffset:0;stroke-opacity:1;color-rendering:auto;image-rendering:auto;shape-rendering:auto;text-rendering:auto;enable-background:accumulate" />
    <path
       d="m 72.435486,16.627964 c 0.904122,0 1.651004,0.196647 2.240648,0.589644 0.589644,0.353787 0.884466,0.825502 0.884466,1.415146 l 0,23.880585 c 0,0.511015 -0.294822,0.982731 -0.884466,1.415146 -0.589644,0.432416 -1.336526,0.648609 -2.240648,0.648609 -0.904122,0 -1.651003,-0.216105 -2.240647,-0.648609 -0.550336,-0.432415 -0.825502,-0.904131 -0.825502,-1.415146 l 0,-23.880585 c 0,-0.589644 0.275157,-1.061359 0.825502,-1.415146 0.589644,-0.393086 1.336525,-0.589644 2.240647,-0.589644 z"
       style="font-style:normal;font-variant:normal;font-weight:600;font-stretch:normal;font-size:medium;line-height:125%;font-family:Dosis;-inkscape-font-specification:'Dosis Semi-Bold';letter-spacing:0px;word-spacing:0px;fill:#182124;fill-opacity:1;stroke:none;stroke-width:1px;stroke-linecap:butt;stroke-linejoin:miter;stroke-opacity:1"
       id="path4317"
       inkscape:connector-curvature="0"
       sodipodi:nodetypes="scsssscsscs" />
    <path
       d="m 119.59395,40.272692 q 1.47412,0 2.41755,-0.235858 0.94343,-0.294822 1.53307,-0.707573 0.58964,-0.471715 0.8255,-1.061359 0.23586,-0.589644 0.23586,-1.179288 0,-1.533075 -1.06136,-2.358577 -1.06136,-0.884466 -2.6534,-1.415145 -1.53307,-0.53068 -3.41993,-1.002395 -1.8279,-0.53068 -3.41994,-1.356182 -1.53307,-0.884466 -2.59443,-2.299612 -1.06136,-1.415145 -1.06136,-3.89165 0,-1.533075 0.53068,-3.007185 0.53068,-1.533075 1.70996,-2.712363 1.17929,-1.238253 3.12512,-2.00479 1.94582,-0.766537 4.71715,-0.766537 1.651,0 3.24304,0.294822 1.59204,0.235857 2.8303,0.766537 1.23825,0.471715 2.00478,1.120324 0.76654,0.589644 0.76654,1.297217 0,0.353786 -0.17689,0.884466 -0.11793,0.471715 -0.47172,0.943431 -0.29482,0.471715 -0.76653,0.825501 -0.41275,0.353787 -0.94343,0.353787 -0.47172,0 -1.06136,-0.235858 -0.58965,-0.294822 -1.35618,-0.589644 -0.76654,-0.353786 -1.76894,-0.589644 -0.94343,-0.294822 -2.18168,-0.294822 -2.59443,0 -3.71476,1.179288 -1.06136,1.120324 -1.06136,2.240648 0,1.297216 1.06136,2.004789 1.06136,0.648609 2.6534,1.179289 1.59204,0.471715 3.41994,1.002394 1.88686,0.471716 3.4789,1.415146 1.59204,0.943431 2.65339,2.53547 1.06136,1.592039 1.06136,4.245437 0,3.773722 -2.71236,6.01437 -2.6534,2.181683 -7.66537,2.181683 -2.18168,0 -4.06855,-0.412751 -1.82789,-0.412751 -3.18407,-1.061359 -1.35619,-0.707573 -2.12272,-1.533075 -0.76654,-0.884466 -0.76654,-1.709968 0,-0.825501 0.58964,-1.768932 0.58965,-1.002395 1.53308,-1.002395 0.58964,0 1.17929,0.412751 0.58964,0.412751 1.41514,0.94343 0.8255,0.53068 2.06376,0.943431 1.29721,0.412751 3.18407,0.412751 z"
       style="font-style:normal;font-variant:normal;font-weight:600;font-stretch:normal;font-size:medium;line-height:125%;font-family:Dosis;-inkscape-font-specification:'Dosis Semi-Bold';letter-spacing:0px;word-spacing:0px;fill:#182124;fill-opacity:1;stroke:none;stroke-width:1px;stroke-linecap:butt;stroke-linejoin:miter;stroke-opacity:1"
       id="path4321"
       inkscape:connector-curvature="0" />
    <path
       d="m 149.74504,27.418451 9.25741,13.325956 q 0.35378,0.53068 0.35378,1.061359 0,0.53068 -0.35378,1.120324 -0.29482,0.53068 -0.8255,1.002395 -0.53068,0.412751 -1.17929,0.707573 -0.58965,0.294822 -1.12033,0.294822 -1.06135,0 -1.651,-0.884466 l -8.66777,-12.795277 -4.3044,3.891651 0,7.370551 q 0,0.766538 -0.94343,1.415146 -0.88447,0.648609 -2.24065,0.648609 -1.35618,0 -2.18168,-0.648609 -0.8255,-0.648608 -0.8255,-1.415146 l 0,-40.5085479 q 0,-0.8844662 0.8255,-1.41514584 0.8255,-0.5896440753439 2.18168,-0.5896440753439 1.35618,0 2.24065,0.5896440753439 0.94343,0.53067964 0.94343,1.41514584 l 0,26.2391619 12.32356,-11.321167 q 0.53068,-0.530679 1.29722,-0.530679 0.53068,0 1.06136,0.294822 0.53068,0.235857 0.94343,0.648608 0.47172,0.412751 0.70757,0.943431 0.29482,0.530679 0.29482,1.061359 0,0.766537 -0.53067,1.297217 l -7.60641,6.780907 z"
       style="font-style:normal;font-variant:normal;font-weight:600;font-stretch:normal;font-size:medium;line-height:125%;font-family:Dosis;-inkscape-font-specification:'Dosis Semi-Bold';letter-spacing:0px;word-spacing:0px;fill:#182124;fill-opacity:1;stroke:none;stroke-width:1px;stroke-linecap:butt;stroke-linejoin:miter;stroke-opacity:1"
       id="path4323"
       inkscape:connector-curvature="0" />
    <path
       d="m 173.84398,16.274178 q 2.41754,0 4.59922,0.94343 2.24065,0.884466 3.89165,2.476505 1.70997,1.592039 2.71236,3.714758 1.0024,2.122719 1.0024,4.481295 l 0,5.424726 q 0,2.299612 -1.0024,4.42233 -1.00239,2.122719 -2.71236,3.773722 -1.651,1.592039 -3.89165,2.594434 -2.18168,0.943431 -4.59922,0.943431 -2.47651,0 -4.71716,-0.943431 -2.18168,-1.002395 -3.89165,-2.594434 -1.651,-1.651003 -2.6534,-3.773722 -0.94343,-2.122718 -0.94343,-4.42233 l 0,-5.424726 q 0,-2.299612 0.94343,-4.42233 1.0024,-2.122719 2.6534,-3.714758 1.65101,-1.592039 3.83269,-2.53547 2.24065,-0.94343 4.77612,-0.94343 z m 6.01437,11.615988 q 0,-1.120324 -0.47172,-2.240647 -0.47172,-1.120324 -1.29722,-1.945826 -0.8255,-0.884466 -1.94582,-1.415146 -1.06136,-0.530679 -2.29961,-0.530679 -1.23826,0 -2.35858,0.530679 -1.12032,0.53068 -1.94583,1.415146 -0.76653,0.825502 -1.23825,1.945826 -0.47171,1.120323 -0.47171,2.240647 l 0,5.424726 q 0,1.179288 0.47171,2.299612 0.47172,1.120323 1.23825,2.004789 0.82551,0.884467 1.94583,1.415146 1.12032,0.53068 2.35858,0.53068 1.23825,0 2.29961,-0.53068 1.12032,-0.530679 1.94582,-1.415146 0.8255,-0.884466 1.29722,-2.004789 0.47172,-1.120324 0.47172,-2.299612 l 0,-5.424726 z"
       style="font-style:normal;font-variant:normal;font-weight:600;font-stretch:normal;font-size:medium;line-height:125%;font-family:Dosis;-inkscape-font-specification:'Dosis Semi-Bold';letter-spacing:0px;word-spacing:0px;fill:#182124;fill-opacity:1;stroke:none;stroke-width:1px;stroke-linecap:butt;stroke-linejoin:miter;stroke-opacity:1"
       id="path4325"
       inkscape:connector-curvature="0" />
    <path
       d="m 236.00075,16.627964 c 0.90412,0 1.651,0.196647 2.24065,0.589644 0.58964,0.353787 0.88446,0.825502 0.88446,1.415146 l 0,23.880585 c 0,0.511015 -0.29482,0.982731 -0.88446,1.415146 -0.58965,0.432416 -1.33653,0.648609 -2.24065,0.648609 -0.90412,0 -1.65101,-0.216105 -2.24065,-0.648609 -0.55033,-0.432415 -0.8255,-0.904131 -0.8255,-1.415146 l 0,-23.880585 c 0,-0.589644 0.27516,-1.061359 0.8255,-1.415146 0.58964,-0.393086 1.33653,-0.589644 2.24065,-0.589644 z"
       style="font-style:normal;font-variant:normal;font-weight:600;font-stretch:normal;font-size:20px;line-height:125%;font-family:Dosis;-inkscape-font-specification:'Dosis Semi-Bold';letter-spacing:0px;word-spacing:0px;fill:#81a1ab;fill-opacity:1;stroke:none;stroke-width:1px;stroke-linecap:butt;stroke-linejoin:miter;stroke-opacity:1"
       id="path4317-0"
       inkscape:connector-curvature="0"
       sodipodi:nodetypes="scsssscsscs" />
    <path
       d="m 257.92426,16.274178 q 2.41755,0 4.59923,0.94343 2.24065,0.884466 3.89165,2.476505 1.70997,1.592039 2.71236,3.714758 1.0024,2.122719 1.0024,4.481295 l 0,5.424726 q 0,2.299612 -1.0024,4.42233 -1.00239,2.122719 -2.71236,3.773722 -1.651,1.592039 -3.89165,2.594434 -2.18168,0.943431 -4.59923,0.943431 -2.4765,0 -4.71715,-0.943431 -2.18168,-1.002395 -3.89165,-2.594434 -1.651,-1.651003 -2.6534,-3.773722 -0.94343,-2.122718 -0.94343,-4.42233 l 0,-5.424726 q 0,-2.299612 0.94343,-4.42233 1.0024,-2.122719 2.6534,-3.714758 1.651,-1.592039 3.83269,-2.53547 2.24065,-0.94343 4.77611,-0.94343 z m 6.01438,11.615988 q 0,-1.120324 -0.47172,-2.240647 -0.47171,-1.120324 -1.29722,-1.945826 -0.8255,-0.884466 -1.94582,-1.415146 -1.06136,-0.530679 -2.29962,-0.530679 -1.23825,0 -2.35857,0.530679 -1.12033,0.53068 -1.94582,1.415146 -0.76654,0.825502 -1.23826,1.945826 -0.47171,1.120323 -0.47171,2.240647 l 0,5.424726 q 0,1.179288 0.47171,2.299612 0.47172,1.120323 1.23826,2.004789 0.82549,0.884467 1.94582,1.415146 1.12032,0.53068 2.35857,0.53068 1.23826,0 2.29962,-0.53068 1.12032,-0.530679 1.94582,-1.415146 0.82551,-0.884466 1.29722,-2.004789 0.47172,-1.120324 0.47172,-2.299612 l 0,-5.424726 z"
       style="font-style:normal;font-variant:normal;font-weight:600;font-stretch:normal;font-size:20px;line-height:125%;font-family:Dosis;-inkscape-font-specification:'Dosis Semi-Bold';letter-spacing:0px;word-spacing:0px;fill:#81a1ab;fill-opacity:1;stroke:none;stroke-width:1px;stroke-linecap:butt;stroke-linejoin:miter;stroke-opacity:1"
       id="path4325-2"
       inkscape:connector-curvature="0" />
    <circle
       style="font-style:normal;font-weight:normal;font-size:medium;line-height:125%;font-family:Sans;letter-spacing:0px;word-spacing:0px;opacity:1;fill:#182124;fill-opacity:1;stroke:none;stroke-width:0.67837536;stroke-linecap:round;stroke-linejoin:round;stroke-miterlimit:4;stroke-dasharray:none;stroke-dashoffset:0;stroke-opacity:1"
       id="path4833"
       cx="72.464966"
       cy="10.232113"
       r="3.6516855" />
    <circle
       r="3.6516855"
       cy="10.232113"
       cx="236.03023"
       id="circle4835"
       style="font-style:normal;font-weight:normal;font-size:medium;line-height:125%;font-family:Sans;letter-spacing:0px;word-spacing:0px;opacity:1;fill:#81a1ab;fill-opacity:1;stroke:none;stroke-width:0.67837536;stroke-linecap:round;stroke-linejoin:round;stroke-miterlimit:4;stroke-dasharray:none;stroke-dashoffset:0;stroke-opacity:1" />
    <circle
       style="font-style:normal;font-weight:normal;font-size:medium;line-height:125%;font-family:Sans;letter-spacing:0px;word-spacing:0px;opacity:1;fill:#81a1ab;fill-opacity:1;stroke:none;stroke-width:0.67837536;stroke-linecap:round;stroke-linejoin:round;stroke-miterlimit:4;stroke-dasharray:none;stroke-dashoffset:0;stroke-opacity:1"
       id="circle4839"
       cx="224.03023"
       cy="40.925392"
       r="3.6516855" />
  </g>
  <flowRoot
     xml:space="preserve"
     id="flowRoot4854"
     style="font-style:normal;font-weight:normal;font-size:20px;line-height:125%;font-family:Sans;letter-spacing:0px;word-spacing:0px;fill:#000000;fill-opacity:1;stroke:none;stroke-width:1px;stroke-linecap:butt;stroke-linejoin:miter;stroke-opacity:1"
     transform="translate(143.68651,-106.2556)"><flowRegion
       id="flowRegion4856"><rect
         id="rect4858"
         width="292.63028"
         height="74.662872"
         x="-367.29315"
         y="-70.335251" /></flowRegion><flowPara
       id="flowPara4860" /></flowRoot></svg>
