<?xml version="1.0" encoding="UTF-8" standalone="no"?>
<svg
   xmlns:dc="http://purl.org/dc/elements/1.1/"
   xmlns:cc="http://creativecommons.org/ns#"
   xmlns:rdf="http://www.w3.org/1999/02/22-rdf-syntax-ns#"
   xmlns:svg="http://www.w3.org/2000/svg"
   xmlns="http://www.w3.org/2000/svg"
   xmlns:xlink="http://www.w3.org/1999/xlink"
   xmlns:sodipodi="http://sodipodi.sourceforge.net/DTD/sodipodi-0.dtd"
   xmlns:inkscape="http://www.inkscape.org/namespaces/inkscape"
   width="120.36778mm"
   height="26.513197mm"
   viewBox="0 0 426.50004 93.944392"
   id="svg9928"
   version="1.1"
   inkscape:version="0.91 r13725"
   sodipodi:docname="inskop_tagline.svg">
  <defs
     id="defs9930">
    <linearGradient
       inkscape:collect="always"
       xlink:href="#linearGradient6257"
       id="linearGradient6263"
       x1="-344.14893"
       y1="-314.35541"
       x2="-257.97873"
       y2="-352.65329"
       gradientUnits="userSpaceOnUse"
       gradientTransform="matrix(0.85178199,0,0,0.85178199,-103.15161,286.97423)" />
    <linearGradient
       inkscape:collect="always"
       id="linearGradient6257">
      <stop
         style="stop-color:#3ebdee;stop-opacity:1"
         offset="0"
         id="stop6259" />
      <stop
         style="stop-color:#d1eefb;stop-opacity:0"
         offset="1"
         id="stop6261" />
    </linearGradient>
  </defs>
  <sodipodi:namedview
     id="base"
     pagecolor="#ffffff"
     bordercolor="#666666"
     borderopacity="1.0"
     inkscape:pageopacity="0.0"
     inkscape:pageshadow="2"
     inkscape:zoom="2.49"
     inkscape:cx="242.9857"
     inkscape:cy="-32.266869"
     inkscape:document-units="px"
     inkscape:current-layer="g7131"
     showgrid="false"
     inkscape:window-width="1920"
     inkscape:window-height="1031"
     inkscape:window-x="1273"
     inkscape:window-y="0"
     inkscape:window-maximized="0"
     fit-margin-top="0"
     fit-margin-left="0"
     fit-margin-right="0"
     fit-margin-bottom="0"
     borderlayer="false" />
  <metadata
     id="metadata9933">
    <rdf:RDF>
      <cc:Work
         rdf:about="">
        <dc:format>image/svg+xml</dc:format>
        <dc:type
           rdf:resource="http://purl.org/dc/dcmitype/StillImage" />
        <dc:title />
      </cc:Work>
    </rdf:RDF>
  </metadata>
  <g
     inkscape:label="Calque 1"
     inkscape:groupmode="layer"
     id="layer1"
     transform="translate(198.92143,-320.4633)">
    <g
       transform="matrix(1.5785862,0,0,1.5785862,206.28751,287.95857)"
       id="g6281"
       style="font-style:normal;font-variant:normal;font-weight:normal;font-stretch:normal;font-size:medium;line-height:125%;font-family:Sans;-inkscape-font-specification:'Blogger Sans';letter-spacing:0px;word-spacing:0px;fill:#000000;fill-opacity:1;stroke:none;stroke-width:1px;stroke-linecap:butt;stroke-linejoin:miter;stroke-opacity:1">
      <g
         id="g6465">
        <g
           transform="matrix(1.072077,0,0,1.072077,180.51467,54.765339)"
           style="font-style:normal;font-variant:normal;font-weight:normal;font-stretch:normal;font-size:medium;line-height:125%;font-family:Sans;-inkscape-font-specification:'Blogger Sans';letter-spacing:0px;word-spacing:0px;fill:#000000;fill-opacity:1;stroke:none;stroke-width:1px;stroke-linecap:butt;stroke-linejoin:miter;stroke-opacity:1"
           id="g7131">
          <path
             style="font-style:normal;font-variant:normal;font-weight:normal;font-stretch:normal;font-size:20px;line-height:125%;font-family:Sans;-inkscape-font-specification:'Blogger Sans';letter-spacing:0px;word-spacing:0px;opacity:1;fill:url(#linearGradient6263);fill-opacity:1;stroke:none;stroke-width:10;stroke-linecap:round;stroke-linejoin:round;stroke-miterlimit:4;stroke-dasharray:none;stroke-dashoffset:0;stroke-opacity:1"
             d="m -345.97282,-31.876724 a 26.963824,26.963824 0 0 0 -21.22135,10.379424 20.757901,20.757901 0 0 0 -7.21686,-1.324249 20.757901,20.757901 0 0 0 -20.75886,20.7588764 20.757901,20.757901 0 0 0 0.21628,2.81653498 l -1.41743,0 -0.82847,0 0,0.0316 c -5.98047,0.43405002 -10.61178,5.41135002 -10.61235,11.40755962 0.007,5.99218 4.63585,10.96548 10.61235,11.39924 l 0,0.0417 0.82847,0 74.73388,0 0,-0.0183 c 0.11531,0.008 0.23054,0.0143 0.34605,0.0183 6.31807,9e-5 11.43929,-5.12278 11.43917,-11.44084 1.1e-4,-5.7624696 -4.26422,-10.5155796 -9.80715,-11.30939962 a 26.963824,26.963824 0 0 0 0.64884,-5.79611498 26.963824,26.963824 0 0 0 -26.96257,-26.9642374 z"
             id="path4220-4"
             inkscape:connector-curvature="0" />
          <g
             transform="matrix(0.83071758,0,0,0.83071758,-154.94536,57.202172)"
             id="g6269"
             style="fill:#3ebdee;fill-opacity:1">
            <g
               id="flowRoot4698"
               style="font-style:normal;font-weight:normal;font-size:20px;line-height:125%;font-family:Sans;letter-spacing:0px;word-spacing:0px;fill:#3ebdee;fill-opacity:1;stroke:none;stroke-width:1px;stroke-linecap:butt;stroke-linejoin:miter;stroke-opacity:1"
               transform="matrix(1.3977531,0,0,1.4743695,-20.646777,-52.672091)">
              <path
                 inkscape:connector-curvature="0"
                 id="path6308"
                 style="font-style:normal;font-variant:normal;font-weight:300;font-stretch:normal;font-size:21.06898499px;font-family:'Blogger Sans';-inkscape-font-specification:'Blogger Sans Light';fill:#3ebdee;fill-opacity:1"
                 d="m -148.02077,-5.1156266 c 0,2.1490365 1.13773,3.8134863 3.75028,3.8134863 0.9481,0 2.84431,-0.2528278 2.84431,-1.1377252 0,-0.3160347 -0.25283,-0.5899316 -0.56886,-0.5899316 -0.0843,0 -0.16855,0.021069 -0.31603,0.063207 l 0.0211,0 c -0.50565,0.2528278 -0.99024,0.5056556 -1.81193,0.5056556 -1.833,0 -2.54935,-0.9902423 -2.54935,-2.6546921 l 0,-3.2867616 c 0,-1.6855188 0.71635,-2.6757608 2.54935,-2.6757608 0.77955,0 1.28521,0.252828 1.81193,0.526724 l -0.0211,0 c 0.10534,0.02107 0.18962,0.04214 0.31603,0.04214 0.31603,0 0.56886,-0.252828 0.56886,-0.568862 0,-0.905967 -1.89621,-1.158794 -2.84431,-1.158794 -2.61255,0 -3.75028,1.685518 -3.75028,3.8345548 l 0,3.2867616 z" />
              <path
                 inkscape:connector-curvature="0"
                 id="path6310"
                 style="font-style:normal;font-variant:normal;font-weight:300;font-stretch:normal;font-size:21.06898499px;font-family:'Blogger Sans';-inkscape-font-specification:'Blogger Sans Light';fill:#3ebdee;fill-opacity:1"
                 d="m -135.93409,-1.3021403 c 2.54935,0 3.89777,-1.6012428 3.89777,-3.6870724 l 0,-3.6238654 c 0,-2.0858299 -1.34842,-3.7081409 -3.89777,-3.7081409 -2.52827,0 -3.89776,1.622311 -3.89776,3.7081409 l 0,3.6238654 c 0,2.0858296 1.36949,3.6870724 3.89776,3.6870724 z m 0,-1.2430701 c -1.66445,0 -2.52827,-0.9270353 -2.52827,-2.4440023 l 0,-3.6449344 c 0,-1.5169669 0.86382,-2.4650709 2.52827,-2.4650709 1.68552,0 2.52828,0.948104 2.52828,2.4650709 l 0,3.6449344 c 0,1.516967 -0.84276,2.4440023 -2.52828,2.4440023 z" />
              <path
                 inkscape:connector-curvature="0"
                 id="path6312"
                 style="font-style:normal;font-variant:normal;font-weight:300;font-stretch:normal;font-size:21.06898499px;font-family:'Blogger Sans';-inkscape-font-specification:'Blogger Sans Light';fill:#3ebdee;fill-opacity:1"
                 d="m -128.45789,-11.26777 c -0.23176,-0.463518 -0.54779,-0.653139 -0.82169,-0.653139 -0.31603,0 -0.611,0.252828 -0.611,0.611001 0,0.126414 0.0421,0.252828 0.12642,0.358173 0.29496,0.421379 0.37924,0.863828 0.37924,1.6012425 l 0,7.3741447 c 0,0.3792417 0.23176,0.6531385 0.69527,0.6531385 0.44245,0 0.67421,-0.2738968 0.67421,-0.6531385 l 0,-7.3741447 c 0,-0.2738969 -0.0211,-0.5056557 -0.0632,-0.7584835 0.67421,-0.505656 1.70659,-0.969173 2.67577,-0.969173 1.68551,0 1.95941,1.1587939 1.95941,2.8021747 l 0,6.2996265 c 0,0.3792417 0.23176,0.6531385 0.69528,0.6531385 0.46351,0 0.6742,-0.2738968 0.6742,-0.6531385 l 0,-6.7842132 c 0,-0.4003107 -0.0421,-0.7374144 -0.10534,-1.0534492 0.56886,-0.7163458 1.5591,-1.2641388 2.54935,-1.2641388 1.45376,0 2.12796,1.053449 2.12796,2.359726 l 0,6.7420752 c 0,0.3792417 0.25283,0.6531385 0.69528,0.6531385 0.46352,0 0.67421,-0.2738968 0.67421,-0.6531385 l 0,-6.7842132 c 0,-2.106898 -1.20093,-3.539589 -3.43425,-3.539589 -1.15879,0 -2.21224,0.442448 -3.18141,1.179863 -0.58993,-0.758484 -1.36949,-1.179863 -2.48614,-1.179863 -1.11666,0 -2.21225,0.379241 -3.22356,1.03238 z" />
              <path
                 inkscape:connector-curvature="0"
                 id="path6314"
                 style="font-style:normal;font-variant:normal;font-weight:300;font-stretch:normal;font-size:21.06898499px;font-family:'Blogger Sans';-inkscape-font-specification:'Blogger Sans Light';fill:#3ebdee;fill-opacity:1"
                 d="m -108.98389,-1.3232093 c 2.63362,0 3.45531,-1.7276567 3.45531,-4.213797 l 0,-2.823244 c 0,-2.3386577 -1.09558,-3.9398997 -3.26569,-3.9398997 -1.07452,0 -2.1701,0.442448 -3.22355,1.011311 -0.23176,-0.337104 -0.52673,-0.589932 -0.80063,-0.589932 -0.31603,0 -0.611,0.252828 -0.611,0.611001 0,0.126414 0.0421,0.252828 0.12642,0.358173 0.29496,0.421379 0.37924,0.863828 0.37924,1.6012424 l 0,11.7354247 c 0,0.3581727 0.23176,0.6531385 0.69528,0.6531385 0.42138,0 0.6742,-0.2949658 0.6742,-0.6531385 l 0,-4.1927281 c 0.86383,0.2738969 1.81194,0.4424487 2.57042,0.4424487 z m -2.57042,-7.9851453 c 0,-0.3371037 -0.0421,-0.6531385 -0.10534,-0.9691734 0.82169,-0.505656 1.74872,-0.842759 2.50721,-0.842759 1.53803,0 2.25438,0.969173 2.25438,2.7600367 l 0,2.823244 c 0,2.1279675 -0.611,3.0760718 -2.29652,3.0760718 -0.58993,0 -1.60124,-0.1685518 -2.35973,-0.5056556 l 0,-6.3417645 z" />
              <path
                 inkscape:connector-curvature="0"
                 id="path6316"
                 style="font-style:normal;font-variant:normal;font-weight:300;font-stretch:normal;font-size:21.06898499px;font-family:'Blogger Sans';-inkscape-font-specification:'Blogger Sans Light';fill:#3ebdee;fill-opacity:1"
                 d="m -96.838278,-3.9779014 c 0,0.2738968 0.02107,0.4845867 0.04214,0.6952765 -0.779552,0.5056557 -1.66445,0.8006215 -2.549347,0.8006215 -1.411625,0 -2.170105,-1.0113113 -2.170105,-2.7389681 l 0,-6.3417645 c 0,-0.379242 -0.23176,-0.674207 -0.67421,-0.674207 -0.44245,0 -0.69528,0.294965 -0.69528,0.674207 l 0,6.3417645 c 0,2.3386573 1.11666,3.9188312 3.307836,3.9188312 0.990243,0 2.106899,-0.2317588 3.11821,-0.8216904 0.273897,0.4213797 0.547794,0.6952765 0.905966,0.6952765 0.337104,0 0.63207,-0.2528278 0.63207,-0.5899316 0,-0.2106898 -0.189621,-0.4424487 -0.316035,-0.5899316 -0.126414,-0.1474828 -0.231759,-0.3160347 -0.231759,-1.369484 l 0,-7.5848346 c 0,-0.379242 -0.231759,-0.674207 -0.674207,-0.674207 -0.463518,0 -0.695277,0.294965 -0.695277,0.674207 l 0,7.5848346 z" />
              <path
                 inkscape:connector-curvature="0"
                 id="path6318"
                 style="font-style:normal;font-variant:normal;font-weight:300;font-stretch:normal;font-size:21.06898499px;font-family:'Blogger Sans';-inkscape-font-specification:'Blogger Sans Light';fill:#3ebdee;fill-opacity:1"
                 d="m -92.143846,-5.7055581 c 0,2.8864509 0.716346,4.3191419 3.623866,4.3191419 0.505655,0 1.053449,-0.063207 1.053449,-0.6531386 0,-0.5688626 -0.547794,-0.6320695 -0.948104,-0.6320695 -0.147483,0 -0.273897,0.021069 -0.42138,0.021069 -1.706588,0 -1.959416,-0.8638284 -1.959416,-3.2024857 l 0,-4.508763 2.444003,0 c 0.337103,0 0.611,-0.273897 0.611,-0.611 0,-0.379242 -0.273897,-0.653139 -0.611,-0.653139 l -2.444003,0 0,-3.160348 c 0,-0.358172 -0.231758,-0.674207 -0.674207,-0.674207 -0.442449,0 -0.674208,0.316035 -0.674208,0.674207 l 0,9.0807329 z" />
              <path
                 inkscape:connector-curvature="0"
                 id="path6320"
                 style="font-style:normal;font-variant:normal;font-weight:300;font-stretch:normal;font-size:21.06898499px;font-family:'Blogger Sans';-inkscape-font-specification:'Blogger Sans Light';fill:#3ebdee;fill-opacity:1"
                 d="m -82.170645,-2.4609345 c -1.685519,0 -2.549347,-0.8638283 -2.549347,-2.1490364 l 0,-1.495898 c 0.82169,0.1685519 1.685519,0.2317589 2.380795,0.2317589 2.465072,0 3.497452,-1.1587942 3.497452,-3.0550028 0,-2.0436912 -1.116656,-3.3710372 -3.413176,-3.3710372 -2.48614,0 -3.834555,1.516966 -3.834555,3.51852 l 0,4.0452452 c 0,1.9383466 1.348415,3.4342445 3.708141,3.4342445 1.116657,0 3.349969,-0.2949658 3.349969,-1.2430701 0,-0.2949658 -0.252828,-0.5899316 -0.589932,-0.5899316 -0.08428,0 -0.18962,0.042138 -0.231758,0.063207 -0.758484,0.3371037 -1.348415,0.6110005 -2.317589,0.6110005 z m 1.980485,-6.4681783 c 0,0.9902422 -0.294966,1.9383466 -2.064761,1.9383466 -0.442448,0 -1.559105,-0.042138 -2.465071,-0.1685519 l 0,-1.7908637 c 0,-1.3062772 0.884897,-2.1490362 2.401864,-2.1490362 1.348415,0 2.127968,0.632069 2.127968,2.1701052 z" />
              <path
                 inkscape:connector-curvature="0"
                 id="path6322"
                 style="font-style:normal;font-variant:normal;font-weight:300;font-stretch:normal;font-size:21.06898499px;font-family:'Blogger Sans';-inkscape-font-specification:'Blogger Sans Light';fill:#3ebdee;fill-opacity:1"
                 d="m -74.827114,-9.3083546 c 0,-0.6320695 -0.02107,-0.6531385 -0.02107,-0.6531385 l 0,-0.021069 c 1.158794,-0.8638279 1.959416,-0.8638279 2.90752,-0.8427589 0.358173,0.02107 0.674208,-0.294966 0.674208,-0.716346 0,-0.379242 -0.231759,-0.674208 -0.969174,-0.674208 -0.779552,0 -2.022622,0.358173 -3.012864,0.990243 -0.231759,-0.379242 -0.547794,-0.653139 -0.821691,-0.653139 -0.337104,0 -0.632069,0.252828 -0.632069,0.611001 0,0.126414 0.04214,0.252828 0.126413,0.358173 0.294966,0.421379 0.379242,0.863828 0.379242,1.6012424 l 0,7.3320068 c 0,0.3792417 0.294966,0.6742075 0.695277,0.6742075 0.358172,0 0.674207,-0.2949658 0.674207,-0.6742075 l 0,-7.3320068 z" />
              <path
                 inkscape:connector-curvature="0"
                 id="path6324"
                 style="font-style:normal;font-variant:normal;font-weight:300;font-stretch:normal;font-size:21.06898499px;font-family:'Blogger Sans';-inkscape-font-specification:'Blogger Sans Light';fill:#3ebdee;fill-opacity:1"
                 d="m -55.956215,-11.373115 c 0.02107,-0.06321 0.02107,-0.105345 0.02107,-0.168552 0,-0.379242 -0.316035,-0.674208 -0.674208,-0.695276 -0.337104,-0.02107 -0.547794,0.231758 -0.611001,0.442448 l -2.654692,8.701491 -2.69683,-8.701491 c -0.105345,-0.358173 -0.358173,-0.442448 -0.589931,-0.442448 -0.442449,0 -0.821691,0.379241 -0.674208,0.800621 l 3.012865,9.2703533 c 0.189621,0.5899316 0.463518,0.8638284 0.948104,0.8638284 0.484587,0 0.758484,-0.2528278 0.969174,-0.8848974 l 2.949658,-9.1860773 z" />
              <path
                 inkscape:connector-curvature="0"
                 id="path6326"
                 style="font-style:normal;font-variant:normal;font-weight:300;font-stretch:normal;font-size:21.06898499px;font-family:'Blogger Sans';-inkscape-font-specification:'Blogger Sans Light';fill:#3ebdee;fill-opacity:1"
                 d="m -52.227666,-15.797602 c 0,-0.505656 -0.40031,-0.884897 -0.863828,-0.884897 -0.505656,0 -0.884897,0.379241 -0.884897,0.884897 0,0.463518 0.379241,0.863828 0.884897,0.863828 0.463518,0 0.863828,-0.40031 0.863828,-0.863828 z m -0.18962,13.8212542 0,-9.5653192 c 0,-0.379242 -0.316035,-0.695276 -0.674208,-0.695276 -0.400311,0 -0.695277,0.316034 -0.695277,0.695276 l 0,9.5653192 c 0,0.3792417 0.294966,0.6742075 0.695277,0.6742075 0.358173,0 0.674208,-0.2949658 0.674208,-0.6742075 z" />
              <path
                 inkscape:connector-curvature="0"
                 id="path6328"
                 style="font-style:normal;font-variant:normal;font-weight:300;font-stretch:normal;font-size:21.06898499px;font-family:'Blogger Sans';-inkscape-font-specification:'Blogger Sans Light';fill:#3ebdee;fill-opacity:1"
                 d="m -49.276034,-9.3294236 c 0,2.5282782 2.549347,2.7389681 4.192728,3.5606585 0.463518,0.2528278 0.863829,0.6531385 0.863829,1.5380359 0,1.2430701 -0.863829,1.7697947 -2.149037,1.7697947 -0.948104,0 -1.643381,-0.2738968 -2.27545,-0.5267246 -0.06321,-0.021069 -0.08428,-0.021069 -0.126414,-0.021069 -0.400311,0 -0.653139,0.3160348 -0.653139,0.6320696 0,0.8638284 1.980485,1.0745182 3.055003,1.0745182 2.296519,0 3.476383,-1.1377252 3.476383,-2.9917959 0,-2.5282781 -2.275451,-2.738968 -3.939901,-3.5606584 -0.82169,-0.4424487 -1.116656,-0.8216904 -1.116656,-1.5801739 0,-1.1166565 0.653139,-1.7065875 2.08583,-1.7065875 0.82169,0 1.24307,0.189621 1.727656,0.421379 0.105345,0.04214 0.189621,0.08428 0.316035,0.08428 0.358173,0 0.611001,-0.273896 0.611001,-0.611 0,-0.800622 -1.643381,-1.053449 -2.717899,-1.053449 -2.191175,0 -3.349969,1.179863 -3.349969,2.9707264 z" />
              <path
                 inkscape:connector-curvature="0"
                 id="path6330"
                 style="font-style:normal;font-variant:normal;font-weight:300;font-stretch:normal;font-size:21.06898499px;font-family:'Blogger Sans';-inkscape-font-specification:'Blogger Sans Light';fill:#3ebdee;fill-opacity:1"
                 d="m -38.812649,-15.797602 c 0,-0.505656 -0.400311,-0.884897 -0.863829,-0.884897 -0.505655,0 -0.884897,0.379241 -0.884897,0.884897 0,0.463518 0.379242,0.863828 0.884897,0.863828 0.463518,0 0.863829,-0.40031 0.863829,-0.863828 z m -0.189621,13.8212542 0,-9.5653192 c 0,-0.379242 -0.316035,-0.695276 -0.674208,-0.695276 -0.400311,0 -0.695276,0.316034 -0.695276,0.695276 l 0,9.5653192 c 0,0.3792417 0.294965,0.6742075 0.695276,0.6742075 0.358173,0 0.674208,-0.2949658 0.674208,-0.6742075 z" />
              <path
                 inkscape:connector-curvature="0"
                 id="path6332"
                 style="font-style:normal;font-variant:normal;font-weight:300;font-stretch:normal;font-size:21.06898499px;font-family:'Blogger Sans';-inkscape-font-specification:'Blogger Sans Light';fill:#3ebdee;fill-opacity:1"
                 d="m -32.152876,-1.3021403 c 2.549347,0 3.897762,-1.6012428 3.897762,-3.6870724 l 0,-3.6238654 c 0,-2.0858299 -1.348415,-3.7081409 -3.897762,-3.7081409 -2.528279,0 -3.897763,1.622311 -3.897763,3.7081409 l 0,3.6238654 c 0,2.0858296 1.369484,3.6870724 3.897763,3.6870724 z m 0,-1.2430701 c -1.66445,0 -2.528279,-0.9270353 -2.528279,-2.4440023 l 0,-3.6449344 c 0,-1.5169669 0.863829,-2.4650709 2.528279,-2.4650709 1.685518,0 2.528278,0.948104 2.528278,2.4650709 l 0,3.6449344 c 0,1.516967 -0.84276,2.4440023 -2.528278,2.4440023 z" />
              <path
                 inkscape:connector-curvature="0"
                 id="path6334"
                 style="font-style:normal;font-variant:normal;font-weight:300;font-stretch:normal;font-size:21.06898499px;font-family:'Blogger Sans';-inkscape-font-specification:'Blogger Sans Light';fill:#3ebdee;fill-opacity:1"
                 d="m -24.592404,-11.225632 c -0.231759,-0.463518 -0.589931,-0.695277 -0.863828,-0.695277 -0.316035,0 -0.611001,0.252828 -0.611001,0.611001 0,0.126414 0.04214,0.252828 0.126414,0.358173 0.294966,0.421379 0.379242,0.863828 0.379242,1.6012425 l 0,7.3741447 c 0,0.3792417 0.231759,0.6531385 0.695277,0.6531385 0.442448,0 0.674207,-0.2738968 0.674207,-0.6531385 l 0,-7.3741447 c 0,-0.2317589 -0.02107,-0.4845867 -0.06321,-0.7163455 0.800622,-0.611001 1.685519,-1.011311 2.570416,-1.011311 1.411622,0 2.149037,1.011311 2.149037,2.7600367 l 0,6.3417645 c 0,0.3792417 0.252828,0.6531385 0.695276,0.6531385 0.442449,0 0.674208,-0.2738968 0.674208,-0.6531385 l 0,-6.3417645 c 0,-2.3597267 -1.074518,-3.9398997 -3.265693,-3.9398997 -1.03238,0 -2.127967,0.316034 -3.160348,1.03238 z" />
              <path
                 inkscape:connector-curvature="0"
                 id="path6336"
                 style="font-style:normal;font-variant:normal;font-weight:300;font-stretch:normal;font-size:21.06898499px;font-family:'Blogger Sans';-inkscape-font-specification:'Blogger Sans Light';fill:#3ebdee;fill-opacity:1"
                 d="m -8.5052381,-3.3458318 c 0,1.8119327 0.7374144,2.0436915 1.2009321,2.0436915 0.3581728,0 0.6110006,-0.2528278 0.6110006,-0.6110005 0,-0.084276 -0.042138,-0.2317589 -0.084276,-0.2949658 -0.2738968,-0.2949658 -0.3792417,-0.6531386 -0.3792417,-1.1377252 l 0,-12.8520812 c 0,-0.379241 -0.2949658,-0.695276 -0.6742075,-0.695276 -0.3792417,0 -0.6742075,0.337104 -0.6742075,0.695276 l 0,12.8520812 z" />
              <path
                 inkscape:connector-curvature="0"
                 id="path6338"
                 style="font-style:normal;font-variant:normal;font-weight:300;font-stretch:normal;font-size:21.06898499px;font-family:'Blogger Sans';-inkscape-font-specification:'Blogger Sans Light';fill:#3ebdee;fill-opacity:1"
                 d="m 1.6398055,-7.1803871 c -0.82169039,-0.2317588 -1.62231182,-0.3792417 -2.33865731,-0.3792417 -2.46507119,0 -3.66600339,1.0534492 -3.66600339,3.0760718 l 0,0.084276 c 0,1.8330017 1.0323803,3.0971408 3.1603478,3.0971408 1.13772514,0 2.12796744,-0.4213797 3.0128648,-1.2641391 0.3792417,0.7374145 0.9481043,1.2009322 1.6012429,1.2009322 0.3792417,0 0.8006214,-0.1474829 0.8006214,-0.5688626 0,-0.2738968 -0.1474829,-0.5688626 -0.4635177,-0.5688626 -0.042138,0 -0.084276,0.021069 -0.1685519,0.021069 -0.3792417,0 -0.5688625,-0.2738968 -0.5688625,-0.8216905 l 0,-4.7615906 c 0,-2.7600366 -1.0323803,-4.2348656 -3.62386547,-4.2348656 -1.41162203,0 -2.97072683,0.358172 -2.88645093,1.24307 0.021069,0.252827 0.1474829,0.547793 0.4635177,0.547793 0.2106898,0 0.3792417,-0.08428 0.5056556,-0.168552 0.4845867,-0.294965 0.9270353,-0.463517 1.70658778,-0.463517 1.66444982,0 2.46507122,0.800621 2.46507122,2.507209 l 0,1.45376 z m -2.35972629,0.7374145 c 0.63206955,0 1.51696692,0.1264139 2.35972629,0.4003107 l 0,2.5282782 c -0.82169039,0.6952765 -1.60124283,1.0323803 -2.57041614,1.0323803 -1.60124286,0 -2.08582956,-0.8006215 -2.08582956,-1.8962087 l 0,-0.084276 c 0,-1.0745183 0.3581728,-1.9804846 2.29651941,-1.9804846 z" />
              <path
                 inkscape:connector-curvature="0"
                 id="path6340"
                 style="font-style:normal;font-variant:normal;font-weight:300;font-stretch:normal;font-size:21.06898499px;font-family:'Blogger Sans';-inkscape-font-specification:'Blogger Sans Light';fill:#3ebdee;fill-opacity:1"
                 d="m 7.7797682,-9.9614931 c 0.6742075,-0.7374149 1.5380359,-1.2009319 2.6546918,-1.2009319 1.559105,0 2.233313,0.779552 2.233313,2.0858293 l 0,4.087383 c 0,1.516967 -0.758484,2.4440023 -2.422934,2.4440023 -1.5169665,0 -2.4650708,-0.7584835 -2.4650708,-2.0015536 l 0,-5.4147291 z m -1.369484,5.4147291 c 0,1.8119327 1.390553,3.2446237 3.8345548,3.2446237 2.528279,0 3.792418,-1.6012428 3.792418,-3.6870724 l 0,-4.087383 c 0,-1.8119323 -0.84276,-3.2235543 -3.181417,-3.2235543 -1.1587942,0 -2.1279675,0.358172 -3.0760718,1.03238 l 0,-4.951212 c 0,-0.337103 -0.2317588,-0.674207 -0.6742075,-0.674207 -0.4424487,0 -0.6952765,0.337104 -0.6952765,0.674207 l 0,11.672218 z" />
            </g>
            <text
               sodipodi:linespacing="125%"
               id="text4806"
               y="-74.611061"
               x="-37.030537"
               style="font-style:normal;font-weight:normal;font-size:13.16832542px;line-height:125%;font-family:Sans;letter-spacing:0px;word-spacing:0px;fill:#3ebdee;fill-opacity:1;stroke:none;stroke-width:1px;stroke-linecap:butt;stroke-linejoin:miter;stroke-opacity:1"
               xml:space="preserve"><tspan
                 y="-74.611061"
                 x="-37.030537"
                 id="tspan4808"
                 sodipodi:role="line" /></text>
            <flowRoot
               transform="matrix(0.65841621,0,0,0.65841621,-264.69979,-142.6334)"
               style="font-style:normal;font-weight:normal;font-size:20px;line-height:125%;font-family:Sans;letter-spacing:0px;word-spacing:0px;fill:#3ebdee;fill-opacity:1;stroke:none;stroke-width:1px;stroke-linecap:butt;stroke-linejoin:miter;stroke-opacity:1"
               id="flowRoot6299"
               xml:space="preserve"><flowRegion
                 id="flowRegion6301"><rect
                   y="2.3564746"
                   x="-87.148598"
                   height="179.91968"
                   width="580.7229"
                   id="rect6303"
                   style="fill:#3ebdee;fill-opacity:1" /></flowRegion><flowPara
                 id="flowPara6305" /></flowRoot>          </g>
        </g>
      </g>
    </g>
    <g
       style="stroke-width:12.7466507;stroke-miterlimit:4;stroke-dasharray:none"
       id="g4320"
       transform="matrix(0.78519788,0,0,0.7652226,-65.431071,424.61354)" />
  </g>
</svg>
