<?xml version="1.0" encoding="UTF-8" standalone="no"?>
<!-- Created with Inkscape (http://www.inkscape.org/) -->

<svg
   xmlns:dc="http://purl.org/dc/elements/1.1/"
   xmlns:cc="http://creativecommons.org/ns#"
   xmlns:rdf="http://www.w3.org/1999/02/22-rdf-syntax-ns#"
   xmlns:svg="http://www.w3.org/2000/svg"
   xmlns="http://www.w3.org/2000/svg"
   xmlns:sodipodi="http://sodipodi.sourceforge.net/DTD/sodipodi-0.dtd"
   xmlns:inkscape="http://www.inkscape.org/namespaces/inkscape"
   width="76.236664mm"
   height="16.366081mm"
   viewBox="0 0 270.12988 57.990053"
   id="svg7985"
   version="1.1"
   inkscape:version="0.91 r13725"
   sodipodi:docname="inskop_logo_light_flat.svg"
   inkscape:export-filename="/Users/vwrobel/Desktop/scopethis-logo-rev.png"
   inkscape:export-xdpi="207"
   inkscape:export-ydpi="207">
  <defs
     id="defs7987" />
  <sodipodi:namedview
     id="base"
     pagecolor="#ffffff"
     bordercolor="#666666"
     borderopacity="1.0"
     inkscape:pageopacity="0.0"
     inkscape:pageshadow="2"
     inkscape:zoom="2.05"
     inkscape:cx="120.64938"
     inkscape:cy="15.911961"
     inkscape:document-units="px"
     inkscape:current-layer="svg7985"
     showgrid="false"
     fit-margin-top="0"
     fit-margin-left="0"
     fit-margin-right="0"
     fit-margin-bottom="0"
     inkscape:window-width="1920"
     inkscape:window-height="1031"
     inkscape:window-x="1368"
     inkscape:window-y="0"
     inkscape:window-maximized="0" />
  <path
     style="opacity:1;fill:#edf1f3;fill-opacity:1;stroke:none;stroke-width:2;stroke-linecap:round;stroke-linejoin:round;stroke-miterlimit:4;stroke-dasharray:none;stroke-dashoffset:0;stroke-opacity:1"
     d="M 22.242428,9.75014 C 21.817891,9.76154 21.399144,9.85205 21.0061,10.01186 13.097871,13.122889 7.886247,20.631283 7.879147,28.966938 c -0.0071,8.333783 5.191606,15.848553 13.091797,18.972656 1.009942,0.421281 2.038335,0.377491 2.849609,-0.0059 0.812503,-0.383757 1.402829,-1.066594 1.726562,-1.845703 0.323742,-0.779131 0.388329,-1.678565 0.07422,-2.517578 -0.312467,-0.834402 -1.025932,-1.565892 -2.044921,-1.949219 -5.31186,-2.09658 -8.755147,-7.087415 -8.748047,-12.648438 0.0071,-5.556974 3.446824,-10.53892 8.753906,-12.630859 1.733553,-0.653364 2.46325,-2.388431 2.160156,-3.857427 -0.302961,-1.46857 -1.646763,-2.78165 -3.5,-2.73242 l 0,-0.002 z m 13.220703,0.002 0,0.002 c -1.851956,-0.0469 -3.194485,1.2641 -3.496094,2.73242 -0.300978,1.46579 0.42717,3.196248 2.152344,3.851566 l 0.01367,0.0059 c 5.307084,2.09197 8.748766,7.073966 8.755859,12.630859 0.0071,5.555153 -3.43174,10.540281 -8.734375,12.640626 l -0.01563,0.0078 c -1.019081,0.383327 -1.732455,1.112873 -2.044922,1.947266 -0.314041,0.839012 -0.249554,1.740411 0.07422,2.519531 0.323823,0.7791 0.91415,1.460003 1.726563,1.84375 0.811263,0.383764 1.839698,0.429114 2.849609,0.0078 C 44.644635,44.817569 49.842272,37.300913 49.836172,28.967049 49.829072,20.631476 44.617667,13.122877 36.709219,10.01197 36.414995,9.89229 36.098189,9.85318 35.783438,9.81666 a 0.89005025,0.89005025 0 0 0 -0.314454,-0.0645 0.89005025,0.89005025 0 0 0 -0.0059,0 z"
     id="path8004"
     inkscape:connector-curvature="0" />
  <path
     inkscape:connector-curvature="0"
     id="path4915"
     d="m 22.242173,9.76367 c -0.424538,0.0114 -0.843285,0.1 -1.236329,0.25977 -7.908229,3.111029 -13.119833,10.621376 -13.126953,18.957031 -0.0051,5.939394 2.643136,11.454977 7.019532,15.269531 -3.166238,-3.629685 -5.023778,-8.30037 -5.019532,-13.269531 0.0071,-8.335655 5.218724,-15.846002 13.126953,-18.957031 0.393044,-0.15981 0.811791,-0.24841 1.236329,-0.25977 l 0,0.002 c 0.49008,-0.013 0.940597,0.0733 1.349609,0.22852 -0.475441,-1.25124 -1.712068,-2.27202 -3.349609,-2.22852 l 0,-0.002 z m 13.220703,0.002 c -1.851956,-0.0469 -3.194485,1.26606 -3.496094,2.73438 -0.301467,1.468172 0.428926,3.200636 2.160156,3.853518 -0.223851,-0.600778 -0.284385,-1.24851 -0.160156,-1.853516 0.301609,-1.468321 1.644138,-2.781302 3.496094,-2.734372 a 0.89005025,0.89005025 0 0 1 0.0059,0 0.89005025,0.89005025 0 0 1 0.314453,0.0645 c 0.314751,0.0365 0.631557,0.0756 0.925781,0.19531 2.285864,0.89918 4.336828,2.174763 6.111328,3.722656 C 42.667946,13.278738 39.91545,11.28681 36.708969,10.02549 36.414745,9.90581 36.097939,9.8667 35.783188,9.83018 a 0.89005025,0.89005025 0 0 0 -0.314453,-0.0645 0.89005025,0.89005025 0 0 0 -0.0059,0 z m 4.427734,10.796882 c 1.90098,2.350871 2.994053,5.295341 2.998047,8.423828 0.0071,5.56085 -3.438099,10.553821 -8.75,12.650391 l 0.01563,-0.0098 c -1.02814,0.38155 -1.746346,1.118008 -2.060547,1.957031 -0.314041,0.839012 -0.249554,1.740412 0.07422,2.519532 0.323823,0.7791 0.914149,1.460003 1.726562,1.84375 0.07896,0.03735 0.169101,0.05514 0.251953,0.08594 -0.299809,-0.763242 -0.357694,-1.634468 -0.05273,-2.449219 0.314201,-0.839023 1.032407,-1.575481 2.060547,-1.957031 l -0.01563,0.0098 c 5.311901,-2.09657 8.757079,-7.089541 8.75,-12.650391 -0.0052,-4.099186 -1.885014,-7.879711 -4.998052,-10.423831 z M 19.820297,39.42969 c 1.474899,1.824142 3.437837,3.290159 5.75586,4.205078 0.0246,0.0093 0.04412,0.02355 0.06836,0.0332 -0.0097,-0.02842 -0.01285,-0.05765 -0.02344,-0.08594 -0.312467,-0.834402 -1.025932,-1.563939 -2.044922,-1.947265 -1.390666,-0.548893 -2.649725,-1.30112 -3.75586,-2.205078 z"
     style="fill:#81a1ab;fill-opacity:1;fill-rule:evenodd;stroke:none;stroke-width:1px;stroke-linecap:butt;stroke-linejoin:miter;stroke-opacity:1" />
  <path
     style="opacity:1;fill:#ff4081;fill-opacity:1;stroke:none;stroke-width:20;stroke-linecap:round;stroke-linejoin:round;stroke-miterlimit:4;stroke-dasharray:none;stroke-dashoffset:0;stroke-opacity:1"
     d="M 28.856999,0.13662 A 28.858136,28.858136 0 0 0 -1.5e-5,28.995063 28.858136,28.858136 0 0 0 28.856999,57.853429 28.858136,28.858136 0 0 0 57.715331,28.995063 28.858136,28.858136 0 0 0 28.856999,0.13662 Z M 35.4621,9.76483 a 0.89005025,0.89005025 0 0 1 0.0071,0 0.89005025,0.89005025 0 0 1 0.314282,0.0654 c 0.314751,0.0365 0.631922,0.075 0.926146,0.19465 7.908447,3.11091 13.118395,10.620623 13.125525,18.956196 0.0061,8.333864 -5.19058,15.848785 -13.090839,18.972874 -1.009911,0.421302 -2.037929,0.377664 -2.849192,-0.0061 -0.812413,-0.383747 -1.403251,-1.066162 -1.727074,-1.845262 -0.323773,-0.77912 -0.389311,-1.679307 -0.07527,-2.518319 0.314201,-0.839023 1.034161,-1.574973 2.062301,-1.956523 l -0.01658,0.0081 c 5.311901,-2.09657 8.756589,-7.08775 8.74951,-12.6486 -0.0071,-5.561755 -3.453884,-10.547422 -8.768878,-12.636159 l 0.01272,0.0051 C 32.396355,15.70503 31.664911,13.970032 31.966722,12.50019 32.268331,11.03186 33.61062,9.71942 35.462576,9.76634 l 0,0 z m -13.22009,0 0,0 c 1.853237,-0.0492 3.197134,1.26391 3.500095,2.73249 0.303094,1.468989 -0.426021,3.204069 -2.159575,3.857433 l 0.01272,-0.0051 c -5.314994,2.088707 -8.760404,7.074242 -8.767514,12.636078 -0.0071,5.561023 3.436205,10.55203 8.748065,12.64861 l -0.01617,-0.0081 c 1.028048,0.38155 1.748008,1.117511 2.062209,1.956543 0.31411,0.839013 0.248572,1.739179 -0.07517,2.51831 -0.323733,0.779109 -0.914611,1.461515 -1.727115,1.845272 -0.811274,0.38335 -1.839322,0.428381 -2.849264,0.0071 C 13.0701,44.829363 7.87249,37.314361 7.87961,28.980578 7.88671,20.644923 13.096852,13.135333 21.005081,10.0243 21.398125,9.86449 21.816731,9.77568 22.241268,9.76433 Z"
     id="path8021"
     inkscape:connector-curvature="0"
     inkscape:export-filename="/Users/vwrobel/Desktop/scopethis-logo-rev.png"
     inkscape:export-xdpi="77.595932"
     inkscape:export-ydpi="77.595932" />
  <path
     inkscape:connector-curvature="0"
     id="path4347"
     d="m 138.07029,0 c -0.90412,0 -1.6313,0.1967477 -2.18164,0.58984375 -0.55033,0.35378643 -0.82617,0.82441835 -0.82617,1.41406245 l 0,40.5097658 c 0,0.511025 0.27584,0.981657 0.82617,1.414062 0.55034,0.432406 1.27752,0.648438 2.18164,0.648438 0.90412,0 1.65059,-0.216032 2.24024,-0.648438 0.62895,-0.432405 0.94336,-0.903037 0.94336,-1.414062 l 0,-7.371094 4.30468,-3.890625 8.66797,12.794922 c 0.3931,0.589644 0.94283,0.884766 1.65039,0.884766 0.35379,0 0.728,-0.09837 1.1211,-0.294922 0.4324,-0.196548 0.8259,-0.433817 1.17968,-0.708985 0.35379,-0.314476 0.62768,-0.648166 0.82422,-1.001953 0.23586,-0.393096 0.35352,-0.765354 0.35352,-1.11914 0,-0.353786 -0.11766,-0.708714 -0.35352,-1.0625 l -9.25781,-13.326172 7.60742,-6.78125 c 0.35378,-0.353787 0.53125,-0.785851 0.53125,-1.296875 0,-0.353787 -0.0984,-0.706761 -0.29492,-1.060547 -0.15723,-0.353787 -0.3945,-0.668192 -0.70898,-0.943359 -0.27517,-0.275168 -0.58958,-0.4912 -0.94336,-0.648438 -0.35379,-0.196548 -0.70676,-0.294922 -1.06055,-0.294922 -0.51103,0 -0.94309,0.175511 -1.29688,0.529297 l -12.32421,11.322266 0,-26.2402348 c 0,-0.5896441 -0.31441,-1.06027602 -0.94336,-1.41406245 C 139.72088,0.1967477 138.97441,0 138.07029,0 Z M 72.464829,6.5800781 a 3.6516855,3.6516855 0 0 0 -3.652344,3.6523439 3.6516855,3.6516855 0 0 0 3.652344,3.652344 3.6516855,3.6516855 0 0 0 3.652344,-3.652344 3.6516855,3.6516855 0 0 0 -3.652344,-3.6523439 z M 204.0449,15.064453 c -3.02649,0 -5.80063,1.079589 -8.33594,2.345703 -0.63541,-0.666033 -1.41881,-1.214844 -2.43554,-1.214844 -1.43031,0 -2.83203,1.123725 -2.83203,2.748047 0,0.67529 0.29237,1.196944 0.53711,1.552735 0.60063,0.873352 0.79882,1.723431 0.79882,3.523437 l 0,30.816407 c 0,0.239395 0.0311,0.475264 0.084,0.705078 l 0,0.439453 c 0,0.536046 0.25595,0.994127 0.76758,1.376953 0.51184,0.421154 1.18668,0.632812 2.02734,0.632812 0.84076,0 1.53754,-0.211688 2.08594,-0.632812 0.50426,-0.330112 0.79019,-0.716184 0.85937,-1.160156 0.21069,-0.416702 0.31446,-0.885074 0.31446,-1.361328 l 0,-9.679688 c 1.89927,0.514848 3.89692,0.855469 5.6621,0.855469 3.87135,0 6.62179,-1.285975 8.28126,-3.5 1.65945,-2.214084 2.23828,-5.225486 2.23828,-8.669922 l 0,-7.335938 c 0,-3.284347 -0.80988,-6.130939 -2.50782,-8.1875 -1.6979,-2.05659 -4.29257,-3.253906 -7.54492,-3.253906 z M 94.476547,15.916016 c -2.474598,0 -5.228927,0.73115 -7.759765,2.474609 -0.674892,-1.01233 -1.575954,-1.630859 -2.644531,-1.630859 -1.687225,0 -2.923828,1.125631 -2.923828,2.58789 0,0.674906 0.223885,1.01064 0.673828,1.685547 0.337444,0.562402 0.732422,0.675773 0.732422,3.150391 l 0,18.052734 c 0,1.574733 1.012436,2.8125 3.037109,2.8125 2.02467,0 3.037109,-1.237767 3.037109,-2.8125 l 0,-18.052734 c 0,-0.393705 -0.05745,-0.843459 -0.169922,-1.34961 1.855949,-1.124834 3.599885,-1.74414 5.28711,-1.74414 2.812045,0 4.443359,2.081799 4.443359,5.625 l 0,15.521484 c 0,1.574733 1.068676,2.8125 3.037102,2.8125 1.91219,0 3.03711,-1.237767 3.03711,-2.8125 l 0,-15.521484 c 0,-6.467718 -3.26316,-10.798828 -9.787103,-10.798828 z m 26.001953,0.357422 c -1.84756,0 -3.41959,0.256553 -4.7168,0.767578 -1.29722,0.511024 -2.33881,1.178404 -3.125,2.003906 -0.78619,0.786192 -1.35715,1.69084 -1.71094,2.71289 -0.35379,0.98274 -0.5293,1.985763 -0.5293,3.007813 0,1.651003 0.35298,2.947195 1.06055,3.890625 0.70757,0.943431 1.5717,1.711137 2.59375,2.300781 1.06136,0.550335 2.20132,1.001682 3.41992,1.355469 1.25791,0.314477 2.39788,0.648166 3.41992,1.001953 1.06137,0.353786 1.94673,0.826372 2.6543,1.416016 0.70758,0.550334 1.06055,1.335372 1.06055,2.357422 0,0.393096 -0.0791,0.786591 -0.23633,1.179687 -0.15724,0.393096 -0.43112,0.748023 -0.82422,1.0625 -0.39309,0.275167 -0.90425,0.510483 -1.5332,0.707031 -0.62895,0.157239 -1.43522,0.236329 -2.41797,0.236329 -1.25791,0 -2.31879,-0.138896 -3.18359,-0.414063 -0.82551,-0.275167 -1.51412,-0.589573 -2.06446,-0.943359 -0.55033,-0.353786 -1.02097,-0.668192 -1.41406,-0.94336 -0.3931,-0.275167 -0.78659,-0.412109 -1.17969,-0.412109 -0.62895,0 -1.1401,0.33369 -1.5332,1.001953 -0.39309,0.628954 -0.58984,1.219197 -0.58984,1.769531 0,0.550335 0.25655,1.119341 0.76757,1.708985 0.51102,0.550334 1.21697,1.061487 2.1211,1.533203 0.90412,0.432405 1.96695,0.787332 3.18554,1.0625 1.25792,0.275167 2.61391,0.412109 4.06836,0.412109 3.34132,0 5.89513,-0.727185 7.66407,-2.18164 1.80824,-1.493766 2.71289,-3.497858 2.71289,-6.013672 0,-1.768932 -0.35298,-3.184735 -1.06055,-4.246094 -0.70757,-1.061359 -1.59294,-1.906202 -2.6543,-2.535156 -1.06136,-0.628954 -2.22061,-1.101539 -3.47851,-1.416016 -1.2186,-0.353786 -2.35856,-0.687476 -3.41992,-1.001953 -1.06136,-0.353787 -1.94673,-0.747282 -2.6543,-1.179688 -0.70757,-0.471715 -1.06055,-1.139095 -1.06055,-2.003906 0,-0.746883 0.35298,-1.493352 1.06055,-2.240234 0.74689,-0.786192 1.98522,-1.179688 3.71484,-1.179688 0.8255,0 1.55269,0.09837 2.18164,0.294922 0.66827,0.157239 1.25851,0.353987 1.76954,0.589844 0.51101,0.196548 0.96236,0.391343 1.35546,0.587891 0.3931,0.157238 0.74802,0.236328 1.0625,0.236328 0.35379,0 0.6682,-0.117658 0.94336,-0.353516 0.31448,-0.235857 0.56908,-0.511695 0.76563,-0.826172 0.23586,-0.314477 0.39403,-0.628883 0.47265,-0.943359 0.11793,-0.353787 0.17579,-0.646955 0.17579,-0.882813 0,-0.471715 -0.2546,-0.905732 -0.76563,-1.298828 -0.51102,-0.432406 -1.17841,-0.804664 -2.00391,-1.11914 -0.8255,-0.353787 -1.77067,-0.610341 -2.83203,-0.767579 -1.06136,-0.196548 -2.14152,-0.294921 -3.24218,-0.294921 z m 53.36523,0 c -1.69031,0 -3.28162,0.314406 -4.77539,0.943359 -1.45445,0.628954 -2.73331,1.47575 -3.83398,2.537109 -1.10067,1.06136 -1.98408,2.299698 -2.65235,3.714844 -0.62895,1.415145 -0.94336,2.8888 -0.94336,4.421875 l 0,5.423828 c 0,1.533075 0.31441,3.00673 0.94336,4.421875 0.66827,1.415146 1.55168,2.674722 2.65235,3.775391 1.13998,1.061359 2.43812,1.925486 3.89257,2.59375 1.49377,0.628954 3.06579,0.943359 4.7168,0.943359 1.61169,0 3.14516,-0.314405 4.59961,-0.943359 1.49377,-0.668264 2.78996,-1.532391 3.89062,-2.59375 1.13998,-1.100669 2.04464,-2.360245 2.7129,-3.775391 0.66826,-1.415145 1.00195,-2.8888 1.00195,-4.421875 l 0,-5.423828 c 0,-1.572384 -0.33369,-3.067276 -1.00195,-4.482422 -0.66827,-1.415146 -1.57292,-2.653484 -2.7129,-3.714844 -1.10066,-1.061359 -2.39685,-1.886918 -3.89062,-2.476562 -1.45445,-0.628953 -2.98792,-0.943359 -4.59961,-0.943359 z M 72.435532,16.628906 c -0.904122,0 -1.65059,0.194805 -2.240235,0.587891 -0.550345,0.353787 -0.826171,0.826372 -0.826171,1.416015 l 0,23.88086 c 0,0.511015 0.275835,0.981647 0.826171,1.414062 0.589644,0.432504 1.336113,0.648438 2.240235,0.648438 0.904122,0 1.65059,-0.216022 2.240234,-0.648438 0.589644,-0.432415 0.884766,-0.903047 0.884766,-1.414062 l 0,-23.88086 c 0,-0.589643 -0.295122,-1.062228 -0.884766,-1.416015 -0.589644,-0.392997 -1.336112,-0.587891 -2.240234,-0.587891 z m 130.675778,3.929688 c 1.75589,0 2.87605,0.485004 3.64648,1.417968 0.77043,0.932965 1.20899,2.430429 1.20899,4.529297 l 0,7.335938 c 0,2.55257 -0.39326,4.287182 -1.14063,5.300781 -0.74731,1.013598 -1.85239,1.490235 -3.82812,1.490234 -1.22297,0 -3.42069,-0.334741 -5.08203,-0.978515 l 0,-15.634766 c 0,-0.573075 -0.11872,-1.213869 -0.23047,-1.853515 1.77356,-0.974741 3.7807,-1.607422 5.42578,-1.607422 z m -29.26758,1.199218 c 0.8255,0 1.59321,0.177464 2.30078,0.53125 0.74688,0.353787 1.39498,0.824419 1.94531,1.414063 0.55034,0.550335 0.9824,1.200383 1.29688,1.947266 0.31448,0.746882 0.4707,1.493351 0.4707,2.240234 l 0,5.423828 c 0,0.786192 -0.15622,1.553899 -0.4707,2.300781 -0.31448,0.746882 -0.74654,1.414263 -1.29688,2.003907 -0.55033,0.589644 -1.19843,1.062229 -1.94531,1.416015 -0.70757,0.353787 -1.47528,0.529297 -2.30078,0.529297 -0.82551,0 -1.61054,-0.17551 -2.35742,-0.529297 -0.74688,-0.353786 -1.39693,-0.826371 -1.94727,-1.416015 -0.51102,-0.589644 -0.9238,-1.257025 -1.23828,-2.003907 -0.31447,-0.746882 -0.4707,-1.514589 -0.4707,-2.300781 l 0,-5.423828 c 0,-0.746883 0.15623,-1.493352 0.4707,-2.240234 0.31448,-0.746883 0.72726,-1.396931 1.23828,-1.947266 0.55034,-0.589644 1.20039,-1.060276 1.94727,-1.414063 0.74688,-0.353786 1.53191,-0.53125 2.35742,-0.53125 z"
     style="font-style:normal;font-variant:normal;font-weight:500;font-stretch:normal;font-size:90px;line-height:125%;font-family:'Blogger Sans';-inkscape-font-specification:'Blogger Sans Medium';letter-spacing:0px;word-spacing:0px;fill:#edf1f3;fill-opacity:1;stroke:none;stroke-width:1px;stroke-linecap:butt;stroke-linejoin:miter;stroke-opacity:1" />
  <path
     inkscape:connector-curvature="0"
     id="path4317-0"
     d="m 236.02928,6.5800781 a 3.6516855,3.6516855 0 0 0 -3.65039,3.6523439 3.6516855,3.6516855 0 0 0 3.65039,3.652344 3.6516855,3.6516855 0 0 0 3.65234,-3.652344 3.6516855,3.6516855 0 0 0 -3.65234,-3.6523439 z m 21.89453,9.6933599 c -1.69031,0 -3.28163,0.314406 -4.77539,0.943359 -1.45446,0.628954 -2.73137,1.47575 -3.83203,2.537109 -1.10067,1.06136 -1.98603,2.299698 -2.6543,3.714844 -0.62895,1.415145 -0.94336,2.8888 -0.94336,4.421875 l 0,5.423828 c 0,1.533075 0.31441,3.00673 0.94336,4.421875 0.66827,1.415146 1.55363,2.674722 2.6543,3.775391 1.13998,1.061359 2.43617,1.925486 3.89062,2.59375 1.49377,0.628954 3.0658,0.943359 4.7168,0.943359 1.6117,0 3.14515,-0.314405 4.59961,-0.943359 1.49376,-0.668264 2.79191,-1.532391 3.89258,-2.59375 1.13998,-1.100669 2.04267,-2.360245 2.71093,-3.775391 0.66827,-1.415145 1.00391,-2.8888 1.00391,-4.421875 l 0,-5.423828 c 0,-1.572384 -0.33564,-3.067276 -1.00391,-4.482422 -0.66826,-1.415146 -1.57095,-2.653484 -2.71093,-3.714844 -1.10067,-1.061359 -2.39882,-1.886918 -3.89258,-2.476562 -1.45446,-0.628953 -2.98791,-0.943359 -4.59961,-0.943359 z m -21.92383,0.355468 c -0.90412,0 -1.65059,0.194805 -2.24023,0.587891 -0.55034,0.353787 -0.82422,0.826372 -0.82422,1.416015 l 0,23.88086 c 0,0.511015 0.27389,0.981647 0.82422,1.414062 0.58964,0.432504 1.33611,0.648438 2.24023,0.648438 0.90412,0 1.65254,-0.216022 2.24219,-0.648438 0.58964,-0.432415 0.88281,-0.903047 0.88281,-1.414062 l 0,-23.88086 c 0,-0.589643 -0.29317,-1.062228 -0.88281,-1.416015 -0.58965,-0.392997 -1.33807,-0.587891 -2.24219,-0.587891 z m 21.92383,5.128906 c 0.8255,0 1.59321,0.177464 2.30078,0.53125 0.74688,0.353787 1.39498,0.824419 1.94531,1.414063 0.55034,0.550335 0.9824,1.200383 1.29688,1.947266 0.31448,0.746882 0.47265,1.493351 0.47265,2.240234 l 0,5.423828 c 0,0.786192 -0.15817,1.553899 -0.47265,2.300781 -0.31448,0.746882 -0.74654,1.414263 -1.29688,2.003907 -0.55033,0.589644 -1.19843,1.062229 -1.94531,1.416015 -0.70757,0.353787 -1.47528,0.529297 -2.30078,0.529297 -0.8255,0 -1.61054,-0.17551 -2.35742,-0.529297 -0.74689,-0.353786 -1.39694,-0.826371 -1.94727,-1.416015 -0.51103,-0.589644 -0.9238,-1.257025 -1.23828,-2.003907 -0.31447,-0.746882 -0.4707,-1.514589 -0.4707,-2.300781 l 0,-5.423828 c 0,-0.746883 0.15623,-1.493352 0.4707,-2.240234 0.31448,-0.746883 0.72725,-1.396931 1.23828,-1.947266 0.55033,-0.589644 1.20038,-1.060276 1.94727,-1.414063 0.74688,-0.353786 1.53192,-0.53125 2.35742,-0.53125 z m -33.89453,15.515626 a 3.6516855,3.6516855 0 0 0 -3.65039,3.652343 3.6516855,3.6516855 0 0 0 3.65039,3.650391 3.6516855,3.6516855 0 0 0 3.65234,-3.650391 3.6516855,3.6516855 0 0 0 -3.65234,-3.652343 z"
     style="font-style:normal;font-variant:normal;font-weight:600;font-stretch:normal;font-size:20px;line-height:125%;font-family:Dosis;-inkscape-font-specification:'Dosis Semi-Bold';letter-spacing:0px;word-spacing:0px;fill:#81a1ab;fill-opacity:1;stroke:none;stroke-width:1px;stroke-linecap:butt;stroke-linejoin:miter;stroke-opacity:1" />
  <metadata
     id="metadata5306">
    <rdf:RDF>
      <cc:Work
         rdf:about="">
        <dc:title></dc:title>
        <dc:format>image/svg+xml</dc:format>
        <dc:type
           rdf:resource="http://purl.org/dc/dcmitype/StillImage" />
      </cc:Work>
    </rdf:RDF>
  </metadata>
</svg>
