<?xml version="1.0" encoding="UTF-8" standalone="no"?>
<!-- Created with Inkscape (http://www.inkscape.org/) -->

<svg
   xmlns:dc="http://purl.org/dc/elements/1.1/"
   xmlns:cc="http://creativecommons.org/ns#"
   xmlns:rdf="http://www.w3.org/1999/02/22-rdf-syntax-ns#"
   xmlns:svg="http://www.w3.org/2000/svg"
   xmlns="http://www.w3.org/2000/svg"
   xmlns:sodipodi="http://sodipodi.sourceforge.net/DTD/sodipodi-0.dtd"
   xmlns:inkscape="http://www.inkscape.org/namespaces/inkscape"
   width="16.288553mm"
   height="16.288965mm"
   viewBox="0 0 57.715339 57.716807"
   id="svg7985"
   version="1.1"
   inkscape:version="0.91 r13725"
   sodipodi:docname="inskop_button.svg"
   inkscape:export-filename="/Users/vwrobel/Projets/inskop/code/ui/ui/src/public/favicon.png"
   inkscape:export-xdpi="99.797623"
   inkscape:export-ydpi="99.797623">
  <defs
     id="defs7987" />
  <sodipodi:namedview
     id="base"
     pagecolor="#ffffff"
     bordercolor="#666666"
     borderopacity="1.0"
     inkscape:pageopacity="0.0"
     inkscape:pageshadow="2"
     inkscape:zoom="2.05"
     inkscape:cx="120.64939"
     inkscape:cy="15.775338"
     inkscape:document-units="px"
     inkscape:current-layer="svg7985"
     showgrid="false"
     fit-margin-top="0"
     fit-margin-left="0"
     fit-margin-right="0"
     fit-margin-bottom="0"
     inkscape:window-width="1920"
     inkscape:window-height="1031"
     inkscape:window-x="2068"
     inkscape:window-y="0"
     inkscape:window-maximized="0" />
  <path
     style="opacity:1;fill:#edf1f3;fill-opacity:1;stroke:none;stroke-width:2;stroke-linecap:round;stroke-linejoin:round;stroke-miterlimit:4;stroke-dasharray:none;stroke-dashoffset:0;stroke-opacity:1"
     d="M 22.242438,9.61352 C 21.817901,9.62492 21.399154,9.71543 21.00611,9.87524 13.097881,12.986269 7.8862562,20.494663 7.8791562,28.830318 c -0.0071,8.333783 5.1916068,15.848553 13.0917978,18.972656 1.009942,0.421281 2.038335,0.377491 2.849609,-0.0059 0.812503,-0.383757 1.402829,-1.066594 1.726562,-1.845703 0.323742,-0.779131 0.388329,-1.678565 0.07422,-2.517578 -0.312467,-0.834402 -1.025932,-1.565892 -2.044921,-1.949219 -5.31186,-2.09658 -8.755147,-7.087415 -8.748047,-12.648438 0.0071,-5.556974 3.446824,-10.53892 8.753906,-12.630859 1.733553,-0.653364 2.46325,-2.388431 2.160156,-3.857427 -0.302961,-1.46857 -1.646763,-2.78165 -3.5,-2.73242 l 0,-0.002 z m 13.220703,0.002 0,0.002 c -1.851956,-0.0469 -3.194485,1.2641 -3.496094,2.73242 -0.300978,1.46579 0.42717,3.196248 2.152344,3.851566 l 0.01367,0.0059 c 5.307084,2.09197 8.748766,7.073966 8.755859,12.630859 0.0071,5.555153 -3.43174,10.540281 -8.734375,12.640626 l -0.01563,0.0078 c -1.019081,0.383327 -1.732455,1.112873 -2.044922,1.947266 -0.314041,0.839012 -0.249554,1.740411 0.07422,2.519531 0.323823,0.7791 0.91415,1.460003 1.726563,1.84375 0.811263,0.383764 1.839698,0.429114 2.849609,0.0078 C 44.644645,44.680949 49.842282,37.164293 49.836182,28.830429 49.829082,20.494856 44.617677,12.986257 36.709229,9.87535 36.415005,9.75567 36.098199,9.71656 35.783448,9.68004 a 0.89005025,0.89005025 0 0 0 -0.314454,-0.0645 0.89005025,0.89005025 0 0 0 -0.0059,0 z"
     id="path8004"
     inkscape:connector-curvature="0" />
  <path
     inkscape:connector-curvature="0"
     id="path4915"
     d="m 22.242183,9.62705 c -0.424538,0.0114 -0.843285,0.1 -1.236329,0.25977 -7.908229,3.111029 -13.1198338,10.621376 -13.1269538,18.957031 -0.0051,5.939394 2.6431368,11.454977 7.0195328,15.269531 -3.166238,-3.629685 -5.0237788,-8.30037 -5.0195328,-13.269531 0.0071,-8.335655 5.2187248,-15.846002 13.1269538,-18.957031 0.393044,-0.15981 0.811791,-0.24841 1.236329,-0.25977 l 0,0.002 c 0.49008,-0.013 0.940597,0.0733 1.349609,0.22852 -0.475441,-1.25124 -1.712068,-2.27202 -3.349609,-2.22852 l 0,-0.002 z m 13.220703,0.002 c -1.851956,-0.0469 -3.194485,1.26606 -3.496094,2.73438 -0.301467,1.468172 0.428926,3.200636 2.160156,3.853518 -0.223851,-0.600778 -0.284385,-1.24851 -0.160156,-1.853516 0.301609,-1.468321 1.644138,-2.781302 3.496094,-2.734372 a 0.89005025,0.89005025 0 0 1 0.0059,0 0.89005025,0.89005025 0 0 1 0.314453,0.0645 c 0.314751,0.0365 0.631557,0.0756 0.925781,0.19531 2.285864,0.89918 4.336828,2.174763 6.111328,3.722656 C 42.667956,13.142118 39.91546,11.15019 36.708979,9.88887 36.414755,9.76919 36.097949,9.73008 35.783198,9.69356 a 0.89005025,0.89005025 0 0 0 -0.314453,-0.0645 0.89005025,0.89005025 0 0 0 -0.0059,0 z m 4.427734,10.796882 c 1.90098,2.350871 2.994053,5.295341 2.998047,8.423828 0.0071,5.56085 -3.438099,10.553821 -8.75,12.650391 l 0.01563,-0.0098 c -1.02814,0.38155 -1.746346,1.118008 -2.060547,1.957031 -0.314041,0.839012 -0.249554,1.740412 0.07422,2.519532 0.323823,0.7791 0.914149,1.460003 1.726562,1.84375 0.07896,0.03735 0.169101,0.05514 0.251953,0.08594 -0.299809,-0.763242 -0.357694,-1.634468 -0.05273,-2.449219 0.314201,-0.839023 1.032407,-1.575481 2.060547,-1.957031 l -0.01563,0.0098 c 5.311901,-2.09657 8.757079,-7.089541 8.75,-12.650391 -0.0052,-4.099186 -1.885014,-7.879711 -4.998052,-10.423831 z M 19.820307,39.29307 c 1.474899,1.824142 3.437837,3.290159 5.75586,4.205078 0.0246,0.0093 0.04412,0.02355 0.06836,0.0332 -0.0097,-0.02842 -0.01285,-0.05765 -0.02344,-0.08594 -0.312467,-0.834402 -1.025932,-1.563939 -2.044922,-1.947265 -1.390666,-0.548893 -2.649725,-1.30112 -3.75586,-2.205078 z"
     style="fill:#81a1ab;fill-opacity:1;fill-rule:evenodd;stroke:none;stroke-width:1px;stroke-linecap:butt;stroke-linejoin:miter;stroke-opacity:1" />
  <path
     style="opacity:1;fill:#ff4081;fill-opacity:1;stroke:none;stroke-width:20;stroke-linecap:round;stroke-linejoin:round;stroke-miterlimit:4;stroke-dasharray:none;stroke-dashoffset:0;stroke-opacity:1"
     d="M 28.857009,0 A 28.858136,28.858136 0 0 0 -5.720413e-6,28.858443 28.858136,28.858136 0 0 0 28.857009,57.716809 28.858136,28.858136 0 0 0 57.715341,28.858443 28.858136,28.858136 0 0 0 28.857009,0 Z m 6.605101,9.62821 a 0.89005025,0.89005025 0 0 1 0.0071,0 0.89005025,0.89005025 0 0 1 0.314282,0.0654 c 0.314751,0.0365 0.631922,0.075 0.926146,0.19465 7.908447,3.11091 13.118395,10.620623 13.125525,18.956196 0.0061,8.333864 -5.19058,15.848785 -13.090839,18.972874 -1.009911,0.421302 -2.037929,0.377664 -2.849192,-0.0061 -0.812413,-0.383747 -1.403251,-1.066162 -1.727074,-1.845262 -0.323773,-0.77912 -0.389311,-1.679307 -0.07527,-2.518319 0.314201,-0.839023 1.034161,-1.574973 2.062301,-1.956523 l -0.01658,0.0081 c 5.311901,-2.09657 8.756589,-7.08775 8.74951,-12.6486 -0.0071,-5.561755 -3.453884,-10.547422 -8.768878,-12.636159 l 0.01272,0.0051 C 32.396365,15.56841 31.664921,13.833412 31.966732,12.36357 32.268341,10.89524 33.61063,9.5828 35.462586,9.62972 l 0,0 z m -13.22009,0 0,0 c 1.853237,-0.0492 3.197134,1.26391 3.500095,2.73249 0.303094,1.468989 -0.426021,3.204069 -2.159575,3.857433 l 0.01272,-0.0051 c -5.314994,2.088707 -8.760404,7.074242 -8.767514,12.636078 -0.0071,5.561023 3.436205,10.55203 8.748065,12.64861 l -0.01617,-0.0081 c 1.028048,0.38155 1.748008,1.117511 2.062209,1.956543 0.31411,0.839013 0.248572,1.739179 -0.07517,2.51831 -0.323733,0.779109 -0.914611,1.461515 -1.727115,1.845272 -0.811274,0.38335 -1.839322,0.428381 -2.849264,0.0071 C 13.07011,44.692743 7.8724992,37.177741 7.8796192,28.843958 7.8867192,20.508303 13.096862,12.998713 21.005091,9.88768 21.398135,9.72787 21.816741,9.63906 22.241278,9.62771 Z"
     id="path8021"
     inkscape:connector-curvature="0"
     inkscape:export-filename="/Users/vwrobel/Desktop/inskop-logo-rev.png"
     inkscape:export-xdpi="77.595932"
     inkscape:export-ydpi="77.595932" />
  <metadata
     id="metadata5306">
    <rdf:RDF>
      <cc:Work
         rdf:about="">
        <dc:title></dc:title>
        <dc:format>image/svg+xml</dc:format>
        <dc:type
           rdf:resource="http://purl.org/dc/dcmitype/StillImage" />
      </cc:Work>
    </rdf:RDF>
  </metadata>
</svg>
