<?xml version="1.0" encoding="UTF-8" standalone="no"?>
<svg
   xmlns:dc="http://purl.org/dc/elements/1.1/"
   xmlns:cc="http://creativecommons.org/ns#"
   xmlns:rdf="http://www.w3.org/1999/02/22-rdf-syntax-ns#"
   xmlns:svg="http://www.w3.org/2000/svg"
   xmlns="http://www.w3.org/2000/svg"
   version="1.1"
   id="svg7153"
   viewBox="0 0 270.13086 57.990227"
   height="16.366131mm"
   width="76.236931mm">
  <defs
     id="defs7155" />
  <metadata
     id="metadata7158">
    <rdf:RDF>
      <cc:Work
         rdf:about="">
        <dc:format>image/svg+xml</dc:format>
        <dc:type
           rdf:resource="http://purl.org/dc/dcmitype/StillImage" />
        <dc:title></dc:title>
      </cc:Work>
    </rdf:RDF>
  </metadata>
  <path
     style="font-style:normal;font-variant:normal;font-weight:500;font-stretch:normal;font-size:90px;line-height:125%;font-family:'Blogger Sans';-inkscape-font-specification:'Blogger Sans Medium';letter-spacing:0px;word-spacing:0px;fill:#edf1f3;fill-opacity:1;stroke:none;stroke-width:1px;stroke-linecap:butt;stroke-linejoin:miter;stroke-opacity:1"
     d="m 138.07031,0 c -0.90412,0 -1.6313,0.19675 -2.18164,0.58984 -0.55033,0.35379 -0.82617,0.82442 -0.82617,1.41406 l 0,40.50977 c 0,0.51102 0.27584,0.98166 0.82617,1.41406 0.55034,0.43241 1.27752,0.64844 2.18164,0.64844 0.90412,0 1.65059,-0.21603 2.24024,-0.64844 0.62895,-0.4324 0.94336,-0.90304 0.94336,-1.41406 l 0,-7.37109 4.30468,-3.89063 8.66797,12.79492 c 0.3931,0.58965 0.94283,0.88477 1.65039,0.88477 0.35379,0 0.728,-0.0984 1.1211,-0.29492 0.4324,-0.19655 0.8259,-0.43382 1.17968,-0.70899 0.35379,-0.31447 0.62768,-0.64816 0.82422,-1.00195 0.23586,-0.3931 0.35352,-0.76536 0.35352,-1.11914 0,-0.35379 -0.11766,-0.70872 -0.35352,-1.0625 l -9.25781,-13.32617 7.60742,-6.78125 c 0.35378,-0.35379 0.53125,-0.78585 0.53125,-1.29688 0,-0.35379 -0.0984,-0.70676 -0.29492,-1.06055 -0.15723,-0.35378 -0.3945,-0.66819 -0.70898,-0.94335 -0.27517,-0.27517 -0.58958,-0.4912 -0.94336,-0.64844 -0.35379,-0.19655 -0.70676,-0.29492 -1.06055,-0.29492 -0.51103,0 -0.94309,0.17551 -1.29688,0.52929 l -12.32421,11.32227 0,-26.24024 c 0,-0.58964 -0.31441,-1.06027 -0.94336,-1.41406 C 139.7209,0.19675 138.97443,0 138.07031,0 Z M 72.46484,6.58008 a 3.6516855,3.6516855 0 0 0 -3.65234,3.65234 3.6516855,3.6516855 0 0 0 3.65234,3.65234 3.6516855,3.6516855 0 0 0 3.65235,-3.65234 3.6516855,3.6516855 0 0 0 -3.65235,-3.65234 z m 131.58008,8.48437 c -3.02649,0 -5.80063,1.07959 -8.33594,2.3457 -0.63541,-0.66603 -1.41881,-1.21484 -2.43554,-1.21484 -1.43031,0 -2.83203,1.12372 -2.83203,2.74805 0,0.67529 0.29237,1.19694 0.53711,1.55273 0.60063,0.87335 0.79882,1.72343 0.79882,3.52344 l 0,30.81641 c 0,0.23939 0.0311,0.47526 0.084,0.70507 l 0,0.43946 c 0,0.53604 0.25595,0.99412 0.76758,1.37695 0.51184,0.42115 1.18668,0.63281 2.02734,0.63281 0.84076,0 1.53754,-0.21169 2.08594,-0.63281 0.50426,-0.33011 0.79019,-0.71618 0.85937,-1.16016 0.21069,-0.4167 0.31446,-0.88507 0.31446,-1.36132 l 0,-9.67969 c 1.89927,0.51485 3.89692,0.85547 5.6621,0.85547 3.87135,0 6.62179,-1.28598 8.28126,-3.5 1.65945,-2.21409 2.23828,-5.22549 2.23828,-8.66993 l 0,-7.33593 c 0,-3.28435 -0.80988,-6.13094 -2.50782,-8.1875 -1.6979,-2.05659 -4.29257,-3.25391 -7.54492,-3.25391 z M 94.47656,15.91601 c -2.4746,0 -5.22892,0.73115 -7.75976,2.47461 -0.67489,-1.01233 -1.57596,-1.63086 -2.64453,-1.63086 -1.68723,0 -2.92383,1.12563 -2.92383,2.58789 0,0.67491 0.22388,1.01064 0.67383,1.68555 0.33744,0.5624 0.73242,0.67577 0.73242,3.15039 l 0,18.05274 c 0,1.57473 1.01243,2.8125 3.03711,2.8125 2.02467,0 3.03711,-1.23777 3.03711,-2.8125 l 0,-18.05274 c 0,-0.3937 -0.0575,-0.84346 -0.16993,-1.34961 1.85595,-1.12483 3.59989,-1.74414 5.28711,-1.74414 2.81205,0 4.44336,2.0818 4.44336,5.625 l 0,15.52149 c 0,1.57473 1.06868,2.8125 3.03711,2.8125 1.91219,0 3.03711,-1.23777 3.03711,-2.8125 l 0,-15.52149 c 0,-6.46772 -3.26316,-10.79883 -9.78711,-10.79883 z m 26.00196,0.35743 c -1.84756,0 -3.41959,0.25655 -4.7168,0.76757 -1.29722,0.51103 -2.33881,1.17841 -3.125,2.00391 -0.78619,0.78619 -1.35715,1.69084 -1.71094,2.71289 -0.35379,0.98274 -0.5293,1.98576 -0.5293,3.00781 0,1.65101 0.35298,2.9472 1.06055,3.89063 0.70757,0.94343 1.5717,1.71113 2.59375,2.30078 1.06136,0.55033 2.20132,1.00168 3.41992,1.35547 1.25791,0.31447 2.39788,0.64816 3.41992,1.00195 1.06137,0.35379 1.94673,0.82637 2.6543,1.41602 0.70758,0.55033 1.06055,1.33537 1.06055,2.35742 0,0.39309 -0.0791,0.78659 -0.23633,1.17969 -0.15724,0.39309 -0.43112,0.74802 -0.82422,1.0625 -0.39309,0.27516 -0.90425,0.51048 -1.5332,0.70703 -0.62895,0.15724 -1.43522,0.23633 -2.41797,0.23633 -1.25791,0 -2.31879,-0.1389 -3.18359,-0.41407 -0.82551,-0.27516 -1.51412,-0.58957 -2.06446,-0.94336 -0.55033,-0.35378 -1.02097,-0.66819 -1.41406,-0.94336 -0.3931,-0.27516 -0.78659,-0.41211 -1.17969,-0.41211 -0.62895,0 -1.1401,0.33369 -1.5332,1.00196 -0.39309,0.62895 -0.58984,1.21919 -0.58984,1.76953 0,0.55033 0.25655,1.11934 0.76757,1.70898 0.51102,0.55034 1.21697,1.06149 2.1211,1.53321 0.90412,0.4324 1.96695,0.78733 3.18554,1.0625 1.25792,0.27516 2.61391,0.41211 4.06836,0.41211 3.34132,0 5.89513,-0.72719 7.66407,-2.18164 1.80824,-1.49377 2.71289,-3.49786 2.71289,-6.01368 0,-1.76893 -0.35298,-3.18473 -1.06055,-4.24609 -0.70757,-1.06136 -1.59294,-1.9062 -2.6543,-2.53516 -1.06136,-0.62895 -2.22061,-1.10154 -3.47851,-1.41601 -1.2186,-0.35379 -2.35856,-0.68748 -3.41992,-1.00196 -1.06136,-0.35378 -1.94673,-0.74728 -2.6543,-1.17968 -0.70757,-0.47172 -1.06055,-1.1391 -1.06055,-2.00391 0,-0.74688 0.35298,-1.49335 1.06055,-2.24023 0.74689,-0.7862 1.98522,-1.17969 3.71484,-1.17969 0.8255,0 1.55269,0.0984 2.18164,0.29492 0.66827,0.15724 1.25851,0.35399 1.76954,0.58984 0.51101,0.19655 0.96236,0.39135 1.35546,0.5879 0.3931,0.15723 0.74802,0.23632 1.0625,0.23632 0.35379,0 0.6682,-0.11765 0.94336,-0.35351 0.31448,-0.23586 0.56908,-0.5117 0.76563,-0.82617 0.23586,-0.31448 0.39403,-0.62889 0.47265,-0.94336 0.11793,-0.35379 0.17579,-0.64696 0.17579,-0.88282 0,-0.47171 -0.2546,-0.90573 -0.76563,-1.29882 -0.51102,-0.43241 -1.17841,-0.80467 -2.00391,-1.11914 -0.8255,-0.35379 -1.77067,-0.61035 -2.83203,-0.76758 -1.06136,-0.19655 -2.14152,-0.29492 -3.24218,-0.29492 z m 53.36523,0 c -1.69031,0 -3.28162,0.3144 -4.77539,0.94335 -1.45445,0.62896 -2.73331,1.47575 -3.83398,2.53711 -1.10067,1.06136 -1.98408,2.2997 -2.65235,3.71485 -0.62895,1.41514 -0.94336,2.8888 -0.94336,4.42187 l 0,5.42383 c 0,1.53308 0.31441,3.00673 0.94336,4.42188 0.66827,1.41514 1.55168,2.67472 2.65235,3.77539 1.13998,1.06136 2.43812,1.92548 3.89257,2.59375 1.49377,0.62895 3.06579,0.94336 4.7168,0.94336 1.61169,0 3.14516,-0.31441 4.59961,-0.94336 1.49377,-0.66827 2.78996,-1.53239 3.89062,-2.59375 1.13998,-1.10067 2.04464,-2.36025 2.7129,-3.77539 0.66826,-1.41515 1.00195,-2.8888 1.00195,-4.42188 l 0,-5.42383 c 0,-1.57238 -0.33369,-3.06727 -1.00195,-4.48242 -0.66827,-1.41515 -1.57292,-2.65348 -2.7129,-3.71484 -1.10066,-1.06136 -2.39685,-1.88692 -3.89062,-2.47657 -1.45445,-0.62895 -2.98792,-0.94335 -4.59961,-0.94335 z M 72.43555,16.6289 c -0.90412,0 -1.65059,0.19481 -2.24024,0.58789 -0.55034,0.35379 -0.82617,0.82638 -0.82617,1.41602 l 0,23.88086 c 0,0.51101 0.27584,0.98165 0.82617,1.41406 0.58965,0.43251 1.33612,0.64844 2.24024,0.64844 0.90412,0 1.65059,-0.21602 2.24023,-0.64844 0.58965,-0.43241 0.88477,-0.90305 0.88477,-1.41406 l 0,-23.88086 c 0,-0.58964 -0.29512,-1.06223 -0.88477,-1.41602 C 74.08614,16.8238 73.33967,16.6289 72.43555,16.6289 Z m 130.67578,3.92969 c 1.75589,0 2.87605,0.48501 3.64648,1.41797 0.77043,0.93296 1.20899,2.43043 1.20899,4.5293 l 0,7.33593 c 0,2.55257 -0.39326,4.28719 -1.14063,5.30079 -0.74731,1.01359 -1.85239,1.49023 -3.82812,1.49023 -1.22297,0 -3.42069,-0.33474 -5.08203,-0.97852 l 0,-15.63476 c 0,-0.57308 -0.11872,-1.21387 -0.23047,-1.85352 1.77356,-0.97474 3.7807,-1.60742 5.42578,-1.60742 z m -29.26758,1.19922 c 0.8255,0 1.59321,0.17746 2.30078,0.53125 0.74688,0.35379 1.39498,0.82442 1.94531,1.41406 0.55034,0.55034 0.9824,1.20039 1.29688,1.94727 0.31448,0.74688 0.4707,1.49335 0.4707,2.24023 l 0,5.42383 c 0,0.78619 -0.15622,1.5539 -0.4707,2.30078 -0.31448,0.74688 -0.74654,1.41426 -1.29688,2.00391 -0.55033,0.58964 -1.19843,1.06223 -1.94531,1.41601 -0.70757,0.35379 -1.47528,0.5293 -2.30078,0.5293 -0.82551,0 -1.61054,-0.17551 -2.35742,-0.5293 -0.74688,-0.35378 -1.39693,-0.82637 -1.94727,-1.41601 -0.51102,-0.58965 -0.9238,-1.25703 -1.23828,-2.00391 -0.31447,-0.74688 -0.4707,-1.51459 -0.4707,-2.30078 l 0,-5.42383 c 0,-0.74688 0.15623,-1.49335 0.4707,-2.24023 0.31448,-0.74688 0.72726,-1.39693 1.23828,-1.94727 0.55034,-0.58964 1.20039,-1.06027 1.94727,-1.41406 0.74688,-0.35379 1.53191,-0.53125 2.35742,-0.53125 z"
     id="path4347" />
</svg>
