<?xml version="1.0" encoding="UTF-8" standalone="no"?>
<svg
   xmlns:dc="http://purl.org/dc/elements/1.1/"
   xmlns:cc="http://creativecommons.org/ns#"
   xmlns:rdf="http://www.w3.org/1999/02/22-rdf-syntax-ns#"
   xmlns:svg="http://www.w3.org/2000/svg"
   xmlns="http://www.w3.org/2000/svg"
   version="1.1"
   id="svg7153"
   viewBox="0 0 270.13086 57.990227"
   height="16.366131mm"
   width="76.236931mm">
  <defs
     id="defs7155" />
  <metadata
     id="metadata7158">
    <rdf:RDF>
      <cc:Work
         rdf:about="">
        <dc:format>image/svg+xml</dc:format>
        <dc:type
           rdf:resource="http://purl.org/dc/dcmitype/StillImage" />
        <dc:title></dc:title>
      </cc:Work>
    </rdf:RDF>
  </metadata>
  <path
     style="font-style:normal;font-variant:normal;font-weight:600;font-stretch:normal;font-size:20px;line-height:125%;font-family:Dosis;-inkscape-font-specification:'Dosis Semi-Bold';letter-spacing:0px;word-spacing:0px;fill:#81a1ab;fill-opacity:1;stroke:none;stroke-width:1px;stroke-linecap:butt;stroke-linejoin:miter;stroke-opacity:1"
     d="m 236.0293,6.58008 a 3.6516855,3.6516855 0 0 0 -3.65039,3.65234 3.6516855,3.6516855 0 0 0 3.65039,3.65234 3.6516855,3.6516855 0 0 0 3.65234,-3.65234 3.6516855,3.6516855 0 0 0 -3.65234,-3.65234 z m 21.89453,9.69336 c -1.69031,0 -3.28163,0.3144 -4.77539,0.94335 -1.45446,0.62896 -2.73137,1.47575 -3.83203,2.53711 -1.10067,1.06136 -1.98603,2.2997 -2.6543,3.71485 -0.62895,1.41514 -0.94336,2.8888 -0.94336,4.42187 l 0,5.42383 c 0,1.53308 0.31441,3.00673 0.94336,4.42188 0.66827,1.41514 1.55363,2.67472 2.6543,3.77539 1.13998,1.06136 2.43617,1.92548 3.89062,2.59375 1.49377,0.62895 3.0658,0.94336 4.7168,0.94336 1.6117,0 3.14515,-0.31441 4.59961,-0.94336 1.49376,-0.66827 2.79191,-1.53239 3.89258,-2.59375 1.13998,-1.10067 2.04267,-2.36025 2.71093,-3.77539 0.66827,-1.41515 1.00391,-2.8888 1.00391,-4.42188 l 0,-5.42383 c 0,-1.57238 -0.33564,-3.06727 -1.00391,-4.48242 -0.66826,-1.41515 -1.57095,-2.65348 -2.71093,-3.71484 -1.10067,-1.06136 -2.39882,-1.88692 -3.89258,-2.47657 -1.45446,-0.62895 -2.98791,-0.94335 -4.59961,-0.94335 z M 236,16.6289 c -0.90412,0 -1.65059,0.19481 -2.24023,0.58789 -0.55034,0.35379 -0.82422,0.82638 -0.82422,1.41602 l 0,23.88086 c 0,0.51101 0.27389,0.98165 0.82422,1.41406 0.58964,0.43251 1.33611,0.64844 2.24023,0.64844 0.90412,0 1.65254,-0.21602 2.24219,-0.64844 0.58964,-0.43241 0.88281,-0.90305 0.88281,-1.41406 l 0,-23.88086 c 0,-0.58964 -0.29317,-1.06223 -0.88281,-1.41602 C 237.65254,16.8238 236.90412,16.6289 236,16.6289 Z m 21.92383,5.12891 c 0.8255,0 1.59321,0.17746 2.30078,0.53125 0.74688,0.35379 1.39498,0.82442 1.94531,1.41406 0.55034,0.55034 0.9824,1.20039 1.29688,1.94727 0.31448,0.74688 0.47265,1.49335 0.47265,2.24023 l 0,5.42383 c 0,0.78619 -0.15817,1.5539 -0.47265,2.30078 -0.31448,0.74688 -0.74654,1.41426 -1.29688,2.00391 -0.55033,0.58964 -1.19843,1.06223 -1.94531,1.41601 -0.70757,0.35379 -1.47528,0.5293 -2.30078,0.5293 -0.8255,0 -1.61054,-0.17551 -2.35742,-0.5293 -0.74689,-0.35378 -1.39694,-0.82637 -1.94727,-1.41601 -0.51103,-0.58965 -0.9238,-1.25703 -1.23828,-2.00391 -0.31447,-0.74688 -0.4707,-1.51459 -0.4707,-2.30078 l 0,-5.42383 c 0,-0.74688 0.15623,-1.49335 0.4707,-2.24023 0.31448,-0.74688 0.72725,-1.39693 1.23828,-1.94727 0.55033,-0.58964 1.20038,-1.06027 1.94727,-1.41406 0.74688,-0.35379 1.53192,-0.53125 2.35742,-0.53125 z M 224.0293,37.27344 a 3.6516855,3.6516855 0 0 0 -3.65039,3.65234 3.6516855,3.6516855 0 0 0 3.65039,3.65039 3.6516855,3.6516855 0 0 0 3.65234,-3.65039 3.6516855,3.6516855 0 0 0 -3.65234,-3.65234 z"
     id="path4317-0" />
</svg>
