<?xml version="1.0" encoding="UTF-8" standalone="no"?>
<!-- Created with Inkscape (http://www.inkscape.org/) -->

<svg
   xmlns:dc="http://purl.org/dc/elements/1.1/"
   xmlns:cc="http://creativecommons.org/ns#"
   xmlns:rdf="http://www.w3.org/1999/02/22-rdf-syntax-ns#"
   xmlns:svg="http://www.w3.org/2000/svg"
   xmlns="http://www.w3.org/2000/svg"
   xmlns:sodipodi="http://sodipodi.sourceforge.net/DTD/sodipodi-0.dtd"
   xmlns:inkscape="http://www.inkscape.org/namespaces/inkscape"
   width="76.236664mm"
   height="16.366081mm"
   viewBox="0 0 270.12988 57.990053"
   id="svg7985"
   version="1.1"
   inkscape:version="0.91 r13725"
   sodipodi:docname="parens.svg"
   inkscape:export-filename="/Users/vwrobel/Desktop/inskop-logo-rev.png"
   inkscape:export-xdpi="207"
   inkscape:export-ydpi="207">
  <defs
     id="defs7987" />
  <sodipodi:namedview
     id="base"
     pagecolor="#ffffff"
     bordercolor="#666666"
     borderopacity="1.0"
     inkscape:pageopacity="0.0"
     inkscape:pageshadow="2"
     inkscape:zoom="2.05"
     inkscape:cx="120.64938"
     inkscape:cy="15.911961"
     inkscape:document-units="px"
     inkscape:current-layer="svg7985"
     showgrid="false"
     fit-margin-top="0"
     fit-margin-left="0"
     fit-margin-right="0"
     fit-margin-bottom="0"
     inkscape:window-width="1920"
     inkscape:window-height="1031"
     inkscape:window-x="1657"
     inkscape:window-y="0"
     inkscape:window-maximized="0" />
  <path
     style="opacity:1;fill:#edf1f3;fill-opacity:1;stroke:none;stroke-width:2;stroke-linecap:round;stroke-linejoin:round;stroke-miterlimit:4;stroke-dasharray:none;stroke-dashoffset:0;stroke-opacity:1"
     d="M 22.242428,9.75014 C 21.817891,9.76154 21.399144,9.85205 21.0061,10.01186 13.097871,13.122889 7.886247,20.631283 7.879147,28.966938 c -0.0071,8.333783 5.191606,15.848553 13.091797,18.972656 1.009942,0.421281 2.038335,0.377491 2.849609,-0.0059 0.812503,-0.383757 1.402829,-1.066594 1.726562,-1.845703 0.323742,-0.779131 0.388329,-1.678565 0.07422,-2.517578 -0.312467,-0.834402 -1.025932,-1.565892 -2.044921,-1.949219 -5.31186,-2.09658 -8.755147,-7.087415 -8.748047,-12.648438 0.0071,-5.556974 3.446824,-10.53892 8.753906,-12.630859 1.733553,-0.653364 2.46325,-2.388431 2.160156,-3.857427 -0.302961,-1.46857 -1.646763,-2.78165 -3.5,-2.73242 l 0,-0.002 z m 13.220703,0.002 0,0.002 c -1.851956,-0.0469 -3.194485,1.2641 -3.496094,2.73242 -0.300978,1.46579 0.42717,3.196248 2.152344,3.851566 l 0.01367,0.0059 c 5.307084,2.09197 8.748766,7.073966 8.755859,12.630859 0.0071,5.555153 -3.43174,10.540281 -8.734375,12.640626 l -0.01563,0.0078 c -1.019081,0.383327 -1.732455,1.112873 -2.044922,1.947266 -0.314041,0.839012 -0.249554,1.740411 0.07422,2.519531 0.323823,0.7791 0.91415,1.460003 1.726563,1.84375 0.811263,0.383764 1.839698,0.429114 2.849609,0.0078 C 44.644635,44.817569 49.842272,37.300913 49.836172,28.967049 49.829072,20.631476 44.617667,13.122877 36.709219,10.01197 36.414995,9.89229 36.098189,9.85318 35.783438,9.81666 a 0.89005025,0.89005025 0 0 0 -0.314454,-0.0645 0.89005025,0.89005025 0 0 0 -0.0059,0 z"
     id="path8004"
     inkscape:connector-curvature="0" />
  <metadata
     id="metadata5306">
    <rdf:RDF>
      <cc:Work
         rdf:about="">
        <dc:title></dc:title>
        <dc:format>image/svg+xml</dc:format>
        <dc:type
           rdf:resource="http://purl.org/dc/dcmitype/StillImage" />
      </cc:Work>
    </rdf:RDF>
  </metadata>
</svg>
