<?xml version="1.0" encoding="UTF-8" standalone="no"?>
<svg
   xmlns:dc="http://purl.org/dc/elements/1.1/"
   xmlns:cc="http://creativecommons.org/ns#"
   xmlns:rdf="http://www.w3.org/1999/02/22-rdf-syntax-ns#"
   xmlns:svg="http://www.w3.org/2000/svg"
   xmlns="http://www.w3.org/2000/svg"
   version="1.1"
   id="svg7153"
   viewBox="0 0 270.13086 57.990227"
   height="16.366131mm"
   width="76.236931mm">
  <defs
     id="defs7155" />
  <metadata
     id="metadata7158">
    <rdf:RDF>
      <cc:Work
         rdf:about="">
        <dc:format>image/svg+xml</dc:format>
        <dc:type
           rdf:resource="http://purl.org/dc/dcmitype/StillImage" />
        <dc:title></dc:title>
      </cc:Work>
    </rdf:RDF>
  </metadata>
  <path
     id="circle4210-5"
     d="M 28.85701,0.13661 A 28.858136,28.858136 0 0 0 0,28.99506 28.858136,28.858136 0 0 0 28.85701,57.85342 28.858136,28.858136 0 0 0 57.71535,28.99506 28.858136,28.858136 0 0 0 28.85701,0.13661 Z m 6.60511,9.62821 a 0.89005025,0.89005025 0 0 1 0.007,0 0.89005025,0.89005025 0 0 1 0.31428,0.0654 c 0.31475,0.0365 0.63192,0.075 0.92614,0.19465 7.90845,3.11091 13.1184,10.62062 13.12553,18.95619 0.006,8.33387 -5.19058,15.84879 -13.09084,18.97288 -1.00991,0.4213 -2.03793,0.37766 -2.84919,-0.006 -0.81242,-0.38375 -1.40325,-1.06617 -1.72708,-1.84527 -0.32377,-0.77912 -0.38931,-1.6793 -0.0753,-2.51832 0.3142,-0.83902 1.03416,-1.57497 2.0623,-1.95652 l -0.0166,0.008 c 5.31191,-2.09657 8.75659,-7.08775 8.74951,-12.6486 -0.007,-5.56175 -3.45388,-10.54742 -8.76887,-12.63616 l 0.0127,0.005 c -1.7355,-0.65115 -2.46694,-2.38615 -2.16513,-3.856 0.30161,-1.46832 1.6439,-2.78076 3.49585,-2.73384 l 0,0 z m -13.22009,0 0,0 c 1.85323,-0.0492 3.19713,1.26392 3.50009,2.73249 0.30309,1.46899 -0.42602,3.20407 -2.15957,3.85744 l 0.0127,-0.005 c -5.315,2.08871 -8.76041,7.07424 -8.76752,12.63608 -0.007,5.56102 3.43621,10.55203 8.74807,12.64861 l -0.0162,-0.008 c 1.02804,0.38155 1.748,1.11751 2.06221,1.95654 0.31411,0.83901 0.24857,1.73918 -0.0752,2.51831 -0.32374,0.77911 -0.91462,1.46151 -1.72712,1.84527 -0.81127,0.38335 -1.83932,0.42838 -2.84926,0.007 C 13.07004,44.82946 7.87243,37.31446 7.87955,28.98067 7.88655,20.64502 13.09679,13.13543 21.00502,10.0244 21.39806,9.86459 21.81667,9.77578 22.2412,9.76443 Z"
     style="opacity:1;fill:#ff4081;fill-opacity:1;stroke:none;stroke-width:20;stroke-linecap:round;stroke-linejoin:round;stroke-miterlimit:4;stroke-dasharray:none;stroke-dashoffset:0;stroke-opacity:1" />
</svg>
