<?xml version="1.0" encoding="UTF-8" standalone="no"?>
<!-- Created with Inkscape (http://www.inkscape.org/) -->

<svg
   xmlns:dc="http://purl.org/dc/elements/1.1/"
   xmlns:cc="http://creativecommons.org/ns#"
   xmlns:rdf="http://www.w3.org/1999/02/22-rdf-syntax-ns#"
   xmlns:svg="http://www.w3.org/2000/svg"
   xmlns="http://www.w3.org/2000/svg"
   xmlns:sodipodi="http://sodipodi.sourceforge.net/DTD/sodipodi-0.dtd"
   xmlns:inkscape="http://www.inkscape.org/namespaces/inkscape"
   width="76.236664mm"
   height="16.366081mm"
   viewBox="0 0 270.12988 57.990053"
   id="svg7985"
   version="1.1"
   inkscape:version="0.91 r13725"
   sodipodi:docname="shadow.svg"
   inkscape:export-filename="/Users/vwrobel/Desktop/inskop-logo-rev.png"
   inkscape:export-xdpi="207"
   inkscape:export-ydpi="207">
  <defs
     id="defs7987" />
  <sodipodi:namedview
     id="base"
     pagecolor="#ffffff"
     bordercolor="#666666"
     borderopacity="1.0"
     inkscape:pageopacity="0.0"
     inkscape:pageshadow="2"
     inkscape:zoom="2.05"
     inkscape:cx="120.64938"
     inkscape:cy="15.911961"
     inkscape:document-units="px"
     inkscape:current-layer="svg7985"
     showgrid="false"
     fit-margin-top="0"
     fit-margin-left="0"
     fit-margin-right="0"
     fit-margin-bottom="0"
     inkscape:window-width="1920"
     inkscape:window-height="1031"
     inkscape:window-x="1657"
     inkscape:window-y="0"
     inkscape:window-maximized="0" />
  <path
     inkscape:connector-curvature="0"
     id="path4915"
     d="m 22.242173,9.76367 c -0.424538,0.0114 -0.843285,0.1 -1.236329,0.25977 -7.908229,3.111029 -13.119833,10.621376 -13.126953,18.957031 -0.0051,5.939394 2.643136,11.454977 7.019532,15.269531 -3.166238,-3.629685 -5.023778,-8.30037 -5.019532,-13.269531 0.0071,-8.335655 5.218724,-15.846002 13.126953,-18.957031 0.393044,-0.15981 0.811791,-0.24841 1.236329,-0.25977 l 0,0.002 c 0.49008,-0.013 0.940597,0.0733 1.349609,0.22852 -0.475441,-1.25124 -1.712068,-2.27202 -3.349609,-2.22852 l 0,-0.002 z m 13.220703,0.002 c -1.851956,-0.0469 -3.194485,1.26606 -3.496094,2.73438 -0.301467,1.468172 0.428926,3.200636 2.160156,3.853518 -0.223851,-0.600778 -0.284385,-1.24851 -0.160156,-1.853516 0.301609,-1.468321 1.644138,-2.781302 3.496094,-2.734372 a 0.89005025,0.89005025 0 0 1 0.0059,0 0.89005025,0.89005025 0 0 1 0.314453,0.0645 c 0.314751,0.0365 0.631557,0.0756 0.925781,0.19531 2.285864,0.89918 4.336828,2.174763 6.111328,3.722656 C 42.667946,13.278738 39.91545,11.28681 36.708969,10.02549 36.414745,9.90581 36.097939,9.8667 35.783188,9.83018 a 0.89005025,0.89005025 0 0 0 -0.314453,-0.0645 0.89005025,0.89005025 0 0 0 -0.0059,0 z m 4.427734,10.796882 c 1.90098,2.350871 2.994053,5.295341 2.998047,8.423828 0.0071,5.56085 -3.438099,10.553821 -8.75,12.650391 l 0.01563,-0.0098 c -1.02814,0.38155 -1.746346,1.118008 -2.060547,1.957031 -0.314041,0.839012 -0.249554,1.740412 0.07422,2.519532 0.323823,0.7791 0.914149,1.460003 1.726562,1.84375 0.07896,0.03735 0.169101,0.05514 0.251953,0.08594 -0.299809,-0.763242 -0.357694,-1.634468 -0.05273,-2.449219 0.314201,-0.839023 1.032407,-1.575481 2.060547,-1.957031 l -0.01563,0.0098 c 5.311901,-2.09657 8.757079,-7.089541 8.75,-12.650391 -0.0052,-4.099186 -1.885014,-7.879711 -4.998052,-10.423831 z M 19.820297,39.42969 c 1.474899,1.824142 3.437837,3.290159 5.75586,4.205078 0.0246,0.0093 0.04412,0.02355 0.06836,0.0332 -0.0097,-0.02842 -0.01285,-0.05765 -0.02344,-0.08594 -0.312467,-0.834402 -1.025932,-1.563939 -2.044922,-1.947265 -1.390666,-0.548893 -2.649725,-1.30112 -3.75586,-2.205078 z"
     style="fill:#81a1ab;fill-opacity:1;fill-rule:evenodd;stroke:none;stroke-width:1px;stroke-linecap:butt;stroke-linejoin:miter;stroke-opacity:1" />
  <metadata
     id="metadata5306">
    <rdf:RDF>
      <cc:Work
         rdf:about="">
        <dc:title></dc:title>
        <dc:format>image/svg+xml</dc:format>
        <dc:type
           rdf:resource="http://purl.org/dc/dcmitype/StillImage" />
      </cc:Work>
    </rdf:RDF>
  </metadata>
</svg>
