<?xml version="1.0" encoding="UTF-8" standalone="no"?>
<svg
   xmlns:dc="http://purl.org/dc/elements/1.1/"
   xmlns:cc="http://creativecommons.org/ns#"
   xmlns:rdf="http://www.w3.org/1999/02/22-rdf-syntax-ns#"
   xmlns:svg="http://www.w3.org/2000/svg"
   xmlns="http://www.w3.org/2000/svg"
   xmlns:sodipodi="http://sodipodi.sourceforge.net/DTD/sodipodi-0.dtd"
   xmlns:inkscape="http://www.inkscape.org/namespaces/inkscape"
   version="1.1"
   width="62.064716"
   height="57.59938"
   viewBox="0 0 62.064716 57.59938"
   id="svg2"
   inkscape:version="0.91 r13725"
   sodipodi:docname="more.svg">
  <metadata
     id="metadata10">
    <rdf:RDF>
      <cc:Work
         rdf:about="">
        <dc:format>image/svg+xml</dc:format>
        <dc:type
           rdf:resource="http://purl.org/dc/dcmitype/StillImage" />
        <dc:title></dc:title>
      </cc:Work>
    </rdf:RDF>
  </metadata>
  <defs
     id="defs8" />
  <sodipodi:namedview
     pagecolor="#ffffff"
     bordercolor="#666666"
     borderopacity="1"
     objecttolerance="10"
     gridtolerance="10"
     guidetolerance="10"
     inkscape:pageopacity="0"
     inkscape:pageshadow="2"
     inkscape:window-width="1588"
     inkscape:window-height="805"
     id="namedview6"
     showgrid="false"
     inkscape:zoom="6.49"
     inkscape:cx="57.419107"
     inkscape:cy="29.315483"
     inkscape:window-x="1604"
     inkscape:window-y="66"
     inkscape:window-maximized="0"
     inkscape:current-layer="svg2"
     fit-margin-top="0"
     fit-margin-left="0"
     fit-margin-right="0"
     fit-margin-bottom="0" />
  <g
     id="g4194"
     transform="translate(46.382126,4.7858218)">
    <path
       inkscape:connector-curvature="0"
       id="path4"
       d="m -25.34977,52.813559 18.0000005,0 0,-2 -18.0000005,0 m 18.0000005,-11 -2,0 0,-3 2,0 m 0,-2 -16.0000005,0 0,10 a 4,4 0 0 0 4,4 l 6.000001,0 a 4,4 0 0 0 3.9999995,-4 l 0,-3 2,0 a 2,2 0 0 0 2,-2 l 0,-3 c 0,-1.11 -0.9,-2 -2,-2 z" />
    <path
       inkscape:connector-curvature="0"
       d="m -46.382126,52.813559 18,0 0,-2 -18,0 m 18,-11 -2,0 0,-2.999999 2,0 m 0,-2 -16,0 0,9.999999 a 4,4 0 0 0 4,4 l 6,0 a 4,4 0 0 0 4,-4 l 0,-3 2,0 a 2,2 0 0 0 2,-2 l 0,-2.999999 c 0,-1.11 -0.9,-2 -2,-2 z"
       id="path4171" />
    <path
       id="path4173"
       d="m -4.3174115,52.813559 18.0000005,0 0,-2 -18.0000005,0 M 13.682589,39.81356 l -2,0 0,-3 2,0 m 0,-2 -16.0000005,0 0,9.999999 a 4,4 0 0 0 4,4 l 6,0 a 4,4 0 0 0 4.0000005,-4 l 0,-2.999999 2,0 a 2,2 0 0 0 2,-2 l 0,-3 c 0,-1.11 -0.9,-2 -2,-2 z"
       inkscape:connector-curvature="0" />
  </g>
  <path
     id="path4188"
     d="m 21.032357,17.999999 18,0 0,-2 -18,0 m 18,-10.999999 -2,0 0,-3 2,0 m 0,-2 -16,0 0,9.999999 a 4,4 0 0 0 4,4 l 6,0 a 4,4 0 0 0 4,-4 l 0,-2.999999 2,0 a 2,2 0 0 0 2,-2 l 0,-3 c 0,-1.11 -0.9,-2 -2,-2 z"
     inkscape:connector-curvature="0" />
  <g
     id="g4180"
     transform="translate(19.379045,11.642525)">
    <path
       d="m -8.8628669,26.157165 18.0000003,0 0,-2 -18.0000003,0 m 18.0000003,-11 -2,0 0,-3 2,0 m 0,-2.0000001 -16.0000003,0 0,10.0000001 a 4,4 0 0 0 4,4 l 6.0000003,0 a 4,4 0 0 0 4,-4 l 0,-3 2,0 a 2,2 0 0 0 1.9999996,-2 l 0,-3 c 0,-1.1100001 -0.9,-2.0000001 -1.9999996,-2.0000001 z"
       id="path4182"
       inkscape:connector-curvature="0" />
    <path
       inkscape:connector-curvature="0"
       d="m 12.169491,26.157165 18,0 0,-2 -18,0 m 18,-10.999999 -2,0 0,-3.000001 2,0 m 0,-1.9999995 -16,0 0,9.9999995 a 4,4 0 0 0 4,4 l 6,0 a 4,4 0 0 0 4,-4 l 0,-2.999999 2,0 a 2,2 0 0 0 2,-2 l 0,-3.000001 c 0,-1.1099995 -0.9,-1.9999995 -2,-1.9999995 z"
       id="path4186" />
  </g>
</svg>
