<?xml version="1.0" encoding="UTF-8" standalone="no"?>
<!-- Created with Inkscape (http://www.inkscape.org/) -->

<svg
   xmlns:dc="http://purl.org/dc/elements/1.1/"
   xmlns:cc="http://creativecommons.org/ns#"
   xmlns:rdf="http://www.w3.org/1999/02/22-rdf-syntax-ns#"
   xmlns:svg="http://www.w3.org/2000/svg"
   xmlns="http://www.w3.org/2000/svg"
   xmlns:sodipodi="http://sodipodi.sourceforge.net/DTD/sodipodi-0.dtd"
   xmlns:inkscape="http://www.inkscape.org/namespaces/inkscape"
   width="288.28864mm"
   height="66.204514mm"
   viewBox="0 0 1021.4952 234.58293"
   id="svg5645"
   version="1.1"
   inkscape:version="0.91 r13725"
   sodipodi:docname="schema.svg">
  <defs
     id="defs5647">
    <filter
       inkscape:collect="always"
       style="color-interpolation-filters:sRGB"
       id="filter4986"
       x="-0.040440705"
       width="1.0808814"
       y="-0.040440705"
       height="1.0808814">
      <feGaussianBlur
         inkscape:collect="always"
         stdDeviation="4.0409502"
         id="feGaussianBlur4988" />
    </filter>
    <filter
       inkscape:collect="always"
       style="color-interpolation-filters:sRGB"
       id="filter5108"
       x="-0.040451359"
       width="1.0809027"
       y="-0.040450878"
       height="1.0809017">
      <feGaussianBlur
         inkscape:collect="always"
         stdDeviation="2.7612793"
         id="feGaussianBlur5110" />
    </filter>
    <filter
       inkscape:collect="always"
       style="color-interpolation-filters:sRGB"
       id="filter5112"
       x="-0.040450871"
       width="1.0809017"
       y="-0.040450878"
       height="1.0809017">
      <feGaussianBlur
         inkscape:collect="always"
         stdDeviation="2.7612793"
         id="feGaussianBlur5114" />
    </filter>
    <filter
       inkscape:collect="always"
       style="color-interpolation-filters:sRGB"
       id="filter5116"
       x="-0.040450871"
       width="1.0809017"
       y="-0.040450878"
       height="1.0809017">
      <feGaussianBlur
         inkscape:collect="always"
         stdDeviation="2.7612793"
         id="feGaussianBlur5118" />
    </filter>
  </defs>
  <sodipodi:namedview
     id="base"
     pagecolor="#ffffff"
     bordercolor="#666666"
     borderopacity="1.0"
     inkscape:pageopacity="0.0"
     inkscape:pageshadow="2"
     inkscape:zoom="1.07"
     inkscape:cx="320.5414"
     inkscape:cy="200.88501"
     inkscape:document-units="px"
     inkscape:current-layer="layer1"
     showgrid="false"
     fit-margin-top="0"
     fit-margin-left="0"
     fit-margin-right="0"
     fit-margin-bottom="0"
     inkscape:window-width="1920"
     inkscape:window-height="1031"
     inkscape:window-x="1616"
     inkscape:window-y="403"
     inkscape:window-maximized="0" />
  <metadata
     id="metadata5650">
    <rdf:RDF>
      <cc:Work
         rdf:about="">
        <dc:format>image/svg+xml</dc:format>
        <dc:type
           rdf:resource="http://purl.org/dc/dcmitype/StillImage" />
        <dc:title />
      </cc:Work>
    </rdf:RDF>
  </metadata>
  <g
     inkscape:label="Calque 1"
     inkscape:groupmode="layer"
     id="layer1"
     transform="translate(1764.0602,587.88021)">
    <rect
       style="opacity:1;fill:none;fill-opacity:1;stroke:none;stroke-width:1;stroke-linecap:round;stroke-linejoin:round;stroke-miterlimit:4;stroke-dasharray:none;stroke-dashoffset:0;stroke-opacity:1"
       id="rect4267"
       width="1021.4953"
       height="182.24301"
       x="-1764.0603"
       y="-537.81757" />
    <g
       transform="translate(-1624.6124,-447.5417)"
       style="font-style:normal;font-weight:normal;font-size:20px;line-height:125%;font-family:Sans;letter-spacing:0px;word-spacing:0px;fill:#182024;fill-opacity:1;stroke:none;stroke-width:1px;stroke-linecap:butt;stroke-linejoin:miter;stroke-opacity:1"
       id="flowRoot4203">
      <path
         d="m -104.71406,-105.85472 0,-21.125 q 0,-0.975 0.975,-0.975 l 6.597499,0 q 2.5025,0 4.615,1.105 1.2025,0.6175 1.9175,1.9825 0.715001,1.3325 0.715001,3.1525 0,1.82 -0.585001,3.12 -0.5525,1.2675 -1.365,1.95 -0.78,0.6825 -1.82,1.105 -1.5925,0.65 -3.1525,0.65 l -5.037499,0 0,9.035 q 0,0.715 -1.3,0.715 l -0.26,0 q -1.3,0 -1.3,-0.715 z m 2.86,-11.505 5.069999,0 q 1.235,0 2.4375,-0.78 0.65,-0.4225 1.0725,-1.3 0.4225,-0.91 0.4225,-2.145 0,-2.1775 -1.3,-3.0225 -1.3,-0.8775 -3.0875,-0.8775 l -4.614999,0 0,8.125 z"
         style="font-style:normal;font-variant:normal;font-weight:normal;font-stretch:normal;font-size:32.50000381px;font-family:Asap;-inkscape-font-specification:Asap;fill:#182024;fill-opacity:1"
         id="path4268" />
      <path
         d="m -79.582927,-105.00972 q -3.64,0 -5.59,-2.21 -1.917501,-2.21 -1.917501,-6.4025 0,-4.225 1.950001,-6.5 1.95,-2.275 5.5575,-2.275 3.607501,0 5.492501,2.275 1.9175,2.2425 1.9175,6.5 0,4.225 -1.885,6.435 -1.8525,2.1775 -5.525001,2.1775 z m -3.5425,-3.8675 q 1.105,1.5275 3.4775,1.5275 2.372501,0 3.510001,-1.5275 1.1375,-1.56 1.1375,-4.81 0,-3.25 -1.1375,-4.81 -1.1375,-1.56 -3.510001,-1.56 -2.3725,0 -3.4775,1.56 -1.105,1.5275 -1.105,4.81 0,3.25 1.105,4.81 z"
         style="font-style:normal;font-variant:normal;font-weight:normal;font-stretch:normal;font-size:32.50000381px;font-family:Asap;-inkscape-font-specification:Asap;fill:#182024;fill-opacity:1"
         id="path4270" />
      <path
         d="m -69.268746,-106.95972 q 0,-0.325 0.39,-0.975 0.4225,-0.65 0.7475,-0.65 0.0325,0 0.52,0.325 0.4875,0.2925 1.3975,0.6175 0.91,0.2925 2.177501,0.2925 1.3,0 2.1125,-0.715 0.845,-0.7475 0.845,-1.9825 0,-1.2675 -0.7475,-1.95 -0.715,-0.715 -2.892501,-1.3325 -2.1775,-0.6175 -3.1525,-1.56 -0.975,-0.975 -0.975,-2.925 0,-1.95 1.495,-3.25 1.495,-1.3325 3.900001,-1.3325 1.6575,0 2.9575,0.4225 1.3,0.4225 1.3,0.9425 0,0.4225 -0.39,1.105 -0.3575,0.65 -0.65,0.65 -0.0325,0 -0.4225,-0.195 -1.105,-0.585 -2.5025,-0.585 -1.365,0 -2.145001,0.585 -0.7475,0.5525 -0.7475,1.4625 0,0.91 0.5525,1.43 0.585,0.52 1.950001,0.9425 3.055,0.9425 4.1275,2.08 1.105,1.105 1.105,3.38 0,2.2425 -1.625,3.705 -1.5925,1.4625 -3.835,1.4625 -2.242501,0 -3.867501,-0.65 -1.625,-0.6825 -1.625,-1.3 z"
         style="font-style:normal;font-variant:normal;font-weight:normal;font-stretch:normal;font-size:32.50000381px;font-family:Asap;-inkscape-font-specification:Asap;fill:#182024;fill-opacity:1"
         id="path4272" />
      <path
         d="m -53.535187,-109.49472 0,-10.3675 -1.625,0 q -0.650001,0 -0.650001,-0.975 l 0,-0.39 q 0,-0.975 0.650001,-0.975 l 1.625,0 0.39,-3.4125 q 0.065,-0.715 1.04,-0.715 l 0.325,0 q 0.975,0 0.975,0.715 l 0,3.4125 2.73,0 q 0.65,0 0.65,0.975 l 0,0.39 q 0,0.975 -0.65,0.975 l -2.73,0 0,10.1075 q 0,2.405 1.755,2.405 0.5525,0 0.9425,-0.065 0.39,-0.0975 0.455,-0.0975 0.2925,0 0.4875,0.6175 0.195,0.585 0.195,0.91 0,0.975 -2.3725,0.975 -1.625,0 -2.925,-0.975 -1.2675,-1.0075 -1.2675,-3.51 z"
         style="font-style:normal;font-variant:normal;font-weight:normal;font-stretch:normal;font-size:32.50000381px;font-family:Asap;-inkscape-font-specification:Asap;fill:#182024;fill-opacity:1"
         id="path4274" />
      <path
         d="m -25.714171,-115.79972 0,-1.5275 q 0,-2.73 -3.575,-2.73 -2.34,0 -4.322501,1.0075 -0.6825,0.3575 -0.7475,0.3575 -0.325,0 -0.7475,-0.65 -0.39,-0.65 -0.39,-0.975 0,-0.6825 1.885,-1.365 1.917501,-0.715 4.582501,-0.715 2.665,0 4.355001,1.365 1.69,1.3325 1.69,3.7375 l 0,7.28 q 0,1.95 0.1625,2.8275 0.2275,1.2025 0.2275,1.2675 0,0.39 -0.6175,0.585 -0.6175,0.1625 -0.975,0.1625 -0.325,0 -0.455,-0.065 -0.13,-0.065 -0.260001,-0.2275 -0.0975,-0.1625 -0.1625,-0.2925 -0.065,-0.1625 -0.13,-0.4225 -0.065,-0.26 -0.13,-0.39 -0.0325,-0.1625 -0.0975,-0.455 -0.0325,-0.325 -0.065,-0.4225 -2.21,2.4375 -5.46,2.4375 -2.502501,0 -4.030001,-1.235 -1.5275,-1.235 -1.5275,-3.8025 0,-2.5675 1.755,-3.835 1.787501,-1.3 3.997501,-1.56 2.21,-0.2925 5.0375,-0.3575 z m -7.865001,5.7525 q 0,2.665 2.762501,2.665 1.5925,0 2.73,-0.585 1.17,-0.585 2.3725,-1.6575 l 0,-3.835 q -4.0625,0 -5.2325,0.455 -0.6175,0.2275 -1.3,0.585 -1.332501,0.6825 -1.332501,2.3725 z"
         style="font-style:normal;font-variant:normal;font-weight:normal;font-stretch:normal;font-size:32.50000381px;font-family:Asap;-inkscape-font-specification:Asap;fill:#182024;fill-opacity:1"
         id="path4276" />
      <path
         d="m -11.896594,-121.71472 q 0,-0.5525 1.3975,-0.5525 l 0.26,0 q 1.1375005,0 1.3000005,0.52 l 4.3550005,13.1625 4.35500052,-13.1625 q 0.16250002,-0.52 1.43000018,-0.52 1.3000001,0 1.3000001,0.5525 0,0.1625 -0.0975,0.455 l -5.2325006,15.6 q -0.1625,0.52 -1.3000001,0.52 l -1.1375002,0 q -1.1375001,0 -1.3000001,-0.52 l -5.2325008,-15.6325 q -0.0975,-0.2925 -0.0975,-0.4225 z"
         style="font-style:normal;font-variant:normal;font-weight:normal;font-stretch:normal;font-size:32.50000381px;font-family:Asap;-inkscape-font-specification:Asap;fill:#182024;fill-opacity:1"
         id="path4278" />
      <path
         d="m 7.3540782,-126.29722 q -1.3000001,0 -1.3000001,-0.715 l 0,-1.9175 q 0,-0.715 1.3000001,-0.715 l 0.3900001,0 q 1.3000001,0 1.3000001,0.715 l 0,1.9175 q 0,0.715 -1.3000001,0.715 l -0.3900001,0 z m -1.1700001,20.4425 0,-15.6975 q 0,-0.715 1.3000002,-0.715 l 0.13,0 q 1.3000001,0 1.3000001,0.715 l 0,15.6975 q 0,0.715 -1.3000001,0.715 l -0.13,0 q -1.3000002,0 -1.3000002,-0.715 z"
         style="font-style:normal;font-variant:normal;font-weight:normal;font-stretch:normal;font-size:32.50000381px;font-family:Asap;-inkscape-font-specification:Asap;fill:#182024;fill-opacity:1"
         id="path4280" />
      <path
         d="m 25.021892,-107.44722 q -2.34,2.4375 -5.200001,2.4375 -2.86,0 -4.5825,-2.405 -1.690001,-2.405 -1.690001,-6.175 l 0,-0.2925 q 0,-3.9975 1.820001,-6.24 1.82,-2.275 4.55,-2.275 2.730001,0 4.875001,1.6575 l 0,-8.19 q 0,-0.715 1.3,-0.715 l 0.13,0 q 1.3,0 1.3,0.715 l 0,18.915 q 0,1.95 0.1625,2.8275 0.2275,1.2025 0.2275,1.2675 0,0.39 -0.6175,0.585 -0.6175,0.1625 -0.975,0.1625 -0.325,0 -0.455,-0.065 -0.13,-0.065 -0.26,-0.2275 -0.0975,-0.1625 -0.1625,-0.2925 -0.065,-0.1625 -0.13,-0.4225 -0.065,-0.26 -0.13,-0.39 -0.0325,-0.1625 -0.0975,-0.455 -0.0325,-0.325 -0.065,-0.4225 z m -8.612501,-6.5 q 0,6.565 4.225,6.565 2.112501,0 4.160001,-2.2425 l 0,-8.905 q -1.755,-1.4625 -3.932501,-1.4625 l -0.195,0 q -2.08,0.0325 -3.185,1.5925 -1.0725,1.56 -1.0725,4.4525 z"
         style="font-style:normal;font-variant:normal;font-weight:normal;font-stretch:normal;font-size:32.50000381px;font-family:Asap;-inkscape-font-specification:Asap;fill:#182024;fill-opacity:1"
         id="path4282" />
      <path
         d="m 40.017595,-105.00972 q -4.062501,0 -6.012501,-2.1125 -1.95,-2.1125 -1.95,-6.435 0,-4.355 1.9175,-6.5975 1.9175,-2.2425 5.46,-2.2425 6.890001,0 6.890001,8.4825 0,0.2925 -0.39,0.8125 -0.39,0.52 -0.6825,0.52 l -10.270001,0 q 0.195,2.6975 1.3975,3.965 1.2025,1.2675 3.607501,1.2675 2.21,0 4.0625,-1.04 0.6175,-0.325 0.6825,-0.325 0.325,0 0.715,0.65 0.4225,0.65 0.4225,0.975 0,0.65 -1.7875,1.365 -1.755,0.715 -4.0625,0.715 z m 3.4125,-9.9125 q 0,-5.135 -3.900001,-5.135 -4.1925,0 -4.55,5.135 l 8.450001,0 z"
         style="font-style:normal;font-variant:normal;font-weight:normal;font-stretch:normal;font-size:32.50000381px;font-family:Asap;-inkscape-font-specification:Asap;fill:#182024;fill-opacity:1"
         id="path4284" />
      <path
         d="m 57.082126,-105.00972 q -3.640001,0 -5.590001,-2.21 -1.9175,-2.21 -1.9175,-6.4025 0,-4.225 1.95,-6.5 1.95,-2.275 5.557501,-2.275 3.6075,0 5.4925,2.275 1.917501,2.2425 1.917501,6.5 0,4.225 -1.885001,6.435 -1.8525,2.1775 -5.525,2.1775 z m -3.542501,-3.8675 q 1.105,1.5275 3.477501,1.5275 2.3725,0 3.51,-1.5275 1.1375,-1.56 1.1375,-4.81 0,-3.25 -1.1375,-4.81 -1.1375,-1.56 -3.51,-1.56 -2.372501,0 -3.477501,1.56 -1.105,1.5275 -1.105,4.81 0,3.25 1.105,4.81 z"
         style="font-style:normal;font-variant:normal;font-weight:normal;font-stretch:normal;font-size:32.50000381px;font-family:Asap;-inkscape-font-specification:Asap;fill:#182024;fill-opacity:1"
         id="path4286" />
    </g>
    <g
       transform="translate(-1235.0986,-451.6367)"
       style="font-style:normal;font-weight:normal;font-size:20px;line-height:125%;font-family:Sans;letter-spacing:0px;word-spacing:0px;fill:#182024;fill-opacity:1;stroke:none;stroke-width:1px;stroke-linecap:butt;stroke-linejoin:miter;stroke-opacity:1"
       id="flowRoot4203-4">
      <path
         d="m -106.27406,-107.38222 q 0,-0.39 0.4225,-1.0725 0.455,-0.6825 0.715,-0.6825 0.0975,0 0.8125,0.4225 0.715,0.39 2.015,0.8125 1.3,0.4225 2.957498,0.4225 1.690001,0 2.860001,-1.0725 1.2025,-1.0725 1.2025,-2.73 0,-1.6575 -1.105,-2.6325 -1.0725,-0.975 -2.632501,-1.5275 -1.527498,-0.585 -3.087498,-1.235 -1.56,-0.65 -2.665,-2.015 -1.0725,-1.365 -1.0725,-3.4775 0,-2.6975 1.9825,-4.3225 1.9825,-1.6575 5.232499,-1.6575 1.5925,0 3.4125,0.585 1.82,0.585 1.82,1.3975 0,0.3575 -0.4225,1.04 -0.39,0.6825 -0.6175,0.6825 -0.13,0 -0.6825,-0.325 -1.6575,-0.91 -3.575,-0.91 -1.917499,0 -3.054999,0.9425 -1.1375,0.91 -1.1375,2.6975 0,1.7875 2.1125,2.795 0.909998,0.4225 2.047499,0.845 1.1375,0.39 2.2425,0.9425 1.1375,0.52 2.0475,1.235 0.9425,0.715 1.5275,1.95 0.585,1.235 0.585,2.86 0,2.99 -1.95,4.7125 -1.95,1.69 -4.940001,1.69 -2.989998,0 -5.037498,-0.8125 -2.015,-0.8125 -2.015,-1.56 z"
         style="font-style:normal;font-variant:normal;font-weight:normal;font-stretch:normal;font-size:32.50000381px;font-family:Asap;-inkscape-font-specification:Asap;fill:#182024;fill-opacity:1"
         id="path4289" />
      <path
         d="m -85.765037,-99.159719 q 0,0.715 -1.3,0.715 l -0.13,0 q -1.3,0 -1.3,-0.715 l 0,-18.102501 q 0,-1.9825 -0.1625,-2.8275 -0.2275,-1.17 -0.2275,-1.2675 0,-0.39 0.6175,-0.5525 0.6175,-0.195 0.9425,-0.195 0.3575,0 0.4875,0.065 0.13,0.065 0.2275,0.2275 0.13,0.13 0.195,0.2925 0.065,0.13 0.13,0.39 0.065,0.2275 0.0975,0.39 0.065,0.13 0.0975,0.4225 0.065,0.26 0.0975,0.3575 2.340001,-2.4375 5.200001,-2.4375 2.86,0 4.550001,2.405 1.7225,2.405 1.7225,6.175 l 0,0.2925 q 0,3.9975 -1.82,6.2725 -1.820001,2.2425 -4.550001,2.2425 -2.73,0 -4.875001,-1.6575 l 0,7.507501 z m 3.932501,-8.255001 0.195,0 q 2.08,-0.0325 3.1525,-1.5925 1.105,-1.56 1.105,-4.5825 0,-3.0225 -1.04,-4.7125 -1.04,-1.7225 -3.185,-1.7225 -2.1125,0 -4.160001,2.2425 l 0,8.905 q 1.755001,1.4625 3.932501,1.4625 z"
         style="font-style:normal;font-variant:normal;font-weight:normal;font-stretch:normal;font-size:32.50000381px;font-family:Asap;-inkscape-font-specification:Asap;fill:#182024;fill-opacity:1"
         id="path4291" />
      <path
         d="m -63.396401,-105.00972 q -3.640001,0 -5.590001,-2.21 -1.9175,-2.21 -1.9175,-6.4025 0,-4.225 1.95,-6.5 1.95,-2.275 5.557501,-2.275 3.6075,0 5.4925,2.275 1.917501,2.2425 1.917501,6.5 0,4.225 -1.885001,6.435 -1.8525,2.1775 -5.525,2.1775 z m -3.542501,-3.8675 q 1.105,1.5275 3.477501,1.5275 2.3725,0 3.51,-1.5275 1.1375,-1.56 1.1375,-4.81 0,-3.25 -1.1375,-4.81 -1.1375,-1.56 -3.51,-1.56 -2.372501,0 -3.477501,1.56 -1.105,1.5275 -1.105,4.81 0,3.25 1.105,4.81 z"
         style="font-style:normal;font-variant:normal;font-weight:normal;font-stretch:normal;font-size:32.50000381px;font-family:Asap;-inkscape-font-specification:Asap;fill:#182024;fill-opacity:1"
         id="path4293" />
      <path
         d="m -50.742219,-109.49472 0,-10.3675 -1.625,0 q -0.65,0 -0.65,-0.975 l 0,-0.39 q 0,-0.975 0.65,-0.975 l 1.625,0 0.390001,-3.4125 q 0.065,-0.715 1.04,-0.715 l 0.325,0 q 0.975,0 0.975,0.715 l 0,3.4125 2.73,0 q 0.65,0 0.65,0.975 l 0,0.39 q 0,0.975 -0.65,0.975 l -2.73,0 0,10.1075 q 0,2.405 1.755,2.405 0.5525,0 0.9425,-0.065 0.39,-0.0975 0.455,-0.0975 0.2925,0 0.4875,0.6175 0.195,0.585 0.195,0.91 0,0.975 -2.3725,0.975 -1.625,0 -2.925,-0.975 -1.267501,-1.0075 -1.267501,-3.51 z"
         style="font-style:normal;font-variant:normal;font-weight:normal;font-stretch:normal;font-size:32.50000381px;font-family:Asap;-inkscape-font-specification:Asap;fill:#182024;fill-opacity:1"
         id="path4295" />
      <path
         d="m -31.826203,-109.49472 0,-10.3675 -1.625,0 q -0.65,0 -0.65,-0.975 l 0,-0.39 q 0,-0.975 0.65,-0.975 l 1.625,0 0.39,-3.4125 q 0.065,-0.715 1.04,-0.715 l 0.325,0 q 0.975,0 0.975,0.715 l 0,3.4125 2.730001,0 q 0.65,0 0.65,0.975 l 0,0.39 q 0,0.975 -0.65,0.975 l -2.730001,0 0,10.1075 q 0,2.405 1.755001,2.405 0.5525,0 0.9425,-0.065 0.39,-0.0975 0.455,-0.0975 0.2925,0 0.4875,0.6175 0.195,0.585 0.195,0.91 0,0.975 -2.3725,0.975 -1.625001,0 -2.925001,-0.975 -1.2675,-1.0075 -1.2675,-3.51 z"
         style="font-style:normal;font-variant:normal;font-weight:normal;font-stretch:normal;font-size:32.50000381px;font-family:Asap;-inkscape-font-specification:Asap;fill:#182024;fill-opacity:1"
         id="path4297" />
      <path
         d="m -11.812803,-115.79972 0,-1.5275 q 0,-2.73 -3.575001,-2.73 -2.34,0 -4.3225,1.0075 -0.6825,0.3575 -0.7475,0.3575 -0.325,0 -0.747501,-0.65 -0.39,-0.65 -0.39,-0.975 0,-0.6825 1.885001,-1.365 1.9175,-0.715 4.5825,-0.715 2.665001,0 4.355001,1.365 1.6899999,1.3325 1.6899999,3.7375 l 0,7.28 q 0,1.95 0.1625,2.8275 0.2275,1.2025 0.2275,1.2675 0,0.39 -0.6175,0.585 -0.6175001,0.1625 -0.9749999,0.1625 -0.325,0 -0.455,-0.065 -0.13,-0.065 -0.26,-0.2275 -0.0975,-0.1625 -0.1625,-0.2925 -0.065,-0.1625 -0.13,-0.4225 -0.065,-0.26 -0.13,-0.39 -0.0325,-0.1625 -0.0975,-0.455 -0.0325,-0.325 -0.065,-0.4225 -2.210001,2.4375 -5.460001,2.4375 -2.5025,0 -4.030001,-1.235 -1.5275,-1.235 -1.5275,-3.8025 0,-2.5675 1.755001,-3.835 1.7875,-1.3 3.9975,-1.56 2.21,-0.2925 5.037501,-0.3575 z m -7.865001,5.7525 q 0,2.665 2.7625,2.665 1.5925,0 2.73,-0.585 1.17,-0.585 2.372501,-1.6575 l 0,-3.835 q -4.062501,0 -5.232501,0.455 -0.6175,0.2275 -1.3,0.585 -1.3325,0.6825 -1.3325,2.3725 z"
         style="font-style:normal;font-variant:normal;font-weight:normal;font-stretch:normal;font-size:32.50000381px;font-family:Asap;-inkscape-font-specification:Asap;fill:#182024;fill-opacity:1"
         id="path4299" />
      <path
         d="m -3.5603436,-105.85472 0,-11.4075 q 0,-1.9825 -0.1625,-2.8275 -0.2275,-1.17 -0.2275,-1.2675 0,-0.39 0.6175,-0.5525 0.6175001,-0.195 0.9425001,-0.195 0.3575001,0 0.4875001,0.065 0.13,0.065 0.2275,0.2275 0.13,0.13 0.1950001,0.2925 0.065,0.13 0.13,0.39 0.065,0.2275 0.0975,0.39 0.065,0.13 0.0975,0.4225 0.065,0.26 0.0975,0.3575 1.72250021,-2.4375 3.7700004,-2.4375 0.9100002,0 1.3975002,0.3575 0.4875001,0.3575 0.4875001,0.91 0,0.5525 -0.1950001,1.17 -0.195,0.585 -0.455,0.585 -0.13,0 -0.6500001,-0.1625 -0.4875,-0.195 -1.2025001,-0.195 -0.6825001,0 -1.43000019,0.52 -0.74750009,0.4875 -1.10500013,0.975 l -0.39000005,0.4875 0,11.895 q 0,0.715 -1.30000013,0.715 l -0.13,0 q -1.3000002,0 -1.3000002,-0.715 z"
         style="font-style:normal;font-variant:normal;font-weight:normal;font-stretch:normal;font-size:32.50000381px;font-family:Asap;-inkscape-font-specification:Asap;fill:#182024;fill-opacity:1"
         id="path4301" />
      <path
         d="m 6.5532576,-102.57222 q 0,-2.665 3.6725004,-3.965 -2.0800002,-0.8775 -2.0800002,-2.6975 0,-1.8525 2.4700002,-2.6975 -1.4300001,-0.6825 -2.2100002,-1.95 -0.7475001,-1.3 -0.7475001,-2.8925 0,-2.4375 1.6900002,-4.03 1.7225001,-1.5925 4.8100001,-1.5925 1.170001,0 2.145001,0.195 l 5.59,0 q 0.65,0 0.65,0.975 l 0,0.39 q 0,0.975 -0.65,0.975 l -2.275,0 q 1.0725,1.3 1.0725,3.0875 0,2.405 -1.7225,3.9975 -1.7225,1.5925 -4.810001,1.5925 l -0.325,0 q -2.795,0.13 -2.795,1.365 0,0.6825 1.1375,1.04 1.1375,0.325 2.730001,0.52 1.625,0.195 3.2175,0.5525 1.625,0.3575 2.7625,1.4625 1.1375,1.0725 1.1375,2.8275 0,2.21 -2.1775,3.640001 -2.145,1.4625 -5.817501,1.4625 -3.64,0 -5.5575002,-0.975 -1.9175002,-0.942501 -1.9175002,-3.282501 z m 3.9650004,-14.2025 q 0,3.25 3.64,3.25 3.672501,0 3.672501,-3.25 0,-3.2825 -3.672501,-3.2825 -3.64,0 -3.64,3.2825 z m -1.1375001,13.91 q 0,2.21 4.8750001,2.21 2.177501,0 3.510001,-0.7475 1.365,-0.7475 1.365,-1.8525 0,-0.8775 -0.7475,-1.3 -1.235,-0.6825 -4.420001,-1.105 -0.845,-0.13 -1.3325,-0.2275 -1.2675,0.4875 -2.275,1.2675 -0.9750001,0.78 -0.9750001,1.755 z"
         style="font-style:normal;font-variant:normal;font-weight:normal;font-stretch:normal;font-size:32.50000381px;font-family:Asap;-inkscape-font-specification:Asap;fill:#182024;fill-opacity:1"
         id="path4303" />
      <path
         d="m 32.90822,-105.00972 q -4.062501,0 -6.012501,-2.1125 -1.95,-2.1125 -1.95,-6.435 0,-4.355 1.9175,-6.5975 1.9175,-2.2425 5.46,-2.2425 6.890001,0 6.890001,8.4825 0,0.2925 -0.39,0.8125 -0.39,0.52 -0.6825,0.52 l -10.270001,0 q 0.195,2.6975 1.3975,3.965 1.2025,1.2675 3.607501,1.2675 2.21,0 4.0625,-1.04 0.6175,-0.325 0.6825,-0.325 0.325,0 0.715,0.65 0.4225,0.65 0.4225,0.975 0,0.65 -1.7875,1.365 -1.755,0.715 -4.0625,0.715 z m 3.4125,-9.9125 q 0,-5.135 -3.900001,-5.135 -4.1925,0 -4.55,5.135 l 8.450001,0 z"
         style="font-style:normal;font-variant:normal;font-weight:normal;font-stretch:normal;font-size:32.50000381px;font-family:Asap;-inkscape-font-specification:Asap;fill:#182024;fill-opacity:1"
         id="path4305" />
      <path
         d="m 44.15525,-109.49472 0,-10.3675 -1.625,0 q -0.65,0 -0.65,-0.975 l 0,-0.39 q 0,-0.975 0.65,-0.975 l 1.625,0 0.39,-3.4125 q 0.065,-0.715 1.04,-0.715 l 0.325,0 q 0.975,0 0.975,0.715 l 0,3.4125 2.730001,0 q 0.65,0 0.65,0.975 l 0,0.39 q 0,0.975 -0.65,0.975 l -2.730001,0 0,10.1075 q 0,2.405 1.755001,2.405 0.5525,0 0.9425,-0.065 0.39,-0.0975 0.455,-0.0975 0.2925,0 0.4875,0.6175 0.195,0.585 0.195,0.91 0,0.975 -2.3725,0.975 -1.625001,0 -2.925001,-0.975 -1.2675,-1.0075 -1.2675,-3.51 z"
         style="font-style:normal;font-variant:normal;font-weight:normal;font-stretch:normal;font-size:32.50000381px;font-family:Asap;-inkscape-font-specification:Asap;fill:#182024;fill-opacity:1"
         id="path4307" />
      <path
         d="m 52.923648,-106.95972 q 0,-0.325 0.39,-0.975 0.4225,-0.65 0.7475,-0.65 0.0325,0 0.52,0.325 0.4875,0.2925 1.397501,0.6175 0.91,0.2925 2.1775,0.2925 1.3,0 2.1125,-0.715 0.845,-0.7475 0.845,-1.9825 0,-1.2675 -0.7475,-1.95 -0.715,-0.715 -2.8925,-1.3325 -2.177501,-0.6175 -3.152501,-1.56 -0.975,-0.975 -0.975,-2.925 0,-1.95 1.495,-3.25 1.495001,-1.3325 3.900001,-1.3325 1.6575,0 2.9575,0.4225 1.3,0.4225 1.3,0.9425 0,0.4225 -0.39,1.105 -0.3575,0.65 -0.65,0.65 -0.0325,0 -0.4225,-0.195 -1.105,-0.585 -2.5025,-0.585 -1.365,0 -2.145,0.585 -0.7475,0.5525 -0.7475,1.4625 0,0.91 0.5525,1.43 0.585,0.52 1.95,0.9425 3.055,0.9425 4.1275,2.08 1.105,1.105 1.105,3.38 0,2.2425 -1.625,3.705 -1.5925,1.4625 -3.835,1.4625 -2.2425,0 -3.867501,-0.65 -1.625,-0.6825 -1.625,-1.3 z"
         style="font-style:normal;font-variant:normal;font-weight:normal;font-stretch:normal;font-size:32.50000381px;font-family:Asap;-inkscape-font-specification:Asap;fill:#182024;fill-opacity:1"
         id="path4309" />
    </g>
    <g
       id="g4215">
      <g
         transform="translate(6.0000006,6.0000003)"
         id="g5120">
        <path
           style="opacity:1;fill:#000000;fill-opacity:0.19607843;stroke:none;stroke-width:1;stroke-linecap:round;stroke-linejoin:round;stroke-miterlimit:4;stroke-dasharray:none;stroke-dashoffset:0;stroke-opacity:1;filter:url(#filter5108)"
           d="m -867.87079,-529.75441 a 81.914894,81.914894 0 0 0 -81.91407,81.91406 81.914894,81.914894 0 0 0 81.91407,81.91602 81.914894,81.914894 0 0 0 81.91406,-81.91602 81.914894,81.914894 0 0 0 -81.91406,-81.91406 z m 38.4375,19.13672 c 3.11371,0 5.6914,2.57769 5.6914,5.69141 0,3.11371 -2.57769,5.6914 -5.6914,5.6914 -0.82332,0 -1.60774,-0.18316 -2.31836,-0.50586 l -8.24414,7.75196 c 0.37412,0.75522 0.59179,1.59751 0.59179,2.48828 0,3.11371 -2.57769,5.6914 -5.6914,5.6914 -1.7446,0 -3.32021,-0.80904 -4.36914,-2.06836 l -5.60352,2.00196 c -0.0173,3.09956 -2.58627,5.66211 -5.68945,5.66211 -3.11371,0 -5.69141,-2.57965 -5.69141,-5.69336 0,-0.56344 0.0855,-1.10877 0.24219,-1.625 l -7.05078,-5.03711 c -0.90762,0.614 -1.9979,0.97265 -3.16211,0.97265 -0.0442,0 -0.0869,-0.005 -0.13086,-0.006 l -10.77149,15.79883 c 0.587,0.89412 0.93165,1.95588 0.93165,3.0918 -3e-5,3.11371 -2.5777,5.6914 -5.69141,5.6914 -2.98222,0 -5.46685,-2.3654 -5.67188,-5.30078 l -5.33593,-0.9414 c -1.03512,1.47054 -2.7428,2.44336 -4.6543,2.44336 -3.11371,0 -5.69141,-2.5777 -5.69141,-5.69141 0,-3.11371 2.5777,-5.69141 5.69141,-5.69141 2.8988,0 5.33012,2.2358 5.65234,5.05664 l 5.51758,0.97266 c 1.04628,-1.349 2.67586,-2.23047 4.49219,-2.23047 0.53209,0 1.04651,0.0823 1.53711,0.22266 l 10.22265,-14.99219 c -1.09642,-1.04117 -1.78906,-2.50495 -1.78906,-4.11523 0,-3.11371 2.5777,-5.69141 5.69141,-5.69141 3.11371,0 5.6914,2.5777 5.6914,5.69141 0,0.5069 -0.0753,0.99711 -0.20312,1.46679 l 7.1543,5.11133 c 0.87896,-0.55844 1.91408,-0.88867 3.01953,-0.88867 1.69985,0 3.23699,0.77226 4.28515,1.97656 l 5.69336,-2.0332 c 0.0843,-3.04339 2.622,-5.53711 5.6836,-5.53711 0.77475,0 1.51643,0.16149 2.19336,0.44922 l 8.30859,-7.81641 c -0.33713,-0.72369 -0.53125,-1.52451 -0.53125,-2.36719 0,-3.11371 2.5777,-5.6914 5.69141,-5.6914 z m -62.64844,59.21289 c 3.70727,0 6.45703,3.30509 6.45703,6.96875 l 0,43.19141 c 0,3.66366 -2.74976,6.96875 -6.45703,6.96875 -3.70728,0 -6.45703,-3.30509 -6.45703,-6.96875 l 0,-43.19141 c -10e-6,-3.66366 2.74975,-6.96875 6.45703,-6.96875 z m 62.64648,2.12891 c 3.64544,0 6.45703,3.17195 6.45703,6.78515 l 0,41.42774 c 0,3.6132 -2.81159,6.78711 -6.45703,6.78711 -3.64544,0 -6.45703,-3.17391 -6.45703,-6.78711 l 0,-41.42774 c 0,-3.6132 2.81159,-6.78515 6.45703,-6.78515 z m -47.11328,5.31836 0.25586,0 c 3.46346,0 6.33008,2.86661 6.33008,6.33007 l 0,37.02149 c 0,3.46346 -2.86662,6.33008 -6.33008,6.33008 l -0.25586,0 c -3.46346,0 -6.33008,-2.86662 -6.33008,-6.33008 l 0,-37.02149 c 0,-3.46346 2.86662,-6.33007 6.33008,-6.33007 z m 15.57031,1.06445 0.4375,0 c 3.41294,0 6.23829,2.82534 6.23829,6.23828 l 0,36.14062 c 0,3.41294 -2.82535,6.23829 -6.23829,6.23829 l -0.4375,0 c -3.41294,0 -6.23828,-2.82535 -6.23828,-6.23829 l 0,-36.14062 c 0,-3.41294 2.82534,-6.23828 6.23828,-6.23828 z m -47.53125,6.38281 1.53125,0 c 3.10984,0 5.69141,2.58157 5.69141,5.69141 l 0,30.85156 c 0,3.10984 -2.58157,5.69141 -5.69141,5.69141 l -1.53125,0 c -3.10984,0 -5.6914,-2.58157 -5.6914,-5.69141 l 0,-30.85156 c 0,-3.10984 2.58156,-5.69141 5.6914,-5.69141 z m 62.64649,0 1.53125,0 c 3.10984,0 5.69141,2.58157 5.69141,5.69141 l 0,30.85156 c -2e-5,3.10984 -2.58157,5.69141 -5.69141,5.69141 l -1.53125,0 c -3.10985,0 -5.69141,-2.58157 -5.69141,-5.69141 l 0,-30.85156 c 0,-3.10984 2.58156,-5.69141 5.69141,-5.69141 z"
           id="path4994"
           inkscape:connector-curvature="0" />
        <path
           style="opacity:1;fill:#000000;fill-opacity:0.19607843;stroke:none;stroke-width:1;stroke-linecap:round;stroke-linejoin:round;stroke-miterlimit:4;stroke-dasharray:none;stroke-dashoffset:0;stroke-opacity:1;filter:url(#filter5112)"
           d="m -1644.7224,-529.75441 a 81.914894,81.914894 0 0 0 -81.916,81.91406 81.914894,81.914894 0 0 0 81.916,81.91602 81.914894,81.914894 0 0 0 81.9141,-81.91602 81.914894,81.914894 0 0 0 -81.9141,-81.91406 z m -41.7558,37.23438 83.5097,0 c 7.0822,0 12.7852,5.70101 12.7852,12.7832 l 0,41.8457 c 0,7.08218 -5.703,12.78516 -12.7852,12.78516 l -83.5097,0 c -7.0822,0 -12.7832,-5.70298 -12.7832,-12.78516 l 0,-41.8457 c 0,-7.0822 5.701,-12.7832 12.7832,-12.7832 z m 28.3203,16.11718 c -0.3654,-0.02 -0.6489,0.0217 -0.8379,0.13086 -3.0239,1.74582 -3.0239,33.17019 0,34.91602 3.0239,1.74583 30.2383,-13.96733 30.2383,-17.45899 0,-3.27344 -23.9189,-17.2874 -29.4004,-17.58789 z m -19.4883,53.64844 c 2.1714,0 3.9199,1.74663 3.9199,3.91797 l 0,0.39062 81.461,0 c 1.1529,0 2.082,0.92913 2.082,2.08203 l 0,6.8125 c 0,1.15292 -0.9291,2.08204 -2.082,2.08204 l -81.461,0 0,0.39062 c 0,2.17133 -1.7485,3.91992 -3.9199,3.91992 -2.1713,0 -3.918,-1.74859 -3.918,-3.91992 l 0,-0.39062 -15.6171,0 c -1.153,0 -2.0801,-0.92913 -2.0801,-2.08204 l 0,-6.8125 c 0,-1.1529 0.9271,-2.08203 2.0801,-2.08203 l 15.6171,0 0,-0.39062 c 0,-2.17134 1.7467,-3.91797 3.918,-3.91797 z"
           id="path4996"
           inkscape:connector-curvature="0" />
        <path
           style="opacity:1;fill:#000000;fill-opacity:0.19607843;stroke:none;stroke-width:1;stroke-linecap:round;stroke-linejoin:round;stroke-miterlimit:4;stroke-dasharray:none;stroke-dashoffset:0;stroke-opacity:1;filter:url(#filter5116)"
           d="m -1256.2966,-529.75441 a 81.914894,81.914894 0 0 0 -81.916,81.91406 81.914894,81.914894 0 0 0 81.916,81.91602 81.914894,81.914894 0 0 0 81.9141,-81.91602 81.914894,81.914894 0 0 0 -81.9141,-81.91406 z m -38.5332,30.41406 a 2.7264847,2.6603481 0 0 1 1.0606,5.14063 c -6.0442,2.37803 -9.9931,8.08053 -9.9981,14.43945 -0.01,6.35891 3.9342,12.06614 9.9746,14.45313 a 2.7264847,2.6603481 0 1 1 -2.0468,4.92968 c -8.0854,-3.19509 -13.386,-10.87702 -13.379,-19.38867 0.01,-8.51165 5.3179,-16.1841 13.4082,-19.36719 a 2.7264847,2.6603481 0 0 1 0.9805,-0.20703 z m 14.084,0 a 2.7264847,2.6603481 0 0 1 0.9805,0.20703 c 8.0903,3.18309 13.4015,10.85554 13.4082,19.36719 0.01,8.51165 -5.2936,16.19358 -13.3789,19.38867 a 2.7264847,2.6603481 0 1 1 -2.0469,-4.92968 c 6.0404,-2.38699 9.9796,-8.09422 9.9746,-14.45313 -0.01,-6.35892 -3.952,-12.06142 -9.9961,-14.43945 a 2.7264847,2.6603481 0 0 1 1.0567,-5.14063 z m 61.6484,11.53907 a 2.2399176,2.1855837 0 0 1 0.8711,4.22265 c -4.9655,1.95365 -8.2089,6.63917 -8.2129,11.86328 0,5.2241 3.231,9.91205 8.1934,11.87305 a 2.2399176,2.1855837 0 1 1 -1.6816,4.05078 c -6.6425,-2.62489 -10.9963,-8.93703 -10.9903,-15.92969 0,-6.99267 4.3691,-13.29512 11.0157,-15.91015 a 2.2399176,2.1855837 0 0 1 0.8046,-0.16992 z m 11.5704,0 a 2.2399176,2.1855837 0 0 1 0.8046,0.16992 c 6.6466,2.61503 11.0097,8.91748 11.0157,15.91015 0.01,6.99266 -4.3478,13.3048 -10.9903,15.92969 a 2.2399176,2.1855837 0 1 1 -1.6816,-4.05078 c 4.9624,-1.961 8.1974,-6.64895 8.1934,-11.87305 0,-5.22411 -3.2455,-9.90963 -8.211,-11.86328 a 2.2399176,2.1855837 0 0 1 0.8672,-4.22265 z m -80.2598,0.7539 a 7.292305,7.2923045 0 0 1 7.293,7.29297 7.292305,7.2923045 0 0 1 -7.293,7.29297 7.292305,7.2923045 0 0 1 -7.291,-7.29297 7.292305,7.2923045 0 0 1 7.291,-7.29297 z m 74.4746,9.34375 a 5.9909238,5.9909234 0 0 1 5.9922,5.99219 5.9909238,5.9909234 0 0 1 -5.9922,5.99219 5.9909238,5.9909234 0 0 1 -5.9883,-5.99219 5.9909238,5.9909234 0 0 1 5.9883,-5.99219 z m -45.4277,31.50977 a 4.1861834,4.0846387 0 0 1 1.6289,7.89453 c -9.2801,3.65117 -15.3436,12.40658 -15.3516,22.16992 -0.01,9.76333 6.0401,18.52452 15.3145,22.18945 a 4.1861834,4.0846387 0 1 1 -3.1426,7.57032 c -12.4141,-4.90567 -20.5517,-16.70094 -20.541,-29.76954 0.01,-13.0686 8.1642,-24.84907 20.5859,-29.73632 a 4.1861834,4.0846387 0 0 1 1.5059,-0.31836 z m 21.623,0 a 4.1861834,4.0846387 0 0 1 1.5059,0.31836 c 12.4216,4.88725 20.5751,16.66772 20.5859,29.73632 0.011,13.0686 -8.1269,24.86387 -20.541,29.76954 a 4.1861834,4.0846387 0 1 1 -3.1426,-7.57032 c 9.2743,-3.66493 15.3225,-12.42612 15.3145,-22.18945 -0.01,-9.76334 -6.0677,-18.51875 -15.3477,-22.16992 a 4.1861834,4.0846387 0 0 1 1.6211,-7.89453 z m -10.8105,18.875 a 11.196441,11.196441 0 0 1 11.1972,11.19726 11.196441,11.196441 0 0 1 -11.1972,11.19727 11.196441,11.196441 0 0 1 -11.1934,-11.19727 11.196441,11.196441 0 0 1 11.1934,-11.19726 z"
           id="path4998"
           inkscape:connector-curvature="0" />
      </g>
      <circle
         transform="matrix(0.68339769,0,0,0.68339769,-1611.7427,-513.99007)"
         r="119.90741"
         cy="99.723328"
         cx="-48.259907"
         id="path4327"
         style="opacity:1;fill:none;fill-opacity:0.19607843;stroke:#000000;stroke-width:13.16949177;stroke-linecap:round;stroke-linejoin:round;stroke-miterlimit:4;stroke-dasharray:none;stroke-dashoffset:0;stroke-opacity:0.47058824;filter:url(#filter4986)" />
      <circle
         style="opacity:1;fill:none;fill-opacity:0.19607843;stroke:#000000;stroke-width:13.16949177;stroke-linecap:round;stroke-linejoin:round;stroke-miterlimit:4;stroke-dasharray:none;stroke-dashoffset:0;stroke-opacity:0.47058824;filter:url(#filter4986)"
         id="circle4992"
         cx="-48.259907"
         cy="99.723328"
         r="119.90741"
         transform="matrix(0.68339769,0,0,0.68339769,-834.89008,-513.99007)" />
      <circle
         style="opacity:1;fill:none;fill-opacity:0.19607843;stroke:#000000;stroke-width:13.16949177;stroke-linecap:round;stroke-linejoin:round;stroke-miterlimit:4;stroke-dasharray:none;stroke-dashoffset:0;stroke-opacity:0.47058824;filter:url(#filter4986)"
         id="circle4990"
         cx="-48.259907"
         cy="99.723328"
         r="119.90741"
         transform="matrix(0.68339769,0,0,0.68339769,-1223.3168,-513.99007)" />
      <g
         style="opacity:0.8"
         transform="matrix(0.64246848,0,0,0.64246848,-1472.6666,-733.75032)"
         id="g5510">
        <g
           id="g5514">
          <rect
             ry="3.2868221"
             y="436.39182"
             x="-70.491516"
             height="17.332644"
             width="172.27521"
             id="rect5508"
             style="opacity:1;fill:#182024;fill-opacity:1;stroke:none;stroke-width:1;stroke-linecap:round;stroke-linejoin:round;stroke-miterlimit:4;stroke-dasharray:none;stroke-dashoffset:0;stroke-opacity:1" />
          <path
             sodipodi:type="star"
             style="opacity:1;fill:#182024;fill-opacity:1;stroke:none;stroke-width:1;stroke-linecap:round;stroke-linejoin:round;stroke-miterlimit:4;stroke-dasharray:none;stroke-dashoffset:0;stroke-opacity:1"
             id="path5506"
             sodipodi:sides="3"
             sodipodi:cx="96.539833"
             sodipodi:cy="445.0192"
             sodipodi:r1="27.358746"
             sodipodi:r2="13.679373"
             sodipodi:arg1="0"
             sodipodi:arg2="1.0471976"
             inkscape:flatsided="true"
             inkscape:rounded="0.1"
             inkscape:randomized="0"
             d="m 123.89858,445.0192 c 0,4.73867 -36.934308,26.0627 -41.03812,23.69336 -4.103812,-2.36933 -4.103812,-45.0174 0,-47.38673 4.103812,-2.36934 41.03812,18.95469 41.03812,23.69337 z"
             inkscape:transform-center-x="-6.8396712" />
        </g>
      </g>
      <g
         id="g5637"
         transform="matrix(0.64246848,0,0,0.64246848,-1079.2401,-733.75032)"
         style="opacity:0.8">
        <g
           id="g5639">
          <rect
             style="opacity:1;fill:#182024;fill-opacity:1;stroke:none;stroke-width:1;stroke-linecap:round;stroke-linejoin:round;stroke-miterlimit:4;stroke-dasharray:none;stroke-dashoffset:0;stroke-opacity:1"
             id="rect5641"
             width="172.27521"
             height="17.332644"
             x="-70.491516"
             y="436.39182"
             ry="3.2868221" />
          <path
             inkscape:transform-center-x="-6.8396712"
             d="m 123.89858,445.0192 c 0,4.73867 -36.934308,26.0627 -41.03812,23.69336 -4.103812,-2.36933 -4.103812,-45.0174 0,-47.38673 4.103812,-2.36934 41.03812,18.95469 41.03812,23.69337 z"
             inkscape:randomized="0"
             inkscape:rounded="0.1"
             inkscape:flatsided="true"
             sodipodi:arg2="1.0471976"
             sodipodi:arg1="0"
             sodipodi:r2="13.679373"
             sodipodi:r1="27.358746"
             sodipodi:cy="445.0192"
             sodipodi:cx="96.539833"
             sodipodi:sides="3"
             id="path5643"
             style="opacity:1;fill:#182024;fill-opacity:1;stroke:none;stroke-width:1;stroke-linecap:round;stroke-linejoin:round;stroke-miterlimit:4;stroke-dasharray:none;stroke-dashoffset:0;stroke-opacity:1"
             sodipodi:type="star" />
        </g>
      </g>
      <path
         style="opacity:1;fill:#ff4080;fill-opacity:1;stroke:none;stroke-width:1;stroke-linecap:round;stroke-linejoin:round;stroke-miterlimit:4;stroke-dasharray:none;stroke-dashoffset:0;stroke-opacity:1"
         d="m -867.87079,-529.75441 a 81.914894,81.914894 0 0 0 -81.91407,81.91406 81.914894,81.914894 0 0 0 81.91407,81.91602 81.914894,81.914894 0 0 0 81.91406,-81.91602 81.914894,81.914894 0 0 0 -81.91406,-81.91406 z m 38.4375,19.13672 c 3.11371,0 5.6914,2.57769 5.6914,5.69141 0,3.11371 -2.57769,5.6914 -5.6914,5.6914 -0.82332,0 -1.60774,-0.18316 -2.31836,-0.50586 l -8.24414,7.75196 c 0.37412,0.75522 0.59179,1.59751 0.59179,2.48828 0,3.11371 -2.57769,5.6914 -5.6914,5.6914 -1.7446,0 -3.32021,-0.80904 -4.36914,-2.06836 l -5.60352,2.00196 c -0.0173,3.09956 -2.58627,5.66211 -5.68945,5.66211 -3.11371,0 -5.69141,-2.57965 -5.69141,-5.69336 0,-0.56344 0.0855,-1.10877 0.24219,-1.625 l -7.05078,-5.03711 c -0.90762,0.614 -1.9979,0.97265 -3.16211,0.97265 -0.0442,0 -0.0869,-0.005 -0.13086,-0.006 l -10.77149,15.79883 c 0.587,0.89412 0.93165,1.95588 0.93165,3.0918 -3e-5,3.11371 -2.5777,5.6914 -5.69141,5.6914 -2.98222,0 -5.46685,-2.3654 -5.67188,-5.30078 l -5.33593,-0.9414 c -1.03512,1.47054 -2.7428,2.44336 -4.6543,2.44336 -3.11371,0 -5.69141,-2.5777 -5.69141,-5.69141 0,-3.11371 2.5777,-5.69141 5.69141,-5.69141 2.8988,0 5.33012,2.2358 5.65234,5.05664 l 5.51758,0.97266 c 1.04628,-1.349 2.67586,-2.23047 4.49219,-2.23047 0.53209,0 1.04651,0.0823 1.53711,0.22266 l 10.22265,-14.99219 c -1.09642,-1.04117 -1.78906,-2.50495 -1.78906,-4.11523 0,-3.11371 2.5777,-5.69141 5.69141,-5.69141 3.11371,0 5.6914,2.5777 5.6914,5.69141 0,0.5069 -0.0753,0.99711 -0.20312,1.46679 l 7.1543,5.11133 c 0.87896,-0.55844 1.91408,-0.88867 3.01953,-0.88867 1.69985,0 3.23699,0.77226 4.28515,1.97656 l 5.69336,-2.0332 c 0.0843,-3.04339 2.622,-5.53711 5.6836,-5.53711 0.77475,0 1.51643,0.16149 2.19336,0.44922 l 8.30859,-7.81641 c -0.33713,-0.72369 -0.53125,-1.52451 -0.53125,-2.36719 0,-3.11371 2.5777,-5.6914 5.69141,-5.6914 z m -62.64844,59.21289 c 3.70727,0 6.45703,3.30509 6.45703,6.96875 l 0,43.19141 c 0,3.66366 -2.74976,6.96875 -6.45703,6.96875 -3.70728,0 -6.45703,-3.30509 -6.45703,-6.96875 l 0,-43.19141 c -10e-6,-3.66366 2.74975,-6.96875 6.45703,-6.96875 z m 62.64648,2.12891 c 3.64544,0 6.45703,3.17195 6.45703,6.78515 l 0,41.42774 c 0,3.6132 -2.81159,6.78711 -6.45703,6.78711 -3.64544,0 -6.45703,-3.17391 -6.45703,-6.78711 l 0,-41.42774 c 0,-3.6132 2.81159,-6.78515 6.45703,-6.78515 z m -47.11328,5.31836 0.25586,0 c 3.46346,0 6.33008,2.86661 6.33008,6.33007 l 0,37.02149 c 0,3.46346 -2.86662,6.33008 -6.33008,6.33008 l -0.25586,0 c -3.46346,0 -6.33008,-2.86662 -6.33008,-6.33008 l 0,-37.02149 c 0,-3.46346 2.86662,-6.33007 6.33008,-6.33007 z m 15.57031,1.06445 0.4375,0 c 3.41294,0 6.23829,2.82534 6.23829,6.23828 l 0,36.14062 c 0,3.41294 -2.82535,6.23829 -6.23829,6.23829 l -0.4375,0 c -3.41294,0 -6.23828,-2.82535 -6.23828,-6.23829 l 0,-36.14062 c 0,-3.41294 2.82534,-6.23828 6.23828,-6.23828 z m -47.53125,6.38281 1.53125,0 c 3.10984,0 5.69141,2.58157 5.69141,5.69141 l 0,30.85156 c 0,3.10984 -2.58157,5.69141 -5.69141,5.69141 l -1.53125,0 c -3.10984,0 -5.6914,-2.58157 -5.6914,-5.69141 l 0,-30.85156 c 0,-3.10984 2.58156,-5.69141 5.6914,-5.69141 z m 62.64649,0 1.53125,0 c 3.10984,0 5.69141,2.58157 5.69141,5.69141 l 0,30.85156 c -2e-5,3.10984 -2.58157,5.69141 -5.69141,5.69141 l -1.53125,0 c -3.10985,0 -5.69141,-2.58157 -5.69141,-5.69141 l 0,-30.85156 c 0,-3.10984 2.58156,-5.69141 5.69141,-5.69141 z"
         id="circle4810"
         inkscape:connector-curvature="0" />
      <path
         style="opacity:1;fill:#ff4080;fill-opacity:1;stroke:none;stroke-width:1;stroke-linecap:round;stroke-linejoin:round;stroke-miterlimit:4;stroke-dasharray:none;stroke-dashoffset:0;stroke-opacity:1"
         d="m -1644.7224,-529.75441 a 81.914894,81.914894 0 0 0 -81.916,81.91406 81.914894,81.914894 0 0 0 81.916,81.91602 81.914894,81.914894 0 0 0 81.9141,-81.91602 81.914894,81.914894 0 0 0 -81.9141,-81.91406 z m -41.7558,37.23438 83.5097,0 c 7.0822,0 12.7852,5.70101 12.7852,12.7832 l 0,41.8457 c 0,7.08218 -5.703,12.78516 -12.7852,12.78516 l -83.5097,0 c -7.0822,0 -12.7832,-5.70298 -12.7832,-12.78516 l 0,-41.8457 c 0,-7.0822 5.701,-12.7832 12.7832,-12.7832 z m 28.3203,16.11718 c -0.3654,-0.02 -0.6489,0.0217 -0.8379,0.13086 -3.0239,1.74582 -3.0239,33.17019 0,34.91602 3.0239,1.74583 30.2383,-13.96733 30.2383,-17.45899 0,-3.27344 -23.9189,-17.2874 -29.4004,-17.58789 z m -19.4883,53.64844 c 2.1714,0 3.9199,1.74663 3.9199,3.91797 l 0,0.39062 81.461,0 c 1.1529,0 2.082,0.92913 2.082,2.08203 l 0,6.8125 c 0,1.15292 -0.9291,2.08204 -2.082,2.08204 l -81.461,0 0,0.39062 c 0,2.17133 -1.7485,3.91992 -3.9199,3.91992 -2.1713,0 -3.918,-1.74859 -3.918,-3.91992 l 0,-0.39062 -15.6171,0 c -1.153,0 -2.0801,-0.92913 -2.0801,-2.08204 l 0,-6.8125 c 0,-1.1529 0.9271,-2.08203 2.0801,-2.08203 l 15.6171,0 0,-0.39062 c 0,-2.17134 1.7467,-3.91797 3.918,-3.91797 z"
         id="path4806"
         inkscape:connector-curvature="0" />
      <path
         style="opacity:1;fill:#ff4080;fill-opacity:1;stroke:none;stroke-width:1;stroke-linecap:round;stroke-linejoin:round;stroke-miterlimit:4;stroke-dasharray:none;stroke-dashoffset:0;stroke-opacity:1"
         d="m -1256.2966,-529.75441 a 81.914894,81.914894 0 0 0 -81.916,81.91406 81.914894,81.914894 0 0 0 81.916,81.91602 81.914894,81.914894 0 0 0 81.9141,-81.91602 81.914894,81.914894 0 0 0 -81.9141,-81.91406 z m -38.5332,30.41406 a 2.7264847,2.6603481 0 0 1 1.0606,5.14063 c -6.0442,2.37803 -9.9931,8.08053 -9.9981,14.43945 -0.01,6.35891 3.9342,12.06614 9.9746,14.45313 a 2.7264847,2.6603481 0 1 1 -2.0468,4.92968 c -8.0854,-3.19509 -13.386,-10.87702 -13.379,-19.38867 0.01,-8.51165 5.3179,-16.1841 13.4082,-19.36719 a 2.7264847,2.6603481 0 0 1 0.9805,-0.20703 z m 14.084,0 a 2.7264847,2.6603481 0 0 1 0.9805,0.20703 c 8.0903,3.18309 13.4015,10.85554 13.4082,19.36719 0.01,8.51165 -5.2936,16.19358 -13.3789,19.38867 a 2.7264847,2.6603481 0 1 1 -2.0469,-4.92968 c 6.0404,-2.38699 9.9796,-8.09422 9.9746,-14.45313 -0.01,-6.35892 -3.952,-12.06142 -9.9961,-14.43945 a 2.7264847,2.6603481 0 0 1 1.0567,-5.14063 z m 61.6484,11.53907 a 2.2399176,2.1855837 0 0 1 0.8711,4.22265 c -4.9655,1.95365 -8.2089,6.63917 -8.2129,11.86328 0,5.2241 3.231,9.91205 8.1934,11.87305 a 2.2399176,2.1855837 0 1 1 -1.6816,4.05078 c -6.6425,-2.62489 -10.9963,-8.93703 -10.9903,-15.92969 0,-6.99267 4.3691,-13.29512 11.0157,-15.91015 a 2.2399176,2.1855837 0 0 1 0.8046,-0.16992 z m 11.5704,0 a 2.2399176,2.1855837 0 0 1 0.8046,0.16992 c 6.6466,2.61503 11.0097,8.91748 11.0157,15.91015 0.01,6.99266 -4.3478,13.3048 -10.9903,15.92969 a 2.2399176,2.1855837 0 1 1 -1.6816,-4.05078 c 4.9624,-1.961 8.1974,-6.64895 8.1934,-11.87305 0,-5.22411 -3.2455,-9.90963 -8.211,-11.86328 a 2.2399176,2.1855837 0 0 1 0.8672,-4.22265 z m -80.2598,0.7539 a 7.292305,7.2923045 0 0 1 7.293,7.29297 7.292305,7.2923045 0 0 1 -7.293,7.29297 7.292305,7.2923045 0 0 1 -7.291,-7.29297 7.292305,7.2923045 0 0 1 7.291,-7.29297 z m 74.4746,9.34375 a 5.9909238,5.9909234 0 0 1 5.9922,5.99219 5.9909238,5.9909234 0 0 1 -5.9922,5.99219 5.9909238,5.9909234 0 0 1 -5.9883,-5.99219 5.9909238,5.9909234 0 0 1 5.9883,-5.99219 z m -45.4277,31.50977 a 4.1861834,4.0846387 0 0 1 1.6289,7.89453 c -9.2801,3.65117 -15.3436,12.40658 -15.3516,22.16992 -0.01,9.76333 6.0401,18.52452 15.3145,22.18945 a 4.1861834,4.0846387 0 1 1 -3.1426,7.57032 c -12.4141,-4.90567 -20.5517,-16.70094 -20.541,-29.76954 0.01,-13.0686 8.1642,-24.84907 20.5859,-29.73632 a 4.1861834,4.0846387 0 0 1 1.5059,-0.31836 z m 21.623,0 a 4.1861834,4.0846387 0 0 1 1.5059,0.31836 c 12.4216,4.88725 20.5751,16.66772 20.5859,29.73632 0.011,13.0686 -8.1269,24.86387 -20.541,29.76954 a 4.1861834,4.0846387 0 1 1 -3.1426,-7.57032 c 9.2743,-3.66493 15.3225,-12.42612 15.3145,-22.18945 -0.01,-9.76334 -6.0677,-18.51875 -15.3477,-22.16992 a 4.1861834,4.0846387 0 0 1 1.6211,-7.89453 z m -10.8105,18.875 a 11.196441,11.196441 0 0 1 11.1972,11.19726 11.196441,11.196441 0 0 1 -11.1972,11.19727 11.196441,11.196441 0 0 1 -11.1934,-11.19727 11.196441,11.196441 0 0 1 11.1934,-11.19726 z"
         id="circle4808"
         inkscape:connector-curvature="0" />
    </g>
    <g
       transform="translate(-821.82076,-447.5417)"
       style="font-style:normal;font-weight:normal;font-size:20px;line-height:125%;font-family:Sans;letter-spacing:0px;word-spacing:0px;fill:#182024;fill-opacity:1;stroke:none;stroke-width:1px;stroke-linecap:butt;stroke-linejoin:miter;stroke-opacity:1"
       id="flowRoot4203-4-1">
      <path
         d="m -105.62406,-116.38472 q 0,-11.765 10.529999,-11.765 2.34,0 4.2575,0.6825 1.950001,0.65 1.950001,1.3325 0,0.455 -0.4225,1.17 -0.39,0.715 -0.6825,0.715 -0.065,0 -0.715001,-0.3575 -0.6175,-0.3575 -1.7875,-0.715 -1.17,-0.3575 -2.535,-0.3575 -4.127501,0 -5.882499,2.275 -1.755,2.275 -1.755,6.7275 0,9.1975 7.279999,9.1975 2.5675,0 4.1925,-0.4225 l 0,-6.565 -3.8025,0 q -0.65,0 -0.65,-0.975 l 0,-0.52 q 0,-0.975 0.65,-0.975 l 5.687501,0 q 0.975,0 0.975,0.975 l 0,8.6125 q 0,2.34 -7.247501,2.34 -10.042499,0 -10.042499,-11.375 z"
         style="font-style:normal;font-variant:normal;font-weight:normal;font-stretch:normal;font-size:32.50000381px;font-family:Asap;-inkscape-font-specification:Asap;fill:#182024;fill-opacity:1"
         id="path4312" />
      <path
         d="m -75.890622,-105.00972 q -4.0625,0 -6.012501,-2.1125 -1.95,-2.1125 -1.95,-6.435 0,-4.355 1.9175,-6.5975 1.917501,-2.2425 5.460001,-2.2425 6.890001,0 6.890001,8.4825 0,0.2925 -0.39,0.8125 -0.39,0.52 -0.6825,0.52 l -10.270002,0 q 0.195,2.6975 1.397501,3.965 1.2025,1.2675 3.6075,1.2675 2.21,0 4.062501,-1.04 0.6175,-0.325 0.6825,-0.325 0.325,0 0.715,0.65 0.4225,0.65 0.4225,0.975 0,0.65 -1.7875,1.365 -1.755001,0.715 -4.062501,0.715 z m 3.4125,-9.9125 q 0,-5.135 -3.9,-5.135 -4.1925,0 -4.550001,5.135 l 8.450001,0 z"
         style="font-style:normal;font-variant:normal;font-weight:normal;font-stretch:normal;font-size:32.50000381px;font-family:Asap;-inkscape-font-specification:Asap;fill:#182024;fill-opacity:1"
         id="path4314" />
      <path
         d="m -64.64359,-109.49472 0,-10.3675 -1.625,0 q -0.65,0 -0.65,-0.975 l 0,-0.39 q 0,-0.975 0.65,-0.975 l 1.625,0 0.390001,-3.4125 q 0.065,-0.715 1.04,-0.715 l 0.325,0 q 0.975,0 0.975,0.715 l 0,3.4125 2.73,0 q 0.65,0 0.65,0.975 l 0,0.39 q 0,0.975 -0.65,0.975 l -2.73,0 0,10.1075 q 0,2.405 1.755,2.405 0.5525,0 0.9425,-0.065 0.39,-0.0975 0.455,-0.0975 0.2925,0 0.4875,0.6175 0.195,0.585 0.195,0.91 0,0.975 -2.3725,0.975 -1.625,0 -2.925,-0.975 -1.267501,-1.0075 -1.267501,-3.51 z"
         style="font-style:normal;font-variant:normal;font-weight:normal;font-stretch:normal;font-size:32.50000381px;font-family:Asap;-inkscape-font-specification:Asap;fill:#182024;fill-opacity:1"
         id="path4316" />
      <path
         d="m -36.042569,-107.44722 q -2.34,2.4375 -5.200001,2.4375 -2.86,0 -4.5825,-2.405 -1.69,-2.405 -1.69,-6.175 l 0,-0.2925 q 0,-3.9975 1.82,-6.24 1.82,-2.275 4.55,-2.275 2.730001,0 4.875001,1.6575 l 0,-8.19 q 0,-0.715 1.3,-0.715 l 0.13,0 q 1.3,0 1.3,0.715 l 0,18.915 q 0,1.95 0.1625,2.8275 0.2275,1.2025 0.2275,1.2675 0,0.39 -0.6175,0.585 -0.6175,0.1625 -0.975,0.1625 -0.325,0 -0.455,-0.065 -0.13,-0.065 -0.26,-0.2275 -0.0975,-0.1625 -0.1625,-0.2925 -0.065,-0.1625 -0.13,-0.4225 -0.065,-0.26 -0.13,-0.39 -0.0325,-0.1625 -0.0975,-0.455 -0.0325,-0.325 -0.065,-0.4225 z m -8.612501,-6.5 q 0,6.565 4.225001,6.565 2.1125,0 4.16,-2.2425 l 0,-8.905 q -1.755,-1.4625 -3.9325,-1.4625 l -0.195,0 q -2.080001,0.0325 -3.185001,1.5925 -1.0725,1.56 -1.0725,4.4525 z"
         style="font-style:normal;font-variant:normal;font-weight:normal;font-stretch:normal;font-size:32.50000381px;font-family:Asap;-inkscape-font-specification:Asap;fill:#182024;fill-opacity:1"
         id="path4318" />
      <path
         d="m -18.414366,-115.79972 0,-1.5275 q 0,-2.73 -3.575,-2.73 -2.340001,0 -4.322501,1.0075 -0.6825,0.3575 -0.7475,0.3575 -0.325,0 -0.7475,-0.65 -0.39,-0.65 -0.39,-0.975 0,-0.6825 1.885,-1.365 1.9175,-0.715 4.582501,-0.715 2.665,0 4.355,1.365 1.69,1.3325 1.69,3.7375 l 0,7.28 q 0,1.95 0.1625,2.8275 0.2275,1.2025 0.2275,1.2675 0,0.39 -0.6175,0.585 -0.6175,0.1625 -0.975,0.1625 -0.325,0 -0.455,-0.065 -0.13,-0.065 -0.26,-0.2275 -0.0975,-0.1625 -0.1625,-0.2925 -0.065,-0.1625 -0.13,-0.4225 -0.065,-0.26 -0.13,-0.39 -0.0325,-0.1625 -0.0975,-0.455 -0.0325,-0.325 -0.065,-0.4225 -2.21,2.4375 -5.460001,2.4375 -2.5025,0 -4.03,-1.235 -1.5275,-1.235 -1.5275,-3.8025 0,-2.5675 1.755,-3.835 1.7875,-1.3 3.9975,-1.56 2.210001,-0.2925 5.037501,-0.3575 z m -7.865001,5.7525 q 0,2.665 2.7625,2.665 1.592501,0 2.730001,-0.585 1.17,-0.585 2.3725,-1.6575 l 0,-3.835 q -4.0625,0 -5.232501,0.455 -0.6175,0.2275 -1.3,0.585 -1.3325,0.6825 -1.3325,2.3725 z"
         style="font-style:normal;font-variant:normal;font-weight:normal;font-stretch:normal;font-size:32.50000381px;font-family:Asap;-inkscape-font-specification:Asap;fill:#182024;fill-opacity:1"
         id="path4320" />
      <path
         d="m -9.609406,-109.49472 0,-10.3675 -1.625,0 q -0.65,0 -0.65,-0.975 l 0,-0.39 q 0,-0.975 0.65,-0.975 l 1.625,0 0.39,-3.4125 q 0.065,-0.715 1.0400001,-0.715 l 0.3250001,0 q 0.9750001,0 0.9750001,0.715 l 0,3.4125 2.7300003,0 q 0.6500001,0 0.6500001,0.975 l 0,0.39 q 0,0.975 -0.6500001,0.975 l -2.7300003,0 0,10.1075 q 0,2.405 1.7550002,2.405 0.5525001,0 0.9425001,-0.065 0.3900001,-0.0975 0.4550001,-0.0975 0.2925,0 0.4875,0.6175 0.195,0.585 0.195,0.91 0,0.975 -2.3725002,0.975 -1.6250002,0 -2.9250004,-0.975 -1.2675001,-1.0075 -1.2675001,-3.51 z"
         style="font-style:normal;font-variant:normal;font-weight:normal;font-stretch:normal;font-size:32.50000381px;font-family:Asap;-inkscape-font-specification:Asap;fill:#182024;fill-opacity:1"
         id="path4322" />
      <path
         d="m 10.403993,-115.79972 0,-1.5275 q 0,-2.73 -3.575,-2.73 -2.3400002,0 -4.3225005,1.0075 -0.6825,0.3575 -0.7475001,0.3575 -0.325,0 -0.7475,-0.65 -0.39000009,-0.65 -0.39000009,-0.975 0,-0.6825 1.88500019,-1.365 1.9175003,-0.715 4.5825006,-0.715 2.6650003,0 4.3550009,1.365 1.69,1.3325 1.69,3.7375 l 0,7.28 q 0,1.95 0.1625,2.8275 0.2275,1.2025 0.2275,1.2675 0,0.39 -0.6175,0.585 -0.6175,0.1625 -0.975,0.1625 -0.325,0 -0.455,-0.065 -0.13,-0.065 -0.26,-0.2275 -0.0975,-0.1625 -0.1625,-0.2925 -0.065,-0.1625 -0.13,-0.4225 -0.065,-0.26 -0.13,-0.39 -0.0325,-0.1625 -0.0975,-0.455 -0.0325,-0.325 -0.065,-0.4225 -2.2099998,2.4375 -5.4600002,2.4375 -2.5025003,0 -4.0300004,-1.235 -1.52750021,-1.235 -1.52750021,-3.8025 0,-2.5675 1.75500021,-3.835 1.7875002,-1.3 3.9975005,-1.56 2.2100002,-0.2925 5.0375001,-0.3575 z m -7.8650005,5.7525 q 0,2.665 2.7625004,2.665 1.5925001,0 2.7300003,-0.585 1.1700001,-0.585 2.3724998,-1.6575 l 0,-3.835 q -4.0625,0 -5.2325002,0.455 -0.6175,0.2275 -1.3000001,0.585 -1.3325002,0.6825 -1.3325002,2.3725 z"
         style="font-style:normal;font-variant:normal;font-weight:normal;font-stretch:normal;font-size:32.50000381px;font-family:Asap;-inkscape-font-specification:Asap;fill:#182024;fill-opacity:1"
         id="path4324" />
    </g>
  </g>
</svg>
