<?xml version="1.0" encoding="UTF-8" standalone="no"?>
<!-- Created with Inkscape (http://www.inkscape.org/) -->

<svg
   xmlns:dc="http://purl.org/dc/elements/1.1/"
   xmlns:cc="http://creativecommons.org/ns#"
   xmlns:rdf="http://www.w3.org/1999/02/22-rdf-syntax-ns#"
   xmlns:svg="http://www.w3.org/2000/svg"
   xmlns="http://www.w3.org/2000/svg"
   xmlns:sodipodi="http://sodipodi.sourceforge.net/DTD/sodipodi-0.dtd"
   xmlns:inkscape="http://www.inkscape.org/namespaces/inkscape"
   id="svg2"
   version="1.1"
   inkscape:version="0.91 r13725"
   width="240"
   height="40"
   viewBox="0 0 240 40"
   sodipodi:docname="gardening_gnome.svg">
  <metadata
     id="metadata8">
    <rdf:RDF>
      <cc:Work
         rdf:about="">
        <dc:format>image/svg+xml</dc:format>
        <dc:type
           rdf:resource="http://purl.org/dc/dcmitype/StillImage" />
        <dc:title />
      </cc:Work>
    </rdf:RDF>
  </metadata>
  <defs
     id="defs6" />
  <sodipodi:namedview
     pagecolor="#ffffff"
     bordercolor="#666666"
     borderopacity="1"
     objecttolerance="10"
     gridtolerance="10"
     guidetolerance="10"
     inkscape:pageopacity="0"
     inkscape:pageshadow="2"
     inkscape:window-width="1675"
     inkscape:window-height="927"
     id="namedview4"
     showgrid="false"
     inkscape:zoom="1"
     inkscape:cx="316.00001"
     inkscape:cy="4.6395338"
     inkscape:window-x="1412"
     inkscape:window-y="0"
     inkscape:window-maximized="0"
     inkscape:current-layer="g4394"
     fit-margin-top="0"
     fit-margin-left="0"
     fit-margin-right="0"
     fit-margin-bottom="0"
     showguides="true"
     inkscape:guide-bbox="true" />
  <g
     id="g4226"
     transform="scale(2,2)">
    <rect
       y="0"
       x="0"
       height="20"
       width="120"
       id="rect4224"
       style="opacity:1;fill:none;fill-opacity:1;stroke:none;stroke-width:1;stroke-linecap:round;stroke-linejoin:round;stroke-miterlimit:4;stroke-dasharray:none;stroke-dashoffset:0;stroke-opacity:1" />
    <g
       transform="matrix(1.043025,0,0,1,-35.799705,220.41305)"
       id="g4301">
      <g
         transform="translate(113.13248,93)"
         id="g4394">
        <g
           transform="translate(4.3298386,3.4408602)"
           id="g4676"
           style="fill:#edf1f3;fill-opacity:1">
          <g
             id="g4648"
             style="fill:#edf1f3;fill-opacity:1">
            <g
               inkscape:tile-y0="-213.54873"
               inkscape:tile-x0="-165.67701"
               inkscape:tile-h="194.55132"
               inkscape:tile-w="190.20917"
               inkscape:tile-cy="-116.27307"
               inkscape:tile-cx="-70.572423"
               transform="matrix(0.11504008,0,0,0.11502395,-96.460806,-274.51425)"
               id="g4293"
               style="fill:#edf1f3;fill-opacity:1">
              <g
                 transform="translate(306.20681,-151.63768)"
                 id="g4382"
                 style="fill:#edf1f3;fill-opacity:1">
                <g
                   transform="matrix(0.46963623,0,0,0.47004652,-112.94022,-29.471213)"
                   id="g4162"
                   style="fill:#edf1f3;fill-opacity:1">
                  <path
                     style="fill:#edf1f3;fill-opacity:1;fill-rule:evenodd;stroke:none;stroke-width:1.90958405px;stroke-linecap:butt;stroke-linejoin:miter;stroke-opacity:1"
                     d="m 124.13546,-70.215491 c 0,0 -117.5047525,-20.700869 -122.9706825,-32.740309 -5.46594,-12.03944 -16.6717205,-111.10914 -10.579,-116.85855 6.09273,-5.74941 144.2721325,67.55793 144.2721325,67.55793 6.87399,18.09987 -8.75003,73.484608 -10.72245,82.040929 z"
                     id="path4144"
                     inkscape:connector-curvature="0"
                     sodipodi:nodetypes="czzcc" />
                  <path
                     style="fill:#edf1f3;fill-opacity:1;fill-rule:evenodd;stroke:none;stroke-width:1.90958405px;stroke-linecap:butt;stroke-linejoin:miter;stroke-opacity:1"
                     d="M 24.226134,-142.37206 C 7.9544098,-156.11073 -104.6593,-181.70252 -104.6593,-181.70252 c -12.84489,2.99089 2.15189,19.13101 4.3308,23.17857 5.9719,11.09344 99.94267113,41.0068 124.072763,35.41195 24.130091,-5.59484 16.753596,-5.52139 0.481871,-19.26006 z"
                     id="path4146"
                     inkscape:connector-curvature="0"
                     sodipodi:nodetypes="zsszz" />
                  <path
                     sodipodi:nodetypes="zsszz"
                     inkscape:connector-curvature="0"
                     id="path4150"
                     d="m 18.898904,-84.156461 c 5.236628,-11.97091 -2.713728,-76.126829 -2.713728,-76.126829 -4.665186,-5.72799 -11.7032467,6.24049 -13.8085297,8.43739 -5.770089,6.02118 -4.57842,61.858339 4.170373,72.625199 8.7487827,10.76686 7.1152567,7.03515 12.3518847,-4.93576 z"
                     style="fill:#edf1f3;fill-opacity:1;fill-rule:evenodd;stroke:none;stroke-width:1.90958405px;stroke-linecap:butt;stroke-linejoin:miter;stroke-opacity:1" />
                  <path
                     inkscape:connector-curvature="0"
                     id="path4205"
                     d="m 149.32468,-96.475142 c -32.39798,-12.592468 -47.38429,43.546736 -19.65974,56.792681 28.90224,16.84201 55.33368,-31.036027 32.05177,-50.978106 -3.47776,-3.148928 -7.83646,-4.950844 -12.39203,-5.814575 z"
                     style="fill:#edf1f3;fill-opacity:1;fill-rule:evenodd;stroke:none;stroke-width:1.90958405px;stroke-linecap:butt;stroke-linejoin:miter;stroke-opacity:1" />
                </g>
                <g
                   style="fill:#edf1f3;fill-opacity:1;stroke:none"
                   transform="matrix(1,0,0,0.94961345,-76.499079,64.005335)"
                   id="g4376">
                  <path
                     style="fill:#edf1f3;fill-opacity:1;fill-rule:evenodd;stroke:none;stroke-width:0.89720154px;stroke-linecap:butt;stroke-linejoin:miter;stroke-opacity:1"
                     d="m -64.281571,-152.96451 c -6.99014,0.0837 -14.00564,-0.21999 -20.96863,0.26545 -3.88544,-1.21235 -6.40795,-2.85441 -8.218,-7.04671 -3.56565,-3.60326 -1.30534,-9.39221 -1.0719,-13.92485 1.9228,-3.89554 -2.36567,-4.48775 -5.04668,-5.83152 -4.344129,-3.43688 -2.986569,-10.96631 -1.057749,-15.5961 1.148339,-2.27713 2.983089,-6.13394 0.819239,-8.00928 -3.938459,1.27182 -6.778379,-2.3511 -3.710899,-5.7155 2.93098,-2.7821 4.003899,-8.65663 2.62588,-12.36541 -3.073,-2.10925 0.3381,-4.54886 1.883319,-5.0857 -2.717969,-2.99662 0.22624,-5.71739 1.20124,-7.43064 -3.096119,-4.7342 1.60839,-10.28774 7.06435,-10.9119 5.31969,-2.52276 11.75009,-2.66476 17.48696,-1.05787 3.05701,0.5783 4.08682,4.21454 3.7659,7.11257 1.33151,2.24145 1.97382,3.24947 4.10623,4.83613 3.0409,-0.0233 4.14869,1.01788 5.89845,2.44982 1.06551,2.34837 1.72046,4.48021 -0.26541,6.10564 -2.29101,0.0634 -9.58579,-1.06412 -5.73847,2.44497 1.5358,2.00154 2.80872,4.06438 3.34552,7.45315 0.0951,4.19376 1.06579,7.67068 4.78177,9.74613 3.33973,4.25239 1.8162,10.56162 4.96812,15.12862 4.22159,3.31519 -2.7453,5.97244 -4.92041,1.88081 -2.21745,-2.17049 -3.48106,-6.3544 -5.88852,-8.0078 -3.27221,1.57887 -0.0444,8.71147 1.41231,11.2852 3.23287,0.59254 7.90374,1.7844 7.08125,6.86879 0.45168,2.70675 0.69856,5.08254 -1.19056,6.86806 -0.98175,2.50234 -6.92241,-0.59043 -6.63796,2.47738 -0.84754,3.33036 -0.0513,6.91965 -0.56541,10.29865 -1.13188,1.57484 -0.48931,4.08671 -1.15994,5.76191 z"
                     id="path4312"
                     inkscape:connector-curvature="0" />
                  <path
                     style="fill:#edf1f3;fill-opacity:1;fill-rule:evenodd;stroke:none;stroke-width:0.89720148px;stroke-linecap:butt;stroke-linejoin:miter;stroke-opacity:1"
                     d="m -86.868351,-291.25068 c -2.499345,1.40024 -2.62718,4.60785 -3.690172,6.97998 -3.601261,11.7973 -5.469538,24.03191 -7.260325,36.20531 0.119589,1.81734 -1.903732,5.27258 0.412409,5.87247 -1.20949,2.5716 2.495847,0.91841 3.821306,1.36363 8.676012,-0.01 17.352028,0.002 26.028042,-0.002 0.284593,0.27242 -1.119395,-5.77194 -2.245942,-8.43768 -3.556974,-12.63771 -7.034948,-25.40308 -12.706159,-37.29166 -0.959096,-1.75904 -2.038703,-3.71125 -3.881468,-4.64587 l -0.477702,-0.0434 1.1e-5,-4.5e-4 z"
                     id="path4319"
                     inkscape:connector-curvature="0"
                     sodipodi:nodetypes="cccccccccccc" />
                  <path
                     style="fill:#edf1f3;fill-opacity:1;fill-rule:evenodd;stroke:none;stroke-width:0.89720154px;stroke-linecap:butt;stroke-linejoin:miter;stroke-opacity:1"
                     d="m -89.254691,-161.61199 c 1.090178,1.95915 -0.3116,5.38993 -0.100655,8.03542 -0.41991,2.68542 0.06422,4.48449 0.04801,7.15314 -0.450774,2.5226 -1.229404,5.08736 -1.754024,7.63667 -0.375058,4.17777 -1.826577,8.14194 -2.696782,12.22437 -0.664856,2.30666 1.536728,3.64306 3.675321,4.22665 2.726919,1.23245 5.555956,2.11503 8.507863,2.71133 2.246289,0.60293 4.572017,0.68524 6.849581,1.19141 1.805599,0.17671 3.960289,0.373 4.826213,-0.29265 2.284137,0.61306 1.825257,-0.75595 4.14095,-1.0416 0.818865,-2.68611 0.790991,-4.09442 -0.439973,-6.31813 -1.453954,-0.97444 -2.276911,-2.6096 -4.341329,-3.65619 -2.67919,-1.05533 -6.611505,-1.22566 -8.642234,-2.45958 -0.789781,-2.48055 0.904014,-4.79963 0.585782,-7.22595 0.230505,-2.3736 -0.06746,-4.11649 0.514399,-6.69509 0.298568,-2.09254 1.475421,-4.26193 1.040972,-6.21263 -0.02784,-1.90361 0.665059,-5.34606 -1.907539,-6.30231 -3.001723,-1.45026 -6.229303,-2.75841 -9.605499,-2.89047 -1.462106,-0.74279 2.108939,0.33214 -0.279206,0.0188 l -0.421834,-0.10317 -1.6e-5,-4e-5 z"
                     id="path4368"
                     inkscape:connector-curvature="0" />
                  <path
                     inkscape:connector-curvature="0"
                     id="path4374"
                     d="m -76.061981,-154.67831 c 2.068217,0.8651 3.088378,4.42807 4.890148,6.37635 1.330754,2.36991 2.823751,3.48411 4.461355,5.59112 1.205807,2.26105 2.180063,4.75805 3.344362,7.08577 2.288895,3.51483 3.599827,7.5277 5.440676,11.27389 0.904048,2.22381 3.460463,1.91205 5.501833,1.04771 2.904936,-0.7184 5.673743,-1.77491 8.362061,-3.13236 2.137952,-0.91577 4.016372,-2.28976 6.119062,-3.30091 1.528087,-0.97807 3.342595,-2.15669 3.611371,-3.2154 2.173963,-0.93121 0.966761,-1.7231 2.60974,-3.38003 -1.017685,-2.61723 -1.91051,-3.70661 -4.252963,-4.69251 -1.745095,0.13372 -3.402977,-0.6421 -5.672386,-0.18746 -2.75789,0.82807 -5.953169,3.12672 -8.311958,3.41331 -2.154609,-1.46062 -2.257814,-4.33067 -4.008351,-6.04038 -1.286749,-2.00772 -2.598721,-3.19293 -3.736155,-5.57908 -1.059451,-1.82897 -1.476289,-4.26163 -3.02402,-5.52571 -1.1991,-1.47859 -2.783499,-4.61223 -5.396363,-3.77225 -3.255565,0.71725 -6.60072,1.68588 -9.335341,3.67059 -1.608256,0.32077 1.862563,-1.04358 -0.207767,0.18749 l -0.395268,0.17988 -4e-5,-3e-5 z"
                     style="fill:#edf1f3;fill-opacity:1;fill-rule:evenodd;stroke:none;stroke-width:0.89720154px;stroke-linecap:butt;stroke-linejoin:miter;stroke-opacity:1" />
                </g>
                <g
                   id="g4638"
                   transform="matrix(1,0,0,0.94961345,-66.177501,58.621748)"
                   style="fill:#edf1f3;fill-opacity:1;stroke:none" />
              </g>
            </g>
          </g>
        </g>
        <g
           transform="translate(23.504834,3.4408602)"
           id="g4729"
           style="fill:#edf1f3;fill-opacity:1">
          <g
             id="g4731"
             style="fill:#edf1f3;fill-opacity:1">
            <g
               id="g4735"
               transform="matrix(0.11504008,0,0,0.11502395,-96.460806,-274.51425)"
               inkscape:tile-cx="-70.572423"
               inkscape:tile-cy="-116.27307"
               inkscape:tile-w="190.20917"
               inkscape:tile-h="194.55132"
               inkscape:tile-x0="-165.67701"
               inkscape:tile-y0="-213.54873"
               style="fill:#edf1f3;fill-opacity:1">
              <g
                 id="g4737"
                 transform="translate(306.20681,-151.63768)"
                 style="fill:#edf1f3;fill-opacity:1">
                <g
                   id="g4739"
                   transform="matrix(0.46963623,0,0,0.47004652,-112.94022,-29.471213)"
                   style="fill:#edf1f3;fill-opacity:1">
                  <path
                     sodipodi:nodetypes="czzcc"
                     inkscape:connector-curvature="0"
                     id="path4741"
                     d="m 124.13546,-70.215491 c 0,0 -117.5047525,-20.700869 -122.9706825,-32.740309 -5.46594,-12.03944 -16.6717205,-111.10914 -10.579,-116.85855 6.09273,-5.74941 144.2721325,67.55793 144.2721325,67.55793 6.87399,18.09987 -8.75003,73.484608 -10.72245,82.040929 z"
                     style="fill:#edf1f3;fill-opacity:1;fill-rule:evenodd;stroke:none;stroke-width:1.90958405px;stroke-linecap:butt;stroke-linejoin:miter;stroke-opacity:1" />
                  <path
                     sodipodi:nodetypes="zsszz"
                     inkscape:connector-curvature="0"
                     id="path4743"
                     d="M 24.226134,-142.37206 C 7.9544098,-156.11073 -104.6593,-181.70252 -104.6593,-181.70252 c -12.84489,2.99089 2.15189,19.13101 4.3308,23.17857 5.9719,11.09344 99.94267113,41.0068 124.072763,35.41195 24.130091,-5.59484 16.753596,-5.52139 0.481871,-19.26006 z"
                     style="fill:#edf1f3;fill-opacity:1;fill-rule:evenodd;stroke:none;stroke-width:1.90958405px;stroke-linecap:butt;stroke-linejoin:miter;stroke-opacity:1" />
                  <path
                     style="fill:#edf1f3;fill-opacity:1;fill-rule:evenodd;stroke:none;stroke-width:1.90958405px;stroke-linecap:butt;stroke-linejoin:miter;stroke-opacity:1"
                     d="m 18.898904,-84.156461 c 5.236628,-11.97091 -2.713728,-76.126829 -2.713728,-76.126829 -4.665186,-5.72799 -11.7032467,6.24049 -13.8085297,8.43739 -5.770089,6.02118 -4.57842,61.858339 4.170373,72.625199 8.7487827,10.76686 7.1152567,7.03515 12.3518847,-4.93576 z"
                     id="path4745"
                     inkscape:connector-curvature="0"
                     sodipodi:nodetypes="zsszz" />
                  <path
                     style="fill:#edf1f3;fill-opacity:1;fill-rule:evenodd;stroke:none;stroke-width:1.90958405px;stroke-linecap:butt;stroke-linejoin:miter;stroke-opacity:1"
                     d="m 149.32468,-96.475142 c -32.39798,-12.592468 -47.38429,43.546736 -19.65974,56.792681 28.90224,16.84201 55.33368,-31.036027 32.05177,-50.978106 -3.47776,-3.148928 -7.83646,-4.950844 -12.39203,-5.814575 z"
                     id="path4747"
                     inkscape:connector-curvature="0" />
                </g>
                <g
                   id="g4749"
                   transform="matrix(1,0,0,0.94961345,-76.499079,64.005335)"
                   style="fill:#edf1f3;fill-opacity:1;stroke:none">
                  <path
                     inkscape:connector-curvature="0"
                     id="path4751"
                     d="m -64.281571,-152.96451 c -6.99014,0.0837 -14.00564,-0.21999 -20.96863,0.26545 -3.88544,-1.21235 -6.40795,-2.85441 -8.218,-7.04671 -3.56565,-3.60326 -1.30534,-9.39221 -1.0719,-13.92485 1.9228,-3.89554 -2.36567,-4.48775 -5.04668,-5.83152 -4.344129,-3.43688 -2.986569,-10.96631 -1.057749,-15.5961 1.148339,-2.27713 2.983089,-6.13394 0.819239,-8.00928 -3.938459,1.27182 -6.778379,-2.3511 -3.710899,-5.7155 2.93098,-2.7821 4.003899,-8.65663 2.62588,-12.36541 -3.073,-2.10925 0.3381,-4.54886 1.883319,-5.0857 -2.717969,-2.99662 0.22624,-5.71739 1.20124,-7.43064 -3.096119,-4.7342 1.60839,-10.28774 7.06435,-10.9119 5.31969,-2.52276 11.75009,-2.66476 17.48696,-1.05787 3.05701,0.5783 4.08682,4.21454 3.7659,7.11257 1.33151,2.24145 1.97382,3.24947 4.10623,4.83613 3.0409,-0.0233 4.14869,1.01788 5.89845,2.44982 1.06551,2.34837 1.72046,4.48021 -0.26541,6.10564 -2.29101,0.0634 -9.58579,-1.06412 -5.73847,2.44497 1.5358,2.00154 2.80872,4.06438 3.34552,7.45315 0.0951,4.19376 1.06579,7.67068 4.78177,9.74613 3.33973,4.25239 1.8162,10.56162 4.96812,15.12862 4.22159,3.31519 -2.7453,5.97244 -4.92041,1.88081 -2.21745,-2.17049 -3.48106,-6.3544 -5.88852,-8.0078 -3.27221,1.57887 -0.0444,8.71147 1.41231,11.2852 3.23287,0.59254 7.90374,1.7844 7.08125,6.86879 0.45168,2.70675 0.69856,5.08254 -1.19056,6.86806 -0.98175,2.50234 -6.92241,-0.59043 -6.63796,2.47738 -0.84754,3.33036 -0.0513,6.91965 -0.56541,10.29865 -1.13188,1.57484 -0.48931,4.08671 -1.15994,5.76191 z"
                     style="fill:#edf1f3;fill-opacity:1;fill-rule:evenodd;stroke:none;stroke-width:0.89720154px;stroke-linecap:butt;stroke-linejoin:miter;stroke-opacity:1" />
                  <path
                     sodipodi:nodetypes="cccccccccccc"
                     inkscape:connector-curvature="0"
                     id="path4753"
                     d="m -86.868351,-291.25068 c -2.499345,1.40024 -2.62718,4.60785 -3.690172,6.97998 -3.601261,11.7973 -5.469538,24.03191 -7.260325,36.20531 0.119589,1.81734 -1.903732,5.27258 0.412409,5.87247 -1.20949,2.5716 2.495847,0.91841 3.821306,1.36363 8.676012,-0.01 17.352028,0.002 26.028042,-0.002 0.284593,0.27242 -1.119395,-5.77194 -2.245942,-8.43768 -3.556974,-12.63771 -7.034948,-25.40308 -12.706159,-37.29166 -0.959096,-1.75904 -2.038703,-3.71125 -3.881468,-4.64587 l -0.477702,-0.0434 1.1e-5,-4.5e-4 z"
                     style="fill:#edf1f3;fill-opacity:1;fill-rule:evenodd;stroke:none;stroke-width:0.89720148px;stroke-linecap:butt;stroke-linejoin:miter;stroke-opacity:1" />
                  <path
                     inkscape:connector-curvature="0"
                     id="path4755"
                     d="m -89.070987,-163.93034 c 0.694188,2.16586 -1.328201,5.19997 -1.62423,7.8356 -0.920588,2.53013 -0.78872,4.40056 -1.311305,7.0068 -0.919857,2.36382 -2.168363,4.69374 -3.165514,7.06677 -1.160095,3.99993 -3.332413,7.54429 -4.958664,11.33752 -1.08822,2.10358 0.811174,3.91505 2.791911,4.97585 2.432914,1.83019 5.032134,3.3416 7.805881,4.60119 2.082391,1.10438 4.341331,1.7178 6.472683,2.73472 1.732327,0.58656 3.802348,1.27226 4.77562,0.81968 2.117483,1.12296 1.928649,-0.32108 4.247644,-0.0698 1.310899,-2.43939 1.551052,-3.82311 0.76941,-6.27997 -1.236942,-1.28616 -1.731308,-3.07393 -3.551585,-4.57054 -2.419867,-1.64603 -6.233341,-2.71367 -7.985099,-4.38577 -0.301395,-2.60696 1.795496,-4.4869 1.944981,-6.93277 0.67614,-2.26857 0.715675,-4.0414 1.774366,-6.42995 0.689338,-1.9781 2.252234,-3.8301 2.197746,-5.83744 0.334236,-1.86812 1.665556,-5.07607 -0.668878,-6.60078 -2.660314,-2.10618 -5.568502,-4.12512 -8.845356,-5.0279 -1.288901,-1.06148 1.999481,0.80808 -0.276634,-0.0456 l -0.392965,-0.19756 -8e-6,-5e-5 z"
                     style="fill:#edf1f3;fill-opacity:1;fill-rule:evenodd;stroke:none;stroke-width:0.89720154px;stroke-linecap:butt;stroke-linejoin:miter;stroke-opacity:1" />
                  <path
                     style="fill:#edf1f3;fill-opacity:1;fill-rule:evenodd;stroke:none;stroke-width:0.89720154px;stroke-linecap:butt;stroke-linejoin:miter;stroke-opacity:1"
                     d="m -76.06559,-157.47941 c 1.932965,1.18383 2.474523,4.8712 4.001573,7.08465 1.005589,2.55602 2.336637,3.89518 3.680392,6.23969 0.896245,2.42849 1.532374,5.05377 2.37879,7.54167 1.803341,3.84081 2.573542,8.01946 3.90314,12.0182 0.602534,2.34383 3.173148,2.44048 5.306677,1.90871 2.968894,-0.2505 5.847488,-0.85715 8.685957,-1.77434 2.235855,-0.56736 4.275072,-1.62927 6.48856,-2.2966 1.640552,-0.72566 3.590867,-1.60438 3.995873,-2.60941 2.273517,-0.57693 1.182944,-1.55186 3.026342,-2.93107 -0.663314,-2.75114 -1.403728,-3.97062 -3.592196,-5.31745 -1.7444,-0.14425 -3.283048,-1.1747 -5.588423,-1.08448 -2.83779,0.38232 -6.301526,2.15052 -8.673276,2.06029 -1.940243,-1.78682 -1.66544,-4.6432 -3.173125,-6.61245 -1.00961,-2.19065 -2.152202,-3.57139 -2.96436,-6.11284 -0.808166,-1.97774 -0.901158,-4.45101 -2.266683,-5.94716 -0.99237,-1.65316 -2.148648,-5.00512 -4.844493,-4.58802 -3.315704,0.19379 -6.753074,0.62213 -9.719741,2.15268 -1.633559,0.0625 1.980132,-0.73748 -0.230217,0.1526 l -0.414757,0.11536 -3.6e-5,-4e-5 z"
                     id="path4757"
                     inkscape:connector-curvature="0" />
                </g>
                <g
                   style="fill:#edf1f3;fill-opacity:1;stroke:none"
                   transform="matrix(1,0,0,0.94961345,-66.177501,58.621748)"
                   id="g4759" />
              </g>
            </g>
          </g>
        </g>
        <g
           id="g4761"
           transform="translate(42.679829,3.4408602)"
           style="fill:#edf1f3;fill-opacity:1">
          <g
             id="g4763"
             style="fill:#edf1f3;fill-opacity:1">
            <g
               inkscape:tile-y0="-213.54873"
               inkscape:tile-x0="-165.67701"
               inkscape:tile-h="194.55132"
               inkscape:tile-w="190.20917"
               inkscape:tile-cy="-116.27307"
               inkscape:tile-cx="-70.572423"
               transform="matrix(0.11504008,0,0,0.11502395,-96.460806,-274.51425)"
               id="g4767"
               style="fill:#edf1f3;fill-opacity:1">
              <g
                 transform="translate(306.20681,-151.63768)"
                 id="g4769"
                 style="fill:#edf1f3;fill-opacity:1">
                <g
                   transform="matrix(0.46963623,0,0,0.47004652,-112.94022,-29.471213)"
                   id="g4771"
                   style="fill:#edf1f3;fill-opacity:1">
                  <path
                     style="fill:#edf1f3;fill-opacity:1;fill-rule:evenodd;stroke:none;stroke-width:1.90958405px;stroke-linecap:butt;stroke-linejoin:miter;stroke-opacity:1"
                     d="m 124.13546,-70.215491 c 0,0 -117.5047525,-20.700869 -122.9706825,-32.740309 -5.46594,-12.03944 -16.6717205,-111.10914 -10.579,-116.85855 6.09273,-5.74941 144.2721325,67.55793 144.2721325,67.55793 6.87399,18.09987 -8.75003,73.484608 -10.72245,82.040929 z"
                     id="path4773"
                     inkscape:connector-curvature="0"
                     sodipodi:nodetypes="czzcc" />
                  <path
                     style="fill:#edf1f3;fill-opacity:1;fill-rule:evenodd;stroke:none;stroke-width:1.90958405px;stroke-linecap:butt;stroke-linejoin:miter;stroke-opacity:1"
                     d="M 24.226134,-142.37206 C 7.9544098,-156.11073 -104.6593,-181.70252 -104.6593,-181.70252 c -12.84489,2.99089 2.15189,19.13101 4.3308,23.17857 5.9719,11.09344 99.94267113,41.0068 124.072763,35.41195 24.130091,-5.59484 16.753596,-5.52139 0.481871,-19.26006 z"
                     id="path4775"
                     inkscape:connector-curvature="0"
                     sodipodi:nodetypes="zsszz" />
                  <path
                     sodipodi:nodetypes="zsszz"
                     inkscape:connector-curvature="0"
                     id="path4777"
                     d="m 18.898904,-84.156461 c 5.236628,-11.97091 -2.713728,-76.126829 -2.713728,-76.126829 -4.665186,-5.72799 -11.7032467,6.24049 -13.8085297,8.43739 -5.770089,6.02118 -4.57842,61.858339 4.170373,72.625199 8.7487827,10.76686 7.1152567,7.03515 12.3518847,-4.93576 z"
                     style="fill:#edf1f3;fill-opacity:1;fill-rule:evenodd;stroke:none;stroke-width:1.90958405px;stroke-linecap:butt;stroke-linejoin:miter;stroke-opacity:1" />
                  <path
                     inkscape:connector-curvature="0"
                     id="path4779"
                     d="m 149.32468,-96.475142 c -32.39798,-12.592468 -47.38429,43.546736 -19.65974,56.792681 28.90224,16.84201 55.33368,-31.036027 32.05177,-50.978106 -3.47776,-3.148928 -7.83646,-4.950844 -12.39203,-5.814575 z"
                     style="fill:#edf1f3;fill-opacity:1;fill-rule:evenodd;stroke:none;stroke-width:1.90958405px;stroke-linecap:butt;stroke-linejoin:miter;stroke-opacity:1" />
                </g>
                <g
                   style="fill:#edf1f3;fill-opacity:1;stroke:none"
                   transform="matrix(1,0,0,0.94961345,-76.499079,64.005335)"
                   id="g4781">
                  <path
                     style="fill:#edf1f3;fill-opacity:1;fill-rule:evenodd;stroke:none;stroke-width:0.89720154px;stroke-linecap:butt;stroke-linejoin:miter;stroke-opacity:1"
                     d="m -64.281571,-152.96451 c -6.99014,0.0837 -14.00564,-0.21999 -20.96863,0.26545 -3.88544,-1.21235 -6.40795,-2.85441 -8.218,-7.04671 -3.56565,-3.60326 -1.30534,-9.39221 -1.0719,-13.92485 1.9228,-3.89554 -2.36567,-4.48775 -5.04668,-5.83152 -4.344129,-3.43688 -2.986569,-10.96631 -1.057749,-15.5961 1.148339,-2.27713 2.983089,-6.13394 0.819239,-8.00928 -3.938459,1.27182 -6.778379,-2.3511 -3.710899,-5.7155 2.93098,-2.7821 4.003899,-8.65663 2.62588,-12.36541 -3.073,-2.10925 0.3381,-4.54886 1.883319,-5.0857 -2.717969,-2.99662 0.22624,-5.71739 1.20124,-7.43064 -3.096119,-4.7342 1.60839,-10.28774 7.06435,-10.9119 5.31969,-2.52276 11.75009,-2.66476 17.48696,-1.05787 3.05701,0.5783 4.08682,4.21454 3.7659,7.11257 1.33151,2.24145 1.97382,3.24947 4.10623,4.83613 3.0409,-0.0233 4.14869,1.01788 5.89845,2.44982 1.06551,2.34837 1.72046,4.48021 -0.26541,6.10564 -2.29101,0.0634 -9.58579,-1.06412 -5.73847,2.44497 1.5358,2.00154 2.80872,4.06438 3.34552,7.45315 0.0951,4.19376 1.06579,7.67068 4.78177,9.74613 3.33973,4.25239 1.8162,10.56162 4.96812,15.12862 4.22159,3.31519 -2.7453,5.97244 -4.92041,1.88081 -2.21745,-2.17049 -3.48106,-6.3544 -5.88852,-8.0078 -3.27221,1.57887 -0.0444,8.71147 1.41231,11.2852 3.23287,0.59254 7.90374,1.7844 7.08125,6.86879 0.45168,2.70675 0.69856,5.08254 -1.19056,6.86806 -0.98175,2.50234 -6.92241,-0.59043 -6.63796,2.47738 -0.84754,3.33036 -0.0513,6.91965 -0.56541,10.29865 -1.13188,1.57484 -0.48931,4.08671 -1.15994,5.76191 z"
                     id="path4783"
                     inkscape:connector-curvature="0" />
                  <path
                     style="fill:#edf1f3;fill-opacity:1;fill-rule:evenodd;stroke:none;stroke-width:0.89720148px;stroke-linecap:butt;stroke-linejoin:miter;stroke-opacity:1"
                     d="m -86.868351,-291.25068 c -2.499345,1.40024 -2.62718,4.60785 -3.690172,6.97998 -3.601261,11.7973 -5.469538,24.03191 -7.260325,36.20531 0.119589,1.81734 -1.903732,5.27258 0.412409,5.87247 -1.20949,2.5716 2.495847,0.91841 3.821306,1.36363 8.676012,-0.01 17.352028,0.002 26.028042,-0.002 0.284593,0.27242 -1.119395,-5.77194 -2.245942,-8.43768 -3.556974,-12.63771 -7.034948,-25.40308 -12.706159,-37.29166 -0.959096,-1.75904 -2.038703,-3.71125 -3.881468,-4.64587 l -0.477702,-0.0434 1.1e-5,-4.5e-4 z"
                     id="path4785"
                     inkscape:connector-curvature="0"
                     sodipodi:nodetypes="cccccccccccc" />
                  <path
                     style="fill:#edf1f3;fill-opacity:1;fill-rule:evenodd;stroke:none;stroke-width:0.89720154px;stroke-linecap:butt;stroke-linejoin:miter;stroke-opacity:1"
                     d="m -89.146393,-164.65603 c 0.265841,2.27754 -2.290186,4.77904 -3.082168,7.2881 -1.382573,2.2622 -1.610253,4.12148 -2.61816,6.54967 -1.350149,2.09975 -3.015195,4.09074 -4.442677,6.18169 -1.897002,3.6443 -4.696922,6.61023 -7.010332,9.94516 -1.46516,1.80653 0.0467,4.01485 1.78127,5.50785 2.03,2.34937 4.2834,4.42529 6.755466,6.29514 1.825638,1.55901 3.917517,2.67857 5.807705,4.16332 1.582068,0.97213 3.475438,2.1189 4.513414,1.90028 1.856409,1.58526 1.94709,0.1298 4.166743,0.90904 1.746926,-2.08367 2.245577,-3.38144 1.949706,-5.96365 -0.964282,-1.54224 -1.10682,-3.40409 -2.601374,-5.28632 -2.052356,-2.1663 -5.577686,-4.08767 -6.971781,-6.12574 0.202342,-2.61848 2.611161,-3.97427 3.223668,-6.33149 1.093677,-2.06269 1.470349,-3.78709 2.960968,-5.87908 1.051199,-1.77562 2.93254,-3.22695 3.261987,-5.2023 0.683004,-1.74978 2.596435,-4.58027 0.604485,-6.60827 -2.199737,-2.67155 -4.658481,-5.31484 -7.690526,-6.95155 -1.057927,-1.33449 1.801061,1.2502 -0.261805,-0.10823 l -0.346582,-0.28359 1e-6,-5e-5 z"
                     id="path4787"
                     inkscape:connector-curvature="0" />
                  <path
                     inkscape:connector-curvature="0"
                     id="path4789"
                     d="m -75.182666,-160.95065 c 1.529888,1.75665 1.058925,5.4557 1.924879,8.065 0.275782,2.76799 1.188804,4.47836 1.84446,7.1536 0.205473,2.61075 0.109611,5.3254 0.251542,7.97678 0.693733,4.25388 0.309573,8.49639 0.508233,12.74794 -0.05251,2.4348 2.378195,3.35877 4.559668,3.54079 2.90439,0.72106 5.817959,1.07255 8.776435,1.11429 2.288801,0.18111 4.522265,-0.17402 6.816491,-0.0957 1.762335,-0.16275 3.861727,-0.37157 4.518202,-1.20102 2.327359,0.18415 1.546505,-1.10035 3.677893,-1.82205 0.103622,-2.84372 -0.277042,-4.24865 -2.007406,-6.24373 -1.628373,-0.70218 -2.822548,-2.18469 -5.049876,-2.84427 -2.814439,-0.55267 -6.598591,0.0166 -8.840973,-0.83692 -1.375197,-2.33525 -0.346847,-4.97606 -1.259757,-7.34573 -0.377575,-2.42011 -1.099351,-4.10925 -1.194185,-6.80074 -0.242138,-2.15148 0.332024,-4.54516 -0.571862,-6.41671 -0.505186,-1.90089 -0.711601,-5.47826 -3.399711,-5.95178 -3.220619,-0.88745 -6.620387,-1.5901 -9.865803,-1.08715 -1.577881,-0.46871 2.090023,-0.0642 -0.260917,0.0714 l -0.427288,-0.0239 -2.5e-5,-5e-5 z"
                     style="fill:#edf1f3;fill-opacity:1;fill-rule:evenodd;stroke:none;stroke-width:0.89720154px;stroke-linecap:butt;stroke-linejoin:miter;stroke-opacity:1" />
                </g>
                <g
                   id="g4791"
                   transform="matrix(1,0,0,0.94961345,-66.177501,58.621748)"
                   style="fill:#edf1f3;fill-opacity:1;stroke:none" />
              </g>
            </g>
          </g>
        </g>
        <g
           transform="translate(61.854824,3.4408602)"
           id="g4793"
           style="fill:#edf1f3;fill-opacity:1">
          <g
             id="g4795"
             style="fill:#edf1f3;fill-opacity:1">
            <g
               id="g4799"
               transform="matrix(0.11504008,0,0,0.11502395,-96.460806,-274.51425)"
               inkscape:tile-cx="-70.572423"
               inkscape:tile-cy="-116.27307"
               inkscape:tile-w="190.20917"
               inkscape:tile-h="194.55132"
               inkscape:tile-x0="-165.67701"
               inkscape:tile-y0="-213.54873"
               style="fill:#edf1f3;fill-opacity:1">
              <g
                 id="g4801"
                 transform="translate(306.20681,-151.63768)"
                 style="fill:#edf1f3;fill-opacity:1">
                <g
                   id="g4803"
                   transform="matrix(0.46963623,0,0,0.47004652,-112.94022,-29.471213)"
                   style="fill:#edf1f3;fill-opacity:1">
                  <path
                     sodipodi:nodetypes="czzcc"
                     inkscape:connector-curvature="0"
                     id="path4805"
                     d="m 124.13546,-70.215491 c 0,0 -117.5047525,-20.700869 -122.9706825,-32.740309 -5.46594,-12.03944 -16.6717205,-111.10914 -10.579,-116.85855 6.09273,-5.74941 144.2721325,67.55793 144.2721325,67.55793 6.87399,18.09987 -8.75003,73.484608 -10.72245,82.040929 z"
                     style="fill:#edf1f3;fill-opacity:1;fill-rule:evenodd;stroke:none;stroke-width:1.90958405px;stroke-linecap:butt;stroke-linejoin:miter;stroke-opacity:1" />
                  <path
                     sodipodi:nodetypes="zsszz"
                     inkscape:connector-curvature="0"
                     id="path4807"
                     d="M 24.226134,-142.37206 C 7.9544098,-156.11073 -104.6593,-181.70252 -104.6593,-181.70252 c -12.84489,2.99089 2.15189,19.13101 4.3308,23.17857 5.9719,11.09344 99.94267113,41.0068 124.072763,35.41195 24.130091,-5.59484 16.753596,-5.52139 0.481871,-19.26006 z"
                     style="fill:#edf1f3;fill-opacity:1;fill-rule:evenodd;stroke:none;stroke-width:1.90958405px;stroke-linecap:butt;stroke-linejoin:miter;stroke-opacity:1" />
                  <path
                     style="fill:#edf1f3;fill-opacity:1;fill-rule:evenodd;stroke:none;stroke-width:1.90958405px;stroke-linecap:butt;stroke-linejoin:miter;stroke-opacity:1"
                     d="m 18.898904,-84.156461 c 5.236628,-11.97091 -2.713728,-76.126829 -2.713728,-76.126829 -4.665186,-5.72799 -11.7032467,6.24049 -13.8085297,8.43739 -5.770089,6.02118 -4.57842,61.858339 4.170373,72.625199 8.7487827,10.76686 7.1152567,7.03515 12.3518847,-4.93576 z"
                     id="path4809"
                     inkscape:connector-curvature="0"
                     sodipodi:nodetypes="zsszz" />
                  <path
                     style="fill:#edf1f3;fill-opacity:1;fill-rule:evenodd;stroke:none;stroke-width:1.90958405px;stroke-linecap:butt;stroke-linejoin:miter;stroke-opacity:1"
                     d="m 149.32468,-96.475142 c -32.39798,-12.592468 -47.38429,43.546736 -19.65974,56.792681 28.90224,16.84201 55.33368,-31.036027 32.05177,-50.978106 -3.47776,-3.148928 -7.83646,-4.950844 -12.39203,-5.814575 z"
                     id="path4811"
                     inkscape:connector-curvature="0" />
                </g>
                <g
                   id="g4813"
                   transform="matrix(1,0,0,0.94961345,-76.499079,64.005335)"
                   style="fill:#edf1f3;fill-opacity:1;stroke:none">
                  <path
                     inkscape:connector-curvature="0"
                     id="path4815"
                     d="m -64.281571,-152.96451 c -6.99014,0.0837 -14.00564,-0.21999 -20.96863,0.26545 -3.88544,-1.21235 -6.40795,-2.85441 -8.218,-7.04671 -3.56565,-3.60326 -1.30534,-9.39221 -1.0719,-13.92485 1.9228,-3.89554 -2.36567,-4.48775 -5.04668,-5.83152 -4.344129,-3.43688 -2.986569,-10.96631 -1.057749,-15.5961 1.148339,-2.27713 2.983089,-6.13394 0.819239,-8.00928 -3.938459,1.27182 -6.778379,-2.3511 -3.710899,-5.7155 2.93098,-2.7821 4.003899,-8.65663 2.62588,-12.36541 -3.073,-2.10925 0.3381,-4.54886 1.883319,-5.0857 -2.717969,-2.99662 0.22624,-5.71739 1.20124,-7.43064 -3.096119,-4.7342 1.60839,-10.28774 7.06435,-10.9119 5.31969,-2.52276 11.75009,-2.66476 17.48696,-1.05787 3.05701,0.5783 4.08682,4.21454 3.7659,7.11257 1.33151,2.24145 1.97382,3.24947 4.10623,4.83613 3.0409,-0.0233 4.14869,1.01788 5.89845,2.44982 1.06551,2.34837 1.72046,4.48021 -0.26541,6.10564 -2.29101,0.0634 -9.58579,-1.06412 -5.73847,2.44497 1.5358,2.00154 2.80872,4.06438 3.34552,7.45315 0.0951,4.19376 1.06579,7.67068 4.78177,9.74613 3.33973,4.25239 1.8162,10.56162 4.96812,15.12862 4.22159,3.31519 -2.7453,5.97244 -4.92041,1.88081 -2.21745,-2.17049 -3.48106,-6.3544 -5.88852,-8.0078 -3.27221,1.57887 -0.0444,8.71147 1.41231,11.2852 3.23287,0.59254 7.90374,1.7844 7.08125,6.86879 0.45168,2.70675 0.69856,5.08254 -1.19056,6.86806 -0.98175,2.50234 -6.92241,-0.59043 -6.63796,2.47738 -0.84754,3.33036 -0.0513,6.91965 -0.56541,10.29865 -1.13188,1.57484 -0.48931,4.08671 -1.15994,5.76191 z"
                     style="fill:#edf1f3;fill-opacity:1;fill-rule:evenodd;stroke:none;stroke-width:0.89720154px;stroke-linecap:butt;stroke-linejoin:miter;stroke-opacity:1" />
                  <path
                     sodipodi:nodetypes="cccccccccccc"
                     inkscape:connector-curvature="0"
                     id="path4817"
                     d="m -86.868351,-291.25068 c -2.499345,1.40024 -2.62718,4.60785 -3.690172,6.97998 -3.601261,11.7973 -5.469538,24.03191 -7.260325,36.20531 0.119589,1.81734 -1.903732,5.27258 0.412409,5.87247 -1.20949,2.5716 2.495847,0.91841 3.821306,1.36363 8.676012,-0.01 17.352028,0.002 26.028042,-0.002 0.284593,0.27242 -1.119395,-5.77194 -2.245942,-8.43768 -3.556974,-12.63771 -7.034948,-25.40308 -12.706159,-37.29166 -0.959096,-1.75904 -2.038703,-3.71125 -3.881468,-4.64587 l -0.477702,-0.0434 1.1e-5,-4.5e-4 z"
                     style="fill:#edf1f3;fill-opacity:1;fill-rule:evenodd;stroke:none;stroke-width:0.89720148px;stroke-linecap:butt;stroke-linejoin:miter;stroke-opacity:1" />
                  <path
                     inkscape:connector-curvature="0"
                     id="path4819"
                     d="m -93.749862,-159.90519 c 1.75844,1.2414 1.857846,5.00033 3.097226,7.28039 0.687427,2.61801 1.836892,4.00547 2.881012,6.41513 0.595054,2.48624 0.91175,5.16739 1.450935,7.71303 1.319842,3.93972 1.586086,8.20254 2.422453,12.29349 0.316703,2.39439 2.828395,2.54321 4.984738,2.04462 2.943275,-0.19624 5.83966,-0.75626 8.73306,-1.63277 2.260946,-0.53274 4.386849,-1.57208 6.637556,-2.20688 1.695217,-0.70537 3.712397,-1.56024 4.227686,-2.57391 2.299029,-0.54174 1.342903,-1.55422 3.313797,-2.91993 -0.328625,-2.80964 -0.912419,-4.06383 -2.902529,-5.47594 -1.695198,-0.18097 -3.084594,-1.25869 -5.357858,-1.21234 -2.83005,0.33281 -6.436866,2.06207 -8.754125,1.92369 -1.694921,-1.85449 -1.090466,-4.75265 -2.339459,-6.78408 -0.734194,-2.24669 -1.693815,-3.67271 -2.193104,-6.27212 -0.561431,-2.02631 -0.362859,-4.54225 -1.527764,-6.08997 -0.780259,-1.7 -1.522314,-5.13006 -4.217121,-4.75911 -3.27702,0.13176 -6.700942,0.49955 -9.792046,1.99703 -1.610634,0.0314 2.029897,-0.71071 -0.243838,0.15058 l -0.420597,0.1091 -3e-5,-3e-5 z"
                     style="fill:#edf1f3;fill-opacity:1;fill-rule:evenodd;stroke:none;stroke-width:0.89720154px;stroke-linecap:butt;stroke-linejoin:miter;stroke-opacity:1" />
                  <path
                     style="fill:#edf1f3;fill-opacity:1;fill-rule:evenodd;stroke:none;stroke-width:0.89720154px;stroke-linecap:butt;stroke-linejoin:miter;stroke-opacity:1"
                     d="m -77.090427,-164.09544 c 0.987519,2.17566 -0.459798,5.55542 -0.336339,8.3294 -0.483016,2.7335 -0.0722,4.66421 -0.167378,7.43274 -0.507767,2.56043 -1.331363,5.12205 -1.910779,7.70061 -0.484512,4.28871 -1.995472,8.21579 -2.952209,12.34116 -0.706731,2.30843 1.365721,3.98192 3.4002,4.86565 2.57959,1.63383 5.267605,2.91766 8.082041,3.92025 2.137234,0.91779 4.366217,1.3054 6.536347,2.1268 1.727124,0.41804 3.7886,0.90177 4.63928,0.32317 2.173243,0.93324 1.773816,-0.54771 4.004156,-0.54343 0.865813,-2.68237 0.881091,-4.14811 -0.233612,-6.61673 -1.365938,-1.20056 -2.106737,-3.00513 -4.056232,-4.35991 -2.539086,-1.44372 -6.306899,-2.13143 -8.218479,-3.67634 -0.683745,-2.67794 1.010576,-4.86559 0.777648,-7.42597 0.291985,-2.43436 0.0581,-4.28257 0.693314,-6.88411 0.348903,-2.13371 1.542778,-4.23311 1.184147,-6.3148 0.03008,-1.97996 0.797615,-5.46395 -1.642155,-6.79096 -2.836757,-1.89565 -5.894453,-3.6731 -9.129832,-4.24883 -1.380669,-0.96113 2.013527,0.61881 -0.268449,-0.0168 l -0.401655,-0.16191 -1.1e-5,-5e-5 z"
                     id="path4821"
                     inkscape:connector-curvature="0" />
                </g>
                <g
                   style="fill:#edf1f3;fill-opacity:1;stroke:none"
                   transform="matrix(1,0,0,0.94961345,-66.177501,58.621748)"
                   id="g4823" />
              </g>
            </g>
          </g>
        </g>
        <g
           id="g4825"
           transform="translate(81.029819,3.4408602)"
           style="fill:#edf1f3;fill-opacity:1">
          <g
             id="g4827"
             style="fill:#edf1f3;fill-opacity:1">
            <g
               inkscape:tile-y0="-213.54873"
               inkscape:tile-x0="-165.67701"
               inkscape:tile-h="194.55132"
               inkscape:tile-w="190.20917"
               inkscape:tile-cy="-116.27307"
               inkscape:tile-cx="-70.572423"
               transform="matrix(0.11504008,0,0,0.11502395,-96.460806,-274.51425)"
               id="g4831"
               style="fill:#edf1f3;fill-opacity:1">
              <g
                 transform="translate(306.20681,-151.63768)"
                 id="g4833"
                 style="fill:#edf1f3;fill-opacity:1">
                <g
                   transform="matrix(0.46963623,0,0,0.47004652,-112.94022,-29.471213)"
                   id="g4835"
                   style="fill:#edf1f3;fill-opacity:1">
                  <path
                     style="fill:#edf1f3;fill-opacity:1;fill-rule:evenodd;stroke:none;stroke-width:1.90958405px;stroke-linecap:butt;stroke-linejoin:miter;stroke-opacity:1"
                     d="m 124.13546,-70.215491 c 0,0 -117.5047525,-20.700869 -122.9706825,-32.740309 -5.46594,-12.03944 -16.6717205,-111.10914 -10.579,-116.85855 6.09273,-5.74941 144.2721325,67.55793 144.2721325,67.55793 6.87399,18.09987 -8.75003,73.484608 -10.72245,82.040929 z"
                     id="path4837"
                     inkscape:connector-curvature="0"
                     sodipodi:nodetypes="czzcc" />
                  <path
                     style="fill:#edf1f3;fill-opacity:1;fill-rule:evenodd;stroke:none;stroke-width:1.90958405px;stroke-linecap:butt;stroke-linejoin:miter;stroke-opacity:1"
                     d="M 24.226134,-142.37206 C 7.9544098,-156.11073 -104.6593,-181.70252 -104.6593,-181.70252 c -12.84489,2.99089 2.15189,19.13101 4.3308,23.17857 5.9719,11.09344 99.94267113,41.0068 124.072763,35.41195 24.130091,-5.59484 16.753596,-5.52139 0.481871,-19.26006 z"
                     id="path4839"
                     inkscape:connector-curvature="0"
                     sodipodi:nodetypes="zsszz" />
                  <path
                     sodipodi:nodetypes="zsszz"
                     inkscape:connector-curvature="0"
                     id="path4841"
                     d="m 18.898904,-84.156461 c 5.236628,-11.97091 -2.713728,-76.126829 -2.713728,-76.126829 -4.665186,-5.72799 -11.7032467,6.24049 -13.8085297,8.43739 -5.770089,6.02118 -4.57842,61.858339 4.170373,72.625199 8.7487827,10.76686 7.1152567,7.03515 12.3518847,-4.93576 z"
                     style="fill:#edf1f3;fill-opacity:1;fill-rule:evenodd;stroke:none;stroke-width:1.90958405px;stroke-linecap:butt;stroke-linejoin:miter;stroke-opacity:1" />
                  <path
                     inkscape:connector-curvature="0"
                     id="path4843"
                     d="m 149.32468,-96.475142 c -32.39798,-12.592468 -47.38429,43.546736 -19.65974,56.792681 28.90224,16.84201 55.33368,-31.036027 32.05177,-50.978106 -3.47776,-3.148928 -7.83646,-4.950844 -12.39203,-5.814575 z"
                     style="fill:#edf1f3;fill-opacity:1;fill-rule:evenodd;stroke:none;stroke-width:1.90958405px;stroke-linecap:butt;stroke-linejoin:miter;stroke-opacity:1" />
                </g>
                <g
                   style="fill:#edf1f3;fill-opacity:1;stroke:none"
                   transform="matrix(1,0,0,0.94961345,-76.499079,64.005335)"
                   id="g4845">
                  <path
                     style="fill:#edf1f3;fill-opacity:1;fill-rule:evenodd;stroke:none;stroke-width:0.89720154px;stroke-linecap:butt;stroke-linejoin:miter;stroke-opacity:1"
                     d="m -64.281571,-152.96451 c -6.99014,0.0837 -14.00564,-0.21999 -20.96863,0.26545 -3.88544,-1.21235 -6.40795,-2.85441 -8.218,-7.04671 -3.56565,-3.60326 -1.30534,-9.39221 -1.0719,-13.92485 1.9228,-3.89554 -2.36567,-4.48775 -5.04668,-5.83152 -4.344129,-3.43688 -2.986569,-10.96631 -1.057749,-15.5961 1.148339,-2.27713 2.983089,-6.13394 0.819239,-8.00928 -3.938459,1.27182 -6.778379,-2.3511 -3.710899,-5.7155 2.93098,-2.7821 4.003899,-8.65663 2.62588,-12.36541 -3.073,-2.10925 0.3381,-4.54886 1.883319,-5.0857 -2.717969,-2.99662 0.22624,-5.71739 1.20124,-7.43064 -3.096119,-4.7342 1.60839,-10.28774 7.06435,-10.9119 5.31969,-2.52276 11.75009,-2.66476 17.48696,-1.05787 3.05701,0.5783 4.08682,4.21454 3.7659,7.11257 1.33151,2.24145 1.97382,3.24947 4.10623,4.83613 3.0409,-0.0233 4.14869,1.01788 5.89845,2.44982 1.06551,2.34837 1.72046,4.48021 -0.26541,6.10564 -2.29101,0.0634 -9.58579,-1.06412 -5.73847,2.44497 1.5358,2.00154 2.80872,4.06438 3.34552,7.45315 0.0951,4.19376 1.06579,7.67068 4.78177,9.74613 3.33973,4.25239 1.8162,10.56162 4.96812,15.12862 4.22159,3.31519 -2.7453,5.97244 -4.92041,1.88081 -2.21745,-2.17049 -3.48106,-6.3544 -5.88852,-8.0078 -3.27221,1.57887 -0.0444,8.71147 1.41231,11.2852 3.23287,0.59254 7.90374,1.7844 7.08125,6.86879 0.45168,2.70675 0.69856,5.08254 -1.19056,6.86806 -0.98175,2.50234 -6.92241,-0.59043 -6.63796,2.47738 -0.84754,3.33036 -0.0513,6.91965 -0.56541,10.29865 -1.13188,1.57484 -0.48931,4.08671 -1.15994,5.76191 z"
                     id="path4847"
                     inkscape:connector-curvature="0" />
                  <path
                     style="fill:#edf1f3;fill-opacity:1;fill-rule:evenodd;stroke:none;stroke-width:0.89720148px;stroke-linecap:butt;stroke-linejoin:miter;stroke-opacity:1"
                     d="m -86.868351,-291.25068 c -2.499345,1.40024 -2.62718,4.60785 -3.690172,6.97998 -3.601261,11.7973 -5.469538,24.03191 -7.260325,36.20531 0.119589,1.81734 -1.903732,5.27258 0.412409,5.87247 -1.20949,2.5716 2.495847,0.91841 3.821306,1.36363 8.676012,-0.01 17.352028,0.002 26.028042,-0.002 0.284593,0.27242 -1.119395,-5.77194 -2.245942,-8.43768 -3.556974,-12.63771 -7.034948,-25.40308 -12.706159,-37.29166 -0.959096,-1.75904 -2.038703,-3.71125 -3.881468,-4.64587 l -0.477702,-0.0434 1.1e-5,-4.5e-4 z"
                     id="path4849"
                     inkscape:connector-curvature="0"
                     sodipodi:nodetypes="cccccccccccc" />
                  <path
                     style="fill:#edf1f3;fill-opacity:1;fill-rule:evenodd;stroke:none;stroke-width:0.89720154px;stroke-linecap:butt;stroke-linejoin:miter;stroke-opacity:1"
                     d="m -86.662685,-156.87451 c 1.769968,1.22147 1.904555,4.97908 3.165212,7.24501 0.711897,2.61012 1.874289,3.98452 2.94091,6.38225 0.618295,2.47939 0.960071,5.15683 1.523057,7.69624 1.356651,3.9246 1.662783,8.18419 2.537399,12.26548 0.3391,2.39068 2.852052,2.51112 5.003614,1.9882 2.941283,-0.22947 5.832273,-0.82219 8.717315,-1.73133 2.255839,-0.55825 4.371901,-1.62155 6.616547,-2.28174 1.688524,-0.72448 3.697595,-1.6021 4.203369,-2.62153 2.293836,-0.56768 1.328284,-1.56931 3.286289,-2.95722 -0.354907,-2.80577 -0.95041,-4.0533 -2.953633,-5.44286 -1.696802,-0.1618 -3.096214,-1.22378 -5.368923,-1.15175 -2.826786,0.36476 -6.417223,2.13468 -8.735656,2.02248 -1.712191,-1.83525 -1.134895,-4.74008 -2.402839,-6.7573 -0.755185,-2.23828 -1.728104,-3.65338 -2.251698,-6.24701 -0.580369,-2.01986 -0.405358,-4.53792 -1.584689,-6.0724 -0.796132,-1.69109 -1.570255,-5.11259 -4.261447,-4.71122 -3.275613,0.16877 -6.695912,0.57522 -9.772834,2.10753 -1.610256,0.0496 2.023137,-0.73359 -0.242416,0.15334 l -0.419554,0.11384 -3.1e-5,-3e-5 z"
                     id="path4851"
                     inkscape:connector-curvature="0" />
                  <path
                     inkscape:connector-curvature="0"
                     id="path4853"
                     d="m -86.994634,-163.83201 c 0.911382,2.21539 -0.652049,5.53216 -0.624842,8.30929 -0.577425,2.7113 -0.233832,4.65781 -0.42492,7.42035 -0.596158,2.53733 -1.507958,5.06263 -2.176342,7.61509 -0.632833,4.26532 -2.278833,8.12634 -3.377886,12.2087 -0.786242,2.2772 1.226693,4.03617 3.229062,5.00436 2.52108,1.74056 5.16264,3.13591 7.940278,4.25551 2.103868,1.00653 4.317798,1.48711 6.457879,2.39869 1.71138,0.48999 3.754591,1.0596 4.624712,0.51701 2.139314,1.02348 1.791516,-0.4731 4.02009,-0.37553 0.958172,-2.6442 1.02425,-4.10824 -0.0041,-6.6217 -1.323329,-1.25683 -2.001033,-3.09108 -3.902149,-4.52644 -2.487197,-1.54889 -6.228437,-2.39372 -8.085074,-4.01747 -0.590416,-2.7046 1.178512,-4.81978 1.034513,-7.38806 0.376161,-2.42038 0.206516,-4.27702 0.931454,-6.85011 0.422617,-2.11757 1.688404,-4.1655 1.402197,-6.26068 0.0987,-1.97727 0.986449,-5.42662 -1.405548,-6.85473 -2.768985,-2.01295 -5.762846,-3.91702 -8.97592,-4.62768 -1.346349,-1.01819 1.990614,0.7026 -0.267673,-0.028 l -0.395751,-0.17859 -1e-5,-5e-5 z"
                     style="fill:#edf1f3;fill-opacity:1;fill-rule:evenodd;stroke:none;stroke-width:0.89720154px;stroke-linecap:butt;stroke-linejoin:miter;stroke-opacity:1" />
                </g>
                <g
                   id="g4855"
                   transform="matrix(1,0,0,0.94961345,-66.177501,58.621748)"
                   style="fill:#edf1f3;fill-opacity:1;stroke:none" />
              </g>
            </g>
          </g>
        </g>
        <g
           transform="translate(100.20481,3.4408602)"
           id="g4857"
           style="fill:#edf1f3;fill-opacity:1">
          <g
             id="g4859"
             style="fill:#edf1f3;fill-opacity:1">
            <g
               id="g4863"
               transform="matrix(0.11504008,0,0,0.11502395,-96.460806,-274.51425)"
               inkscape:tile-cx="-70.572423"
               inkscape:tile-cy="-116.27307"
               inkscape:tile-w="190.20917"
               inkscape:tile-h="194.55132"
               inkscape:tile-x0="-165.67701"
               inkscape:tile-y0="-213.54873"
               style="fill:#edf1f3;fill-opacity:1">
              <g
                 id="g4865"
                 transform="translate(306.20681,-151.63768)"
                 style="fill:#edf1f3;fill-opacity:1">
                <g
                   id="g4867"
                   transform="matrix(0.46963623,0,0,0.47004652,-112.94022,-29.471213)"
                   style="fill:#edf1f3;fill-opacity:1">
                  <path
                     sodipodi:nodetypes="czzcc"
                     inkscape:connector-curvature="0"
                     id="path4869"
                     d="m 124.13546,-70.215491 c 0,0 -117.5047525,-20.700869 -122.9706825,-32.740309 -5.46594,-12.03944 -16.6717205,-111.10914 -10.579,-116.85855 6.09273,-5.74941 144.2721325,67.55793 144.2721325,67.55793 6.87399,18.09987 -8.75003,73.484608 -10.72245,82.040929 z"
                     style="fill:#edf1f3;fill-opacity:1;fill-rule:evenodd;stroke:none;stroke-width:1.90958405px;stroke-linecap:butt;stroke-linejoin:miter;stroke-opacity:1" />
                  <path
                     sodipodi:nodetypes="zsszz"
                     inkscape:connector-curvature="0"
                     id="path4871"
                     d="M 24.226134,-142.37206 C 7.9544098,-156.11073 -104.6593,-181.70252 -104.6593,-181.70252 c -12.84489,2.99089 2.15189,19.13101 4.3308,23.17857 5.9719,11.09344 99.94267113,41.0068 124.072763,35.41195 24.130091,-5.59484 16.753596,-5.52139 0.481871,-19.26006 z"
                     style="fill:#edf1f3;fill-opacity:1;fill-rule:evenodd;stroke:none;stroke-width:1.90958405px;stroke-linecap:butt;stroke-linejoin:miter;stroke-opacity:1" />
                  <path
                     style="fill:#edf1f3;fill-opacity:1;fill-rule:evenodd;stroke:none;stroke-width:1.90958405px;stroke-linecap:butt;stroke-linejoin:miter;stroke-opacity:1"
                     d="m 18.898904,-84.156461 c 5.236628,-11.97091 -2.713728,-76.126829 -2.713728,-76.126829 -4.665186,-5.72799 -11.7032467,6.24049 -13.8085297,8.43739 -5.770089,6.02118 -4.57842,61.858339 4.170373,72.625199 8.7487827,10.76686 7.1152567,7.03515 12.3518847,-4.93576 z"
                     id="path4873"
                     inkscape:connector-curvature="0"
                     sodipodi:nodetypes="zsszz" />
                  <path
                     style="fill:#edf1f3;fill-opacity:1;fill-rule:evenodd;stroke:none;stroke-width:1.90958405px;stroke-linecap:butt;stroke-linejoin:miter;stroke-opacity:1"
                     d="m 149.32468,-96.475142 c -32.39798,-12.592468 -47.38429,43.546736 -19.65974,56.792681 28.90224,16.84201 55.33368,-31.036027 32.05177,-50.978106 -3.47776,-3.148928 -7.83646,-4.950844 -12.39203,-5.814575 z"
                     id="path4875"
                     inkscape:connector-curvature="0" />
                </g>
                <g
                   id="g4877"
                   transform="matrix(1,0,0,0.94961345,-76.499079,64.005335)"
                   style="fill:#edf1f3;fill-opacity:1;stroke:none">
                  <path
                     inkscape:connector-curvature="0"
                     id="path4879"
                     d="m -64.281571,-152.96451 c -6.99014,0.0837 -14.00564,-0.21999 -20.96863,0.26545 -3.88544,-1.21235 -6.40795,-2.85441 -8.218,-7.04671 -3.56565,-3.60326 -1.30534,-9.39221 -1.0719,-13.92485 1.9228,-3.89554 -2.36567,-4.48775 -5.04668,-5.83152 -4.344129,-3.43688 -2.986569,-10.96631 -1.057749,-15.5961 1.148339,-2.27713 2.983089,-6.13394 0.819239,-8.00928 -3.938459,1.27182 -6.778379,-2.3511 -3.710899,-5.7155 2.93098,-2.7821 4.003899,-8.65663 2.62588,-12.36541 -3.073,-2.10925 0.3381,-4.54886 1.883319,-5.0857 -2.717969,-2.99662 0.22624,-5.71739 1.20124,-7.43064 -3.096119,-4.7342 1.60839,-10.28774 7.06435,-10.9119 5.31969,-2.52276 11.75009,-2.66476 17.48696,-1.05787 3.05701,0.5783 4.08682,4.21454 3.7659,7.11257 1.33151,2.24145 1.97382,3.24947 4.10623,4.83613 3.0409,-0.0233 4.14869,1.01788 5.89845,2.44982 1.06551,2.34837 1.72046,4.48021 -0.26541,6.10564 -2.29101,0.0634 -9.58579,-1.06412 -5.73847,2.44497 1.5358,2.00154 2.80872,4.06438 3.34552,7.45315 0.0951,4.19376 1.06579,7.67068 4.78177,9.74613 3.33973,4.25239 1.8162,10.56162 4.96812,15.12862 4.22159,3.31519 -2.7453,5.97244 -4.92041,1.88081 -2.21745,-2.17049 -3.48106,-6.3544 -5.88852,-8.0078 -3.27221,1.57887 -0.0444,8.71147 1.41231,11.2852 3.23287,0.59254 7.90374,1.7844 7.08125,6.86879 0.45168,2.70675 0.69856,5.08254 -1.19056,6.86806 -0.98175,2.50234 -6.92241,-0.59043 -6.63796,2.47738 -0.84754,3.33036 -0.0513,6.91965 -0.56541,10.29865 -1.13188,1.57484 -0.48931,4.08671 -1.15994,5.76191 z"
                     style="fill:#edf1f3;fill-opacity:1;fill-rule:evenodd;stroke:none;stroke-width:0.89720154px;stroke-linecap:butt;stroke-linejoin:miter;stroke-opacity:1" />
                  <path
                     sodipodi:nodetypes="cccccccccccc"
                     inkscape:connector-curvature="0"
                     id="path4881"
                     d="m -86.868351,-291.25068 c -2.499345,1.40024 -2.62718,4.60785 -3.690172,6.97998 -3.601261,11.7973 -5.469538,24.03191 -7.260325,36.20531 0.119589,1.81734 -1.903732,5.27258 0.412409,5.87247 -1.20949,2.5716 2.495847,0.91841 3.821306,1.36363 8.676012,-0.01 17.352028,0.002 26.028042,-0.002 0.284593,0.27242 -1.119395,-5.77194 -2.245942,-8.43768 -3.556974,-12.63771 -7.034948,-25.40308 -12.706159,-37.29166 -0.959096,-1.75904 -2.038703,-3.71125 -3.881468,-4.64587 l -0.477702,-0.0434 1.1e-5,-4.5e-4 z"
                     style="fill:#edf1f3;fill-opacity:1;fill-rule:evenodd;stroke:none;stroke-width:0.89720148px;stroke-linecap:butt;stroke-linejoin:miter;stroke-opacity:1" />
                  <path
                     inkscape:connector-curvature="0"
                     id="path4883"
                     d="m -88.222611,-161.04511 c 1.090178,1.95915 -0.3116,5.38993 -0.100655,8.03542 -0.41991,2.68542 0.06422,4.48449 0.04801,7.15314 -0.450774,2.5226 -1.229404,5.08736 -1.754024,7.63667 -0.375058,4.17777 -1.826577,8.14194 -2.696782,12.22437 -0.664856,2.30666 1.536728,3.64306 3.675321,4.22665 2.726919,1.23245 5.555956,2.11503 8.507863,2.71133 2.246289,0.60293 4.572017,0.68524 6.849581,1.19141 1.805599,0.17671 3.960289,0.373 4.826213,-0.29265 2.284137,0.61306 1.825257,-0.75595 4.14095,-1.0416 0.818865,-2.68611 0.790991,-4.09442 -0.439973,-6.31813 -1.453954,-0.97444 -2.276911,-2.6096 -4.341329,-3.65619 -2.67919,-1.05533 -6.611505,-1.22566 -8.642234,-2.45958 -0.789781,-2.48055 0.904014,-4.79963 0.585782,-7.22595 0.230505,-2.3736 -0.06746,-4.11649 0.514399,-6.69509 0.298568,-2.09254 1.475421,-4.26193 1.040972,-6.21263 -0.02784,-1.90361 0.665059,-5.34606 -1.907539,-6.30231 -3.001723,-1.45026 -6.229303,-2.75841 -9.605499,-2.89047 -1.462106,-0.74279 2.108939,0.33214 -0.279206,0.0188 l -0.421834,-0.10317 -1.6e-5,-4e-5 z"
                     style="fill:#edf1f3;fill-opacity:1;fill-rule:evenodd;stroke:none;stroke-width:0.89720154px;stroke-linecap:butt;stroke-linejoin:miter;stroke-opacity:1" />
                  <path
                     style="fill:#edf1f3;fill-opacity:1;fill-rule:evenodd;stroke:none;stroke-width:0.89720154px;stroke-linecap:butt;stroke-linejoin:miter;stroke-opacity:1"
                     d="m -78.581173,-157.56972 c 1.928537,1.19252 2.456347,4.8823 3.975134,7.1026 0.996053,2.56052 2.322099,3.90566 3.657104,6.25618 0.887186,2.43251 1.513525,5.06063 2.35066,7.55231 1.789011,3.84889 2.543631,8.03097 3.858314,12.03566 0.593793,2.34651 3.164025,2.45473 5.299518,1.93256 2.969803,-0.23715 5.850633,-0.83084 8.692498,-1.73526 2.23795,-0.55729 4.281108,-1.61003 6.497065,-2.26739 1.643243,-0.71828 3.596817,-1.58822 4.005565,-2.59142 2.275648,-0.5667 1.188719,-1.54653 3.037241,-2.91743 -0.653053,-2.7541 -1.388917,-3.9769 -3.572346,-5.33356 -1.743847,-0.1521 -3.278642,-1.18946 -5.584334,-1.10961 -2.839191,0.36955 -6.309488,2.12216 -8.680883,2.02125 -1.933566,-1.79552 -1.64812,-4.65064 -3.148452,-6.62666 -1.001437,-2.19517 -2.138872,-3.58103 -2.941551,-6.12612 -0.800787,-1.98136 -0.884561,-4.45503 -2.244498,-5.9573 -0.9862,-1.65761 -2.129975,-5.01475 -4.827352,-4.60978 -3.316398,0.17888 -6.755336,0.59175 -9.727683,2.10895 -1.633778,0.0552 1.982864,-0.72856 -0.230784,0.15156 l -0.415183,0.11349 -3.5e-5,-4e-5 z"
                     id="path4885"
                     inkscape:connector-curvature="0" />
                </g>
                <g
                   style="fill:#edf1f3;fill-opacity:1;stroke:none"
                   transform="matrix(1,0,0,0.94961345,-66.177501,58.621748)"
                   id="g4887" />
              </g>
            </g>
          </g>
        </g>
      </g>
    </g>
  </g>
</svg>
