<?xml version="1.0" encoding="UTF-8" standalone="no"?>
<!-- Created with Inkscape (http://www.inkscape.org/) -->

<svg
   xmlns:dc="http://purl.org/dc/elements/1.1/"
   xmlns:cc="http://creativecommons.org/ns#"
   xmlns:rdf="http://www.w3.org/1999/02/22-rdf-syntax-ns#"
   xmlns:svg="http://www.w3.org/2000/svg"
   xmlns="http://www.w3.org/2000/svg"
   xmlns:sodipodi="http://sodipodi.sourceforge.net/DTD/sodipodi-0.dtd"
   xmlns:inkscape="http://www.inkscape.org/namespaces/inkscape"
   width="240"
   height="40"
   viewBox="0 0 240.00001 40"
   id="svg2"
   version="1.1"
   inkscape:version="0.91 r13725"
   sodipodi:docname="mining_gnome.svg">
  <defs
     id="defs4" />
  <sodipodi:namedview
     id="base"
     pagecolor="#ffffff"
     bordercolor="#666666"
     borderopacity="1.0"
     inkscape:pageopacity="0.0"
     inkscape:pageshadow="2"
     inkscape:zoom="3.78"
     inkscape:cx="79.032826"
     inkscape:cy="17.157656"
     inkscape:document-units="px"
     inkscape:current-layer="g4382"
     showgrid="false"
     inkscape:window-width="1920"
     inkscape:window-height="1031"
     inkscape:window-x="1578"
     inkscape:window-y="71"
     inkscape:window-maximized="0"
     showguides="false"
     inkscape:snap-bbox="true"
     inkscape:bbox-paths="true"
     inkscape:bbox-nodes="true"
     fit-margin-top="0"
     fit-margin-left="0"
     fit-margin-right="0"
     fit-margin-bottom="0"
     units="px" />
  <metadata
     id="metadata7">
    <rdf:RDF>
      <cc:Work
         rdf:about="">
        <dc:format>image/svg+xml</dc:format>
        <dc:type
           rdf:resource="http://purl.org/dc/dcmitype/StillImage" />
        <dc:title />
      </cc:Work>
    </rdf:RDF>
  </metadata>
  <g
     inkscape:label="Calque 1"
     inkscape:groupmode="layer"
     id="layer1"
     transform="translate(-118.51847,-282.73258)">
    <g
       style="stroke:none"
       transform="matrix(0.23738891,0,0,0.22756466,163.70821,331.88622)"
       id="g4382">
      <g
         style="fill:#182124;fill-opacity:1;stroke:none"
         transform="matrix(1,0,0,0.94961345,-76.499079,64.005335)"
         id="g4376" />
      <g
         id="g4638"
         transform="matrix(1,0,0,0.94961345,-66.177501,58.621748)"
         style="fill:#4e6b75;fill-opacity:1;stroke:none" />
      <rect
         style="opacity:1;fill:none;fill-opacity:1;stroke:none;stroke-width:4.30246544;stroke-linecap:round;stroke-linejoin:round;stroke-miterlimit:4;stroke-dasharray:none;stroke-dashoffset:0;stroke-opacity:1"
         id="rect5131"
         width="1010.9992"
         height="175.77422"
         x="-190.36163"
         y="-215.99858" />
      <g
         style="stroke:none;fill:#edf1f3;fill-opacity:1"
         id="g5000"
         transform="translate(168.49987,0)">
        <path
           transform="matrix(4.2124967,0,0,4.3943554,-689.6203,-1458.4261)"
           style="fill:#edf1f3;fill-opacity:1;fill-rule:evenodd;stroke:none;stroke-width:0.89720154px;stroke-linecap:butt;stroke-linejoin:miter;stroke-opacity:1"
           d="m 126.04102,293.14062 c -0.70972,0.0324 -1.40765,0.17664 -2.03907,0.44922 -1.29518,0.13488 -2.41076,1.33633 -1.67578,2.35938 -0.23145,0.37023 -0.93037,0.9579 -0.28515,1.60547 -0.36682,0.11601 -1.17677,0.64185 -0.44727,1.09765 0.32713,0.80147 0.0727,2.07262 -0.62305,2.67383 -0.72818,0.72704 -0.0541,1.50922 0.88086,1.23438 0.32105,0.25328 0.25839,0.67038 0.10938,1.07031 0.32456,1.37217 0.95135,2.6885 1.14258,4.04492 0.0191,0.19616 0.0152,0.38554 0.002,0.57227 0.13405,0.15936 0.16566,0.3683 0,0.67383 -0.0554,0.97949 -0.59254,2.2311 0.25391,3.00976 0.42968,0.90595 1.02881,1.2595 1.95117,1.52148 1.65293,-0.1049 3.31913,-0.0385 4.97851,-0.0566 0.1592,-0.362 0.007,-0.90577 0.27539,-1.24609 0.0685,-0.40962 0.0426,-0.83163 0.0391,-1.25195 -0.0693,-0.31178 -0.11172,-0.63636 -0.0762,-0.99805 -0.0666,-1.21445 -0.72963,-2.78996 0.15235,-3.8418 -0.36136,-0.68492 -0.79143,-1.78945 -0.13867,-2.07617 0.5715,0.3573 0.87008,1.26143 1.39648,1.73047 0.51635,0.8842 2.17013,0.31016 1.16797,-0.40625 -0.74823,-0.98692 -0.38687,-2.3506 -1.17969,-3.26953 -0.88213,-0.4485 -1.11219,-1.1992 -1.13476,-2.10547 -0.12743,-0.73231 -0.42839,-1.1788 -0.79297,-1.61133 -0.91331,-0.75831 0.81746,-0.51364 1.36133,-0.52734 0.47142,-0.35125 0.31544,-0.81283 0.0625,-1.32031 -0.41538,-0.30944 -0.67852,-0.53434 -1.4004,-0.5293 -0.50621,-0.34288 -0.65852,-0.56055 -0.9746,-1.04492 0.0762,-0.62626 -0.16688,-1.41214 -0.89258,-1.53711 -0.68094,-0.17363 -1.40357,-0.25312 -2.11328,-0.22071 z"
           id="path5004"
           inkscape:connector-curvature="0" />
        <path
           transform="matrix(1,0,0,0.94961344,-76.499074,64.005356)"
           sodipodi:nodetypes="cccccccccccc"
           inkscape:connector-curvature="0"
           id="path5006"
           d="m -86.868351,-291.25068 c -2.499345,1.40024 -2.62718,4.60785 -3.690172,6.97998 -3.601261,11.7973 -5.469538,24.03191 -7.260325,36.20531 0.119589,1.81734 -1.903732,5.27258 0.412409,5.87247 -1.20949,2.5716 2.495847,0.91841 3.821306,1.36363 8.676012,-0.01 17.352028,0.002 26.028042,-0.002 0.284593,0.27242 -1.119395,-5.77194 -2.245942,-8.43768 -3.556974,-12.63771 -7.034948,-25.40308 -12.706159,-37.29166 -0.959096,-1.75904 -2.038703,-3.71125 -3.881468,-4.64587 l -0.477702,-0.0434 1.1e-5,-4.5e-4 z"
           style="fill:#edf1f3;fill-opacity:1;fill-rule:evenodd;stroke:none;stroke-width:0.89720148px;stroke-linecap:butt;stroke-linejoin:miter;stroke-opacity:1" />
        <path
           transform="matrix(1,0,0,0.94961344,-76.499074,64.005356)"
           inkscape:connector-curvature="0"
           id="path5008"
           d="m -93.06499,-159.2866 c 1.090178,1.95915 -0.3116,5.38993 -0.100655,8.03542 -0.41991,2.68542 0.06422,4.48449 0.04801,7.15314 -0.450774,2.5226 -1.229404,5.08736 -1.754024,7.63667 -0.375058,4.17777 -1.826577,8.14194 -2.696782,12.22437 -0.664856,2.30666 1.536728,3.64306 3.675321,4.22665 2.726919,1.23245 5.555956,2.11503 8.507863,2.71133 2.246289,0.60293 4.572017,0.68524 6.849581,1.19141 1.805599,0.17671 3.960289,0.373 4.826213,-0.29265 2.284137,0.61306 1.825257,-0.75595 4.14095,-1.0416 0.818865,-2.68611 0.790991,-4.09442 -0.439973,-6.31813 -1.453954,-0.97444 -2.276911,-2.6096 -4.341329,-3.65619 -2.67919,-1.05533 -6.611505,-1.22566 -8.642234,-2.45958 -0.789781,-2.48055 0.904014,-4.79963 0.585782,-7.22595 0.230505,-2.3736 -0.06746,-4.11649 0.514399,-6.69509 0.298568,-2.09254 1.475421,-4.26193 1.040972,-6.21263 -0.02784,-1.90361 0.665059,-5.34606 -1.907539,-6.30231 -3.001723,-1.45026 -6.229303,-2.75841 -9.605499,-2.89047 -1.462106,-0.74279 2.108939,0.33214 -0.279206,0.0188 l -0.421834,-0.10317 -1.6e-5,-4e-5 z"
           style="fill:#edf1f3;fill-opacity:1;fill-rule:evenodd;stroke:none;stroke-width:0.89720154px;stroke-linecap:butt;stroke-linejoin:miter;stroke-opacity:1" />
        <path
           transform="matrix(1,0,0,0.94961344,-76.499074,64.005356)"
           style="fill:#edf1f3;fill-opacity:1;fill-rule:evenodd;stroke:none;stroke-width:0.89720154px;stroke-linecap:butt;stroke-linejoin:miter;stroke-opacity:1"
           d="m -76.482946,-160.74429 c 1.330831,1.94243 0.466423,5.55475 1.046502,8.25796 -0.02301,2.78439 0.700218,4.60103 1.06439,7.3425 -0.07596,2.61915 -0.4623,5.30249 -0.605719,7.95378 0.232671,4.31403 -0.603822,8.47728 -0.862526,12.72492 -0.31328,2.41106 2.001403,3.64318 4.148163,4.10627 2.806828,1.09193 5.662408,1.81806 8.595802,2.2424 2.253438,0.47608 4.509433,0.41249 6.779279,0.78721 1.767516,0.0665 3.874683,0.13081 4.615544,-0.6079 2.2914,0.48409 1.653748,-0.89253 3.847693,-1.33336 0.407891,-2.81049 0.180557,-4.2549 -1.323783,-6.46004 -1.541725,-0.90804 -2.568583,-2.53478 -4.709658,-3.47803 -2.735565,-0.91308 -6.554415,-0.83755 -8.689641,-1.97533 -1.115163,-2.49697 0.189253,-4.9863 -0.463152,-7.45761 -0.115387,-2.45213 -0.650972,-4.22292 -0.456487,-6.90794 -0.0097,-2.16784 0.81718,-4.47053 0.120314,-6.44603 -0.297795,-1.95303 -0.119101,-5.5322 -2.737705,-6.35034 -3.103009,-1.29808 -6.403739,-2.43586 -9.680494,-2.35644 -1.516624,-0.66966 2.082351,0.20675 -0.266808,0.0367 l -0.421745,-0.0791 -2.1e-5,-5e-5 z"
           id="path5010"
           inkscape:connector-curvature="0" />
        <path
           transform="matrix(1,0,0,0.94961344,-76.499074,64.005356)"
           style="fill:#edf1f3;fill-opacity:1;fill-rule:evenodd;stroke:none;stroke-width:4.41513443px;stroke-linecap:butt;stroke-linejoin:miter;stroke-opacity:1"
           d="m -5.3397443,-229.25473 c 2.4638566,3.08512 -1.3898376,4.78857 -0.2472933,8.09534 4.67223052,6.49154 9.6931919,12.84067 12.8647573,20.4197 3.0329773,5.2431 6.4621573,11.14444 5.4187703,17.41303 -0.180228,1.87805 -1.513734,7.55261 -1.824392,6.59568 -1.1384462,-4.68341 -2.6852404,-9.30107 -4.9435749,-13.51833 -3.4958986,-8.25224 -8.4570063,-16.14719 -15.3261525,-21.28905 -4.2430616,0.19329 -6.1322906,5.18978 -8.1257836,8.63804 -1.967773,4.51255 -4.775085,8.31871 -7.726548,11.97866 -4.619495,6.6751 -9.114523,13.49731 -13.271597,20.56736 -3.549146,6.42231 -6.865532,13.03675 -10.707667,19.2261 0.09564,-1.48803 -1.951669,3.8141 -1.971235,5.00125 -4.726092,1.31008 -4.812108,-6.00022 -3.622654,-9.16832 1.187989,-4.9869 4.40547,-8.66393 6.664922,-12.95669 2.451309,-3.79891 4.633902,-7.9002 7.257696,-11.50602 10.462664,-10.18534 15.16576,-25.66902 23.563844,-37.7943 -2.633793,-4.35318 -8.047939,-3.29198 -11.923426,-4.17979 -4.578666,-0.0421 -8.948358,-2.66404 -13.481805,-1.93978 -3.577445,0.11726 -7.136318,0.41484 -10.667339,0.86702 4.501312,-2.87794 8.857952,-6.13152 13.713404,-8.28275 5.798549,-0.90249 11.803896,-0.31468 17.712547,-0.19336 3.804754,0.31421 7.773813,1.25121 11.094356,3.83629 1.9019383,-2.33347 3.2597645,-4.5314 5.5491695,-1.81007 l 0,0 z"
           id="path5012"
           inkscape:connector-curvature="0" />
        <path
           transform="matrix(1,0,0,0.94961344,-76.499074,64.005356)"
           style="fill:#edf1f3;fill-opacity:1;fill-rule:evenodd;stroke:none;stroke-width:4.41513443px;stroke-linecap:butt;stroke-linejoin:miter;stroke-opacity:1"
           d="m -77.602697,-203.19617 c 3.710874,1.06052 5.202755,5.38323 8.59744,7.10198 4.949179,3.23888 10.133651,6.17989 15.749257,7.85122 3.799162,1.43526 7.293662,5.00792 11.434952,4.18383 3.665282,-0.45056 7.255458,1.63278 8.397612,5.15713 1.636846,3.74209 0.727604,6.45052 -0.70889,9.90412 -2.265769,2.09232 -3.840017,5.76088 -7.307581,6.03715 -5.54938,0.0932 -5.193678,-6.12822 -9.985887,-7.87429 -3.117677,-1.38272 -4.413009,-2.96625 -8.370334,-4.0988 -2.862157,-1.04502 -2.736122,-1.4974 -5.329724,-3.12259 -3.175105,-0.79776 -5.690363,-3.39416 -8.419479,-5.07951 -3.31426,-1.64961 -5.394581,-3.33651 -7.761935,-5.51877 -2.343657,-1.45935 -2.386584,-3.14332 -2.398604,-3.88384 -0.187484,-1.74406 -0.100774,-5.82764 3.241008,-7.76036 0.721049,-1.48964 1.741777,-1.19176 2.638878,-2.52343 -1.624597,2.75925 0.327047,1.08937 0.223278,-0.37381 z"
           id="path5014"
           inkscape:connector-curvature="0" />
        <path
           style="fill:#edf1f3;fill-opacity:1;fill-rule:evenodd;stroke:none;stroke-width:4.30246544px;stroke-linecap:butt;stroke-linejoin:miter;stroke-opacity:1"
           d="m -104.95116,-52.230514 c 6.030528,-3.359375 1.49385,-13.192763 8.949823,-15.854567 -0.453712,-10.667594 7.286275,-17.454051 10.394311,-27.345284 4.914388,-8.124795 5.007304,-21.651125 17.136213,-21.816165 5.023096,-3.09786 8.408633,-19.15823 14.746983,-8.73849 3.875075,7.00747 10.441613,12.55568 11.639731,20.87858 2.436009,8.78477 1.02965,19.180363 8.079296,26.137444 2.815891,7.8257 6.693716,15.335086 8.987684,23.286405 3.247888,7.883295 -7.979761,6.95688 -12.887094,6.985226 -4.778102,0.19496 -9.725077,-0.767915 -14.152,1.478217 -8.738801,1.49114 -17.696052,0.903715 -26.281967,-0.651399 -8.473687,1.037042 -16.542444,-1.466156 -24.5714,-3.691946 l -0.9901,-0.247728 -1.05148,-0.420293 0,0 z"
           id="path5018"
           inkscape:connector-curvature="0" />
      </g>
      <g
         id="g4186"
         style="fill:#edf1f3;fill-opacity:1">
        <path
           inkscape:connector-curvature="0"
           style="fill:#edf1f3;fill-opacity:1;fill-rule:evenodd;stroke:none;stroke-width:0.89720154px;stroke-linecap:butt;stroke-linejoin:miter;stroke-opacity:1"
           d="m -142.85704,-169.57455 c -2.94953,-0.529 -5.95145,-0.56703 -8.79554,0.009 -5.45099,-0.64039 -11.12555,3.46636 -9.02462,8.54956 -1.28647,1.37125 -4.69268,3.23572 -2.62222,6.62274 -1.61405,0.15262 -5.4213,1.64716 -2.83099,4.29039 0.62272,3.74815 -1.57121,8.96484 -4.97675,10.89037 -3.65238,2.43515 -1.58458,6.42715 2.51045,6.12764 1.09244,1.38942 0.45818,3.12075 -0.51588,4.6971 0.0971,6.19535 1.48817,12.43555 1.05088,18.43778 -0.0983,0.85999 -0.28541,1.66917 -0.50845,2.4582 0.40776,0.81023 0.34926,1.73682 -0.60812,2.8923 -1.11201,4.15211 -4.45165,9.018751 -1.67151,13.157903 0.95039,4.293152 3.09655,6.374752 6.65534,8.367609 6.89596,1.105883 13.69197,2.959319 20.53613,4.443891 0.98175,-1.403942 0.84501,-3.881549 2.25772,-5.089355 0.65141,-1.69376 0.92574,-3.529537 1.29063,-5.336991 -0.004,-1.403455 0.11461,-2.836636 0.58727,-4.355676 0.8219,-5.27553 -0.4843,-12.662311 4.09404,-16.346811 -0.86875,-3.2801 -1.64153,-8.42599 1.30314,-9.04214 2.02908,2.07168 2.44168,6.2336 4.18435,8.74244 1.32664,4.28139 8.64949,3.37438 5.17246,-0.64417 -2.18805,-4.9406 0.52954,-10.45375 -1.90334,-15.14449 -3.22493,-2.75559 -3.49406,-6.19443 -2.76903,-10.10568 0.13657,-3.26328 -0.69884,-5.46309 -1.80862,-7.66289 -3.07362,-4.11474 3.82715,-1.43511 6.07737,-0.98189 2.25674,-1.06386 2.0315,-3.19196 1.44873,-5.60835 -1.4299,-1.71928 -2.30967,-2.93236 -5.28452,-3.59033 -1.77346,-1.94833 -2.20372,-3.02603 -3.06715,-5.40267 0.87865,-2.61639 0.58778,-6.21847 -2.28547,-7.43809 -2.64515,-1.38635 -5.54681,-2.40787 -8.4963,-2.93691 z"
           id="path4312" />
        <path
           sodipodi:nodetypes="cccccccccccc"
           inkscape:connector-curvature="0"
           id="path4319"
           d="m -129.413,-215.99858 c -2.80132,0.16171 -4.09909,2.89358 -5.94455,4.50532 -7.63665,8.72667 -13.84935,18.56423 -19.96865,28.38132 -0.55965,1.62881 -3.68215,3.77609 -1.78469,5.2742 -2.05289,1.72319 1.94454,1.85055 2.99288,2.79639 7.93858,3.65142 15.86907,7.32196 23.80544,10.97859 0.16,0.35666 1.10112,-5.48514 1.05214,-8.27558 1.39927,-12.47638 2.91779,-25.0303 2.10764,-37.74798 -0.22959,-1.93233 -0.4983,-4.08327 -1.83959,-5.67238 l -0.42091,-0.23921 1.7e-4,-3.9e-4 z"
           style="fill:#edf1f3;fill-opacity:1;fill-rule:evenodd;stroke:none;stroke-width:0.89720148px;stroke-linecap:butt;stroke-linejoin:miter;stroke-opacity:1" />
        <path
           inkscape:connector-curvature="0"
           id="path4368"
           d="m -169.56406,-87.25534 c 1.09017,1.860435 -0.3116,5.11835 -0.10066,7.630543 -0.41991,2.550111 0.0642,4.258532 0.048,6.792718 -0.45077,2.395494 -1.2294,4.831025 -1.75402,7.251884 -0.37506,3.967267 -1.82658,7.731696 -2.69678,11.608426 -0.66486,2.190435 1.53672,3.459499 3.67532,4.013684 2.72692,1.170351 5.55595,2.008461 8.50786,2.574715 2.24629,0.572551 4.57202,0.650713 6.84958,1.131379 1.8056,0.167806 3.96029,0.354206 4.82621,-0.277904 2.28414,0.58217 1.82526,-0.717861 4.14095,-0.989118 0.81887,-2.550766 0.79099,-3.888116 -0.43997,-5.999781 -1.45395,-0.925341 -2.27691,-2.478111 -4.34133,-3.471967 -2.67919,-1.002156 -6.6115,-1.163903 -8.64223,-2.33565 -0.78978,-2.355564 0.90401,-4.557793 0.58578,-6.861859 0.2305,-2.254003 -0.0675,-3.909075 0.5144,-6.357748 0.29857,-1.987104 1.47542,-4.047186 1.04097,-5.899597 -0.0278,-1.807693 0.66506,-5.07669 -1.90754,-5.984758 -3.00172,-1.377187 -6.2293,-2.619423 -9.6055,-2.744829 -1.4621,-0.705364 2.10894,0.315404 -0.2792,0.01785 l -0.42184,-0.09797 -10e-6,-3.8e-5 z"
           style="fill:#edf1f3;fill-opacity:1;fill-rule:evenodd;stroke:none;stroke-width:0.89720154px;stroke-linecap:butt;stroke-linejoin:miter;stroke-opacity:1" />
        <path
           style="fill:#edf1f3;fill-opacity:1;fill-rule:evenodd;stroke:none;stroke-width:0.89720154px;stroke-linecap:butt;stroke-linejoin:miter;stroke-opacity:1"
           d="m -152.98202,-88.639582 c 1.33083,1.844557 0.46642,5.274865 1.0465,7.84187 -0.023,2.644094 0.70022,4.3692 1.06439,6.972536 -0.076,2.48718 -0.4623,5.035316 -0.60572,7.553017 0.23267,4.096661 -0.60382,8.050139 -0.86252,12.083755 -0.31328,2.289575 2.0014,3.459612 4.14816,3.899369 2.80683,1.036911 5.66241,1.726454 8.5958,2.129413 2.25344,0.452092 4.50944,0.391706 6.77928,0.747545 1.76752,0.06315 3.87468,0.124219 4.61555,-0.57727 2.2914,0.459699 1.65374,-0.847558 3.84769,-1.266176 0.40789,-2.668879 0.18056,-4.040511 -1.32378,-6.134541 -1.54173,-0.862287 -2.56859,-2.407061 -4.70966,-3.302784 -2.73557,-0.867073 -6.55442,-0.795349 -8.68964,-1.8758 -1.11517,-2.371156 0.18925,-4.735058 -0.46316,-7.081847 -0.11538,-2.328575 -0.65097,-4.010141 -0.45648,-6.559872 -0.01,-2.05861 0.81718,-4.245276 0.12031,-6.121237 -0.29779,-1.854624 -0.1191,-5.253452 -2.7377,-6.030368 -3.10301,-1.232675 -6.40374,-2.313126 -9.6805,-2.237707 -1.51662,-0.635919 2.08235,0.196332 -0.26681,0.03485 l -0.42174,-0.07511 -2e-5,-4.8e-5 z"
           id="path4374"
           inkscape:connector-curvature="0" />
        <path
           style="fill:#edf1f3;fill-opacity:1;fill-rule:evenodd;stroke:none;stroke-width:4.41513443px;stroke-linecap:butt;stroke-linejoin:miter;stroke-opacity:1"
           d="m -71.208764,-136.22353 c 1.80497,3.4123 -2.291463,4.1311 -1.820353,7.45368 3.297727,7.06552 6.963861,14.07688 8.583678,21.81573 1.940014,5.54115 4.138658,11.781401 1.896959,17.36274 -0.542312,1.701733 -2.951542,6.667228 -3.06836,5.710186 -0.198626,-4.598595 -0.808942,-9.227465 -2.192365,-13.643955 -1.805326,-8.435781 -5.111521,-16.867611 -10.818376,-23.172201 -4.182239,-0.76899 -7.002047,3.44336 -9.621753,6.19631 -2.802144,3.74591 -6.286574,6.64896 -9.883294,9.38418 -5.814052,5.159181 -11.535222,10.482631 -16.974612,16.111491 -4.71926,5.16391 -9.24863,10.558052 -14.20864,15.440396 0.38363,-1.358869 -2.6502,3.101646 -2.90084,4.198431 -4.87185,0.158952 -3.53017,-6.641045 -1.75048,-9.313831 2.13298,-4.360168 5.99287,-7.051777 9.03706,-10.528625 3.13528,-2.975891 6.06706,-6.292321 9.33316,-9.050561 12.20613,-7.109261 19.819752,-20.420281 30.387583,-29.790371 -1.723656,-4.62648 -7.219051,-4.85215 -10.831411,-6.54179 -4.464142,-1.06233 -8.221032,-4.47093 -12.790462,-4.81231 -3.51725,-0.69075 -7.05152,-1.2101 -10.58875,-1.57982 4.95807,-1.66347 9.84809,-3.70772 15.01035,-4.61798 5.839922,0.4588 11.591192,2.34616 17.338989,3.77921 3.655132,1.14177 7.349294,2.89794 10.08858,6.03788 2.312864,-1.73938 4.067816,-3.47464 5.773334,-0.43878 l 0,0 z"
           id="path4902"
           inkscape:connector-curvature="0" />
        <path
           style="fill:#edf1f3;fill-opacity:1;fill-rule:evenodd;stroke:none;stroke-width:4.41513443px;stroke-linecap:butt;stroke-linejoin:miter;stroke-opacity:1"
           d="m -146.87594,-128.20254 c 3.41788,1.81305 4.03208,6.15606 7.01275,8.50898 4.20259,4.11036 8.69311,7.99701 13.85238,10.80231 3.43103,2.18037 6.14763,6.27522 10.35349,6.43636 3.66805,0.40123 6.76856,3.136021 7.19685,6.660351 0.86904,3.83684 -0.54731,6.145879 -2.62399,9.028274 -2.62122,1.434387 -4.87438,4.485384 -8.31531,3.966679 -5.4387,-1.153778 -3.87792,-6.84505 -8.21833,-9.535653 -2.77562,-1.97933 -3.73205,-3.73765 -7.37661,-5.67258 -2.5919,-1.60898 -2.38056,-2.000431 -4.59699,-4.087541 -2.9458,-1.44957 -4.89629,-4.42004 -7.23335,-6.59323 -2.91559,-2.27083 -4.61862,-4.30046 -6.50541,-6.85373 -2.00463,-1.87742 -1.71814,-3.44901 -1.58546,-4.13857 0.15701,-1.65963 1.03811,-5.42803 4.67923,-6.4739 0.99482,-1.22059 1.93376,-0.71617 3.06974,-1.75089 -2.125,2.1963 0.107,1.08356 0.291,-0.29683 z"
           id="path4933"
           inkscape:connector-curvature="0" />
        <path
           sodipodi:nodetypes="ccccccccccccccccccccccccccccccccccccccccccccccccccccccccccccccccccccccccccccccccccccccc"
           style="fill:#edf1f3;fill-opacity:1;fill-rule:evenodd;stroke:none;stroke-width:0.99999994px;stroke-linecap:butt;stroke-linejoin:miter;stroke-opacity:1"
           d="m -38.330675,-150.36645 c -3.804844,0.15501 -6.741144,3.98873 -5.32755,7.45334 0.441957,3.20486 5.096585,8.54542 8.087358,4.57013 2.190635,-3.64801 1.004157,-8.21275 -1.956072,-11.13945 l -0.401407,-0.4514 -0.402329,-0.43262 z m 1.118966,0.0944 0.306379,-0.0142 z m 2.96189,6.61729 0.30716,-0.011 z m 0.847428,1.76806 c 1.571738,0.37682 -1.061604,-0.86834 0,0 z m 0,0 c -1.034561,-0.21759 0.587207,0.68118 0,0 z m -0.724001,1.33031 c -2.021173,0.35425 1.36615,0.63305 0,0 z m -0.123427,2.20579 0.01642,0.2999 z m -0.847427,1.32174 c -1.073281,2.3223 1.398054,-0.0421 0,0 z m -5.076396,0 c -0.594862,0.74009 0.952306,-0.26097 0,0 z m -5.08461,-1.76808 c -0.27929,-1.81689 -0.863976,1.30514 0,0 z m -0.855684,-0.0257 c 0.04947,-1.6991 -1.079785,1.15286 0,0 z m 6.359901,-9.68987 c 1.07507,0.68723 -0.53373,-0.89764 0,0 z m -22.436474,0.88402 c -5.550239,2.86828 1.269234,10.89594 5.315359,7.731 0.785179,-3.15748 -2.559232,-6.46934 -5.315359,-7.731 z m 4.228926,3.53609 c -1.021581,-0.22105 0.576032,0.67395 0,0 z m 0,0.43768 0.02051,0.293 z m 1.694898,5.30416 0.309126,-0.004 z m 0.847428,1.32174 0.02261,0.2991 z m -7.61868,-4.85784 c -0.573756,0.74494 0.957941,-0.24184 0,0 z m 0,-1.76806 -0.02338,-0.29831 z m 0,-1.32174 -0.01577,-0.29319 z m 0.419607,-0.43772 8.19e-4,-0.29586 z m 0.427821,-0.88401 -0.01603,-0.30113 z m 25.826228,1.32173 c -0.214751,-0.91096 0.622069,0.49741 0,0 z m -63.985549,19.20817 c -0.0473,2.55452 1.649086,-1.63048 0,0 z m -0.27971,0.26604 c -3.45475,-1.02786 -7.888,2.38689 -4.07342,5.15619 1.66428,2.61276 8.013675,4.00694 6.636057,-0.76601 -0.562936,-1.63742 -0.799942,-3.50267 -2.562637,-4.39018 z m 2.204988,2.30018 c 1.434473,-0.36035 -1.287342,-0.36709 0,0 z m -0.937955,5.65601 -0.308821,0.0185 z m -5.504213,-1.33029 c -0.77147,0.33981 0.81273,0.15061 0,0 z m -2.97015,-0.85831 c -0.97994,0.49169 0.98877,0.0373 0,0 z m -1.26703,-1.79378 -0.0164,-0.2999 z m 0,-0.43772 c 1.10609,-0.19091 -0.88736,-0.31233 0,0 z m 0.42782,-0.43772 c 0.55235,-0.85594 -0.66365,-0.0406 -0.29291,0.15362 z m 0.4196,-0.44629 c 1.00084,-1.17808 -1.25613,0.5556 0,0 z"
           id="path4938"
           inkscape:connector-curvature="0" />
        <path
           style="fill:#edf1f3;fill-opacity:1;fill-rule:evenodd;stroke:none;stroke-width:4.30246544px;stroke-linecap:butt;stroke-linejoin:miter;stroke-opacity:1"
           d="m -104.95116,-52.230514 c 6.030528,-3.359375 1.49385,-13.192763 8.949823,-15.854567 -0.453712,-10.667594 7.286275,-17.454051 10.394311,-27.345284 4.914388,-8.124795 5.007304,-21.651125 17.136213,-21.816165 5.023096,-3.09786 8.408633,-19.15823 14.746983,-8.73849 3.875075,7.00747 10.441613,12.55568 11.639731,20.87858 2.436009,8.78477 1.02965,19.180363 8.079296,26.137444 2.815891,7.8257 6.693716,15.335086 8.987684,23.286405 3.247888,7.883295 -7.979761,6.95688 -12.887094,6.985226 -4.778102,0.19496 -9.725077,-0.767915 -14.152,1.478217 -8.738801,1.49114 -17.696052,0.903715 -26.281967,-0.651399 -8.473687,1.037042 -16.542444,-1.466156 -24.5714,-3.691946 l -0.9901,-0.247728 -1.05148,-0.420293 0,0 z"
           id="path4897"
           inkscape:connector-curvature="0" />
        <path
           inkscape:connector-curvature="0"
           id="path5100"
           d="m -70.289381,-158.24439 c 0.559422,1.49508 -1.552552,-0.10973 -1.80583,-0.66859 -0.849465,-1.26414 -0.835786,-3.00989 0.2801,-3.89731 1.640217,-1.91496 -2.755839,-1.64295 -2.760948,-3.23914 0.50435,-0.87371 1.425957,-1.31074 2.183575,-2.40111 2.17823,-1.03894 2.668611,1.2749 2.828832,2.32697 0.06804,0.57141 0.210756,2.4165 1.047893,2.00073 -1.067912,0.30619 0.527308,0.94017 0.520708,0.64685 1.089464,1.33379 0.816045,2.87383 0.819159,4.33384 -0.502827,0.46817 -2.056866,0.67349 -3.113489,0.89776 z"
           style="fill:#edf1f3;fill-opacity:1;fill-rule:evenodd;stroke:none;stroke-width:4.30246544px;stroke-linecap:butt;stroke-linejoin:miter;stroke-opacity:1" />
      </g>
      <g
         style="stroke:none;fill:#edf1f3;fill-opacity:1"
         transform="translate(336.99974,0)"
         id="g5020">
        <path
           inkscape:connector-curvature="0"
           id="path5024"
           d="m -160.57166,-167.20909 c -2.9697,0.38723 -5.85283,1.26032 -8.41414,2.67266 -5.39435,1.03851 -9.68112,6.68731 -6.25566,10.91501 -0.8493,1.70188 -3.58967,4.51787 -0.66555,7.1317 -1.50201,0.63499 -4.72913,3.2185 -1.51463,4.96311 1.63931,3.39797 0.99199,9.05449 -1.73059,11.9287 -2.81707,3.43665 0.27284,6.6302 4.1081,5.10306 1.43214,0.9986 1.3072,2.84746 0.81394,4.65095 1.81759,5.89895 4.88588,11.44883 6.13834,17.32486 0.1452,0.85273 0.19157,1.6837 0.198,2.50628 0.61573,0.651783 0.8177,1.55617 0.22325,2.951873 0.0919,4.310042 -1.74915,9.978668 2.06345,13.09723 2.10458,3.820229 4.73773,5.161972 8.69793,5.990856 6.90663,-1.03082 13.92575,-1.315804 20.88824,-1.968605 0.54861,-1.640851 -0.2707,-3.970365 0.74364,-5.553979 0.15194,-1.818115 -0.0966,-3.657881 -0.25059,-5.497985 -0.39432,-1.341877 -0.68,-2.749117 -0.65067,-4.345864 -0.68205,-5.297176 -3.98839,-11.969926 -0.63305,-16.882596 -1.74444,-2.87556 -3.91644,-7.56559 -1.2702,-9.04724 2.51836,1.36772 4.07178,5.22529 6.43777,7.0981 2.46133,3.69499 9.21611,0.6087 4.77023,-2.18335 -3.46913,-4.06484 -2.40342,-10.16366 -6.03728,-13.91525 -3.85306,-1.65988 -5.0679,-4.86899 -5.46294,-8.83133 -0.77776,-3.16402 -2.18955,-5.01596 -3.86389,-6.78476 -4.08663,-3.0063 3.26271,-2.53265 5.54212,-2.78064 1.86333,-1.70166 1.05537,-3.66982 -0.17497,-5.80554 -1.84689,-1.21201 -3.02644,-2.10629 -6.05627,-1.83472 -2.2394,-1.32712 -2.95114,-2.22803 -4.43898,-4.24069 0.11251,-2.76982 -1.16866,-6.12855 -4.25761,-6.42519 -2.91709,-0.52529 -5.97808,-0.62376 -8.94773,-0.23649 z"
           style="fill:#edf1f3;fill-opacity:1;fill-rule:evenodd;stroke:none;stroke-width:0.89720154px;stroke-linecap:butt;stroke-linejoin:miter;stroke-opacity:1" />
        <path
           style="fill:#edf1f3;fill-opacity:1;fill-rule:evenodd;stroke:none;stroke-width:0.89720148px;stroke-linecap:butt;stroke-linejoin:miter;stroke-opacity:1"
           d="m -168.44146,-209.00104 c -2.39135,1.53063 -2.28914,4.57767 -3.179,6.91052 -2.74546,11.46364 -3.732,23.19908 -4.64567,34.87022 0.24933,1.71061 -1.52034,5.1476 0.83158,5.52547 -1.02163,2.53369 2.55387,0.66466 3.9071,0.97738 8.64842,-0.72129 17.29842,-1.42176 25.94727,-2.13737 0.30322,0.23454 -1.52918,-5.37229 -2.84309,-7.80345 -4.45077,-11.67193 -8.83192,-23.47119 -15.33674,-34.26048 -1.08207,-1.58654 -2.2981,-3.34607 -4.20208,-4.07965 l -0.47932,-0.002 -3e-5,-4.2e-4 z"
           id="path5026"
           inkscape:connector-curvature="0"
           sodipodi:nodetypes="cccccccccccc" />
        <path
           style="fill:#edf1f3;fill-opacity:1;fill-rule:evenodd;stroke:none;stroke-width:0.89720154px;stroke-linecap:butt;stroke-linejoin:miter;stroke-opacity:1"
           d="m -93.06499,-159.2866 c 1.090178,1.95915 -0.3116,5.38993 -0.100655,8.03542 -0.41991,2.68542 0.06422,4.48449 0.04801,7.15314 -0.450774,2.5226 -1.229404,5.08736 -1.754024,7.63667 -0.375058,4.17777 -1.826577,8.14194 -2.696782,12.22437 -0.664856,2.30666 1.536728,3.64306 3.675321,4.22665 2.726919,1.23245 5.555956,2.11503 8.507863,2.71133 2.246289,0.60293 4.572017,0.68524 6.849581,1.19141 1.805599,0.17671 3.960289,0.373 4.826213,-0.29265 2.284137,0.61306 1.825257,-0.75595 4.14095,-1.0416 0.818865,-2.68611 0.790991,-4.09442 -0.439973,-6.31813 -1.453954,-0.97444 -2.276911,-2.6096 -4.341329,-3.65619 -2.67919,-1.05533 -6.611505,-1.22566 -8.642234,-2.45958 -0.789781,-2.48055 0.904014,-4.79963 0.585782,-7.22595 0.230505,-2.3736 -0.06746,-4.11649 0.514399,-6.69509 0.298568,-2.09254 1.475421,-4.26193 1.040972,-6.21263 -0.02784,-1.90361 0.665059,-5.34606 -1.907539,-6.30231 -3.001723,-1.45026 -6.229303,-2.75841 -9.605499,-2.89047 -1.462106,-0.74279 2.108939,0.33214 -0.279206,0.0188 l -0.421834,-0.10317 -1.6e-5,-4e-5 z"
           id="path5028"
           inkscape:connector-curvature="0"
           transform="matrix(1,0,0,0.94961344,-76.499074,64.005356)" />
        <path
           inkscape:connector-curvature="0"
           id="path5030"
           d="m -76.482946,-160.74429 c 1.330831,1.94243 0.466423,5.55475 1.046502,8.25796 -0.02301,2.78439 0.700218,4.60103 1.06439,7.3425 -0.07596,2.61915 -0.4623,5.30249 -0.605719,7.95378 0.232671,4.31403 -0.603822,8.47728 -0.862526,12.72492 -0.31328,2.41106 2.001403,3.64318 4.148163,4.10627 2.806828,1.09193 5.662408,1.81806 8.595802,2.2424 2.253438,0.47608 4.509433,0.41249 6.779279,0.78721 1.767516,0.0665 3.874683,0.13081 4.615544,-0.6079 2.2914,0.48409 1.653748,-0.89253 3.847693,-1.33336 0.407891,-2.81049 0.180557,-4.2549 -1.323783,-6.46004 -1.541725,-0.90804 -2.568583,-2.53478 -4.709658,-3.47803 -2.735565,-0.91308 -6.554415,-0.83755 -8.689641,-1.97533 -1.115163,-2.49697 0.189253,-4.9863 -0.463152,-7.45761 -0.115387,-2.45213 -0.650972,-4.22292 -0.456487,-6.90794 -0.0097,-2.16784 0.81718,-4.47053 0.120314,-6.44603 -0.297795,-1.95303 -0.119101,-5.5322 -2.737705,-6.35034 -3.103009,-1.29808 -6.403739,-2.43586 -9.680494,-2.35644 -1.516624,-0.66966 2.082351,0.20675 -0.266808,0.0367 l -0.421745,-0.0791 -2.1e-5,-5e-5 z"
           style="fill:#edf1f3;fill-opacity:1;fill-rule:evenodd;stroke:none;stroke-width:0.89720154px;stroke-linecap:butt;stroke-linejoin:miter;stroke-opacity:1"
           transform="matrix(1,0,0,0.94961344,-76.499074,64.005356)" />
        <path
           inkscape:connector-curvature="0"
           id="path5032"
           d="m -93.522456,-170.81114 c 3.264283,1.89567 0.155725,4.77006 2.243327,7.32714 6.386223,4.16827 13.057338,8.08693 18.3628,13.75387 4.460409,3.62628 9.495326,7.7024 10.430072,13.67475 0.404719,1.7429 0.884512,7.28564 0.299207,6.53866 -2.504835,-3.78978 -5.374161,-7.37761 -8.791177,-10.3579 -5.816861,-6.15538 -12.904447,-11.4776 -20.947,-13.66864 -3.937224,1.66018 -4.188252,6.79126 -5.011061,10.57415 -0.473037,4.72577 -1.952871,9.11403 -3.613192,13.42206 -2.30908,7.58944 -4.45593,15.26685 -6.20868,23.04745 -1.37829,6.988171 -2.47859,14.066594 -4.20409,20.949108 -0.36509,-1.364412 -0.67152,4.095437 -0.32681,5.16408 -4.05056,2.828356 -6.36768,-3.679808 -6.21647,-6.930285 -0.4065,-4.876696 1.49915,-9.293237 2.31414,-13.924673 1.14674,-4.25698 1.94791,-8.69023 3.31617,-12.83498 6.73877,-12.77718 6.43219,-28.27433 10.63302,-42.0629 -3.81222,-2.97026 -8.58695,-0.12332 -12.50867,0.44109 -4.3253,1.5673 -9.24293,0.75393 -13.29124,2.99081 -3.33357,1.35887 -6.59448,2.87251 -9.78187,4.51466 3.35926,-4.15186 6.46736,-8.58897 10.38246,-12.215 5.18533,-2.83974 11.0213,-4.41903 16.6235,-6.38167 3.67964,-1.05264 7.70452,-1.60586 11.622727,-0.45772 1.077578,-2.75372 1.684137,-5.19551 4.67284,-3.56405 l 0,0 z"
           style="fill:#edf1f3;fill-opacity:1;fill-rule:evenodd;stroke:none;stroke-width:4.41513443px;stroke-linecap:butt;stroke-linejoin:miter;stroke-opacity:1" />
        <path
           inkscape:connector-curvature="0"
           id="path5034"
           d="m -155.4105,-124.30885 c 3.83422,-0.0378 6.30109,3.51892 9.98641,4.17061 5.54701,1.62216 11.25042,2.90721 17.06848,2.91098 4.00846,0.28173 8.23045,2.60578 12.03258,0.7232 3.43132,-1.41061 7.39195,-0.47789 9.3316,2.44211 2.46891,2.98497 2.23442,5.71532 1.66792,9.27227 -1.69036,2.53475 -2.33878,6.326263 -5.62063,7.523282 -5.33504,1.595795 -6.46927,-4.204332 -11.5102,-4.500722 -3.3381,-0.41904 -4.96466,-1.51816 -9.05391,-1.47934 -3.01122,-0.17901 -2.99699,-0.62802 -5.88676,-1.41198 -3.2546,0.13284 -6.2994,-1.56278 -9.33427,-2.365 -3.59126,-0.6102 -6.00017,-1.59043 -8.80383,-2.94664 -2.60908,-0.69996 -3.05047,-2.23201 -3.23795,-2.90759 -0.59521,-1.54779 -1.48137,-5.31491 1.28564,-7.9962 0.34228,-1.56183 1.3984,-1.56657 1.94815,-3.0315 -0.91299,2.97163 0.57445,0.90964 0.12677,-0.40345 z"
           style="fill:#edf1f3;fill-opacity:1;fill-rule:evenodd;stroke:none;stroke-width:4.41513443px;stroke-linecap:butt;stroke-linejoin:miter;stroke-opacity:1" />
        <path
           inkscape:connector-curvature="0"
           id="path5038"
           d="m -104.95116,-52.230514 c 6.030528,-3.359375 1.49385,-13.192763 8.949823,-15.854567 -0.453712,-10.667594 7.286275,-17.454051 10.394311,-27.345284 4.914388,-8.124795 5.007304,-21.651125 17.136213,-21.816165 5.023096,-3.09786 8.408633,-19.15823 14.746983,-8.73849 3.875075,7.00747 10.441613,12.55568 11.639731,20.87858 2.436009,8.78477 1.02965,19.180363 8.079296,26.137444 2.815891,7.8257 6.693716,15.335086 8.987684,23.286405 3.247888,7.883295 -7.979761,6.95688 -12.887094,6.985226 -4.778102,0.19496 -9.725077,-0.767915 -14.152,1.478217 -8.738801,1.49114 -17.696052,0.903715 -26.281967,-0.651399 -8.473687,1.037042 -16.542444,-1.466156 -24.5714,-3.691946 l -0.9901,-0.247728 -1.05148,-0.420293 0,0 z"
           style="fill:#edf1f3;fill-opacity:1;fill-rule:evenodd;stroke:none;stroke-width:4.30246544px;stroke-linecap:butt;stroke-linejoin:miter;stroke-opacity:1" />
      </g>
      <g
         style="stroke:none;fill:#edf1f3;fill-opacity:1"
         id="g5040"
         transform="translate(505.49961,0)">
        <path
           style="fill:#edf1f3;fill-opacity:1;fill-rule:evenodd;stroke:none;stroke-width:0.89720154px;stroke-linecap:butt;stroke-linejoin:miter;stroke-opacity:1"
           d="m -173.01918,-167.63269 c -2.90572,0.74767 -5.67088,1.96728 -8.05583,3.68305 -5.24048,1.69093 -8.86299,7.82495 -4.98611,11.60467 -0.65222,1.79399 -3.0573,4.92564 0.14036,7.16392 -1.42031,0.81427 -4.3349,3.77455 -0.94652,5.1141 2.0098,3.1741 2.00252,8.87078 -0.37834,12.05807 -2.41151,3.75741 1.01594,6.55114 4.65316,4.56558 1.53448,0.8166 1.61814,2.668 1.33092,4.51937 2.46788,5.63604 6.13861,10.7725 8.04268,16.45488 0.24001,0.8291 0.37943,1.64867 0.47824,2.46479 0.68473,0.572009 0.98692,1.445467 0.55339,2.904235 0.57552,4.269099 -0.61587,10.123756 3.52086,12.754645 2.51931,3.536565 5.28507,4.547097 9.31111,4.886044 6.7432,-1.868206 13.68191,-3.009472 20.52305,-4.509092 0.36047,-1.696622 -0.71494,-3.909898 0.11446,-5.606622 -0.0534,-1.824161 -0.50697,-3.620851 -0.86662,-5.429446 -0.54237,-1.284413 -0.9842,-2.647023 -1.13449,-4.23635 -1.27254,-5.177264 -5.30586,-11.399744 -2.52564,-16.688814 -2.05551,-2.64245 -4.73952,-7.03456 -2.27801,-8.82956 2.65469,1.05036 4.63084,4.6914 7.19095,6.262 2.85954,3.36857 9.22098,-0.52237 4.49203,-2.75156 -3.90195,-3.61264 -3.52886,-9.79974 -7.55921,-13.08114 -4.013,-1.17732 -5.58005,-4.21577 -6.41758,-8.10249 -1.12791,-3.04711 -2.73806,-4.71366 -4.5996,-6.26554 -4.39626,-2.4859 2.95564,-2.91413 5.19148,-3.43912 1.65928,-1.91777 0.63575,-3.77357 -0.82608,-5.74413 -1.97035,-0.97784 -3.24225,-1.72173 -6.22068,-1.08156 -2.37308,-1.04415 -3.18114,-1.85183 -4.88487,-3.66869 -0.19949,-2.76449 -1.84922,-5.94341 -4.9502,-5.86032 -2.95602,-0.16498 -6.00696,0.1115 -8.91263,0.8592 z"
           id="path5044"
           inkscape:connector-curvature="0" />
        <path
           sodipodi:nodetypes="cccccccccccc"
           inkscape:connector-curvature="0"
           id="path5046"
           d="m -185.53054,-208.1743 c -2.20288,1.81247 -1.759,4.82601 -2.38061,7.25158 -1.43846,11.72031 -1.09959,23.49549 -0.69557,35.1979 0.43982,1.66833 -0.93147,5.29801 1.44669,5.3857 -0.72989,2.64114 2.61095,0.34781 3.98999,0.49292 8.50776,-1.77379 17.01943,-3.52709 25.52826,-5.29528 0.32747,0.19585 -2.12228,-5.14829 -3.7003,-7.40203 -5.73157,-11.04726 -11.40831,-22.2295 -19.08059,-32.14905 -1.25287,-1.4433 -2.65823,-3.04201 -4.6315,-3.53774 l -0.47624,0.0567 -7e-5,-4.2e-4 z"
           style="fill:#edf1f3;fill-opacity:1;fill-rule:evenodd;stroke:none;stroke-width:0.89720148px;stroke-linecap:butt;stroke-linejoin:miter;stroke-opacity:1" />
        <path
           transform="matrix(1,0,0,0.94961344,-76.499074,64.005356)"
           inkscape:connector-curvature="0"
           id="path5048"
           d="m -93.06499,-159.2866 c 1.090178,1.95915 -0.3116,5.38993 -0.100655,8.03542 -0.41991,2.68542 0.06422,4.48449 0.04801,7.15314 -0.450774,2.5226 -1.229404,5.08736 -1.754024,7.63667 -0.375058,4.17777 -1.826577,8.14194 -2.696782,12.22437 -0.664856,2.30666 1.536728,3.64306 3.675321,4.22665 2.726919,1.23245 5.555956,2.11503 8.507863,2.71133 2.246289,0.60293 4.572017,0.68524 6.849581,1.19141 1.805599,0.17671 3.960289,0.373 4.826213,-0.29265 2.284137,0.61306 1.825257,-0.75595 4.14095,-1.0416 0.818865,-2.68611 0.790991,-4.09442 -0.439973,-6.31813 -1.453954,-0.97444 -2.276911,-2.6096 -4.341329,-3.65619 -2.67919,-1.05533 -6.611505,-1.22566 -8.642234,-2.45958 -0.789781,-2.48055 0.904014,-4.79963 0.585782,-7.22595 0.230505,-2.3736 -0.06746,-4.11649 0.514399,-6.69509 0.298568,-2.09254 1.475421,-4.26193 1.040972,-6.21263 -0.02784,-1.90361 0.665059,-5.34606 -1.907539,-6.30231 -3.001723,-1.45026 -6.229303,-2.75841 -9.605499,-2.89047 -1.462106,-0.74279 2.108939,0.33214 -0.279206,0.0188 l -0.421834,-0.10317 -1.6e-5,-4e-5 z"
           style="fill:#edf1f3;fill-opacity:1;fill-rule:evenodd;stroke:none;stroke-width:0.89720154px;stroke-linecap:butt;stroke-linejoin:miter;stroke-opacity:1" />
        <path
           transform="matrix(1,0,0,0.94961344,-76.499074,64.005356)"
           style="fill:#edf1f3;fill-opacity:1;fill-rule:evenodd;stroke:none;stroke-width:0.89720154px;stroke-linecap:butt;stroke-linejoin:miter;stroke-opacity:1"
           d="m -76.482946,-160.74429 c 1.330831,1.94243 0.466423,5.55475 1.046502,8.25796 -0.02301,2.78439 0.700218,4.60103 1.06439,7.3425 -0.07596,2.61915 -0.4623,5.30249 -0.605719,7.95378 0.232671,4.31403 -0.603822,8.47728 -0.862526,12.72492 -0.31328,2.41106 2.001403,3.64318 4.148163,4.10627 2.806828,1.09193 5.662408,1.81806 8.595802,2.2424 2.253438,0.47608 4.509433,0.41249 6.779279,0.78721 1.767516,0.0665 3.874683,0.13081 4.615544,-0.6079 2.2914,0.48409 1.653748,-0.89253 3.847693,-1.33336 0.407891,-2.81049 0.180557,-4.2549 -1.323783,-6.46004 -1.541725,-0.90804 -2.568583,-2.53478 -4.709658,-3.47803 -2.735565,-0.91308 -6.554415,-0.83755 -8.689641,-1.97533 -1.115163,-2.49697 0.189253,-4.9863 -0.463152,-7.45761 -0.115387,-2.45213 -0.650972,-4.22292 -0.456487,-6.90794 -0.0097,-2.16784 0.81718,-4.47053 0.120314,-6.44603 -0.297795,-1.95303 -0.119101,-5.5322 -2.737705,-6.35034 -3.103009,-1.29808 -6.403739,-2.43586 -9.680494,-2.35644 -1.516624,-0.66966 2.082351,0.20675 -0.266808,0.0367 l -0.421745,-0.0791 -2.1e-5,-5e-5 z"
           id="path5050"
           inkscape:connector-curvature="0" />
        <path
           style="fill:#edf1f3;fill-opacity:1;fill-rule:evenodd;stroke:none;stroke-width:4.41513443px;stroke-linecap:butt;stroke-linejoin:miter;stroke-opacity:1"
           d="m -132.50331,-196.19936 c 3.72777,-0.2588 2.61529,3.91622 5.69973,4.87964 7.53238,-0.12048 15.17391,-0.61198 22.57959,1.13827 5.633329,0.51608 11.983282,1.08418 15.878791,5.56818 1.24758,1.23378 4.537387,5.61499 3.656943,5.31965 -4.076782,-1.76178 -8.354374,-3.14743 -12.775308,-3.71261 -8.089406,-1.87043 -16.811626,-2.32116 -24.704636,0.39803 -2.44059,3.62539 0.0213,8.07524 1.30088,11.71737 2.06438,4.23543 3.10773,8.75819 3.95778,13.31588 2.01459,7.6802 4.21118,15.34227 6.79239,22.8676 2.4828,6.64784 5.24599,13.21387 7.38228,19.96981 -1.01717,-0.9385 1.56943,3.81876 2.41543,4.52051 -1.92728,4.67031 -7.26239,0.52003 -8.8285,-2.29447 -2.88135,-3.86361 -3.58197,-8.65146 -5.31013,-13.00151 -1.25462,-4.22375 -2.89116,-8.39959 -3.90134,-12.65467 -0.99796,-14.54612 -9.32725,-27.38228 -12.9826,-41.33894 -4.74748,-0.33275 -7.27303,4.76364 -10.27135,7.46032 -2.81477,3.76737 -7.3668,5.87191 -9.60027,10.04438 -2.09076,3.03027 -4.03991,6.14929 -5.86041,9.33453 0.65756,-5.38957 0.9557,-10.87625 2.35378,-16.13943 2.87399,-5.32306 6.95072,-9.95676 10.63153,-14.77978 2.54079,-2.96934 5.63156,-5.71511 9.51895,-6.97211 -0.5297,-2.92255 -1.29232,-5.31624 2.06648,-5.64064 l 0,0 z"
           id="path5052"
           inkscape:connector-curvature="0" />
        <path
           style="fill:#edf1f3;fill-opacity:1;fill-rule:evenodd;stroke:none;stroke-width:4.41513443px;stroke-linecap:butt;stroke-linejoin:miter;stroke-opacity:1"
           d="m -157.61621,-121.30879 c 3.02302,-2.46063 7.05406,-1.19983 10.36048,-3.01851 5.35025,-2.22814 10.62833,-4.82315 15.25106,-8.5084 3.34752,-2.31734 8.05437,-3.14809 9.97722,-7.05347 1.90331,-3.29548 5.59209,-5.06549 8.83352,-3.97612 3.69962,0.80545 5.10394,3.12246 6.72614,6.30642 0.13418,3.08458 1.82794,6.50675 -0.0811,9.53785 -3.30731,4.64938 -7.58692,0.7621 -11.76294,3.72232 -2.89512,1.78332 -4.82717,1.94157 -8.05212,4.5647 -2.49571,1.76673 -2.74598,1.40113 -5.49763,2.61043 -2.50734,2.16868 -5.91319,2.75227 -8.79074,4.03906 -3.20754,1.792 -5.69165,2.54061 -8.70829,3.24087 -2.47981,1.0981 -3.72284,0.16119 -4.26529,-0.25649 -1.37436,-0.85188 -4.27264,-3.28185 -3.63713,-7.16535 -0.63802,-1.45734 0.19797,-2.13061 -0.21883,-3.64252 1.00604,2.93876 0.98612,0.35826 -0.13435,-0.40076 z"
           id="path5054"
           inkscape:connector-curvature="0" />
        <path
           style="fill:#edf1f3;fill-opacity:1;fill-rule:evenodd;stroke:none;stroke-width:4.30246544px;stroke-linecap:butt;stroke-linejoin:miter;stroke-opacity:1"
           d="m -104.95116,-52.230514 c 6.030528,-3.359375 1.49385,-13.192763 8.949823,-15.854567 -0.453712,-10.667594 7.286275,-17.454051 10.394311,-27.345284 4.914388,-8.124795 5.007304,-21.651125 17.136213,-21.816165 5.023096,-3.09786 8.408633,-19.15823 14.746983,-8.73849 3.875075,7.00747 10.441613,12.55568 11.639731,20.87858 2.436009,8.78477 1.02965,19.180363 8.079296,26.137444 2.815891,7.8257 6.693716,15.335086 8.987684,23.286405 3.247888,7.883295 -7.979761,6.95688 -12.887094,6.985226 -4.778102,0.19496 -9.725077,-0.767915 -14.152,1.478217 -8.738801,1.49114 -17.696052,0.903715 -26.281967,-0.651399 -8.473687,1.037042 -16.542444,-1.466156 -24.5714,-3.691946 l -0.9901,-0.247728 -1.05148,-0.420293 0,0 z"
           id="path5058"
           inkscape:connector-curvature="0" />
      </g>
      <g
         style="stroke:none;fill:#edf1f3;fill-opacity:1"
         id="g5080"
         transform="translate(842.49935,0)">
        <path
           style="fill:#edf1f3;fill-opacity:1;fill-rule:evenodd;stroke:none;stroke-width:0.89720154px;stroke-linecap:butt;stroke-linejoin:miter;stroke-opacity:1"
           d="m 126.04102,293.14062 c -0.70972,0.0324 -1.40765,0.17664 -2.03907,0.44922 -1.29518,0.13488 -2.41076,1.33633 -1.67578,2.35938 -0.23145,0.37023 -0.93037,0.9579 -0.28515,1.60547 -0.36682,0.11601 -1.17677,0.64185 -0.44727,1.09765 0.32713,0.80147 0.0727,2.07262 -0.62305,2.67383 -0.72818,0.72704 -0.0541,1.50922 0.88086,1.23438 0.32105,0.25328 0.25839,0.67038 0.10938,1.07031 0.32456,1.37217 0.95135,2.6885 1.14258,4.04492 0.0191,0.19616 0.0152,0.38554 0.002,0.57227 0.13405,0.15936 0.16566,0.3683 0,0.67383 -0.0554,0.97949 -0.59254,2.2311 0.25391,3.00976 0.42968,0.90595 1.02881,1.2595 1.95117,1.52148 1.65293,-0.1049 3.31913,-0.0385 4.97851,-0.0566 0.1592,-0.362 0.007,-0.90577 0.27539,-1.24609 0.0685,-0.40962 0.0426,-0.83163 0.0391,-1.25195 -0.0693,-0.31178 -0.11172,-0.63636 -0.0762,-0.99805 -0.0666,-1.21445 -0.72963,-2.78996 0.15235,-3.8418 -0.36136,-0.68492 -0.79143,-1.78945 -0.13867,-2.07617 0.5715,0.3573 0.87008,1.26143 1.39648,1.73047 0.51635,0.8842 2.17013,0.31016 1.16797,-0.40625 -0.74823,-0.98692 -0.38687,-2.3506 -1.17969,-3.26953 -0.88213,-0.4485 -1.11219,-1.1992 -1.13476,-2.10547 -0.12743,-0.73231 -0.42839,-1.1788 -0.79297,-1.61133 -0.91331,-0.75831 0.81746,-0.51364 1.36133,-0.52734 0.47142,-0.35125 0.31544,-0.81283 0.0625,-1.32031 -0.41538,-0.30944 -0.67852,-0.53434 -1.4004,-0.5293 -0.50621,-0.34288 -0.65852,-0.56055 -0.9746,-1.04492 0.0762,-0.62626 -0.16688,-1.41214 -0.89258,-1.53711 -0.68094,-0.17363 -1.40357,-0.25312 -2.11328,-0.22071 z"
           transform="matrix(4.2124967,0,0,4.3943554,-689.6203,-1458.4261)"
           id="path5084"
           inkscape:connector-curvature="0" />
        <path
           transform="matrix(1,0,0,0.94961344,-76.499074,64.005356)"
           sodipodi:nodetypes="cccccccccccc"
           inkscape:connector-curvature="0"
           id="path5086"
           d="m -86.868351,-291.25068 c -2.499345,1.40024 -2.62718,4.60785 -3.690172,6.97998 -3.601261,11.7973 -5.469538,24.03191 -7.260325,36.20531 0.119589,1.81734 -1.903732,5.27258 0.412409,5.87247 -1.20949,2.5716 2.495847,0.91841 3.821306,1.36363 8.676012,-0.01 17.352028,0.002 26.028042,-0.002 0.284593,0.27242 -1.119395,-5.77194 -2.245942,-8.43768 -3.556974,-12.63771 -7.034948,-25.40308 -12.706159,-37.29166 -0.959096,-1.75904 -2.038703,-3.71125 -3.881468,-4.64587 l -0.477702,-0.0434 1.1e-5,-4.5e-4 z"
           style="fill:#edf1f3;fill-opacity:1;fill-rule:evenodd;stroke:none;stroke-width:0.89720148px;stroke-linecap:butt;stroke-linejoin:miter;stroke-opacity:1" />
        <path
           transform="matrix(1,0,0,0.94961344,-76.499074,64.005356)"
           inkscape:connector-curvature="0"
           id="path5088"
           d="m -93.06499,-159.2866 c 1.090178,1.95915 -0.3116,5.38993 -0.100655,8.03542 -0.41991,2.68542 0.06422,4.48449 0.04801,7.15314 -0.450774,2.5226 -1.229404,5.08736 -1.754024,7.63667 -0.375058,4.17777 -1.826577,8.14194 -2.696782,12.22437 -0.664856,2.30666 1.536728,3.64306 3.675321,4.22665 2.726919,1.23245 5.555956,2.11503 8.507863,2.71133 2.246289,0.60293 4.572017,0.68524 6.849581,1.19141 1.805599,0.17671 3.960289,0.373 4.826213,-0.29265 2.284137,0.61306 1.825257,-0.75595 4.14095,-1.0416 0.818865,-2.68611 0.790991,-4.09442 -0.439973,-6.31813 -1.453954,-0.97444 -2.276911,-2.6096 -4.341329,-3.65619 -2.67919,-1.05533 -6.611505,-1.22566 -8.642234,-2.45958 -0.789781,-2.48055 0.904014,-4.79963 0.585782,-7.22595 0.230505,-2.3736 -0.06746,-4.11649 0.514399,-6.69509 0.298568,-2.09254 1.475421,-4.26193 1.040972,-6.21263 -0.02784,-1.90361 0.665059,-5.34606 -1.907539,-6.30231 -3.001723,-1.45026 -6.229303,-2.75841 -9.605499,-2.89047 -1.462106,-0.74279 2.108939,0.33214 -0.279206,0.0188 l -0.421834,-0.10317 -1.6e-5,-4e-5 z"
           style="fill:#edf1f3;fill-opacity:1;fill-rule:evenodd;stroke:none;stroke-width:0.89720154px;stroke-linecap:butt;stroke-linejoin:miter;stroke-opacity:1" />
        <path
           transform="matrix(1,0,0,0.94961344,-76.499074,64.005356)"
           style="fill:#edf1f3;fill-opacity:1;fill-rule:evenodd;stroke:none;stroke-width:0.89720154px;stroke-linecap:butt;stroke-linejoin:miter;stroke-opacity:1"
           d="m -76.482946,-160.74429 c 1.330831,1.94243 0.466423,5.55475 1.046502,8.25796 -0.02301,2.78439 0.700218,4.60103 1.06439,7.3425 -0.07596,2.61915 -0.4623,5.30249 -0.605719,7.95378 0.232671,4.31403 -0.603822,8.47728 -0.862526,12.72492 -0.31328,2.41106 2.001403,3.64318 4.148163,4.10627 2.806828,1.09193 5.662408,1.81806 8.595802,2.2424 2.253438,0.47608 4.509433,0.41249 6.779279,0.78721 1.767516,0.0665 3.874683,0.13081 4.615544,-0.6079 2.2914,0.48409 1.653748,-0.89253 3.847693,-1.33336 0.407891,-2.81049 0.180557,-4.2549 -1.323783,-6.46004 -1.541725,-0.90804 -2.568583,-2.53478 -4.709658,-3.47803 -2.735565,-0.91308 -6.554415,-0.83755 -8.689641,-1.97533 -1.115163,-2.49697 0.189253,-4.9863 -0.463152,-7.45761 -0.115387,-2.45213 -0.650972,-4.22292 -0.456487,-6.90794 -0.0097,-2.16784 0.81718,-4.47053 0.120314,-6.44603 -0.297795,-1.95303 -0.119101,-5.5322 -2.737705,-6.35034 -3.103009,-1.29808 -6.403739,-2.43586 -9.680494,-2.35644 -1.516624,-0.66966 2.082351,0.20675 -0.266808,0.0367 l -0.421745,-0.0791 -2.1e-5,-5e-5 z"
           id="path5090"
           inkscape:connector-curvature="0" />
        <path
           transform="matrix(1,0,0,0.94961344,-76.499074,64.005356)"
           style="fill:#edf1f3;fill-opacity:1;fill-rule:evenodd;stroke:none;stroke-width:4.41513443px;stroke-linecap:butt;stroke-linejoin:miter;stroke-opacity:1"
           d="m -5.3397443,-229.25473 c 2.4638566,3.08512 -1.3898376,4.78857 -0.2472933,8.09534 4.67223052,6.49154 9.6931919,12.84067 12.8647573,20.4197 3.0329773,5.2431 6.4621573,11.14444 5.4187703,17.41303 -0.180228,1.87805 -1.513734,7.55261 -1.824392,6.59568 -1.1384462,-4.68341 -2.6852404,-9.30107 -4.9435749,-13.51833 -3.4958986,-8.25224 -8.4570063,-16.14719 -15.3261525,-21.28905 -4.2430616,0.19329 -6.1322906,5.18978 -8.1257836,8.63804 -1.967773,4.51255 -4.775085,8.31871 -7.726548,11.97866 -4.619495,6.6751 -9.114523,13.49731 -13.271597,20.56736 -3.549146,6.42231 -6.865532,13.03675 -10.707667,19.2261 0.09564,-1.48803 -1.951669,3.8141 -1.971235,5.00125 -4.726092,1.31008 -4.812108,-6.00022 -3.622654,-9.16832 1.187989,-4.9869 4.40547,-8.66393 6.664922,-12.95669 2.451309,-3.79891 4.633902,-7.9002 7.257696,-11.50602 10.462664,-10.18534 15.16576,-25.66902 23.563844,-37.7943 -2.633793,-4.35318 -8.047939,-3.29198 -11.923426,-4.17979 -4.578666,-0.0421 -8.948358,-2.66404 -13.481805,-1.93978 -3.577445,0.11726 -7.136318,0.41484 -10.667339,0.86702 4.501312,-2.87794 8.857952,-6.13152 13.713404,-8.28275 5.798549,-0.90249 11.803896,-0.31468 17.712547,-0.19336 3.804754,0.31421 7.773813,1.25121 11.094356,3.83629 1.9019383,-2.33347 3.2597645,-4.5314 5.5491695,-1.81007 l 0,0 z"
           id="path5092"
           inkscape:connector-curvature="0" />
        <path
           transform="matrix(1,0,0,0.94961344,-76.499074,64.005356)"
           style="fill:#edf1f3;fill-opacity:1;fill-rule:evenodd;stroke:none;stroke-width:4.41513443px;stroke-linecap:butt;stroke-linejoin:miter;stroke-opacity:1"
           d="m -77.602697,-203.19617 c 3.710874,1.06052 5.202755,5.38323 8.59744,7.10198 4.949179,3.23888 10.133651,6.17989 15.749257,7.85122 3.799162,1.43526 7.293662,5.00792 11.434952,4.18383 3.665282,-0.45056 7.255458,1.63278 8.397612,5.15713 1.636846,3.74209 0.727604,6.45052 -0.70889,9.90412 -2.265769,2.09232 -3.840017,5.76088 -7.307581,6.03715 -5.54938,0.0932 -5.193678,-6.12822 -9.985887,-7.87429 -3.117677,-1.38272 -4.413009,-2.96625 -8.370334,-4.0988 -2.862157,-1.04502 -2.736122,-1.4974 -5.329724,-3.12259 -3.175105,-0.79776 -5.690363,-3.39416 -8.419479,-5.07951 -3.31426,-1.64961 -5.394581,-3.33651 -7.761935,-5.51877 -2.343657,-1.45935 -2.386584,-3.14332 -2.398604,-3.88384 -0.187484,-1.74406 -0.100774,-5.82764 3.241008,-7.76036 0.721049,-1.48964 1.741777,-1.19176 2.638878,-2.52343 -1.624597,2.75925 0.327047,1.08937 0.223278,-0.37381 z"
           id="path5094"
           inkscape:connector-curvature="0" />
        <path
           style="fill:#edf1f3;fill-opacity:1;fill-rule:evenodd;stroke:none;stroke-width:4.30246544px;stroke-linecap:butt;stroke-linejoin:miter;stroke-opacity:1"
           d="m -104.95116,-52.230514 c 6.030528,-3.359375 1.49385,-13.192763 8.949823,-15.854567 -0.453712,-10.667594 7.286275,-17.454051 10.394311,-27.345284 4.914388,-8.124795 5.007304,-21.651125 17.136213,-21.816165 5.023096,-3.09786 8.408633,-19.15823 14.746983,-8.73849 3.875075,7.00747 10.441613,12.55568 11.639731,20.87858 2.436009,8.78477 1.02965,19.180363 8.079296,26.137444 2.815891,7.8257 6.693716,15.335086 8.987684,23.286405 3.247888,7.883295 -7.979761,6.95688 -12.887094,6.985226 -4.778102,0.19496 -9.725077,-0.767915 -14.152,1.478217 -8.738801,1.49114 -17.696052,0.903715 -26.281967,-0.651399 -8.473687,1.037042 -16.542444,-1.466156 -24.5714,-3.691946 l -0.9901,-0.247728 -1.05148,-0.420293 0,0 z"
           id="path5098"
           inkscape:connector-curvature="0" />
      </g>
      <g
         style="stroke:none;fill:#edf1f3;fill-opacity:1"
         id="g5109"
         transform="translate(673.99948,0)">
        <path
           style="fill:#edf1f3;fill-opacity:1;fill-rule:evenodd;stroke:none;stroke-width:0.89720154px;stroke-linecap:butt;stroke-linejoin:miter;stroke-opacity:1"
           d="m -160.57166,-167.20909 c -2.9697,0.38723 -5.85283,1.26032 -8.41414,2.67266 -5.39435,1.03851 -9.68112,6.68731 -6.25566,10.91501 -0.8493,1.70188 -3.58967,4.51787 -0.66555,7.1317 -1.50201,0.63499 -4.72913,3.2185 -1.51463,4.96311 1.63931,3.39797 0.99199,9.05449 -1.73059,11.9287 -2.81707,3.43665 0.27284,6.6302 4.1081,5.10306 1.43214,0.9986 1.3072,2.84746 0.81394,4.65095 1.81759,5.89895 4.88588,11.44883 6.13834,17.32486 0.1452,0.85273 0.19157,1.6837 0.198,2.50628 0.61573,0.651783 0.8177,1.55617 0.22325,2.951873 0.0919,4.310042 -1.74915,9.978668 2.06345,13.09723 2.10458,3.820229 4.73773,5.161972 8.69793,5.990856 6.90663,-1.03082 13.92575,-1.315804 20.88824,-1.968605 0.54861,-1.640851 -0.2707,-3.970365 0.74364,-5.553979 0.15194,-1.818115 -0.0966,-3.657881 -0.25059,-5.497985 -0.39432,-1.341877 -0.68,-2.749117 -0.65067,-4.345864 -0.68205,-5.297176 -3.98839,-11.969926 -0.63305,-16.882596 -1.74444,-2.87556 -3.91644,-7.56559 -1.2702,-9.04724 2.51836,1.36772 4.07178,5.22529 6.43777,7.0981 2.46133,3.69499 9.21611,0.6087 4.77023,-2.18335 -3.46913,-4.06484 -2.40342,-10.16366 -6.03728,-13.91525 -3.85306,-1.65988 -5.0679,-4.86899 -5.46294,-8.83133 -0.77776,-3.16402 -2.18955,-5.01596 -3.86389,-6.78476 -4.08663,-3.0063 3.26271,-2.53265 5.54212,-2.78064 1.86333,-1.70166 1.05537,-3.66982 -0.17497,-5.80554 -1.84689,-1.21201 -3.02644,-2.10629 -6.05627,-1.83472 -2.2394,-1.32712 -2.95114,-2.22803 -4.43898,-4.24069 0.11251,-2.76982 -1.16866,-6.12855 -4.25761,-6.42519 -2.91709,-0.52529 -5.97808,-0.62376 -8.94773,-0.23649 z"
           id="path5113"
           inkscape:connector-curvature="0" />
        <path
           sodipodi:nodetypes="cccccccccccc"
           inkscape:connector-curvature="0"
           id="path5115"
           d="m -168.44146,-209.00104 c -2.39135,1.53063 -2.28914,4.57767 -3.179,6.91052 -2.74546,11.46364 -3.732,23.19908 -4.64567,34.87022 0.24933,1.71061 -1.52034,5.1476 0.83158,5.52547 -1.02163,2.53369 2.55387,0.66466 3.9071,0.97738 8.64842,-0.72129 17.29842,-1.42176 25.94727,-2.13737 0.30322,0.23454 -1.52918,-5.37229 -2.84309,-7.80345 -4.45077,-11.67193 -8.83192,-23.47119 -15.33674,-34.26048 -1.08207,-1.58654 -2.2981,-3.34607 -4.20208,-4.07965 l -0.47932,-0.002 -3e-5,-4.2e-4 z"
           style="fill:#edf1f3;fill-opacity:1;fill-rule:evenodd;stroke:none;stroke-width:0.89720148px;stroke-linecap:butt;stroke-linejoin:miter;stroke-opacity:1" />
        <path
           transform="matrix(1,0,0,0.94961344,-76.499074,64.005356)"
           inkscape:connector-curvature="0"
           id="path5117"
           d="m -93.06499,-159.2866 c 1.090178,1.95915 -0.3116,5.38993 -0.100655,8.03542 -0.41991,2.68542 0.06422,4.48449 0.04801,7.15314 -0.450774,2.5226 -1.229404,5.08736 -1.754024,7.63667 -0.375058,4.17777 -1.826577,8.14194 -2.696782,12.22437 -0.664856,2.30666 1.536728,3.64306 3.675321,4.22665 2.726919,1.23245 5.555956,2.11503 8.507863,2.71133 2.246289,0.60293 4.572017,0.68524 6.849581,1.19141 1.805599,0.17671 3.960289,0.373 4.826213,-0.29265 2.284137,0.61306 1.825257,-0.75595 4.14095,-1.0416 0.818865,-2.68611 0.790991,-4.09442 -0.439973,-6.31813 -1.453954,-0.97444 -2.276911,-2.6096 -4.341329,-3.65619 -2.67919,-1.05533 -6.611505,-1.22566 -8.642234,-2.45958 -0.789781,-2.48055 0.904014,-4.79963 0.585782,-7.22595 0.230505,-2.3736 -0.06746,-4.11649 0.514399,-6.69509 0.298568,-2.09254 1.475421,-4.26193 1.040972,-6.21263 -0.02784,-1.90361 0.665059,-5.34606 -1.907539,-6.30231 -3.001723,-1.45026 -6.229303,-2.75841 -9.605499,-2.89047 -1.462106,-0.74279 2.108939,0.33214 -0.279206,0.0188 l -0.421834,-0.10317 -1.6e-5,-4e-5 z"
           style="fill:#edf1f3;fill-opacity:1;fill-rule:evenodd;stroke:none;stroke-width:0.89720154px;stroke-linecap:butt;stroke-linejoin:miter;stroke-opacity:1" />
        <path
           transform="matrix(1,0,0,0.94961344,-76.499074,64.005356)"
           style="fill:#edf1f3;fill-opacity:1;fill-rule:evenodd;stroke:none;stroke-width:0.89720154px;stroke-linecap:butt;stroke-linejoin:miter;stroke-opacity:1"
           d="m -76.482946,-160.74429 c 1.330831,1.94243 0.466423,5.55475 1.046502,8.25796 -0.02301,2.78439 0.700218,4.60103 1.06439,7.3425 -0.07596,2.61915 -0.4623,5.30249 -0.605719,7.95378 0.232671,4.31403 -0.603822,8.47728 -0.862526,12.72492 -0.31328,2.41106 2.001403,3.64318 4.148163,4.10627 2.806828,1.09193 5.662408,1.81806 8.595802,2.2424 2.253438,0.47608 4.509433,0.41249 6.779279,0.78721 1.767516,0.0665 3.874683,0.13081 4.615544,-0.6079 2.2914,0.48409 1.653748,-0.89253 3.847693,-1.33336 0.407891,-2.81049 0.180557,-4.2549 -1.323783,-6.46004 -1.541725,-0.90804 -2.568583,-2.53478 -4.709658,-3.47803 -2.735565,-0.91308 -6.554415,-0.83755 -8.689641,-1.97533 -1.115163,-2.49697 0.189253,-4.9863 -0.463152,-7.45761 -0.115387,-2.45213 -0.650972,-4.22292 -0.456487,-6.90794 -0.0097,-2.16784 0.81718,-4.47053 0.120314,-6.44603 -0.297795,-1.95303 -0.119101,-5.5322 -2.737705,-6.35034 -3.103009,-1.29808 -6.403739,-2.43586 -9.680494,-2.35644 -1.516624,-0.66966 2.082351,0.20675 -0.266808,0.0367 l -0.421745,-0.0791 -2.1e-5,-5e-5 z"
           id="path5119"
           inkscape:connector-curvature="0" />
        <path
           style="fill:#edf1f3;fill-opacity:1;fill-rule:evenodd;stroke:none;stroke-width:4.41513443px;stroke-linecap:butt;stroke-linejoin:miter;stroke-opacity:1"
           d="m -93.522456,-170.81114 c 3.264283,1.89567 0.155725,4.77006 2.243327,7.32714 6.386223,4.16827 13.057338,8.08693 18.3628,13.75387 4.460409,3.62628 9.495326,7.7024 10.430072,13.67475 0.404719,1.7429 0.884512,7.28564 0.299207,6.53866 -2.504835,-3.78978 -5.374161,-7.37761 -8.791177,-10.3579 -5.816861,-6.15538 -12.904447,-11.4776 -20.947,-13.66864 -3.937224,1.66018 -4.188252,6.79126 -5.011061,10.57415 -0.473037,4.72577 -1.952871,9.11403 -3.613192,13.42206 -2.30908,7.58944 -4.45593,15.26685 -6.20868,23.04745 -1.37829,6.988171 -2.47859,14.066594 -4.20409,20.949108 -0.36509,-1.364412 -0.67152,4.095437 -0.32681,5.16408 -4.05056,2.828356 -6.36768,-3.679808 -6.21647,-6.930285 -0.4065,-4.876696 1.49915,-9.293237 2.31414,-13.924673 1.14674,-4.25698 1.94791,-8.69023 3.31617,-12.83498 6.73877,-12.77718 6.43219,-28.27433 10.63302,-42.0629 -3.81222,-2.97026 -8.58695,-0.12332 -12.50867,0.44109 -4.3253,1.5673 -9.24293,0.75393 -13.29124,2.99081 -3.33357,1.35887 -6.59448,2.87251 -9.78187,4.51466 3.35926,-4.15186 6.46736,-8.58897 10.38246,-12.215 5.18533,-2.83974 11.0213,-4.41903 16.6235,-6.38167 3.67964,-1.05264 7.70452,-1.60586 11.622727,-0.45772 1.077578,-2.75372 1.684137,-5.19551 4.67284,-3.56405 l 0,0 z"
           id="path5121"
           inkscape:connector-curvature="0" />
        <path
           style="fill:#edf1f3;fill-opacity:1;fill-rule:evenodd;stroke:none;stroke-width:4.41513443px;stroke-linecap:butt;stroke-linejoin:miter;stroke-opacity:1"
           d="m -155.4105,-124.30885 c 3.83422,-0.0378 6.30109,3.51892 9.98641,4.17061 5.54701,1.62216 11.25042,2.90721 17.06848,2.91098 4.00846,0.28173 8.23045,2.60578 12.03258,0.7232 3.43132,-1.41061 7.39195,-0.47789 9.3316,2.44211 2.46891,2.98497 2.23442,5.71532 1.66792,9.27227 -1.69036,2.53475 -2.33878,6.326263 -5.62063,7.523282 -5.33504,1.595795 -6.46927,-4.204332 -11.5102,-4.500722 -3.3381,-0.41904 -4.96466,-1.51816 -9.05391,-1.47934 -3.01122,-0.17901 -2.99699,-0.62802 -5.88676,-1.41198 -3.2546,0.13284 -6.2994,-1.56278 -9.33427,-2.365 -3.59126,-0.6102 -6.00017,-1.59043 -8.80383,-2.94664 -2.60908,-0.69996 -3.05047,-2.23201 -3.23795,-2.90759 -0.59521,-1.54779 -1.48137,-5.31491 1.28564,-7.9962 0.34228,-1.56183 1.3984,-1.56657 1.94815,-3.0315 -0.91299,2.97163 0.57445,0.90964 0.12677,-0.40345 z"
           id="path5123"
           inkscape:connector-curvature="0" />
        <path
           style="fill:#edf1f3;fill-opacity:1;fill-rule:evenodd;stroke:none;stroke-width:4.30246544px;stroke-linecap:butt;stroke-linejoin:miter;stroke-opacity:1"
           d="m -104.95116,-52.230514 c 6.030528,-3.359375 1.49385,-13.192763 8.949823,-15.854567 -0.453712,-10.667594 7.286275,-17.454051 10.394311,-27.345284 4.914388,-8.124795 5.007304,-21.651125 17.136213,-21.816165 5.023096,-3.09786 8.408633,-19.15823 14.746983,-8.73849 3.875075,7.00747 10.441613,12.55568 11.639731,20.87858 2.436009,8.78477 1.02965,19.180363 8.079296,26.137444 2.815891,7.8257 6.693716,15.335086 8.987684,23.286405 3.247888,7.883295 -7.979761,6.95688 -12.887094,6.985226 -4.778102,0.19496 -9.725077,-0.767915 -14.152,1.478217 -8.738801,1.49114 -17.696052,0.903715 -26.281967,-0.651399 -8.473687,1.037042 -16.542444,-1.466156 -24.5714,-3.691946 l -0.9901,-0.247728 -1.05148,-0.420293 0,0 z"
           id="path5125"
           inkscape:connector-curvature="0" />
      </g>
    </g>
  </g>
</svg>
