<?xml version="1.0" encoding="UTF-8" standalone="no"?>
<!-- Created with Inkscape (http://www.inkscape.org/) -->

<svg
   xmlns:dc="http://purl.org/dc/elements/1.1/"
   xmlns:cc="http://creativecommons.org/ns#"
   xmlns:rdf="http://www.w3.org/1999/02/22-rdf-syntax-ns#"
   xmlns:svg="http://www.w3.org/2000/svg"
   xmlns="http://www.w3.org/2000/svg"
   xmlns:sodipodi="http://sodipodi.sourceforge.net/DTD/sodipodi-0.dtd"
   xmlns:inkscape="http://www.inkscape.org/namespaces/inkscape"
   width="240"
   height="40"
   viewBox="0 0 240.00001 40"
   id="svg2"
   version="1.1"
   inkscape:version="0.91 r13725"
   sodipodi:docname="sawing_gnome.svg">
  <defs
     id="defs4" />
  <sodipodi:namedview
     id="base"
     pagecolor="#ffffff"
     bordercolor="#666666"
     borderopacity="1.0"
     inkscape:pageopacity="0.0"
     inkscape:pageshadow="2"
     inkscape:zoom="5.34"
     inkscape:cx="34.130001"
     inkscape:cy="38.321678"
     inkscape:document-units="px"
     inkscape:current-layer="g5699"
     showgrid="false"
     inkscape:window-width="1920"
     inkscape:window-height="1031"
     inkscape:window-x="1619"
     inkscape:window-y="0"
     inkscape:window-maximized="0"
     showguides="false"
     inkscape:snap-bbox="true"
     inkscape:bbox-paths="true"
     inkscape:bbox-nodes="true"
     fit-margin-top="0"
     fit-margin-left="0"
     fit-margin-right="0"
     fit-margin-bottom="0"
     units="px"
     inkscape:snap-global="false"
     inkscape:snap-nodes="false" />
  <metadata
     id="metadata7">
    <rdf:RDF>
      <cc:Work
         rdf:about="">
        <dc:format>image/svg+xml</dc:format>
        <dc:type
           rdf:resource="http://purl.org/dc/dcmitype/StillImage" />
        <dc:title />
      </cc:Work>
    </rdf:RDF>
  </metadata>
  <g
     inkscape:label="Calque 1"
     inkscape:groupmode="layer"
     id="layer1"
     transform="translate(-118.51847,-282.73258)">
    <g
       id="g4376"
       transform="matrix(0.23738891,0,0,0.21609846,145.54818,346.45157)"
       style="fill:#182124;fill-opacity:1;stroke:none" />
    <g
       style="fill:#4e6b75;fill-opacity:1;stroke:none"
       transform="matrix(0.23738891,0,0,0.21609846,147.99841,345.22646)"
       id="g4638" />
    <rect
       y="282.73257"
       x="118.51847"
       height="40"
       width="240"
       id="rect5131"
       style="opacity:1;fill:none;fill-opacity:1;stroke:none;stroke-width:4.30246544;stroke-linecap:round;stroke-linejoin:round;stroke-miterlimit:4;stroke-dasharray:none;stroke-dashoffset:0;stroke-opacity:1" />
    <g
       transform="matrix(0.23738891,0,0,0.22756466,275.05569,275.10748)"
       id="g5000"
       style="stroke:none">
      <g
         id="g5617"
         transform="translate(-210.62481,190.65433)"
         style="fill:#edf1f3;fill-opacity:1">
        <path
           style="fill:#edf1f3;fill-opacity:1;fill-rule:evenodd;stroke:none;stroke-width:0.89720154px;stroke-linecap:butt;stroke-linejoin:miter;stroke-opacity:1"
           d="m -426.13304,-109.81058 c -2.98969,0.14238 -5.92972,0.77622 -8.58958,1.97403 -5.45594,0.59271 -10.15532,5.87231 -7.05921,10.367964 -0.97499,1.62692 -3.91919,4.20935 -1.2012,7.055 -1.54523,0.50979 -4.95714,2.82052 -1.88412,4.82347 1.37803,3.52194 0.30625,9.10783 -2.6246,11.74976 -3.06745,3.19487 -0.22789,6.63204 3.71062,5.4243 1.35242,1.113 1.08847,2.94589 0.46077,4.70332 1.3672,6.02981 4.00755,11.81423 4.81311,17.77482 0.0805,0.862 0.064,1.6942 0.008,2.51476 0.56469,0.70028 0.69785,1.61844 0,2.96105 -0.23337,4.30422 -2.49607,9.80424 1.0696,13.22595 1.81003,3.98107 4.33386,5.53469 8.2193,6.68592 6.96296,-0.46096 13.98182,-0.16918 20.97195,-0.24872 0.67063,-1.59075 0.0295,-3.98027 1.16008,-5.47576 0.28856,-1.80001 0.17946,-3.65448 0.16471,-5.50151 -0.29192,-1.37007 -0.47062,-2.79639 -0.32099,-4.38579 -0.28055,-5.33672 -3.07356,-12.26007 0.64177,-16.88223 -1.52222,-3.00978 -3.33389,-7.86348 -0.58414,-9.12343 2.40744,1.5701 3.66521,5.54317 5.88266,7.6043 2.17513,3.88549 9.14167,1.36295 4.92007,-1.78521 -3.15191,-4.33688 -1.62968,-10.32937 -4.96944,-14.36748 -3.71597,-1.97086 -4.68509,-5.26971 -4.78017,-9.25218 -0.5368,-3.21803 -1.80459,-5.18007 -3.34038,-7.08076 -3.84732,-3.33228 3.44354,-2.25711 5.7346,-2.31731 1.98585,-1.54352 1.32879,-3.57187 0.26328,-5.80192 -1.74979,-1.35979 -2.85827,-2.34808 -5.89918,-2.32593 -2.13241,-1.50674 -2.77402,-2.46325 -4.1055,-4.591754 0.32099,-2.75201 -0.70298,-6.20544 -3.75999,-6.75461 -2.86846,-0.76299 -5.91254,-1.1123 -8.90219,-0.96987 z"
           id="path5004"
           inkscape:connector-curvature="0" />
        <path
           sodipodi:nodetypes="cccccccccccc"
           inkscape:connector-curvature="0"
           id="path5006"
           d="m -430.82755,-152.11875 c -2.49934,1.32969 -2.62718,4.37568 -3.69017,6.62828 -3.60126,11.20288 -5.46954,22.82103 -7.26032,34.38105 0.11958,1.72577 -1.90374,5.00691 0.4124,5.57658 -1.20949,2.44202 2.49585,0.87213 3.82131,1.29492 8.67601,-0.01 17.35203,0.002 26.02804,-0.002 0.2846,0.25869 -1.11939,-5.48111 -2.24594,-8.01253 -3.55697,-12.00094 -7.03495,-24.12311 -12.70616,-35.41267 -0.95909,-1.6704 -2.0387,-3.52425 -3.88147,-4.41178 l -0.4777,-0.0412 1e-5,-4.3e-4 z"
           style="fill:#edf1f3;fill-opacity:1;fill-rule:evenodd;stroke:none;stroke-width:0.89720148px;stroke-linecap:butt;stroke-linejoin:miter;stroke-opacity:1" />
        <path
           inkscape:connector-curvature="0"
           id="path5008"
           d="m -437.02419,-26.803886 c 1.09018,1.86044 -0.3116,5.11835 -0.10065,7.63055 -0.41991,2.55011 0.0642,4.25853 0.048,6.79271 -0.45078,2.3955001 -1.22941,4.8310301 -1.75403,7.2518901 -0.37505,3.96727 -1.82657,7.73169 -2.69678,11.60842 -0.66485,2.19044 1.53673,3.4595 3.67532,4.0136899 2.72692,1.17035 5.55596,2.00846 8.50787,2.57471 2.24629,0.57255 4.57201,0.65072 6.84958,1.13138 1.8056,0.16781 3.96029,0.35421 4.82621,-0.2779 2.28414,0.58217 1.82526,-0.71786 4.14095,-0.98912 0.81887,-2.55077 0.79099,-3.8881199 -0.43997,-5.9997799 -1.45396,-0.92534 -2.27691,-2.47811 -4.34133,-3.47197 -2.67919,-1.00215 -6.61151,-1.1639 -8.64224,-2.33565 -0.78978,-2.35556 0.90402,-4.55779 0.58579,-6.86186 0.2305,-2.254 -0.0675,-3.90907 0.5144,-6.3577401 0.29856,-1.98711 1.47542,-4.04719 1.04097,-5.8996 -0.0278,-1.8077 0.66506,-5.07669 -1.90754,-5.98476 -3.00172,-1.37719 -6.2293,-2.61942 -9.6055,-2.74483 -1.46211,-0.70536 2.10894,0.31541 -0.27921,0.0179 l -0.42183,-0.098 -2e-5,-4e-5 z"
           style="fill:#edf1f3;fill-opacity:1;fill-rule:evenodd;stroke:none;stroke-width:0.89720154px;stroke-linecap:butt;stroke-linejoin:miter;stroke-opacity:1" />
        <path
           style="fill:#edf1f3;fill-opacity:1;fill-rule:evenodd;stroke:none;stroke-width:0.89720154px;stroke-linecap:butt;stroke-linejoin:miter;stroke-opacity:1"
           d="m -420.44214,-28.188126 c 1.33083,1.84456 0.46642,5.27487 1.0465,7.84187 -0.023,2.6441 0.70022,4.3692 1.06439,6.97254 -0.076,2.48718 -0.4623,5.0353101 -0.60572,7.5530101 0.23267,4.09667 -0.60382,8.05014 -0.86253,12.08376 -0.31328,2.28957 2.00141,3.45961 4.14817,3.8993699 2.80683,1.03691 5.66241,1.72645 8.5958,2.12941 2.25344,0.45209 4.50943,0.39171 6.77928,0.74755 1.76751,0.0632 3.87468,0.12422 4.61554,-0.57727 2.2914,0.4597 1.65375,-0.84756 3.8477,-1.26618 0.40789,-2.6688799 0.18055,-4.0405099 -1.32379,-6.1345399 -1.54172,-0.86229 -2.56858,-2.40706 -4.70966,-3.30278 -2.73556,-0.86707997 -6.55441,-0.79534997 -8.68964,-1.87579997 -1.11516,-2.37116003 0.18926,-4.73506003 -0.46315,-7.08185003 -0.11539,-2.32858 -0.65097,-4.0101401 -0.45649,-6.5598701 -0.01,-2.05861 0.81718,-4.24528 0.12032,-6.12124 -0.2978,-1.85462 -0.1191,-5.25345 -2.73771,-6.03037 -3.10301,-1.23267 -6.40374,-2.31312 -9.68049,-2.23771 -1.51662,-0.63591 2.08235,0.19634 -0.26681,0.0349 l -0.42174,-0.0751 -2e-5,-5e-5 z"
           id="path5010"
           inkscape:connector-curvature="0" />
        <path
           style="fill:#edf1f3;fill-opacity:1;fill-rule:evenodd;stroke:none;stroke-width:4.41513443px;stroke-linecap:butt;stroke-linejoin:miter;stroke-opacity:1"
           d="m -421.56189,-68.500996 c 3.71087,1.00708 5.20275,5.11198 8.59744,6.74413 4.94918,3.07569 10.13365,5.86851 15.74925,7.45563 3.79917,1.36294 7.29367,4.75558 11.43496,3.97302 3.66528,-0.42786 7.25545,1.55051 8.39761,4.89728 1.63684,3.55354 0.7276,6.1255 -0.70889,9.40508 -2.26577,1.9869 -3.84002,5.47061 -7.30758,5.73296 -5.54938,0.0885 -5.19368,-5.81944 -9.98589,-7.47753 -3.11768,-1.31305 -4.41301,-2.81679 -8.37033,-3.89228 -2.86216,-0.99236 -2.73613,-1.42195 -5.32973,-2.96525 -3.1751,-0.75756 -5.69036,-3.22314 -8.41948,-4.82357 -3.31426,-1.56649 -5.39458,-3.1684 -7.76193,-5.2407 -2.34366,-1.38582 -2.38659,-2.98494 -2.39861,-3.68815 -0.18748,-1.65618 -0.10077,-5.534 3.24101,-7.36934 0.72105,-1.41458 1.74178,-1.13171 2.63888,-2.39628 -1.6246,2.62022 0.32705,1.03448 0.22328,-0.35498 z"
           id="path5014"
           inkscape:connector-curvature="0" />
        <path
           sodipodi:nodetypes="cccccccccccccccccccccccccccccc"
           inkscape:connector-curvature="0"
           id="path5535"
           d="m -279.2549,11.371594 c -7.54941,-7.8412799 -20.43779,-4.7575599 -27.39694,-13.4210299 -2.88933,-6.9796 -7.43041,-13.0477101 -10.56436,-19.9118501 -4.24322,-7.01511 1.40331,-13.18011 4.16779,-18.75348 2.00821,-13.3521 -6.49805,-26.89573 -0.90898,-39.93631 2.43819,-7.67299 8.79072,-15.41516 5.68758,-23.897814 -4.0165,-4.85549 -6.64602,-10.6197 -4.89224,-17.26373 0.8505,-7.1026 -3.43965,3.66254 -4.58744,5.2183 -6.07195,11.64923 -10.07401,24.324074 -13.85413,36.964584 -0.18123,-7.52582 3.49873,-16.44042 -1.85195,-22.830484 -4.60418,-1.21569 -8.10458,-7.9905 -3.07176,-10.72253 0.0866,4.57902 -3.1444,11.28326 -6.88647,12.9108 -1.49457,-4.86814 -5.12769,-8.03077 -8.05786,-12.08806 -4.06867,-5.26102 -5.30824,-11.97889 -7.3498,-18.21679 -1.26521,-5.27352 -4.38003,-3.45707 -3.07302,1.29641 -0.54329,8.93147 3.48052,18.30056 6.25463,26.95322 5.36011,9.155174 3.13837,20.538554 4.42786,30.743314 1.34091,8.10075 -2.54627,16.21763 0.19124,23.96631 2.61292,7.83597 -6.2239,19.96328 -12.37877,26.99237 -8.2673,8.92699 4.43533,22.3013701 -6.03426,29.3111901 -4.24145,6.0680199 5.90897,2.3920399 7.89892,-0.53439 3.87217,-4.67352 9.17467,-7.66428997 13.52238,-11.98354 3.62357,-4.76268 11.81848,-6.02435 10.43695,2.43283 0.27186,6.97108 -3.29324,13.3814499 -3.1623,20.2870099 6.307,-4.33806 5.02027,-14.3373599 10.85694,-19.03849987 6.53199,-2.54918003 10.44876,6.04426997 16.27339,7.34845997 10.97724,4.1100699 23.06733,0.28461 34.04823,4.1297599 l 0.30437,0.0439 0,0 z"
           style="fill:#edf1f3;fill-opacity:1;fill-rule:evenodd;stroke:none;stroke-width:4.30246592px;stroke-linecap:butt;stroke-linejoin:miter;stroke-opacity:1" />
        <path
           inkscape:connector-curvature="0"
           id="path5541"
           d="m -384.70488,-75.117316 c 0.28729,8.28548 -1.46532,16.87398 0.67338,24.93947 2.15654,2.72406 0.41048,7.11427 -2.68481,6.90746 2.98322,1.36645 -2.27558,0.91535 0.67818,2.1835 8.35253,4.85508 17.92087,5.32602 26.93018,3.46982 6.5567,-0.83158 13.0638,-2.34527 19.51271,-3.81524 14.563,0.021 29.126,-0.027 43.689,-0.007 3.54377,-2.74103 9.76582,-1.98759 10.27496,4.10152 4.07177,-6.25184 1.97883,-15.07903 5.34346,-21.71004 -0.82092,-3.95649 -0.74882,-10.78964 -5.07631,-11.21627 -5.7757,1.54834 -1.70806,10.00117 -2.35812,14.90957 0.89619,5.12696 -2.36127,10.98054 -7.03302,8.75781 -4.10705,-1.16216 -8.43563,-0.34411 -12.63835,-0.61488 -9.51368,0.0879 -19.03929,-0.12617 -28.54547,0.14897 -5.09927,0.87125 -10.12671,2.97936 -15.3403,2.19118 -9.0675,0 -18.13499,0 -27.20249,0 0.74283,-8.45394 -1.31005,-16.82528 -0.94751,-25.25396 -0.38008,-3.27231 -3.68067,-3.05853 -5.27549,-4.99186 z m 4.38192,2.34308 c 0.051,1.07717 0.0683,1.44273 0,0 z m 0.91715,3.48459 0.0394,-1.0163 -0.0394,1.0163 z m 0,2.32592 c 0.05,1.06029 0.0692,1.46748 0,0 z m 0,2.32592 c 0.0451,1.23914 0.0502,1.37697 0,0 z m 1.01225,4.73767 c 0.0387,0.50187 0.025,0.32438 0,0 z m -0.0815,1.0385 c -0.36656,2.24168 0.37418,1.11574 0.14617,-0.24143 l -0.14617,0.24143 z m -0.007,1.20159 c 0.051,1.0772 0.0683,1.44269 0,0 z m 0.0951,-0.59221 c 0.39828,-0.74014 -0.92884,-0.60933 0,0 z m 69.83892,11.05455 c 0.84873,-0.0647 1.06204,-0.081 0,0 z m 13.80473,0 0.88421,-0.0515 -0.88421,0.0515 z m 1.84109,0 c 0.75422,0.76718 0.35266,-0.76858 0,0 z m 0.45517,-0.12016 c 0.46974,1.14846 0.55252,-0.61054 0,0 z m 0.46197,0.12016 c 0.76253,0.77408 0.35966,-0.77229 0,0 z m 0.46197,-0.12016 c 0.45853,1.13985 0.54776,-0.6071 0,0 z m 0.45517,0.12016 c 0.84897,-0.0647 1.06957,-0.0815 0,0 z m 0.92395,0 0.8842,-0.0515 -0.8842,0.0515 z m 2.41854,0 c -0.05,-1.06032 -0.0692,-1.46744 0,0 z m 0,-2.32592 c 0.64476,-0.95545 -0.62516,-0.4641 0,0 z m -0.0951,-0.58362 c 0.92927,-0.62205 -0.50064,-0.66524 0,0 z m 0.0951,-1.7423 c 0.64574,-0.95549 -0.62597,-0.46418 0,0 z m -0.0951,-0.58362 c 0.92296,-0.60714 -0.49886,-0.65978 0,0 z m 0.0951,-2.90097 c -0.0449,-1.22848 -0.051,-1.39241 0,0 z m 0,-1.16724 c 0.64575,-0.9555 -0.62597,-0.46419 0,0 z m -0.0951,-0.58363 c 0.91962,-0.60893 -0.49469,-0.65838 0,0 z m 0.0951,-1.74229 c -0.0519,-0.49796 -0.0329,-0.31483 0,0 z m -0.0543,-0.3519 c 0.60417,-0.72505 -0.65375,-0.92866 0,0 z m -0.8628,-4.29994 c -0.051,-1.07717 -0.0683,-1.44273 0,0 z m 0,-3.48459 c 0.64575,-0.95548 -0.62596,-0.46419 0,0 z m -0.0951,-0.58362 c 0.92296,-0.60716 -0.49887,-0.65977 0,0 z m 5.61837,-2.90097 0.8284,-0.0466 -0.8284,0.0466 z m 0,29.06112 c 0.0297,1.25139 0.0324,1.36142 0,0 z m -2.76503,5.8105 c 1.34491,1.23936 0.23272,-3.51434 0,0 z m 0,0 c -0.21918,-1.1059 -0.12679,0.75868 0,0 z m -0.14267,-0.2489 c 0.86676,-2.34452 -3.00217,-5.56735 -1.13433,-1.66719 0.33855,0.59377 0.72709,1.14199 1.13433,1.66719 z m -1.69841,-4.40294 -0.0226,-1.01398 0.0226,1.01398 z m 0,-1.15866 c -0.0453,-1.23913 -0.0502,-1.37699 0,0 z m -1.44026,-1.28741 c -0.33006,3.23315 2.87891,-0.53179 0,0 z m -5.5776,1.28741 c -3.79889,2.51872 2.86136,-0.0457 0,0 z m -3.68217,0 -0.8877,0.0519 0.8877,-0.0519 z m -0.92394,0 c -0.75422,-0.76719 -0.35267,0.76858 0,0 z m -0.45518,0.12015 c -0.46975,-1.14845 -0.55252,0.61054 0,0 z m -0.46197,-0.12015 c -0.84896,0.0647 -1.06955,0.0815 0,0 z m -4.59931,0 -0.88769,0.0519 0.88769,-0.0519 z m -5.52325,0 c -0.84874,0.0646 -1.06205,0.0808 0,0 z m -1.84109,0 c -0.76252,-0.77409 -0.35967,0.77228 0,0 z m -0.46197,0.12015 c -0.45852,-1.13984 -0.54775,0.6071 0,0 z m -0.45517,-0.12015 c -0.76244,-0.77294 -0.35965,0.77132 0,0 z m -0.46197,0.12015 c -0.47008,-1.1474 -0.55223,0.60927 0,0 z m -0.46197,-0.12015 c -0.75383,-0.76256 -0.35267,0.76463 0,0 z m -0.45518,0.12015 c -0.46975,-1.14845 -0.55251,0.61054 0,0 z m -0.46196,-0.12015 c -0.84897,0.0647 -1.06957,0.0815 0,0 z m -6.4404,0 -0.88769,0.0519 0.88769,-0.0519 z m -1.84109,0 c -0.76243,-0.77294 -0.35965,0.77132 0,0 z m -0.46197,0.12015 c -0.47007,-1.1474 -0.55223,0.60927 0,0 z m -2.30305,-0.12015 c -0.84874,0.0646 -1.06204,0.0808 0,0 z m -2.75823,0 c -0.76252,-0.77409 -0.35967,0.77228 0,0 z m -0.46197,0.12015 c -0.45852,-1.13984 -0.54775,0.6071 0,0 z m -2.29626,-0.12015 c -0.76243,-0.77296 -0.35966,0.77132 0,0 z m -0.46197,0.12015 c -0.47008,-1.14739 -0.55223,0.60927 0,0 z m -2.30305,-0.12015 c -0.75383,-0.76256 -0.35267,0.76465 0,0 z m -0.45518,0.12015 c -0.46975,-1.14844 -0.55252,0.61054 0,0 z m -0.46197,-0.12015 c -0.84896,0.0647 -1.06956,0.0815 0,0 z m -34.96701,4.65183 c -0.84897,0.0646 -1.06956,0.0815 0,0 z m -10.13615,-1.20158 c -1.08892,-0.67908 -0.56259,0.77578 0,0 z m -4.58573,-2.29159 -0.0799,-0.23404 0.0799,0.23404 z m -0.92394,-3.48458 c 0.45944,-0.58622 -0.48083,-0.41055 0,0 z m -0.0204,-0.47205 c 0.66319,-0.66224 -0.646,-0.72304 0,0 z m 1.86147,-4.17979 c 0.50054,-2.81614 -1.46697,1.70016 0,0 z m -0.91715,-3.48459 c -0.0453,-1.23913 -0.0502,-1.37699 0,0 z m 0,-16.27285 c -0.0449,-1.22848 -0.051,-1.39241 0,0 z m 0,-1.16725 c -0.051,-1.07717 -0.0683,-1.44273 0,0 z"
           style="fill:#edf1f3;fill-opacity:1;fill-rule:evenodd;stroke:none;stroke-width:4.30246592px;stroke-linecap:butt;stroke-linejoin:miter;stroke-opacity:1" />
      </g>
      <g
         transform="translate(-42.124889,190.65433)"
         id="g5627"
         style="fill:#edf1f3;fill-opacity:1">
        <path
           inkscape:connector-curvature="0"
           id="path5631"
           d="m -426.13304,-109.81058 c -2.98969,0.14238 -5.92972,0.77622 -8.58958,1.97403 -5.45594,0.59271 -10.15532,5.87231 -7.05921,10.367964 -0.97499,1.62692 -3.91919,4.20935 -1.2012,7.055 -1.54523,0.50979 -4.95714,2.82052 -1.88412,4.82347 1.37803,3.52194 0.30625,9.10783 -2.6246,11.74976 -3.06745,3.19487 -0.22789,6.63204 3.71062,5.4243 1.35242,1.113 1.08847,2.94589 0.46077,4.70332 1.3672,6.02981 4.00755,11.81423 4.81311,17.77482 0.0805,0.862 0.064,1.6942 0.008,2.51476 0.56469,0.70028 0.69785,1.61844 0,2.96105 -0.23337,4.30422 -2.49607,9.80424 1.0696,13.22595 1.81003,3.98107 4.33386,5.53469 8.2193,6.68592 6.96296,-0.46096 13.98182,-0.16918 20.97195,-0.24872 0.67063,-1.59075 0.0295,-3.98027 1.16008,-5.47576 0.28856,-1.80001 0.17946,-3.65448 0.16471,-5.50151 -0.29192,-1.37007 -0.47062,-2.79639 -0.32099,-4.38579 -0.28055,-5.33672 -3.07356,-12.26007 0.64177,-16.88223 -1.52222,-3.00978 -3.33389,-7.86348 -0.58414,-9.12343 2.40744,1.5701 3.66521,5.54317 5.88266,7.6043 2.17513,3.88549 9.14167,1.36295 4.92007,-1.78521 -3.15191,-4.33688 -1.62968,-10.32937 -4.96944,-14.36748 -3.71597,-1.97086 -4.68509,-5.26971 -4.78017,-9.25218 -0.5368,-3.21803 -1.80459,-5.18007 -3.34038,-7.08076 -3.84732,-3.33228 3.44354,-2.25711 5.7346,-2.31731 1.98585,-1.54352 1.32879,-3.57187 0.26328,-5.80192 -1.74979,-1.35979 -2.85827,-2.34808 -5.89918,-2.32593 -2.13241,-1.50674 -2.77402,-2.46325 -4.1055,-4.591754 0.32099,-2.75201 -0.70298,-6.20544 -3.75999,-6.75461 -2.86846,-0.76299 -5.91254,-1.1123 -8.90219,-0.96987 z"
           style="fill:#edf1f3;fill-opacity:1;fill-rule:evenodd;stroke:none;stroke-width:0.89720154px;stroke-linecap:butt;stroke-linejoin:miter;stroke-opacity:1" />
        <path
           style="fill:#edf1f3;fill-opacity:1;fill-rule:evenodd;stroke:none;stroke-width:0.89720148px;stroke-linecap:butt;stroke-linejoin:miter;stroke-opacity:1"
           d="m -430.82755,-152.11875 c -2.49934,1.32969 -2.62718,4.37568 -3.69017,6.62828 -3.60126,11.20288 -5.46954,22.82103 -7.26032,34.38105 0.11958,1.72577 -1.90374,5.00691 0.4124,5.57658 -1.20949,2.44202 2.49585,0.87213 3.82131,1.29492 8.67601,-0.01 17.35203,0.002 26.02804,-0.002 0.2846,0.25869 -1.11939,-5.48111 -2.24594,-8.01253 -3.55697,-12.00094 -7.03495,-24.12311 -12.70616,-35.41267 -0.95909,-1.6704 -2.0387,-3.52425 -3.88147,-4.41178 l -0.4777,-0.0412 1e-5,-4.3e-4 z"
           id="path5633"
           inkscape:connector-curvature="0"
           sodipodi:nodetypes="cccccccccccc" />
        <path
           style="fill:#edf1f3;fill-opacity:1;fill-rule:evenodd;stroke:none;stroke-width:0.89720154px;stroke-linecap:butt;stroke-linejoin:miter;stroke-opacity:1"
           d="m -437.02419,-26.803886 c 1.09018,1.86044 -0.3116,5.11835 -0.10065,7.63055 -0.41991,2.55011 0.0642,4.25853 0.048,6.79271 -0.45078,2.3955001 -1.22941,4.8310301 -1.75403,7.2518901 -0.37505,3.96727 -1.82657,7.73169 -2.69678,11.60842 -0.66485,2.19044 1.53673,3.4595 3.67532,4.0136899 2.72692,1.17035 5.55596,2.00846 8.50787,2.57471 2.24629,0.57255 4.57201,0.65072 6.84958,1.13138 1.8056,0.16781 3.96029,0.35421 4.82621,-0.2779 2.28414,0.58217 1.82526,-0.71786 4.14095,-0.98912 0.81887,-2.55077 0.79099,-3.8881199 -0.43997,-5.9997799 -1.45396,-0.92534 -2.27691,-2.47811 -4.34133,-3.47197 -2.67919,-1.00215 -6.61151,-1.1639 -8.64224,-2.33565 -0.78978,-2.35556 0.90402,-4.55779 0.58579,-6.86186 0.2305,-2.254 -0.0675,-3.90907 0.5144,-6.3577401 0.29856,-1.98711 1.47542,-4.04719 1.04097,-5.8996 -0.0278,-1.8077 0.66506,-5.07669 -1.90754,-5.98476 -3.00172,-1.37719 -6.2293,-2.61942 -9.6055,-2.74483 -1.46211,-0.70536 2.10894,0.31541 -0.27921,0.0179 l -0.42183,-0.098 -2e-5,-4e-5 z"
           id="path5635"
           inkscape:connector-curvature="0" />
        <path
           inkscape:connector-curvature="0"
           id="path5637"
           d="m -420.44214,-28.188126 c 1.33083,1.84456 0.46642,5.27487 1.0465,7.84187 -0.023,2.6441 0.70022,4.3692 1.06439,6.97254 -0.076,2.48718 -0.4623,5.0353101 -0.60572,7.5530101 0.23267,4.09667 -0.60382,8.05014 -0.86253,12.08376 -0.31328,2.28957 2.00141,3.45961 4.14817,3.8993699 2.80683,1.03691 5.66241,1.72645 8.5958,2.12941 2.25344,0.45209 4.50943,0.39171 6.77928,0.74755 1.76751,0.0632 3.87468,0.12422 4.61554,-0.57727 2.2914,0.4597 1.65375,-0.84756 3.8477,-1.26618 0.40789,-2.6688799 0.18055,-4.0405099 -1.32379,-6.1345399 -1.54172,-0.86229 -2.56858,-2.40706 -4.70966,-3.30278 -2.73556,-0.86707997 -6.55441,-0.79534997 -8.68964,-1.87579997 -1.11516,-2.37116003 0.18926,-4.73506003 -0.46315,-7.08185003 -0.11539,-2.32858 -0.65097,-4.0101401 -0.45649,-6.5598701 -0.01,-2.05861 0.81718,-4.24528 0.12032,-6.12124 -0.2978,-1.85462 -0.1191,-5.25345 -2.73771,-6.03037 -3.10301,-1.23267 -6.40374,-2.31312 -9.68049,-2.23771 -1.51662,-0.63591 2.08235,0.19634 -0.26681,0.0349 l -0.42174,-0.0751 -2e-5,-5e-5 z"
           style="fill:#edf1f3;fill-opacity:1;fill-rule:evenodd;stroke:none;stroke-width:0.89720154px;stroke-linecap:butt;stroke-linejoin:miter;stroke-opacity:1" />
        <path
           inkscape:connector-curvature="0"
           id="path5639"
           d="m -429.98688,-68.500996 c 3.71087,1.00708 5.20275,5.11198 8.59744,6.74413 4.94918,3.07569 10.13365,5.86851 15.74925,7.45563 3.79917,1.36294 7.29367,4.75558 11.43496,3.97302 3.66528,-0.42786 7.25545,1.55051 8.39761,4.89728 1.63684,3.55354 0.7276,6.1255 -0.70889,9.40508 -2.26577,1.9869 -3.84002,5.47061 -7.30758,5.73296 -5.54938,0.0885 -5.19368,-5.81944 -9.98589,-7.47753 -3.11768,-1.31305 -4.41301,-2.81679 -8.37033,-3.89228 -2.86216,-0.99236 -2.73613,-1.42195 -5.32973,-2.96525 -3.1751,-0.75756 -5.69036,-3.22314 -8.41948,-4.82357 -3.31426,-1.56649 -5.39458,-3.1684 -7.76193,-5.2407 -2.34366,-1.38582 -2.38659,-2.98494 -2.39861,-3.68815 -0.18748,-1.65618 -0.10077,-5.534 3.24101,-7.36934 0.72105,-1.41458 1.74178,-1.13171 2.63888,-2.39628 -1.6246,2.62022 0.32705,1.03448 0.22328,-0.35498 z"
           style="fill:#edf1f3;fill-opacity:1;fill-rule:evenodd;stroke:none;stroke-width:4.41513443px;stroke-linecap:butt;stroke-linejoin:miter;stroke-opacity:1" />
        <path
           style="fill:#edf1f3;fill-opacity:1;fill-rule:evenodd;stroke:none;stroke-width:4.30246592px;stroke-linecap:butt;stroke-linejoin:miter;stroke-opacity:1"
           d="m -279.2549,11.371594 c -7.54941,-7.8412799 -20.43779,-4.7575599 -27.39694,-13.4210299 -2.88933,-6.9796 -7.43041,-13.0477101 -10.56436,-19.9118501 -4.24322,-7.01511 1.40331,-13.18011 4.16779,-18.75348 2.00821,-13.3521 -6.49805,-26.89573 -0.90898,-39.93631 2.43819,-7.67299 8.79072,-15.41516 5.68758,-23.897814 -4.0165,-4.85549 -6.64602,-10.6197 -4.89224,-17.26373 0.8505,-7.1026 -3.43965,3.66254 -4.58744,5.2183 -6.07195,11.64923 -10.07401,24.324074 -13.85413,36.964584 -0.18123,-7.52582 3.49873,-16.44042 -1.85195,-22.830484 -4.60418,-1.21569 -8.10458,-7.9905 -3.07176,-10.72253 0.0866,4.57902 -3.1444,11.28326 -6.88647,12.9108 -1.49457,-4.86814 -5.12769,-8.03077 -8.05786,-12.08806 -4.06867,-5.26102 -5.30824,-11.97889 -7.3498,-18.21679 -1.26521,-5.27352 -4.38003,-3.45707 -3.07302,1.29641 -0.54329,8.93147 3.48052,18.30056 6.25463,26.95322 5.36011,9.155174 3.13837,20.538554 4.42786,30.743314 1.34091,8.10075 -2.54627,16.21763 0.19124,23.96631 2.61292,7.83597 -6.2239,19.96328 -12.37877,26.99237 -8.2673,8.92699 4.43533,22.3013701 -6.03426,29.3111901 -4.24145,6.0680199 5.90897,2.3920399 7.89892,-0.53439 3.87217,-4.67352 9.17467,-7.66428997 13.52238,-11.98354 3.62357,-4.76268 11.81848,-6.02435 10.43695,2.43283 0.27186,6.97108 -3.29324,13.3814499 -3.1623,20.2870099 6.307,-4.33806 5.02027,-14.3373599 10.85694,-19.03849987 6.53199,-2.54918003 10.44876,6.04426997 16.27339,7.34845997 10.97724,4.1100699 23.06733,0.28461 34.04823,4.1297599 l 0.30437,0.0439 0,0 z"
           id="path5641"
           inkscape:connector-curvature="0"
           sodipodi:nodetypes="cccccccccccccccccccccccccccccc" />
        <path
           style="fill:#edf1f3;fill-opacity:1;fill-rule:evenodd;stroke:none;stroke-width:4.30246592px;stroke-linecap:butt;stroke-linejoin:miter;stroke-opacity:1"
           d="m -393.12987,-75.117316 c 0.28729,8.28548 -1.46532,16.87398 0.67338,24.93947 2.15654,2.72406 0.41048,7.11427 -2.68481,6.90746 2.98322,1.36645 -2.27558,0.91535 0.67818,2.1835 8.35253,4.85508 17.92087,5.32602 26.93018,3.46982 6.5567,-0.83158 13.0638,-2.34527 19.51271,-3.81524 14.563,0.021 29.126,-0.027 43.689,-0.007 3.54377,-2.74103 9.76582,-1.98759 10.27496,4.10152 4.07177,-6.25184 1.97883,-15.07903 5.34346,-21.71004 -0.82092,-3.95649 -0.74882,-10.78964 -5.07631,-11.21627 -5.7757,1.54834 -1.70806,10.00117 -2.35812,14.90957 0.89619,5.12696 -2.36127,10.98054 -7.03302,8.75781 -4.10705,-1.16216 -8.43563,-0.34411 -12.63835,-0.61488 -9.51368,0.0879 -19.03929,-0.12617 -28.54547,0.14897 -5.09927,0.87125 -10.12671,2.97936 -15.3403,2.19118 -9.0675,0 -18.13499,0 -27.20249,0 0.74283,-8.45394 -1.31005,-16.82528 -0.94751,-25.25396 -0.38008,-3.27231 -3.68067,-3.05853 -5.27549,-4.99186 z m 4.38192,2.34308 c 0.051,1.07717 0.0683,1.44273 0,0 z m 0.91715,3.48459 0.0394,-1.0163 -0.0394,1.0163 z m 0,2.32592 c 0.05,1.06029 0.0692,1.46748 0,0 z m 0,2.32592 c 0.0451,1.23914 0.0502,1.37697 0,0 z m 1.01225,4.73767 c 0.0387,0.50187 0.025,0.32438 0,0 z m -0.0815,1.0385 c -0.36656,2.24168 0.37418,1.11574 0.14617,-0.24143 l -0.14617,0.24143 z m -0.007,1.20159 c 0.051,1.0772 0.0683,1.44269 0,0 z m 0.0951,-0.59221 c 0.39828,-0.74014 -0.92884,-0.60933 0,0 z m 69.83892,11.05455 c 0.84873,-0.0647 1.06204,-0.081 0,0 z m 13.80473,0 0.88421,-0.0515 -0.88421,0.0515 z m 1.84109,0 c 0.75422,0.76718 0.35266,-0.76858 0,0 z m 0.45517,-0.12016 c 0.46974,1.14846 0.55252,-0.61054 0,0 z m 0.46197,0.12016 c 0.76253,0.77408 0.35966,-0.77229 0,0 z m 0.46197,-0.12016 c 0.45853,1.13985 0.54776,-0.6071 0,0 z m 0.45517,0.12016 c 0.84897,-0.0647 1.06957,-0.0815 0,0 z m 0.92395,0 0.8842,-0.0515 -0.8842,0.0515 z m 2.41854,0 c -0.05,-1.06032 -0.0692,-1.46744 0,0 z m 0,-2.32592 c 0.64476,-0.95545 -0.62516,-0.4641 0,0 z m -0.0951,-0.58362 c 0.92927,-0.62205 -0.50064,-0.66524 0,0 z m 0.0951,-1.7423 c 0.64574,-0.95549 -0.62597,-0.46418 0,0 z m -0.0951,-0.58362 c 0.92296,-0.60714 -0.49886,-0.65978 0,0 z m 0.0951,-2.90097 c -0.0449,-1.22848 -0.051,-1.39241 0,0 z m 0,-1.16724 c 0.64575,-0.9555 -0.62597,-0.46419 0,0 z m -0.0951,-0.58363 c 0.91962,-0.60893 -0.49469,-0.65838 0,0 z m 0.0951,-1.74229 c -0.0519,-0.49796 -0.0329,-0.31483 0,0 z m -0.0543,-0.3519 c 0.60417,-0.72505 -0.65375,-0.92866 0,0 z m -0.8628,-4.29994 c -0.051,-1.07717 -0.0683,-1.44273 0,0 z m 0,-3.48459 c 0.64575,-0.95548 -0.62596,-0.46419 0,0 z m -0.0951,-0.58362 c 0.92296,-0.60716 -0.49887,-0.65977 0,0 z m 5.61837,-2.90097 0.8284,-0.0466 -0.8284,0.0466 z m 0,29.06112 c 0.0297,1.25139 0.0324,1.36142 0,0 z m -2.76503,5.8105 c 1.34491,1.23936 0.23272,-3.51434 0,0 z m 0,0 c -0.21918,-1.1059 -0.12679,0.75868 0,0 z m -0.14267,-0.2489 c 0.86676,-2.34452 -3.00217,-5.56735 -1.13433,-1.66719 0.33855,0.59377 0.72709,1.14199 1.13433,1.66719 z m -1.69841,-4.40294 -0.0226,-1.01398 0.0226,1.01398 z m 0,-1.15866 c -0.0453,-1.23913 -0.0502,-1.37699 0,0 z m -1.44026,-1.28741 c -0.33006,3.23315 2.87891,-0.53179 0,0 z m -5.5776,1.28741 c -3.79889,2.51872 2.86136,-0.0457 0,0 z m -3.68217,0 -0.8877,0.0519 0.8877,-0.0519 z m -0.92394,0 c -0.75422,-0.76719 -0.35267,0.76858 0,0 z m -0.45518,0.12015 c -0.46975,-1.14845 -0.55252,0.61054 0,0 z m -0.46197,-0.12015 c -0.84896,0.0647 -1.06955,0.0815 0,0 z m -4.59931,0 -0.88769,0.0519 0.88769,-0.0519 z m -5.52325,0 c -0.84874,0.0646 -1.06205,0.0808 0,0 z m -1.84109,0 c -0.76252,-0.77409 -0.35967,0.77228 0,0 z m -0.46197,0.12015 c -0.45852,-1.13984 -0.54775,0.6071 0,0 z m -0.45517,-0.12015 c -0.76244,-0.77294 -0.35965,0.77132 0,0 z m -0.46197,0.12015 c -0.47008,-1.1474 -0.55223,0.60927 0,0 z m -0.46197,-0.12015 c -0.75383,-0.76256 -0.35267,0.76463 0,0 z m -0.45518,0.12015 c -0.46975,-1.14845 -0.55251,0.61054 0,0 z m -0.46196,-0.12015 c -0.84897,0.0647 -1.06957,0.0815 0,0 z m -6.4404,0 -0.88769,0.0519 0.88769,-0.0519 z m -1.84109,0 c -0.76243,-0.77294 -0.35965,0.77132 0,0 z m -0.46197,0.12015 c -0.47007,-1.1474 -0.55223,0.60927 0,0 z m -2.30305,-0.12015 c -0.84874,0.0646 -1.06204,0.0808 0,0 z m -2.75823,0 c -0.76252,-0.77409 -0.35967,0.77228 0,0 z m -0.46197,0.12015 c -0.45852,-1.13984 -0.54775,0.6071 0,0 z m -2.29626,-0.12015 c -0.76243,-0.77296 -0.35966,0.77132 0,0 z m -0.46197,0.12015 c -0.47008,-1.14739 -0.55223,0.60927 0,0 z m -2.30305,-0.12015 c -0.75383,-0.76256 -0.35267,0.76465 0,0 z m -0.45518,0.12015 c -0.46975,-1.14844 -0.55252,0.61054 0,0 z m -0.46197,-0.12015 c -0.84896,0.0647 -1.06956,0.0815 0,0 z m -34.96701,4.65183 c -0.84897,0.0646 -1.06956,0.0815 0,0 z m -10.13615,-1.20158 c -1.08892,-0.67908 -0.56259,0.77578 0,0 z m -4.58573,-2.29159 -0.0799,-0.23404 0.0799,0.23404 z m -0.92394,-3.48458 c 0.45944,-0.58622 -0.48083,-0.41055 0,0 z m -0.0204,-0.47205 c 0.66319,-0.66224 -0.646,-0.72304 0,0 z m 1.86147,-4.17979 c 0.50054,-2.81614 -1.46697,1.70016 0,0 z m -0.91715,-3.48459 c -0.0453,-1.23913 -0.0502,-1.37699 0,0 z m 0,-16.27285 c -0.0449,-1.22848 -0.051,-1.39241 0,0 z m 0,-1.16725 c -0.051,-1.07717 -0.0683,-1.44273 0,0 z"
           id="path5643"
           inkscape:connector-curvature="0" />
      </g>
      <g
         id="g5645"
         transform="translate(126.37503,190.65433)"
         style="fill:#edf1f3;fill-opacity:1">
        <path
           style="fill:#edf1f3;fill-opacity:1;fill-rule:evenodd;stroke:none;stroke-width:0.89720154px;stroke-linecap:butt;stroke-linejoin:miter;stroke-opacity:1"
           d="m -426.13304,-109.81058 c -2.98969,0.14238 -5.92972,0.77622 -8.58958,1.97403 -5.45594,0.59271 -10.15532,5.87231 -7.05921,10.367964 -0.97499,1.62692 -3.91919,4.20935 -1.2012,7.055 -1.54523,0.50979 -4.95714,2.82052 -1.88412,4.82347 1.37803,3.52194 0.30625,9.10783 -2.6246,11.74976 -3.06745,3.19487 -0.22789,6.63204 3.71062,5.4243 1.35242,1.113 1.08847,2.94589 0.46077,4.70332 1.3672,6.02981 4.00755,11.81423 4.81311,17.77482 0.0805,0.862 0.064,1.6942 0.008,2.51476 0.56469,0.70028 0.69785,1.61844 0,2.96105 -0.23337,4.30422 -2.49607,9.80424 1.0696,13.22595 1.81003,3.98107 4.33386,5.53469 8.2193,6.68592 6.96296,-0.46096 13.98182,-0.16918 20.97195,-0.24872 0.67063,-1.59075 0.0295,-3.98027 1.16008,-5.47576 0.28856,-1.80001 0.17946,-3.65448 0.16471,-5.50151 -0.29192,-1.37007 -0.47062,-2.79639 -0.32099,-4.38579 -0.28055,-5.33672 -3.07356,-12.26007 0.64177,-16.88223 -1.52222,-3.00978 -3.33389,-7.86348 -0.58414,-9.12343 2.40744,1.5701 3.66521,5.54317 5.88266,7.6043 2.17513,3.88549 9.14167,1.36295 4.92007,-1.78521 -3.15191,-4.33688 -1.62968,-10.32937 -4.96944,-14.36748 -3.71597,-1.97086 -4.68509,-5.26971 -4.78017,-9.25218 -0.5368,-3.21803 -1.80459,-5.18007 -3.34038,-7.08076 -3.84732,-3.33228 3.44354,-2.25711 5.7346,-2.31731 1.98585,-1.54352 1.32879,-3.57187 0.26328,-5.80192 -1.74979,-1.35979 -2.85827,-2.34808 -5.89918,-2.32593 -2.13241,-1.50674 -2.77402,-2.46325 -4.1055,-4.591754 0.32099,-2.75201 -0.70298,-6.20544 -3.75999,-6.75461 -2.86846,-0.76299 -5.91254,-1.1123 -8.90219,-0.96987 z"
           id="path5649"
           inkscape:connector-curvature="0" />
        <path
           sodipodi:nodetypes="cccccccccccc"
           inkscape:connector-curvature="0"
           id="path5651"
           d="m -430.82755,-152.11875 c -2.49934,1.32969 -2.62718,4.37568 -3.69017,6.62828 -3.60126,11.20288 -5.46954,22.82103 -7.26032,34.38105 0.11958,1.72577 -1.90374,5.00691 0.4124,5.57658 -1.20949,2.44202 2.49585,0.87213 3.82131,1.29492 8.67601,-0.01 17.35203,0.002 26.02804,-0.002 0.2846,0.25869 -1.11939,-5.48111 -2.24594,-8.01253 -3.55697,-12.00094 -7.03495,-24.12311 -12.70616,-35.41267 -0.95909,-1.6704 -2.0387,-3.52425 -3.88147,-4.41178 l -0.4777,-0.0412 1e-5,-4.3e-4 z"
           style="fill:#edf1f3;fill-opacity:1;fill-rule:evenodd;stroke:none;stroke-width:0.89720148px;stroke-linecap:butt;stroke-linejoin:miter;stroke-opacity:1" />
        <path
           inkscape:connector-curvature="0"
           id="path5653"
           d="m -437.02419,-26.803886 c 1.09018,1.86044 -0.3116,5.11835 -0.10065,7.63055 -0.41991,2.55011 0.0642,4.25853 0.048,6.79271 -0.45078,2.3955001 -1.22941,4.8310301 -1.75403,7.2518901 -0.37505,3.96727 -1.82657,7.73169 -2.69678,11.60842 -0.66485,2.19044 1.53673,3.4595 3.67532,4.0136899 2.72692,1.17035 5.55596,2.00846 8.50787,2.57471 2.24629,0.57255 4.57201,0.65072 6.84958,1.13138 1.8056,0.16781 3.96029,0.35421 4.82621,-0.2779 2.28414,0.58217 1.82526,-0.71786 4.14095,-0.98912 0.81887,-2.55077 0.79099,-3.8881199 -0.43997,-5.9997799 -1.45396,-0.92534 -2.27691,-2.47811 -4.34133,-3.47197 -2.67919,-1.00215 -6.61151,-1.1639 -8.64224,-2.33565 -0.78978,-2.35556 0.90402,-4.55779 0.58579,-6.86186 0.2305,-2.254 -0.0675,-3.90907 0.5144,-6.3577401 0.29856,-1.98711 1.47542,-4.04719 1.04097,-5.8996 -0.0278,-1.8077 0.66506,-5.07669 -1.90754,-5.98476 -3.00172,-1.37719 -6.2293,-2.61942 -9.6055,-2.74483 -1.46211,-0.70536 2.10894,0.31541 -0.27921,0.0179 l -0.42183,-0.098 -2e-5,-4e-5 z"
           style="fill:#edf1f3;fill-opacity:1;fill-rule:evenodd;stroke:none;stroke-width:0.89720154px;stroke-linecap:butt;stroke-linejoin:miter;stroke-opacity:1" />
        <path
           style="fill:#edf1f3;fill-opacity:1;fill-rule:evenodd;stroke:none;stroke-width:0.89720154px;stroke-linecap:butt;stroke-linejoin:miter;stroke-opacity:1"
           d="m -420.44214,-28.188126 c 1.33083,1.84456 0.46642,5.27487 1.0465,7.84187 -0.023,2.6441 0.70022,4.3692 1.06439,6.97254 -0.076,2.48718 -0.4623,5.0353101 -0.60572,7.5530101 0.23267,4.09667 -0.60382,8.05014 -0.86253,12.08376 -0.31328,2.28957 2.00141,3.45961 4.14817,3.8993699 2.80683,1.03691 5.66241,1.72645 8.5958,2.12941 2.25344,0.45209 4.50943,0.39171 6.77928,0.74755 1.76751,0.0632 3.87468,0.12422 4.61554,-0.57727 2.2914,0.4597 1.65375,-0.84756 3.8477,-1.26618 0.40789,-2.6688799 0.18055,-4.0405099 -1.32379,-6.1345399 -1.54172,-0.86229 -2.56858,-2.40706 -4.70966,-3.30278 -2.73556,-0.86707997 -6.55441,-0.79534997 -8.68964,-1.87579997 -1.11516,-2.37116003 0.18926,-4.73506003 -0.46315,-7.08185003 -0.11539,-2.32858 -0.65097,-4.0101401 -0.45649,-6.5598701 -0.01,-2.05861 0.81718,-4.24528 0.12032,-6.12124 -0.2978,-1.85462 -0.1191,-5.25345 -2.73771,-6.03037 -3.10301,-1.23267 -6.40374,-2.31312 -9.68049,-2.23771 -1.51662,-0.63591 2.08235,0.19634 -0.26681,0.0349 l -0.42174,-0.0751 -2e-5,-5e-5 z"
           id="path5655"
           inkscape:connector-curvature="0" />
        <path
           style="fill:#edf1f3;fill-opacity:1;fill-rule:evenodd;stroke:none;stroke-width:4.41513443px;stroke-linecap:butt;stroke-linejoin:miter;stroke-opacity:1"
           d="m -438.41187,-68.500996 c 3.71087,1.00708 5.20275,5.11198 8.59744,6.74413 4.94918,3.07569 10.13365,5.86851 15.74925,7.45563 3.79917,1.36294 7.29367,4.75558 11.43496,3.97302 3.66528,-0.42786 7.25545,1.55051 8.39761,4.89728 1.63684,3.55354 0.7276,6.1255 -0.70889,9.40508 -2.26577,1.9869 -3.84002,5.47061 -7.30758,5.73296 -5.54938,0.0885 -5.19368,-5.81944 -9.98589,-7.47753 -3.11768,-1.31305 -4.41301,-2.81679 -8.37033,-3.89228 -2.86216,-0.99236 -2.73613,-1.42195 -5.32973,-2.96525 -3.1751,-0.75756 -5.69036,-3.22314 -8.41948,-4.82357 -3.31426,-1.56649 -5.39458,-3.1684 -7.76193,-5.2407 -2.34366,-1.38582 -2.38659,-2.98494 -2.39861,-3.68815 -0.18748,-1.65618 -0.10077,-5.534 3.24101,-7.36934 0.72105,-1.41458 1.74178,-1.13171 2.63888,-2.39628 -1.6246,2.62022 0.32705,1.03448 0.22328,-0.35498 z"
           id="path5657"
           inkscape:connector-curvature="0" />
        <path
           sodipodi:nodetypes="cccccccccccccccccccccccccccccc"
           inkscape:connector-curvature="0"
           id="path5659"
           d="m -279.2549,11.371594 c -7.54941,-7.8412799 -20.43779,-4.7575599 -27.39694,-13.4210299 -2.88933,-6.9796 -7.43041,-13.0477101 -10.56436,-19.9118501 -4.24322,-7.01511 1.40331,-13.18011 4.16779,-18.75348 2.00821,-13.3521 -6.49805,-26.89573 -0.90898,-39.93631 2.43819,-7.67299 8.79072,-15.41516 5.68758,-23.897814 -4.0165,-4.85549 -6.64602,-10.6197 -4.89224,-17.26373 0.8505,-7.1026 -3.43965,3.66254 -4.58744,5.2183 -6.07195,11.64923 -10.07401,24.324074 -13.85413,36.964584 -0.18123,-7.52582 3.49873,-16.44042 -1.85195,-22.830484 -4.60418,-1.21569 -8.10458,-7.9905 -3.07176,-10.72253 0.0866,4.57902 -3.1444,11.28326 -6.88647,12.9108 -1.49457,-4.86814 -5.12769,-8.03077 -8.05786,-12.08806 -4.06867,-5.26102 -5.30824,-11.97889 -7.3498,-18.21679 -1.26521,-5.27352 -4.38003,-3.45707 -3.07302,1.29641 -0.54329,8.93147 3.48052,18.30056 6.25463,26.95322 5.36011,9.155174 3.13837,20.538554 4.42786,30.743314 1.34091,8.10075 -2.54627,16.21763 0.19124,23.96631 2.61292,7.83597 -6.2239,19.96328 -12.37877,26.99237 -8.2673,8.92699 4.43533,22.3013701 -6.03426,29.3111901 -4.24145,6.0680199 5.90897,2.3920399 7.89892,-0.53439 3.87217,-4.67352 9.17467,-7.66428997 13.52238,-11.98354 3.62357,-4.76268 11.81848,-6.02435 10.43695,2.43283 0.27186,6.97108 -3.29324,13.3814499 -3.1623,20.2870099 6.307,-4.33806 5.02027,-14.3373599 10.85694,-19.03849987 6.53199,-2.54918003 10.44876,6.04426997 16.27339,7.34845997 10.97724,4.1100699 23.06733,0.28461 34.04823,4.1297599 l 0.30437,0.0439 0,0 z"
           style="fill:#edf1f3;fill-opacity:1;fill-rule:evenodd;stroke:none;stroke-width:4.30246592px;stroke-linecap:butt;stroke-linejoin:miter;stroke-opacity:1" />
        <path
           inkscape:connector-curvature="0"
           id="path5661"
           d="m -401.55486,-75.117316 c 0.28729,8.28548 -1.46532,16.87398 0.67338,24.93947 2.15654,2.72406 0.41048,7.11427 -2.68481,6.90746 2.98322,1.36645 -2.27558,0.91535 0.67818,2.1835 8.35253,4.85508 17.92087,5.32602 26.93018,3.46982 6.5567,-0.83158 13.0638,-2.34527 19.51271,-3.81524 14.563,0.021 29.126,-0.027 43.689,-0.007 3.54377,-2.74103 9.76582,-1.98759 10.27496,4.10152 4.07177,-6.25184 1.97883,-15.07903 5.34346,-21.71004 -0.82092,-3.95649 -0.74882,-10.78964 -5.07631,-11.21627 -5.7757,1.54834 -1.70806,10.00117 -2.35812,14.90957 0.89619,5.12696 -2.36127,10.98054 -7.03302,8.75781 -4.10705,-1.16216 -8.43563,-0.34411 -12.63835,-0.61488 -9.51368,0.0879 -19.03929,-0.12617 -28.54547,0.14897 -5.09927,0.87125 -10.12671,2.97936 -15.3403,2.19118 -9.0675,0 -18.13499,0 -27.20249,0 0.74283,-8.45394 -1.31005,-16.82528 -0.94751,-25.25396 -0.38008,-3.27231 -3.68067,-3.05853 -5.27549,-4.99186 z m 4.38192,2.34308 c 0.051,1.07717 0.0683,1.44273 0,0 z m 0.91715,3.48459 0.0394,-1.0163 -0.0394,1.0163 z m 0,2.32592 c 0.05,1.06029 0.0692,1.46748 0,0 z m 0,2.32592 c 0.0451,1.23914 0.0502,1.37697 0,0 z m 1.01225,4.73767 c 0.0387,0.50187 0.025,0.32438 0,0 z m -0.0815,1.0385 c -0.36656,2.24168 0.37418,1.11574 0.14617,-0.24143 l -0.14617,0.24143 z m -0.007,1.20159 c 0.051,1.0772 0.0683,1.44269 0,0 z m 0.0951,-0.59221 c 0.39828,-0.74014 -0.92884,-0.60933 0,0 z m 69.83892,11.05455 c 0.84873,-0.0647 1.06204,-0.081 0,0 z m 13.80473,0 0.88421,-0.0515 -0.88421,0.0515 z m 1.84109,0 c 0.75422,0.76718 0.35266,-0.76858 0,0 z m 0.45517,-0.12016 c 0.46974,1.14846 0.55252,-0.61054 0,0 z m 0.46197,0.12016 c 0.76253,0.77408 0.35966,-0.77229 0,0 z m 0.46197,-0.12016 c 0.45853,1.13985 0.54776,-0.6071 0,0 z m 0.45517,0.12016 c 0.84897,-0.0647 1.06957,-0.0815 0,0 z m 0.92395,0 0.8842,-0.0515 -0.8842,0.0515 z m 2.41854,0 c -0.05,-1.06032 -0.0692,-1.46744 0,0 z m 0,-2.32592 c 0.64476,-0.95545 -0.62516,-0.4641 0,0 z m -0.0951,-0.58362 c 0.92927,-0.62205 -0.50064,-0.66524 0,0 z m 0.0951,-1.7423 c 0.64574,-0.95549 -0.62597,-0.46418 0,0 z m -0.0951,-0.58362 c 0.92296,-0.60714 -0.49886,-0.65978 0,0 z m 0.0951,-2.90097 c -0.0449,-1.22848 -0.051,-1.39241 0,0 z m 0,-1.16724 c 0.64575,-0.9555 -0.62597,-0.46419 0,0 z m -0.0951,-0.58363 c 0.91962,-0.60893 -0.49469,-0.65838 0,0 z m 0.0951,-1.74229 c -0.0519,-0.49796 -0.0329,-0.31483 0,0 z m -0.0543,-0.3519 c 0.60417,-0.72505 -0.65375,-0.92866 0,0 z m -0.8628,-4.29994 c -0.051,-1.07717 -0.0683,-1.44273 0,0 z m 0,-3.48459 c 0.64575,-0.95548 -0.62596,-0.46419 0,0 z m -0.0951,-0.58362 c 0.92296,-0.60716 -0.49887,-0.65977 0,0 z m 5.61837,-2.90097 0.8284,-0.0466 -0.8284,0.0466 z m 0,29.06112 c 0.0297,1.25139 0.0324,1.36142 0,0 z m -2.76503,5.8105 c 1.34491,1.23936 0.23272,-3.51434 0,0 z m 0,0 c -0.21918,-1.1059 -0.12679,0.75868 0,0 z m -0.14267,-0.2489 c 0.86676,-2.34452 -3.00217,-5.56735 -1.13433,-1.66719 0.33855,0.59377 0.72709,1.14199 1.13433,1.66719 z m -1.69841,-4.40294 -0.0226,-1.01398 0.0226,1.01398 z m 0,-1.15866 c -0.0453,-1.23913 -0.0502,-1.37699 0,0 z m -1.44026,-1.28741 c -0.33006,3.23315 2.87891,-0.53179 0,0 z m -5.5776,1.28741 c -3.79889,2.51872 2.86136,-0.0457 0,0 z m -3.68217,0 -0.8877,0.0519 0.8877,-0.0519 z m -0.92394,0 c -0.75422,-0.76719 -0.35267,0.76858 0,0 z m -0.45518,0.12015 c -0.46975,-1.14845 -0.55252,0.61054 0,0 z m -0.46197,-0.12015 c -0.84896,0.0647 -1.06955,0.0815 0,0 z m -4.59931,0 -0.88769,0.0519 0.88769,-0.0519 z m -5.52325,0 c -0.84874,0.0646 -1.06205,0.0808 0,0 z m -1.84109,0 c -0.76252,-0.77409 -0.35967,0.77228 0,0 z m -0.46197,0.12015 c -0.45852,-1.13984 -0.54775,0.6071 0,0 z m -0.45517,-0.12015 c -0.76244,-0.77294 -0.35965,0.77132 0,0 z m -0.46197,0.12015 c -0.47008,-1.1474 -0.55223,0.60927 0,0 z m -0.46197,-0.12015 c -0.75383,-0.76256 -0.35267,0.76463 0,0 z m -0.45518,0.12015 c -0.46975,-1.14845 -0.55251,0.61054 0,0 z m -0.46196,-0.12015 c -0.84897,0.0647 -1.06957,0.0815 0,0 z m -6.4404,0 -0.88769,0.0519 0.88769,-0.0519 z m -1.84109,0 c -0.76243,-0.77294 -0.35965,0.77132 0,0 z m -0.46197,0.12015 c -0.47007,-1.1474 -0.55223,0.60927 0,0 z m -2.30305,-0.12015 c -0.84874,0.0646 -1.06204,0.0808 0,0 z m -2.75823,0 c -0.76252,-0.77409 -0.35967,0.77228 0,0 z m -0.46197,0.12015 c -0.45852,-1.13984 -0.54775,0.6071 0,0 z m -2.29626,-0.12015 c -0.76243,-0.77296 -0.35966,0.77132 0,0 z m -0.46197,0.12015 c -0.47008,-1.14739 -0.55223,0.60927 0,0 z m -2.30305,-0.12015 c -0.75383,-0.76256 -0.35267,0.76465 0,0 z m -0.45518,0.12015 c -0.46975,-1.14844 -0.55252,0.61054 0,0 z m -0.46197,-0.12015 c -0.84896,0.0647 -1.06956,0.0815 0,0 z m -34.96701,4.65183 c -0.84897,0.0646 -1.06956,0.0815 0,0 z m -10.13615,-1.20158 c -1.08892,-0.67908 -0.56259,0.77578 0,0 z m -4.58573,-2.29159 -0.0799,-0.23404 0.0799,0.23404 z m -0.92394,-3.48458 c 0.45944,-0.58622 -0.48083,-0.41055 0,0 z m -0.0204,-0.47205 c 0.66319,-0.66224 -0.646,-0.72304 0,0 z m 1.86147,-4.17979 c 0.50054,-2.81614 -1.46697,1.70016 0,0 z m -0.91715,-3.48459 c -0.0453,-1.23913 -0.0502,-1.37699 0,0 z m 0,-16.27285 c -0.0449,-1.22848 -0.051,-1.39241 0,0 z m 0,-1.16725 c -0.051,-1.07717 -0.0683,-1.44273 0,0 z"
           style="fill:#edf1f3;fill-opacity:1;fill-rule:evenodd;stroke:none;stroke-width:4.30246592px;stroke-linecap:butt;stroke-linejoin:miter;stroke-opacity:1" />
      </g>
      <g
         transform="translate(294.87495,190.65433)"
         id="g5663"
         style="fill:#edf1f3;fill-opacity:1">
        <path
           inkscape:connector-curvature="0"
           id="path5667"
           d="m -426.13304,-109.81058 c -2.98969,0.14238 -5.92972,0.77622 -8.58958,1.97403 -5.45594,0.59271 -10.15532,5.87231 -7.05921,10.367964 -0.97499,1.62692 -3.91919,4.20935 -1.2012,7.055 -1.54523,0.50979 -4.95714,2.82052 -1.88412,4.82347 1.37803,3.52194 0.30625,9.10783 -2.6246,11.74976 -3.06745,3.19487 -0.22789,6.63204 3.71062,5.4243 1.35242,1.113 1.08847,2.94589 0.46077,4.70332 1.3672,6.02981 4.00755,11.81423 4.81311,17.77482 0.0805,0.862 0.064,1.6942 0.008,2.51476 0.56469,0.70028 0.69785,1.61844 0,2.96105 -0.23337,4.30422 -2.49607,9.80424 1.0696,13.22595 1.81003,3.98107 4.33386,5.53469 8.2193,6.68592 6.96296,-0.46096 13.98182,-0.16918 20.97195,-0.24872 0.67063,-1.59075 0.0295,-3.98027 1.16008,-5.47576 0.28856,-1.80001 0.17946,-3.65448 0.16471,-5.50151 -0.29192,-1.37007 -0.47062,-2.79639 -0.32099,-4.38579 -0.28055,-5.33672 -3.07356,-12.26007 0.64177,-16.88223 -1.52222,-3.00978 -3.33389,-7.86348 -0.58414,-9.12343 2.40744,1.5701 3.66521,5.54317 5.88266,7.6043 2.17513,3.88549 9.14167,1.36295 4.92007,-1.78521 -3.15191,-4.33688 -1.62968,-10.32937 -4.96944,-14.36748 -3.71597,-1.97086 -4.68509,-5.26971 -4.78017,-9.25218 -0.5368,-3.21803 -1.80459,-5.18007 -3.34038,-7.08076 -3.84732,-3.33228 3.44354,-2.25711 5.7346,-2.31731 1.98585,-1.54352 1.32879,-3.57187 0.26328,-5.80192 -1.74979,-1.35979 -2.85827,-2.34808 -5.89918,-2.32593 -2.13241,-1.50674 -2.77402,-2.46325 -4.1055,-4.591754 0.32099,-2.75201 -0.70298,-6.20544 -3.75999,-6.75461 -2.86846,-0.76299 -5.91254,-1.1123 -8.90219,-0.96987 z"
           style="fill:#edf1f3;fill-opacity:1;fill-rule:evenodd;stroke:none;stroke-width:0.89720154px;stroke-linecap:butt;stroke-linejoin:miter;stroke-opacity:1" />
        <path
           style="fill:#edf1f3;fill-opacity:1;fill-rule:evenodd;stroke:none;stroke-width:0.89720148px;stroke-linecap:butt;stroke-linejoin:miter;stroke-opacity:1"
           d="m -430.82755,-152.11875 c -2.49934,1.32969 -2.62718,4.37568 -3.69017,6.62828 -3.60126,11.20288 -5.46954,22.82103 -7.26032,34.38105 0.11958,1.72577 -1.90374,5.00691 0.4124,5.57658 -1.20949,2.44202 2.49585,0.87213 3.82131,1.29492 8.67601,-0.01 17.35203,0.002 26.02804,-0.002 0.2846,0.25869 -1.11939,-5.48111 -2.24594,-8.01253 -3.55697,-12.00094 -7.03495,-24.12311 -12.70616,-35.41267 -0.95909,-1.6704 -2.0387,-3.52425 -3.88147,-4.41178 l -0.4777,-0.0412 1e-5,-4.3e-4 z"
           id="path5669"
           inkscape:connector-curvature="0"
           sodipodi:nodetypes="cccccccccccc" />
        <path
           style="fill:#edf1f3;fill-opacity:1;fill-rule:evenodd;stroke:none;stroke-width:0.89720154px;stroke-linecap:butt;stroke-linejoin:miter;stroke-opacity:1"
           d="m -437.02419,-26.803886 c 1.09018,1.86044 -0.3116,5.11835 -0.10065,7.63055 -0.41991,2.55011 0.0642,4.25853 0.048,6.79271 -0.45078,2.3955001 -1.22941,4.8310301 -1.75403,7.2518901 -0.37505,3.96727 -1.82657,7.73169 -2.69678,11.60842 -0.66485,2.19044 1.53673,3.4595 3.67532,4.0136899 2.72692,1.17035 5.55596,2.00846 8.50787,2.57471 2.24629,0.57255 4.57201,0.65072 6.84958,1.13138 1.8056,0.16781 3.96029,0.35421 4.82621,-0.2779 2.28414,0.58217 1.82526,-0.71786 4.14095,-0.98912 0.81887,-2.55077 0.79099,-3.8881199 -0.43997,-5.9997799 -1.45396,-0.92534 -2.27691,-2.47811 -4.34133,-3.47197 -2.67919,-1.00215 -6.61151,-1.1639 -8.64224,-2.33565 -0.78978,-2.35556 0.90402,-4.55779 0.58579,-6.86186 0.2305,-2.254 -0.0675,-3.90907 0.5144,-6.3577401 0.29856,-1.98711 1.47542,-4.04719 1.04097,-5.8996 -0.0278,-1.8077 0.66506,-5.07669 -1.90754,-5.98476 -3.00172,-1.37719 -6.2293,-2.61942 -9.6055,-2.74483 -1.46211,-0.70536 2.10894,0.31541 -0.27921,0.0179 l -0.42183,-0.098 -2e-5,-4e-5 z"
           id="path5671"
           inkscape:connector-curvature="0" />
        <path
           inkscape:connector-curvature="0"
           id="path5673"
           d="m -420.44214,-28.188126 c 1.33083,1.84456 0.46642,5.27487 1.0465,7.84187 -0.023,2.6441 0.70022,4.3692 1.06439,6.97254 -0.076,2.48718 -0.4623,5.0353101 -0.60572,7.5530101 0.23267,4.09667 -0.60382,8.05014 -0.86253,12.08376 -0.31328,2.28957 2.00141,3.45961 4.14817,3.8993699 2.80683,1.03691 5.66241,1.72645 8.5958,2.12941 2.25344,0.45209 4.50943,0.39171 6.77928,0.74755 1.76751,0.0632 3.87468,0.12422 4.61554,-0.57727 2.2914,0.4597 1.65375,-0.84756 3.8477,-1.26618 0.40789,-2.6688799 0.18055,-4.0405099 -1.32379,-6.1345399 -1.54172,-0.86229 -2.56858,-2.40706 -4.70966,-3.30278 -2.73556,-0.86707997 -6.55441,-0.79534997 -8.68964,-1.87579997 -1.11516,-2.37116003 0.18926,-4.73506003 -0.46315,-7.08185003 -0.11539,-2.32858 -0.65097,-4.0101401 -0.45649,-6.5598701 -0.01,-2.05861 0.81718,-4.24528 0.12032,-6.12124 -0.2978,-1.85462 -0.1191,-5.25345 -2.73771,-6.03037 -3.10301,-1.23267 -6.40374,-2.31312 -9.68049,-2.23771 -1.51662,-0.63591 2.08235,0.19634 -0.26681,0.0349 l -0.42174,-0.0751 -2e-5,-5e-5 z"
           style="fill:#edf1f3;fill-opacity:1;fill-rule:evenodd;stroke:none;stroke-width:0.89720154px;stroke-linecap:butt;stroke-linejoin:miter;stroke-opacity:1" />
        <path
           inkscape:connector-curvature="0"
           id="path5675"
           d="m -446.83686,-68.500996 c 3.71087,1.00708 5.20275,5.11198 8.59744,6.74413 4.94918,3.07569 10.13365,5.86851 15.74925,7.45563 3.79917,1.36294 7.29367,4.75558 11.43496,3.97302 3.66528,-0.42786 7.25545,1.55051 8.39761,4.89728 1.63684,3.55354 0.7276,6.1255 -0.70889,9.40508 -2.26577,1.9869 -3.84002,5.47061 -7.30758,5.73296 -5.54938,0.0885 -5.19368,-5.81944 -9.98589,-7.47753 -3.11768,-1.31305 -4.41301,-2.81679 -8.37033,-3.89228 -2.86216,-0.99236 -2.73613,-1.42195 -5.32973,-2.96525 -3.1751,-0.75756 -5.69036,-3.22314 -8.41948,-4.82357 -3.31426,-1.56649 -5.39458,-3.1684 -7.76193,-5.2407 -2.34366,-1.38582 -2.38659,-2.98494 -2.39861,-3.68815 -0.18748,-1.65618 -0.10077,-5.534 3.24101,-7.36934 0.72105,-1.41458 1.74178,-1.13171 2.63888,-2.39628 -1.6246,2.62022 0.32705,1.03448 0.22328,-0.35498 z"
           style="fill:#edf1f3;fill-opacity:1;fill-rule:evenodd;stroke:none;stroke-width:4.41513443px;stroke-linecap:butt;stroke-linejoin:miter;stroke-opacity:1" />
        <path
           style="fill:#edf1f3;fill-opacity:1;fill-rule:evenodd;stroke:none;stroke-width:4.30246592px;stroke-linecap:butt;stroke-linejoin:miter;stroke-opacity:1"
           d="m -279.2549,11.371594 c -7.54941,-7.8412799 -20.43779,-4.7575599 -27.39694,-13.4210299 -2.88933,-6.9796 -7.43041,-13.0477101 -10.56436,-19.9118501 -4.24322,-7.01511 1.40331,-13.18011 4.16779,-18.75348 2.00821,-13.3521 -6.49805,-26.89573 -0.90898,-39.93631 2.43819,-7.67299 8.79072,-15.41516 5.68758,-23.897814 -4.0165,-4.85549 -6.64602,-10.6197 -4.89224,-17.26373 0.8505,-7.1026 -3.43965,3.66254 -4.58744,5.2183 -6.07195,11.64923 -10.07401,24.324074 -13.85413,36.964584 -0.18123,-7.52582 3.49873,-16.44042 -1.85195,-22.830484 -4.60418,-1.21569 -8.10458,-7.9905 -3.07176,-10.72253 0.0866,4.57902 -3.1444,11.28326 -6.88647,12.9108 -1.49457,-4.86814 -5.12769,-8.03077 -8.05786,-12.08806 -4.06867,-5.26102 -5.30824,-11.97889 -7.3498,-18.21679 -1.26521,-5.27352 -4.38003,-3.45707 -3.07302,1.29641 -0.54329,8.93147 3.48052,18.30056 6.25463,26.95322 5.36011,9.155174 3.13837,20.538554 4.42786,30.743314 1.34091,8.10075 -2.54627,16.21763 0.19124,23.96631 2.61292,7.83597 -6.2239,19.96328 -12.37877,26.99237 -8.2673,8.92699 4.43533,22.3013701 -6.03426,29.3111901 -4.24145,6.0680199 5.90897,2.3920399 7.89892,-0.53439 3.87217,-4.67352 9.17467,-7.66428997 13.52238,-11.98354 3.62357,-4.76268 11.81848,-6.02435 10.43695,2.43283 0.27186,6.97108 -3.29324,13.3814499 -3.1623,20.2870099 6.307,-4.33806 5.02027,-14.3373599 10.85694,-19.03849987 6.53199,-2.54918003 10.44876,6.04426997 16.27339,7.34845997 10.97724,4.1100699 23.06733,0.28461 34.04823,4.1297599 l 0.30437,0.0439 0,0 z"
           id="path5677"
           inkscape:connector-curvature="0"
           sodipodi:nodetypes="cccccccccccccccccccccccccccccc" />
        <path
           style="fill:#edf1f3;fill-opacity:1;fill-rule:evenodd;stroke:none;stroke-width:4.30246592px;stroke-linecap:butt;stroke-linejoin:miter;stroke-opacity:1"
           d="m -409.97985,-75.117316 c 0.28729,8.28548 -1.46532,16.87398 0.67338,24.93947 2.15654,2.72406 0.41048,7.11427 -2.68481,6.90746 2.98322,1.36645 -2.27558,0.91535 0.67818,2.1835 8.35253,4.85508 17.92087,5.32602 26.93018,3.46982 6.5567,-0.83158 13.0638,-2.34527 19.51271,-3.81524 14.563,0.021 29.126,-0.027 43.689,-0.007 3.54377,-2.74103 9.76582,-1.98759 10.27496,4.10152 4.07177,-6.25184 1.97883,-15.07903 5.34346,-21.71004 -0.82092,-3.95649 -0.74882,-10.78964 -5.07631,-11.21627 -5.7757,1.54834 -1.70806,10.00117 -2.35812,14.90957 0.89619,5.12696 -2.36127,10.98054 -7.03302,8.75781 -4.10705,-1.16216 -8.43563,-0.34411 -12.63835,-0.61488 -9.51368,0.0879 -19.03929,-0.12617 -28.54547,0.14897 -5.09927,0.87125 -10.12671,2.97936 -15.3403,2.19118 -9.0675,0 -18.13499,0 -27.20249,0 0.74283,-8.45394 -1.31005,-16.82528 -0.94751,-25.25396 -0.38008,-3.27231 -3.68067,-3.05853 -5.27549,-4.99186 z m 4.38192,2.34308 c 0.051,1.07717 0.0683,1.44273 0,0 z m 0.91715,3.48459 0.0394,-1.0163 -0.0394,1.0163 z m 0,2.32592 c 0.05,1.06029 0.0692,1.46748 0,0 z m 0,2.32592 c 0.0451,1.23914 0.0502,1.37697 0,0 z m 1.01225,4.73767 c 0.0387,0.50187 0.025,0.32438 0,0 z m -0.0815,1.0385 c -0.36656,2.24168 0.37418,1.11574 0.14617,-0.24143 l -0.14617,0.24143 z m -0.007,1.20159 c 0.051,1.0772 0.0683,1.44269 0,0 z m 0.0951,-0.59221 c 0.39828,-0.74014 -0.92884,-0.60933 0,0 z m 69.83892,11.05455 c 0.84873,-0.0647 1.06204,-0.081 0,0 z m 13.80473,0 0.88421,-0.0515 -0.88421,0.0515 z m 1.84109,0 c 0.75422,0.76718 0.35266,-0.76858 0,0 z m 0.45517,-0.12016 c 0.46974,1.14846 0.55252,-0.61054 0,0 z m 0.46197,0.12016 c 0.76253,0.77408 0.35966,-0.77229 0,0 z m 0.46197,-0.12016 c 0.45853,1.13985 0.54776,-0.6071 0,0 z m 0.45517,0.12016 c 0.84897,-0.0647 1.06957,-0.0815 0,0 z m 0.92395,0 0.8842,-0.0515 -0.8842,0.0515 z m 2.41854,0 c -0.05,-1.06032 -0.0692,-1.46744 0,0 z m 0,-2.32592 c 0.64476,-0.95545 -0.62516,-0.4641 0,0 z m -0.0951,-0.58362 c 0.92927,-0.62205 -0.50064,-0.66524 0,0 z m 0.0951,-1.7423 c 0.64574,-0.95549 -0.62597,-0.46418 0,0 z m -0.0951,-0.58362 c 0.92296,-0.60714 -0.49886,-0.65978 0,0 z m 0.0951,-2.90097 c -0.0449,-1.22848 -0.051,-1.39241 0,0 z m 0,-1.16724 c 0.64575,-0.9555 -0.62597,-0.46419 0,0 z m -0.0951,-0.58363 c 0.91962,-0.60893 -0.49469,-0.65838 0,0 z m 0.0951,-1.74229 c -0.0519,-0.49796 -0.0329,-0.31483 0,0 z m -0.0543,-0.3519 c 0.60417,-0.72505 -0.65375,-0.92866 0,0 z m -0.8628,-4.29994 c -0.051,-1.07717 -0.0683,-1.44273 0,0 z m 0,-3.48459 c 0.64575,-0.95548 -0.62596,-0.46419 0,0 z m -0.0951,-0.58362 c 0.92296,-0.60716 -0.49887,-0.65977 0,0 z m 5.61837,-2.90097 0.8284,-0.0466 -0.8284,0.0466 z m 0,29.06112 c 0.0297,1.25139 0.0324,1.36142 0,0 z m -2.76503,5.8105 c 1.34491,1.23936 0.23272,-3.51434 0,0 z m 0,0 c -0.21918,-1.1059 -0.12679,0.75868 0,0 z m -0.14267,-0.2489 c 0.86676,-2.34452 -3.00217,-5.56735 -1.13433,-1.66719 0.33855,0.59377 0.72709,1.14199 1.13433,1.66719 z m -1.69841,-4.40294 -0.0226,-1.01398 0.0226,1.01398 z m 0,-1.15866 c -0.0453,-1.23913 -0.0502,-1.37699 0,0 z m -1.44026,-1.28741 c -0.33006,3.23315 2.87891,-0.53179 0,0 z m -5.5776,1.28741 c -3.79889,2.51872 2.86136,-0.0457 0,0 z m -3.68217,0 -0.8877,0.0519 0.8877,-0.0519 z m -0.92394,0 c -0.75422,-0.76719 -0.35267,0.76858 0,0 z m -0.45518,0.12015 c -0.46975,-1.14845 -0.55252,0.61054 0,0 z m -0.46197,-0.12015 c -0.84896,0.0647 -1.06955,0.0815 0,0 z m -4.59931,0 -0.88769,0.0519 0.88769,-0.0519 z m -5.52325,0 c -0.84874,0.0646 -1.06205,0.0808 0,0 z m -1.84109,0 c -0.76252,-0.77409 -0.35967,0.77228 0,0 z m -0.46197,0.12015 c -0.45852,-1.13984 -0.54775,0.6071 0,0 z m -0.45517,-0.12015 c -0.76244,-0.77294 -0.35965,0.77132 0,0 z m -0.46197,0.12015 c -0.47008,-1.1474 -0.55223,0.60927 0,0 z m -0.46197,-0.12015 c -0.75383,-0.76256 -0.35267,0.76463 0,0 z m -0.45518,0.12015 c -0.46975,-1.14845 -0.55251,0.61054 0,0 z m -0.46196,-0.12015 c -0.84897,0.0647 -1.06957,0.0815 0,0 z m -6.4404,0 -0.88769,0.0519 0.88769,-0.0519 z m -1.84109,0 c -0.76243,-0.77294 -0.35965,0.77132 0,0 z m -0.46197,0.12015 c -0.47007,-1.1474 -0.55223,0.60927 0,0 z m -2.30305,-0.12015 c -0.84874,0.0646 -1.06204,0.0808 0,0 z m -2.75823,0 c -0.76252,-0.77409 -0.35967,0.77228 0,0 z m -0.46197,0.12015 c -0.45852,-1.13984 -0.54775,0.6071 0,0 z m -2.29626,-0.12015 c -0.76243,-0.77296 -0.35966,0.77132 0,0 z m -0.46197,0.12015 c -0.47008,-1.14739 -0.55223,0.60927 0,0 z m -2.30305,-0.12015 c -0.75383,-0.76256 -0.35267,0.76465 0,0 z m -0.45518,0.12015 c -0.46975,-1.14844 -0.55252,0.61054 0,0 z m -0.46197,-0.12015 c -0.84896,0.0647 -1.06956,0.0815 0,0 z m -34.96701,4.65183 c -0.84897,0.0646 -1.06956,0.0815 0,0 z m -10.13615,-1.20158 c -1.08892,-0.67908 -0.56259,0.77578 0,0 z m -4.58573,-2.29159 -0.0799,-0.23404 0.0799,0.23404 z m -0.92394,-3.48458 c 0.45944,-0.58622 -0.48083,-0.41055 0,0 z m -0.0204,-0.47205 c 0.66319,-0.66224 -0.646,-0.72304 0,0 z m 1.86147,-4.17979 c 0.50054,-2.81614 -1.46697,1.70016 0,0 z m -0.91715,-3.48459 c -0.0453,-1.23913 -0.0502,-1.37699 0,0 z m 0,-16.27285 c -0.0449,-1.22848 -0.051,-1.39241 0,0 z m 0,-1.16725 c -0.051,-1.07717 -0.0683,-1.44273 0,0 z"
           id="path5679"
           inkscape:connector-curvature="0" />
      </g>
      <g
         id="g5681"
         transform="translate(463.37487,190.65433)"
         style="fill:#edf1f3;fill-opacity:1">
        <path
           style="fill:#edf1f3;fill-opacity:1;fill-rule:evenodd;stroke:none;stroke-width:0.89720154px;stroke-linecap:butt;stroke-linejoin:miter;stroke-opacity:1"
           d="m -426.13304,-109.81058 c -2.98969,0.14238 -5.92972,0.77622 -8.58958,1.97403 -5.45594,0.59271 -10.15532,5.87231 -7.05921,10.367964 -0.97499,1.62692 -3.91919,4.20935 -1.2012,7.055 -1.54523,0.50979 -4.95714,2.82052 -1.88412,4.82347 1.37803,3.52194 0.30625,9.10783 -2.6246,11.74976 -3.06745,3.19487 -0.22789,6.63204 3.71062,5.4243 1.35242,1.113 1.08847,2.94589 0.46077,4.70332 1.3672,6.02981 4.00755,11.81423 4.81311,17.77482 0.0805,0.862 0.064,1.6942 0.008,2.51476 0.56469,0.70028 0.69785,1.61844 0,2.96105 -0.23337,4.30422 -2.49607,9.80424 1.0696,13.22595 1.81003,3.98107 4.33386,5.53469 8.2193,6.68592 6.96296,-0.46096 13.98182,-0.16918 20.97195,-0.24872 0.67063,-1.59075 0.0295,-3.98027 1.16008,-5.47576 0.28856,-1.80001 0.17946,-3.65448 0.16471,-5.50151 -0.29192,-1.37007 -0.47062,-2.79639 -0.32099,-4.38579 -0.28055,-5.33672 -3.07356,-12.26007 0.64177,-16.88223 -1.52222,-3.00978 -3.33389,-7.86348 -0.58414,-9.12343 2.40744,1.5701 3.66521,5.54317 5.88266,7.6043 2.17513,3.88549 9.14167,1.36295 4.92007,-1.78521 -3.15191,-4.33688 -1.62968,-10.32937 -4.96944,-14.36748 -3.71597,-1.97086 -4.68509,-5.26971 -4.78017,-9.25218 -0.5368,-3.21803 -1.80459,-5.18007 -3.34038,-7.08076 -3.84732,-3.33228 3.44354,-2.25711 5.7346,-2.31731 1.98585,-1.54352 1.32879,-3.57187 0.26328,-5.80192 -1.74979,-1.35979 -2.85827,-2.34808 -5.89918,-2.32593 -2.13241,-1.50674 -2.77402,-2.46325 -4.1055,-4.591754 0.32099,-2.75201 -0.70298,-6.20544 -3.75999,-6.75461 -2.86846,-0.76299 -5.91254,-1.1123 -8.90219,-0.96987 z"
           id="path5685"
           inkscape:connector-curvature="0" />
        <path
           sodipodi:nodetypes="cccccccccccc"
           inkscape:connector-curvature="0"
           id="path5687"
           d="m -430.82755,-152.11875 c -2.49934,1.32969 -2.62718,4.37568 -3.69017,6.62828 -3.60126,11.20288 -5.46954,22.82103 -7.26032,34.38105 0.11958,1.72577 -1.90374,5.00691 0.4124,5.57658 -1.20949,2.44202 2.49585,0.87213 3.82131,1.29492 8.67601,-0.01 17.35203,0.002 26.02804,-0.002 0.2846,0.25869 -1.11939,-5.48111 -2.24594,-8.01253 -3.55697,-12.00094 -7.03495,-24.12311 -12.70616,-35.41267 -0.95909,-1.6704 -2.0387,-3.52425 -3.88147,-4.41178 l -0.4777,-0.0412 1e-5,-4.3e-4 z"
           style="fill:#edf1f3;fill-opacity:1;fill-rule:evenodd;stroke:none;stroke-width:0.89720148px;stroke-linecap:butt;stroke-linejoin:miter;stroke-opacity:1" />
        <path
           inkscape:connector-curvature="0"
           id="path5689"
           d="m -437.02419,-26.803886 c 1.09018,1.86044 -0.3116,5.11835 -0.10065,7.63055 -0.41991,2.55011 0.0642,4.25853 0.048,6.79271 -0.45078,2.3955001 -1.22941,4.8310301 -1.75403,7.2518901 -0.37505,3.96727 -1.82657,7.73169 -2.69678,11.60842 -0.66485,2.19044 1.53673,3.4595 3.67532,4.0136899 2.72692,1.17035 5.55596,2.00846 8.50787,2.57471 2.24629,0.57255 4.57201,0.65072 6.84958,1.13138 1.8056,0.16781 3.96029,0.35421 4.82621,-0.2779 2.28414,0.58217 1.82526,-0.71786 4.14095,-0.98912 0.81887,-2.55077 0.79099,-3.8881199 -0.43997,-5.9997799 -1.45396,-0.92534 -2.27691,-2.47811 -4.34133,-3.47197 -2.67919,-1.00215 -6.61151,-1.1639 -8.64224,-2.33565 -0.78978,-2.35556 0.90402,-4.55779 0.58579,-6.86186 0.2305,-2.254 -0.0675,-3.90907 0.5144,-6.3577401 0.29856,-1.98711 1.47542,-4.04719 1.04097,-5.8996 -0.0278,-1.8077 0.66506,-5.07669 -1.90754,-5.98476 -3.00172,-1.37719 -6.2293,-2.61942 -9.6055,-2.74483 -1.46211,-0.70536 2.10894,0.31541 -0.27921,0.0179 l -0.42183,-0.098 -2e-5,-4e-5 z"
           style="fill:#edf1f3;fill-opacity:1;fill-rule:evenodd;stroke:none;stroke-width:0.89720154px;stroke-linecap:butt;stroke-linejoin:miter;stroke-opacity:1" />
        <path
           style="fill:#edf1f3;fill-opacity:1;fill-rule:evenodd;stroke:none;stroke-width:0.89720154px;stroke-linecap:butt;stroke-linejoin:miter;stroke-opacity:1"
           d="m -420.44214,-28.188126 c 1.33083,1.84456 0.46642,5.27487 1.0465,7.84187 -0.023,2.6441 0.70022,4.3692 1.06439,6.97254 -0.076,2.48718 -0.4623,5.0353101 -0.60572,7.5530101 0.23267,4.09667 -0.60382,8.05014 -0.86253,12.08376 -0.31328,2.28957 2.00141,3.45961 4.14817,3.8993699 2.80683,1.03691 5.66241,1.72645 8.5958,2.12941 2.25344,0.45209 4.50943,0.39171 6.77928,0.74755 1.76751,0.0632 3.87468,0.12422 4.61554,-0.57727 2.2914,0.4597 1.65375,-0.84756 3.8477,-1.26618 0.40789,-2.6688799 0.18055,-4.0405099 -1.32379,-6.1345399 -1.54172,-0.86229 -2.56858,-2.40706 -4.70966,-3.30278 -2.73556,-0.86707997 -6.55441,-0.79534997 -8.68964,-1.87579997 -1.11516,-2.37116003 0.18926,-4.73506003 -0.46315,-7.08185003 -0.11539,-2.32858 -0.65097,-4.0101401 -0.45649,-6.5598701 -0.01,-2.05861 0.81718,-4.24528 0.12032,-6.12124 -0.2978,-1.85462 -0.1191,-5.25345 -2.73771,-6.03037 -3.10301,-1.23267 -6.40374,-2.31312 -9.68049,-2.23771 -1.51662,-0.63591 2.08235,0.19634 -0.26681,0.0349 l -0.42174,-0.0751 -2e-5,-5e-5 z"
           id="path5691"
           inkscape:connector-curvature="0" />
        <path
           style="fill:#edf1f3;fill-opacity:1;fill-rule:evenodd;stroke:none;stroke-width:4.41513443px;stroke-linecap:butt;stroke-linejoin:miter;stroke-opacity:1"
           d="m -438.41187,-68.500996 c 3.71087,1.00708 5.20275,5.11198 8.59744,6.74413 4.94918,3.07569 10.13365,5.86851 15.74925,7.45563 3.79917,1.36294 7.29367,4.75558 11.43496,3.97302 3.66528,-0.42786 7.25545,1.55051 8.39761,4.89728 1.63684,3.55354 0.7276,6.1255 -0.70889,9.40508 -2.26577,1.9869 -3.84002,5.47061 -7.30758,5.73296 -5.54938,0.0885 -5.19368,-5.81944 -9.98589,-7.47753 -3.11768,-1.31305 -4.41301,-2.81679 -8.37033,-3.89228 -2.86216,-0.99236 -2.73613,-1.42195 -5.32973,-2.96525 -3.1751,-0.75756 -5.69036,-3.22314 -8.41948,-4.82357 -3.31426,-1.56649 -5.39458,-3.1684 -7.76193,-5.2407 -2.34366,-1.38582 -2.38659,-2.98494 -2.39861,-3.68815 -0.18748,-1.65618 -0.10077,-5.534 3.24101,-7.36934 0.72105,-1.41458 1.74178,-1.13171 2.63888,-2.39628 -1.6246,2.62022 0.32705,1.03448 0.22328,-0.35498 z"
           id="path5693"
           inkscape:connector-curvature="0" />
        <path
           sodipodi:nodetypes="cccccccccccccccccccccccccccccc"
           inkscape:connector-curvature="0"
           id="path5695"
           d="m -279.2549,11.371594 c -7.54941,-7.8412799 -20.43779,-4.7575599 -27.39694,-13.4210299 -2.88933,-6.9796 -7.43041,-13.0477101 -10.56436,-19.9118501 -4.24322,-7.01511 1.40331,-13.18011 4.16779,-18.75348 2.00821,-13.3521 -6.49805,-26.89573 -0.90898,-39.93631 2.43819,-7.67299 8.79072,-15.41516 5.68758,-23.897814 -4.0165,-4.85549 -6.64602,-10.6197 -4.89224,-17.26373 0.8505,-7.1026 -3.43965,3.66254 -4.58744,5.2183 -6.07195,11.64923 -10.07401,24.324074 -13.85413,36.964584 -0.18123,-7.52582 3.49873,-16.44042 -1.85195,-22.830484 -4.60418,-1.21569 -8.10458,-7.9905 -3.07176,-10.72253 0.0866,4.57902 -3.1444,11.28326 -6.88647,12.9108 -1.49457,-4.86814 -5.12769,-8.03077 -8.05786,-12.08806 -4.06867,-5.26102 -5.30824,-11.97889 -7.3498,-18.21679 -1.26521,-5.27352 -4.38003,-3.45707 -3.07302,1.29641 -0.54329,8.93147 3.48052,18.30056 6.25463,26.95322 5.36011,9.155174 3.13837,20.538554 4.42786,30.743314 1.34091,8.10075 -2.54627,16.21763 0.19124,23.96631 2.61292,7.83597 -6.2239,19.96328 -12.37877,26.99237 -8.2673,8.92699 4.43533,22.3013701 -6.03426,29.3111901 -4.24145,6.0680199 5.90897,2.3920399 7.89892,-0.53439 3.87217,-4.67352 9.17467,-7.66428997 13.52238,-11.98354 3.62357,-4.76268 11.81848,-6.02435 10.43695,2.43283 0.27186,6.97108 -3.29324,13.3814499 -3.1623,20.2870099 6.307,-4.33806 5.02027,-14.3373599 10.85694,-19.03849987 6.53199,-2.54918003 10.44876,6.04426997 16.27339,7.34845997 10.97724,4.1100699 23.06733,0.28461 34.04823,4.1297599 l 0.30437,0.0439 0,0 z"
           style="fill:#edf1f3;fill-opacity:1;fill-rule:evenodd;stroke:none;stroke-width:4.30246592px;stroke-linecap:butt;stroke-linejoin:miter;stroke-opacity:1" />
        <path
           inkscape:connector-curvature="0"
           id="path5697"
           d="m -401.55486,-75.117316 c 0.28729,8.28548 -1.46532,16.87398 0.67338,24.93947 2.15654,2.72406 0.41048,7.11427 -2.68481,6.90746 2.98322,1.36645 -2.27558,0.91535 0.67818,2.1835 8.35253,4.85508 17.92087,5.32602 26.93018,3.46982 6.5567,-0.83158 13.0638,-2.34527 19.51271,-3.81524 14.563,0.021 29.126,-0.027 43.689,-0.007 3.54377,-2.74103 9.76582,-1.98759 10.27496,4.10152 4.07177,-6.25184 1.97883,-15.07903 5.34346,-21.71004 -0.82092,-3.95649 -0.74882,-10.78964 -5.07631,-11.21627 -5.7757,1.54834 -1.70806,10.00117 -2.35812,14.90957 0.89619,5.12696 -2.36127,10.98054 -7.03302,8.75781 -4.10705,-1.16216 -8.43563,-0.34411 -12.63835,-0.61488 -9.51368,0.0879 -19.03929,-0.12617 -28.54547,0.14897 -5.09927,0.87125 -10.12671,2.97936 -15.3403,2.19118 -9.0675,0 -18.13499,0 -27.20249,0 0.74283,-8.45394 -1.31005,-16.82528 -0.94751,-25.25396 -0.38008,-3.27231 -3.68067,-3.05853 -5.27549,-4.99186 z m 4.38192,2.34308 c 0.051,1.07717 0.0683,1.44273 0,0 z m 0.91715,3.48459 0.0394,-1.0163 -0.0394,1.0163 z m 0,2.32592 c 0.05,1.06029 0.0692,1.46748 0,0 z m 0,2.32592 c 0.0451,1.23914 0.0502,1.37697 0,0 z m 1.01225,4.73767 c 0.0387,0.50187 0.025,0.32438 0,0 z m -0.0815,1.0385 c -0.36656,2.24168 0.37418,1.11574 0.14617,-0.24143 l -0.14617,0.24143 z m -0.007,1.20159 c 0.051,1.0772 0.0683,1.44269 0,0 z m 0.0951,-0.59221 c 0.39828,-0.74014 -0.92884,-0.60933 0,0 z m 69.83892,11.05455 c 0.84873,-0.0647 1.06204,-0.081 0,0 z m 13.80473,0 0.88421,-0.0515 -0.88421,0.0515 z m 1.84109,0 c 0.75422,0.76718 0.35266,-0.76858 0,0 z m 0.45517,-0.12016 c 0.46974,1.14846 0.55252,-0.61054 0,0 z m 0.46197,0.12016 c 0.76253,0.77408 0.35966,-0.77229 0,0 z m 0.46197,-0.12016 c 0.45853,1.13985 0.54776,-0.6071 0,0 z m 0.45517,0.12016 c 0.84897,-0.0647 1.06957,-0.0815 0,0 z m 0.92395,0 0.8842,-0.0515 -0.8842,0.0515 z m 2.41854,0 c -0.05,-1.06032 -0.0692,-1.46744 0,0 z m 0,-2.32592 c 0.64476,-0.95545 -0.62516,-0.4641 0,0 z m -0.0951,-0.58362 c 0.92927,-0.62205 -0.50064,-0.66524 0,0 z m 0.0951,-1.7423 c 0.64574,-0.95549 -0.62597,-0.46418 0,0 z m -0.0951,-0.58362 c 0.92296,-0.60714 -0.49886,-0.65978 0,0 z m 0.0951,-2.90097 c -0.0449,-1.22848 -0.051,-1.39241 0,0 z m 0,-1.16724 c 0.64575,-0.9555 -0.62597,-0.46419 0,0 z m -0.0951,-0.58363 c 0.91962,-0.60893 -0.49469,-0.65838 0,0 z m 0.0951,-1.74229 c -0.0519,-0.49796 -0.0329,-0.31483 0,0 z m -0.0543,-0.3519 c 0.60417,-0.72505 -0.65375,-0.92866 0,0 z m -0.8628,-4.29994 c -0.051,-1.07717 -0.0683,-1.44273 0,0 z m 0,-3.48459 c 0.64575,-0.95548 -0.62596,-0.46419 0,0 z m -0.0951,-0.58362 c 0.92296,-0.60716 -0.49887,-0.65977 0,0 z m 5.61837,-2.90097 0.8284,-0.0466 -0.8284,0.0466 z m 0,29.06112 c 0.0297,1.25139 0.0324,1.36142 0,0 z m -2.76503,5.8105 c 1.34491,1.23936 0.23272,-3.51434 0,0 z m 0,0 c -0.21918,-1.1059 -0.12679,0.75868 0,0 z m -0.14267,-0.2489 c 0.86676,-2.34452 -3.00217,-5.56735 -1.13433,-1.66719 0.33855,0.59377 0.72709,1.14199 1.13433,1.66719 z m -1.69841,-4.40294 -0.0226,-1.01398 0.0226,1.01398 z m 0,-1.15866 c -0.0453,-1.23913 -0.0502,-1.37699 0,0 z m -1.44026,-1.28741 c -0.33006,3.23315 2.87891,-0.53179 0,0 z m -5.5776,1.28741 c -3.79889,2.51872 2.86136,-0.0457 0,0 z m -3.68217,0 -0.8877,0.0519 0.8877,-0.0519 z m -0.92394,0 c -0.75422,-0.76719 -0.35267,0.76858 0,0 z m -0.45518,0.12015 c -0.46975,-1.14845 -0.55252,0.61054 0,0 z m -0.46197,-0.12015 c -0.84896,0.0647 -1.06955,0.0815 0,0 z m -4.59931,0 -0.88769,0.0519 0.88769,-0.0519 z m -5.52325,0 c -0.84874,0.0646 -1.06205,0.0808 0,0 z m -1.84109,0 c -0.76252,-0.77409 -0.35967,0.77228 0,0 z m -0.46197,0.12015 c -0.45852,-1.13984 -0.54775,0.6071 0,0 z m -0.45517,-0.12015 c -0.76244,-0.77294 -0.35965,0.77132 0,0 z m -0.46197,0.12015 c -0.47008,-1.1474 -0.55223,0.60927 0,0 z m -0.46197,-0.12015 c -0.75383,-0.76256 -0.35267,0.76463 0,0 z m -0.45518,0.12015 c -0.46975,-1.14845 -0.55251,0.61054 0,0 z m -0.46196,-0.12015 c -0.84897,0.0647 -1.06957,0.0815 0,0 z m -6.4404,0 -0.88769,0.0519 0.88769,-0.0519 z m -1.84109,0 c -0.76243,-0.77294 -0.35965,0.77132 0,0 z m -0.46197,0.12015 c -0.47007,-1.1474 -0.55223,0.60927 0,0 z m -2.30305,-0.12015 c -0.84874,0.0646 -1.06204,0.0808 0,0 z m -2.75823,0 c -0.76252,-0.77409 -0.35967,0.77228 0,0 z m -0.46197,0.12015 c -0.45852,-1.13984 -0.54775,0.6071 0,0 z m -2.29626,-0.12015 c -0.76243,-0.77296 -0.35966,0.77132 0,0 z m -0.46197,0.12015 c -0.47008,-1.14739 -0.55223,0.60927 0,0 z m -2.30305,-0.12015 c -0.75383,-0.76256 -0.35267,0.76465 0,0 z m -0.45518,0.12015 c -0.46975,-1.14844 -0.55252,0.61054 0,0 z m -0.46197,-0.12015 c -0.84896,0.0647 -1.06956,0.0815 0,0 z m -34.96701,4.65183 c -0.84897,0.0646 -1.06956,0.0815 0,0 z m -10.13615,-1.20158 c -1.08892,-0.67908 -0.56259,0.77578 0,0 z m -4.58573,-2.29159 -0.0799,-0.23404 0.0799,0.23404 z m -0.92394,-3.48458 c 0.45944,-0.58622 -0.48083,-0.41055 0,0 z m -0.0204,-0.47205 c 0.66319,-0.66224 -0.646,-0.72304 0,0 z m 1.86147,-4.17979 c 0.50054,-2.81614 -1.46697,1.70016 0,0 z m -0.91715,-3.48459 c -0.0453,-1.23913 -0.0502,-1.37699 0,0 z m 0,-16.27285 c -0.0449,-1.22848 -0.051,-1.39241 0,0 z m 0,-1.16725 c -0.051,-1.07717 -0.0683,-1.44273 0,0 z"
           style="fill:#edf1f3;fill-opacity:1;fill-rule:evenodd;stroke:none;stroke-width:4.30246592px;stroke-linecap:butt;stroke-linejoin:miter;stroke-opacity:1" />
      </g>
      <g
         transform="translate(631.87479,190.65433)"
         id="g5699">
        <path
           inkscape:connector-curvature="0"
           id="path5703"
           d="m -426.13304,-109.81058 c -2.98969,0.14238 -5.92972,0.77622 -8.58958,1.97403 -5.45594,0.59271 -10.15532,5.87231 -7.05921,10.367964 -0.97499,1.62692 -3.91919,4.20935 -1.2012,7.055 -1.54523,0.50979 -4.95714,2.82052 -1.88412,4.82347 1.37803,3.52194 0.30625,9.10783 -2.6246,11.74976 -3.06745,3.19487 -0.22789,6.63204 3.71062,5.4243 1.35242,1.113 1.08847,2.94589 0.46077,4.70332 1.3672,6.02981 4.00755,11.81423 4.81311,17.77482 0.0805,0.862 0.064,1.6942 0.008,2.51476 0.56469,0.70028 0.69785,1.61844 0,2.96105 -0.23337,4.30422 -2.49607,9.80424 1.0696,13.22595 1.81003,3.98107 4.33386,5.53469 8.2193,6.68592 6.96296,-0.46096 13.98182,-0.16918 20.97195,-0.24872 0.67063,-1.59075 0.0295,-3.98027 1.16008,-5.47576 0.28856,-1.80001 0.17946,-3.65448 0.16471,-5.50151 -0.29192,-1.37007 -0.47062,-2.79639 -0.32099,-4.38579 -0.28055,-5.33672 -3.07356,-12.26007 0.64177,-16.88223 -1.52222,-3.00978 -3.33389,-7.86348 -0.58414,-9.12343 2.40744,1.5701 3.66521,5.54317 5.88266,7.6043 2.17513,3.88549 9.14167,1.36295 4.92007,-1.78521 -3.15191,-4.33688 -1.62968,-10.32937 -4.96944,-14.36748 -3.71597,-1.97086 -4.68509,-5.26971 -4.78017,-9.25218 -0.5368,-3.21803 -1.80459,-5.18007 -3.34038,-7.08076 -3.84732,-3.33228 3.44354,-2.25711 5.7346,-2.31731 1.98585,-1.54352 1.32879,-3.57187 0.26328,-5.80192 -1.74979,-1.35979 -2.85827,-2.34808 -5.89918,-2.32593 -2.13241,-1.50674 -2.77402,-2.46325 -4.1055,-4.591754 0.32099,-2.75201 -0.70298,-6.20544 -3.75999,-6.75461 -2.86846,-0.76299 -5.91254,-1.1123 -8.90219,-0.96987 z"
           style="fill:#edf1f3;fill-opacity:1;fill-rule:evenodd;stroke:none;stroke-width:0.89720154px;stroke-linecap:butt;stroke-linejoin:miter;stroke-opacity:1" />
        <path
           style="fill:#edf1f3;fill-opacity:1;fill-rule:evenodd;stroke:none;stroke-width:0.89720148px;stroke-linecap:butt;stroke-linejoin:miter;stroke-opacity:1"
           d="m -430.82755,-152.11875 c -2.49934,1.32969 -2.62718,4.37568 -3.69017,6.62828 -3.60126,11.20288 -5.46954,22.82103 -7.26032,34.38105 0.11958,1.72577 -1.90374,5.00691 0.4124,5.57658 -1.20949,2.44202 2.49585,0.87213 3.82131,1.29492 8.67601,-0.01 17.35203,0.002 26.02804,-0.002 0.2846,0.25869 -1.11939,-5.48111 -2.24594,-8.01253 -3.55697,-12.00094 -7.03495,-24.12311 -12.70616,-35.41267 -0.95909,-1.6704 -2.0387,-3.52425 -3.88147,-4.41178 l -0.4777,-0.0412 1e-5,-4.3e-4 z"
           id="path5705"
           inkscape:connector-curvature="0"
           sodipodi:nodetypes="cccccccccccc" />
        <path
           style="fill:#edf1f3;fill-opacity:1;fill-rule:evenodd;stroke:none;stroke-width:0.89720154px;stroke-linecap:butt;stroke-linejoin:miter;stroke-opacity:1"
           d="m -437.02419,-26.803886 c 1.09018,1.86044 -0.3116,5.11835 -0.10065,7.63055 -0.41991,2.55011 0.0642,4.25853 0.048,6.79271 -0.45078,2.3955001 -1.22941,4.8310301 -1.75403,7.2518901 -0.37505,3.96727 -1.82657,7.73169 -2.69678,11.60842 -0.66485,2.19044 1.53673,3.4595 3.67532,4.0136899 2.72692,1.17035 5.55596,2.00846 8.50787,2.57471 2.24629,0.57255 4.57201,0.65072 6.84958,1.13138 1.8056,0.16781 3.96029,0.35421 4.82621,-0.2779 2.28414,0.58217 1.82526,-0.71786 4.14095,-0.98912 0.81887,-2.55077 0.79099,-3.8881199 -0.43997,-5.9997799 -1.45396,-0.92534 -2.27691,-2.47811 -4.34133,-3.47197 -2.67919,-1.00215 -6.61151,-1.1639 -8.64224,-2.33565 -0.78978,-2.35556 0.90402,-4.55779 0.58579,-6.86186 0.2305,-2.254 -0.0675,-3.90907 0.5144,-6.3577401 0.29856,-1.98711 1.47542,-4.04719 1.04097,-5.8996 -0.0278,-1.8077 0.66506,-5.07669 -1.90754,-5.98476 -3.00172,-1.37719 -6.2293,-2.61942 -9.6055,-2.74483 -1.46211,-0.70536 2.10894,0.31541 -0.27921,0.0179 l -0.42183,-0.098 -2e-5,-4e-5 z"
           id="path5707"
           inkscape:connector-curvature="0" />
        <path
           inkscape:connector-curvature="0"
           id="path5709"
           d="m -420.44214,-28.188126 c 1.33083,1.84456 0.46642,5.27487 1.0465,7.84187 -0.023,2.6441 0.70022,4.3692 1.06439,6.97254 -0.076,2.48718 -0.4623,5.0353101 -0.60572,7.5530101 0.23267,4.09667 -0.60382,8.05014 -0.86253,12.08376 -0.31328,2.28957 2.00141,3.45961 4.14817,3.8993699 2.80683,1.03691 5.66241,1.72645 8.5958,2.12941 2.25344,0.45209 4.50943,0.39171 6.77928,0.74755 1.76751,0.0632 3.87468,0.12422 4.61554,-0.57727 2.2914,0.4597 1.65375,-0.84756 3.8477,-1.26618 0.40789,-2.6688799 0.18055,-4.0405099 -1.32379,-6.1345399 -1.54172,-0.86229 -2.56858,-2.40706 -4.70966,-3.30278 -2.73556,-0.86707997 -6.55441,-0.79534997 -8.68964,-1.87579997 -1.11516,-2.37116003 0.18926,-4.73506003 -0.46315,-7.08185003 -0.11539,-2.32858 -0.65097,-4.0101401 -0.45649,-6.5598701 -0.01,-2.05861 0.81718,-4.24528 0.12032,-6.12124 -0.2978,-1.85462 -0.1191,-5.25345 -2.73771,-6.03037 -3.10301,-1.23267 -6.40374,-2.31312 -9.68049,-2.23771 -1.51662,-0.63591 2.08235,0.19634 -0.26681,0.0349 l -0.42174,-0.0751 -2e-5,-5e-5 z"
           style="fill:#edf1f3;fill-opacity:1;fill-rule:evenodd;stroke:none;stroke-width:0.89720154px;stroke-linecap:butt;stroke-linejoin:miter;stroke-opacity:1" />
        <path
           inkscape:connector-curvature="0"
           id="path5711"
           d="m -429.98688,-68.500996 c 3.71087,1.00708 5.20275,5.11198 8.59744,6.74413 4.94918,3.07569 10.13365,5.86851 15.74925,7.45563 3.79917,1.36294 7.29367,4.75558 11.43496,3.97302 3.66528,-0.42786 7.25545,1.55051 8.39761,4.89728 1.63684,3.55354 0.7276,6.1255 -0.70889,9.40508 -2.26577,1.9869 -3.84002,5.47061 -7.30758,5.73296 -5.54938,0.0885 -5.19368,-5.81944 -9.98589,-7.47753 -3.11768,-1.31305 -4.41301,-2.81679 -8.37033,-3.89228 -2.86216,-0.99236 -2.73613,-1.42195 -5.32973,-2.96525 -3.1751,-0.75756 -5.69036,-3.22314 -8.41948,-4.82357 -3.31426,-1.56649 -5.39458,-3.1684 -7.76193,-5.2407 -2.34366,-1.38582 -2.38659,-2.98494 -2.39861,-3.68815 -0.18748,-1.65618 -0.10077,-5.534 3.24101,-7.36934 0.72105,-1.41458 1.74178,-1.13171 2.63888,-2.39628 -1.6246,2.62022 0.32705,1.03448 0.22328,-0.35498 z"
           style="fill:#edf1f3;fill-opacity:1;fill-rule:evenodd;stroke:none;stroke-width:4.41513443px;stroke-linecap:butt;stroke-linejoin:miter;stroke-opacity:1" />
        <path
           style="fill:#edf1f3;fill-opacity:1;fill-rule:evenodd;stroke:none;stroke-width:4.30246592px;stroke-linecap:butt;stroke-linejoin:miter;stroke-opacity:1"
           d="m -279.2549,11.371594 c -7.54941,-7.8412799 -20.43779,-4.7575599 -27.39694,-13.4210299 -2.88933,-6.9796 -7.43041,-13.0477101 -10.56436,-19.9118501 -4.24322,-7.01511 1.40331,-13.18011 4.16779,-18.75348 2.00821,-13.3521 -6.49805,-26.89573 -0.90898,-39.93631 2.43819,-7.67299 8.79072,-15.41516 5.68758,-23.897814 -4.0165,-4.85549 -6.64602,-10.6197 -4.89224,-17.26373 0.8505,-7.1026 -3.43965,3.66254 -4.58744,5.2183 -6.07195,11.64923 -10.07401,24.324074 -13.85413,36.964584 -0.18123,-7.52582 3.49873,-16.44042 -1.85195,-22.830484 -4.60418,-1.21569 -8.10458,-7.9905 -3.07176,-10.72253 0.0866,4.57902 -3.1444,11.28326 -6.88647,12.9108 -1.49457,-4.86814 -5.12769,-8.03077 -8.05786,-12.08806 -4.06867,-5.26102 -5.30824,-11.97889 -7.3498,-18.21679 -1.26521,-5.27352 -4.38003,-3.45707 -3.07302,1.29641 -0.54329,8.93147 3.48052,18.30056 6.25463,26.95322 5.36011,9.155174 3.13837,20.538554 4.42786,30.743314 1.34091,8.10075 -2.54627,16.21763 0.19124,23.96631 2.61292,7.83597 -6.2239,19.96328 -12.37877,26.99237 -8.2673,8.92699 4.43533,22.3013701 -6.03426,29.3111901 -4.24145,6.0680199 5.90897,2.3920399 7.89892,-0.53439 3.87217,-4.67352 9.17467,-7.66428997 13.52238,-11.98354 3.62357,-4.76268 11.81848,-6.02435 10.43695,2.43283 0.27186,6.97108 -3.29324,13.3814499 -3.1623,20.2870099 6.307,-4.33806 5.02027,-14.3373599 10.85694,-19.03849987 6.53199,-2.54918003 10.44876,6.04426997 16.27339,7.34845997 10.97724,4.1100699 23.06733,0.28461 34.04823,4.1297599 l 0.30437,0.0439 0,0 z"
           id="path5713"
           inkscape:connector-curvature="0"
           sodipodi:nodetypes="cccccccccccccccccccccccccccccc" />
        <path
           style="fill:#edf1f3;fill-opacity:1;fill-rule:evenodd;stroke:none;stroke-width:4.30246592px;stroke-linecap:butt;stroke-linejoin:miter;stroke-opacity:1"
           d="m -393.12987,-75.117316 c 0.28729,8.28548 -1.46532,16.87398 0.67338,24.93947 2.15654,2.72406 0.41048,7.11427 -2.68481,6.90746 2.98322,1.36645 -2.27558,0.91535 0.67818,2.1835 8.35253,4.85508 17.92087,5.32602 26.93018,3.46982 6.5567,-0.83158 13.0638,-2.34527 19.51271,-3.81524 14.563,0.021 29.126,-0.027 43.689,-0.007 3.54377,-2.74103 9.76582,-1.98759 10.27496,4.10152 4.07177,-6.25184 1.97883,-15.07903 5.34346,-21.71004 -0.82092,-3.95649 -0.74882,-10.78964 -5.07631,-11.21627 -5.7757,1.54834 -1.70806,10.00117 -2.35812,14.90957 0.89619,5.12696 -2.36127,10.98054 -7.03302,8.75781 -4.10705,-1.16216 -8.43563,-0.34411 -12.63835,-0.61488 -9.51368,0.0879 -19.03929,-0.12617 -28.54547,0.14897 -5.09927,0.87125 -10.12671,2.97936 -15.3403,2.19118 -9.0675,0 -18.13499,0 -27.20249,0 0.74283,-8.45394 -1.31005,-16.82528 -0.94751,-25.25396 -0.38008,-3.27231 -3.68067,-3.05853 -5.27549,-4.99186 z m 4.38192,2.34308 c 0.051,1.07717 0.0683,1.44273 0,0 z m 0.91715,3.48459 0.0394,-1.0163 -0.0394,1.0163 z m 0,2.32592 c 0.05,1.06029 0.0692,1.46748 0,0 z m 0,2.32592 c 0.0451,1.23914 0.0502,1.37697 0,0 z m 1.01225,4.73767 c 0.0387,0.50187 0.025,0.32438 0,0 z m -0.0815,1.0385 c -0.36656,2.24168 0.37418,1.11574 0.14617,-0.24143 l -0.14617,0.24143 z m -0.007,1.20159 c 0.051,1.0772 0.0683,1.44269 0,0 z m 0.0951,-0.59221 c 0.39828,-0.74014 -0.92884,-0.60933 0,0 z m 69.83892,11.05455 c 0.84873,-0.0647 1.06204,-0.081 0,0 z m 13.80473,0 0.88421,-0.0515 -0.88421,0.0515 z m 1.84109,0 c 0.75422,0.76718 0.35266,-0.76858 0,0 z m 0.45517,-0.12016 c 0.46974,1.14846 0.55252,-0.61054 0,0 z m 0.46197,0.12016 c 0.76253,0.77408 0.35966,-0.77229 0,0 z m 0.46197,-0.12016 c 0.45853,1.13985 0.54776,-0.6071 0,0 z m 0.45517,0.12016 c 0.84897,-0.0647 1.06957,-0.0815 0,0 z m 0.92395,0 0.8842,-0.0515 -0.8842,0.0515 z m 2.41854,0 c -0.05,-1.06032 -0.0692,-1.46744 0,0 z m 0,-2.32592 c 0.64476,-0.95545 -0.62516,-0.4641 0,0 z m -0.0951,-0.58362 c 0.92927,-0.62205 -0.50064,-0.66524 0,0 z m 0.0951,-1.7423 c 0.64574,-0.95549 -0.62597,-0.46418 0,0 z m -0.0951,-0.58362 c 0.92296,-0.60714 -0.49886,-0.65978 0,0 z m 0.0951,-2.90097 c -0.0449,-1.22848 -0.051,-1.39241 0,0 z m 0,-1.16724 c 0.64575,-0.9555 -0.62597,-0.46419 0,0 z m -0.0951,-0.58363 c 0.91962,-0.60893 -0.49469,-0.65838 0,0 z m 0.0951,-1.74229 c -0.0519,-0.49796 -0.0329,-0.31483 0,0 z m -0.0543,-0.3519 c 0.60417,-0.72505 -0.65375,-0.92866 0,0 z m -0.8628,-4.29994 c -0.051,-1.07717 -0.0683,-1.44273 0,0 z m 0,-3.48459 c 0.64575,-0.95548 -0.62596,-0.46419 0,0 z m -0.0951,-0.58362 c 0.92296,-0.60716 -0.49887,-0.65977 0,0 z m 5.61837,-2.90097 0.8284,-0.0466 -0.8284,0.0466 z m 0,29.06112 c 0.0297,1.25139 0.0324,1.36142 0,0 z m -2.76503,5.8105 c 1.34491,1.23936 0.23272,-3.51434 0,0 z m 0,0 c -0.21918,-1.1059 -0.12679,0.75868 0,0 z m -0.14267,-0.2489 c 0.86676,-2.34452 -3.00217,-5.56735 -1.13433,-1.66719 0.33855,0.59377 0.72709,1.14199 1.13433,1.66719 z m -1.69841,-4.40294 -0.0226,-1.01398 0.0226,1.01398 z m 0,-1.15866 c -0.0453,-1.23913 -0.0502,-1.37699 0,0 z m -1.44026,-1.28741 c -0.33006,3.23315 2.87891,-0.53179 0,0 z m -5.5776,1.28741 c -3.79889,2.51872 2.86136,-0.0457 0,0 z m -3.68217,0 -0.8877,0.0519 0.8877,-0.0519 z m -0.92394,0 c -0.75422,-0.76719 -0.35267,0.76858 0,0 z m -0.45518,0.12015 c -0.46975,-1.14845 -0.55252,0.61054 0,0 z m -0.46197,-0.12015 c -0.84896,0.0647 -1.06955,0.0815 0,0 z m -4.59931,0 -0.88769,0.0519 0.88769,-0.0519 z m -5.52325,0 c -0.84874,0.0646 -1.06205,0.0808 0,0 z m -1.84109,0 c -0.76252,-0.77409 -0.35967,0.77228 0,0 z m -0.46197,0.12015 c -0.45852,-1.13984 -0.54775,0.6071 0,0 z m -0.45517,-0.12015 c -0.76244,-0.77294 -0.35965,0.77132 0,0 z m -0.46197,0.12015 c -0.47008,-1.1474 -0.55223,0.60927 0,0 z m -0.46197,-0.12015 c -0.75383,-0.76256 -0.35267,0.76463 0,0 z m -0.45518,0.12015 c -0.46975,-1.14845 -0.55251,0.61054 0,0 z m -0.46196,-0.12015 c -0.84897,0.0647 -1.06957,0.0815 0,0 z m -6.4404,0 -0.88769,0.0519 0.88769,-0.0519 z m -1.84109,0 c -0.76243,-0.77294 -0.35965,0.77132 0,0 z m -0.46197,0.12015 c -0.47007,-1.1474 -0.55223,0.60927 0,0 z m -2.30305,-0.12015 c -0.84874,0.0646 -1.06204,0.0808 0,0 z m -2.75823,0 c -0.76252,-0.77409 -0.35967,0.77228 0,0 z m -0.46197,0.12015 c -0.45852,-1.13984 -0.54775,0.6071 0,0 z m -2.29626,-0.12015 c -0.76243,-0.77296 -0.35966,0.77132 0,0 z m -0.46197,0.12015 c -0.47008,-1.14739 -0.55223,0.60927 0,0 z m -2.30305,-0.12015 c -0.75383,-0.76256 -0.35267,0.76465 0,0 z m -0.45518,0.12015 c -0.46975,-1.14844 -0.55252,0.61054 0,0 z m -0.46197,-0.12015 c -0.84896,0.0647 -1.06956,0.0815 0,0 z m -34.96701,4.65183 c -0.84897,0.0646 -1.06956,0.0815 0,0 z m -10.13615,-1.20158 c -1.08892,-0.67908 -0.56259,0.77578 0,0 z m -4.58573,-2.29159 -0.0799,-0.23404 0.0799,0.23404 z m -0.92394,-3.48458 c 0.45944,-0.58622 -0.48083,-0.41055 0,0 z m -0.0204,-0.47205 c 0.66319,-0.66224 -0.646,-0.72304 0,0 z m 1.86147,-4.17979 c 0.50054,-2.81614 -1.46697,1.70016 0,0 z m -0.91715,-3.48459 c -0.0453,-1.23913 -0.0502,-1.37699 0,0 z m 0,-16.27285 c -0.0449,-1.22848 -0.051,-1.39241 0,0 z m 0,-1.16725 c -0.051,-1.07717 -0.0683,-1.44273 0,0 z"
           id="path5715"
           inkscape:connector-curvature="0" />
        <path
           style="fill:#edf1f3;fill-opacity:1;fill-rule:evenodd;stroke:none;stroke-width:4.30246592px;stroke-linecap:butt;stroke-linejoin:miter;stroke-opacity:1"
           d="M 98.082031 28.552734 C 97.629679 28.566865 97.143444 28.718386 97.191406 29.207031 C 97.565776 29.458637 98.207311 29.326285 98.628906 29.283203 C 98.848372 29.046672 98.517011 28.819084 98.501953 28.576172 C 98.379977 28.557404 98.232815 28.548024 98.082031 28.552734 z M 100.52734 28.748047 C 100.46701 28.754525 100.43441 28.77479 100.41406 28.802734 C 100.55791 28.911006 100.63441 29.07961 100.75781 29.207031 C 101.25841 29.654399 101.16563 28.787179 100.73633 28.761719 C 100.64838 28.746224 100.57932 28.742467 100.52734 28.748047 z M 100.41406 28.802734 C 100.39916 28.791515 100.39165 28.773285 100.375 28.763672 C 100.3721 28.785462 100.34897 28.841821 100.3418 28.875 C 100.38291 28.909608 100.38197 28.996907 100.2793 29.173828 C 100.10211 29.485928 99.708397 30.005025 100.31445 29.875 C 100.07228 29.911999 100.57449 29.871675 100.52344 29.894531 C 100.90015 29.920011 100.66943 29.545686 100.86523 29.421875 C 100.65184 29.306651 100.3117 28.94329 100.41406 28.802734 z M 100.3418 28.875 C 100.25306 28.800309 99.954893 28.997587 99.953125 29.248047 C 100.08952 29.760247 100.27984 29.161552 100.3418 28.875 z M 96.648438 31.832031 C 96.589063 31.874688 96.559543 31.906249 96.542969 31.933594 C 96.631161 31.933962 96.721159 31.93682 96.796875 31.947266 C 97.306169 32.033451 96.972281 31.763233 96.648438 31.832031 z M 96.542969 31.933594 C 96.191516 31.932128 95.824269 32.020168 96.076172 32.306641 C 95.85597 32.535696 95.826796 31.953296 95.867188 32.341797 C 95.910221 32.587459 96.135115 32.233153 96.119141 32.607422 C 96.371515 32.827359 96.654763 32.112222 97.025391 31.974609 C 96.796969 32.025243 96.461473 32.068049 96.542969 31.933594 z M 97.025391 31.974609 C 97.06892 31.96496 97.127511 31.962844 97.15625 31.953125 C 97.155747 31.950992 97.156839 31.949424 97.15625 31.947266 C 97.111072 31.945304 97.068122 31.958743 97.025391 31.974609 z M 97.15625 31.953125 C 97.243279 32.322249 96.057408 32.313888 96.710938 32.599609 C 97.049257 32.736811 98.189886 32.500631 97.744141 32.111328 C 97.563485 32.046114 97.356479 32.052485 97.191406 31.947266 C 97.185133 31.949785 97.163974 31.950513 97.15625 31.953125 z "
           transform="matrix(4.212497,0,0,4.394356,-1291.2873,-157.14695)"
           id="path5736" />
        <path
           id="path5755"
           d="m -467.14397,-35.359486 c 1.90553,0.0621 3.9538,0.727933 3.75176,2.875213 -1.57703,1.105647 -4.2795,0.524045 -6.05547,0.334727 -0.9245,-1.039401 0.47136,-2.039504 0.53479,-3.106946 0.51383,-0.08247 1.13375,-0.123692 1.76892,-0.102994 z m -10.30085,0.858274 c 0.25414,0.02847 0.39146,0.117519 0.47719,0.240315 -0.60597,0.475785 -0.92823,1.216691 -1.44805,1.776624 -2.10877,1.965895 -1.71794,-1.844979 0.0905,-1.956859 0.37049,-0.06809 0.6614,-0.0846 0.88037,-0.06008 z m 0.47719,0.240315 c 0.0628,-0.0493 0.0944,-0.12941 0.16454,-0.171653 0.0122,0.09575 0.10965,0.343415 0.13985,0.489215 -0.17317,0.15208 -0.16921,0.535703 0.26328,1.313157 0.74642,1.371478 2.40493,3.652575 -0.14807,3.081199 1.02014,0.162587 -1.09541,-0.01461 -0.88037,0.08583 -1.58689,0.111968 -0.61498,-1.532949 -1.43978,-2.077018 0.8989,-0.506336 2.33174,-2.103073 1.90055,-2.720726 z m 0.30439,0.317562 c 0.37382,-0.328219 1.62985,0.538691 1.63729,1.639301 -0.57456,2.25079 -1.37628,-0.380089 -1.63729,-1.639301 z m 15.55828,12.994247 c 0.25012,0.18745 0.37447,0.32614 0.44429,0.446304 -0.37151,0.0016 -0.75063,0.01418 -1.06958,0.06008 -2.1454,0.378727 -0.7389,-0.808707 0.62529,-0.506384 z m 0.44429,0.446304 c 1.48049,-0.0064 3.02752,0.380437 1.96638,1.639301 0.9276,1.006549 1.05049,-1.552723 0.88034,0.154488 -0.18127,1.079527 -1.12864,-0.47742 -1.06135,1.167251 -1.06312,0.966482 -2.25631,-2.176085 -3.81757,-2.780806 0.96222,0.222504 2.3755,0.410609 2.0322,-0.180234 z m -2.0322,0.180234 c -0.18337,-0.0424 -0.43018,-0.0517 -0.55125,-0.09441 0.002,-0.0094 -0.002,-0.01626 0,-0.02575 0.19031,-0.0086 0.37124,0.05043 0.55125,0.120154 z m -0.55125,-0.09441 c -0.36661,1.622062 4.62887,1.585321 1.87588,2.840881 -1.42517,0.602914 -6.23007,-0.434945 -4.35237,-2.145681 0.76102,-0.286573 1.63303,-0.258577 2.3284,-0.720946 0.0264,0.01107 0.11556,0.01427 0.14809,0.02575 z"
           style="fill:#edf1f3;fill-opacity:1;fill-rule:evenodd;stroke:none;stroke-width:4.30246592px;stroke-linecap:butt;stroke-linejoin:miter;stroke-opacity:1"
           inkscape:connector-curvature="0" />
        <path
           inkscape:connector-curvature="0"
           style="fill:#edf1f3;fill-opacity:1;fill-rule:evenodd;stroke:none;stroke-width:4.30246592px;stroke-linecap:butt;stroke-linejoin:miter;stroke-opacity:1"
           d="m -290.43998,-12.317919 c 1.90553,0.0621 3.9538,0.727933 3.75176,2.8752128 -1.57703,1.105647 -4.2795,0.524045 -6.05547,0.334727 -0.9245,-1.0394008 0.47136,-2.0395038 0.53479,-3.1069458 0.51383,-0.08247 1.13375,-0.123692 1.76892,-0.102994 z m -10.30085,0.858274 c 0.25414,0.02847 0.39146,0.117519 0.47719,0.240315 -0.60597,0.475785 -0.92823,1.216691 -1.44805,1.7766238 -2.10877,1.965895 -1.71794,-1.8449788 0.0905,-1.9568588 0.37049,-0.06809 0.6614,-0.0846 0.88037,-0.06008 z m 0.47719,0.240315 c 0.0628,-0.0493 0.0944,-0.12941 0.16454,-0.171653 0.0122,0.09575 0.10965,0.343415 0.13985,0.489215 -0.17317,0.15208 -0.16921,0.535703 0.26328,1.3131568 0.74642,1.371478 2.40493,3.652575 -0.14807,3.081199 1.02014,0.162587 -1.09541,-0.01461 -0.88037,0.08583 -1.58689,0.111968 -0.61498,-1.532949 -1.43978,-2.077018 0.8989,-0.506336 2.33174,-2.1030728 1.90055,-2.7207258 z m 0.30439,0.317562 c 0.37382,-0.328219 1.62985,0.538691 1.63729,1.6393008 -0.57456,2.25079 -1.37628,-0.380089 -1.63729,-1.6393008 z m 15.55828,12.9942468 c 0.25012,0.18745 0.37447,0.32614 0.44429,0.446304 -0.37151,0.0016 -0.75063,0.01418 -1.06958,0.06008 -2.1454,0.378727 -0.7389,-0.808707 0.62529,-0.506384 z m 0.44429,0.446304 c 1.48049,-0.0064 3.02752,0.380437 1.96638,1.639301 0.9276,1.006549 1.05049,-1.552723 0.88034,0.154488 -0.18127,1.079527 -1.12864,-0.47742 -1.06135,1.167251 -1.06312,0.966482 -2.25631,-2.176085 -3.81757,-2.780806 0.96222,0.222504 2.3755,0.410609 2.0322,-0.180234 z m -2.0322,0.180234 c -0.18337,-0.0424 -0.43018,-0.0517 -0.55125,-0.09441 0.002,-0.0094 -0.002,-0.01626 0,-0.02575 0.19031,-0.0086 0.37124,0.05043 0.55125,0.120154 z m -0.55125,-0.09441 c -0.36661,1.622062 4.62887,1.585321 1.87588,2.840881 -1.42517,0.602914 -6.23007,-0.434945 -4.35237,-2.145681 0.76102,-0.286573 1.63303,-0.258577 2.3284,-0.720946 0.0264,0.01107 0.11556,0.01427 0.14809,0.02575 z"
           id="path5773" />
        <path
           id="path5775"
           d="m -717.97905,-9.4574183 c -1.90553,0.062097 -3.95379,0.7279338 -3.75175,2.8752139 1.57703,1.1056464 4.2795,0.5240446 6.05546,0.3347269 0.9245,-1.0394014 -0.47135,-2.0395041 -0.53479,-3.1069459 -0.51382,-0.082473 -1.13374,-0.1236923 -1.76892,-0.1029949 z m 10.30086,0.8582748 c -0.25414,0.028467 -0.39147,0.1175183 -0.47719,0.2403142 0.60597,0.4757857 0.92822,1.2166917 1.44805,1.7766249 2.10877,1.9658943 1.71794,-1.8449791 -0.0905,-1.9568594 -0.37049,-0.068091 -0.6614,-0.0846 -0.88037,-0.06008 z m -0.47719,0.2403142 c -0.0628,-0.0493 -0.0944,-0.1294094 -0.16454,-0.1716524 -0.0122,0.095753 -0.10965,0.3434146 -0.13986,0.4892149 0.17318,0.1520799 0.16922,0.5357028 -0.26328,1.3131566 -0.74641,1.3714785 -2.40492,3.6525756 0.14807,3.0811994 -1.02014,0.1625868 1.09542,-0.014611 0.88037,0.085826 1.58689,0.1119682 0.61498,-1.5329491 1.43979,-2.0770187 -0.8989,-0.5063353 -2.33174,-2.1030729 -1.90055,-2.720726 z m -0.3044,0.3175625 c -0.37381,-0.3282188 -1.62984,0.5386909 -1.63729,1.6393013 0.57457,2.2507892 1.37629,-0.3800898 1.63729,-1.6393013 z m -15.55827,12.9942469 c -0.25012,0.1874501 -0.37447,0.3261403 -0.44429,0.446304 0.37151,0.00162 0.75062,0.014176 1.06958,0.06008 2.1454,0.3787276 0.7389,-0.8087065 -0.62529,-0.5063836 z m -0.44429,0.446304 c -1.48049,-0.00644 -3.02752,0.380437 -1.96638,1.6393013 -0.9276,1.0065492 -1.0505,-1.5527237 -0.88035,0.154488 0.18128,1.0795263 1.12865,-0.4774204 1.06136,1.1672508 1.06312,0.9664815 2.2563,-2.1760851 3.81757,-2.7808056 -0.96223,0.2225038 -2.3755,0.4106086 -2.0322,-0.1802345 z m 2.0322,0.1802345 c 0.18337,-0.042401 0.43018,-0.0517 0.55124,-0.094408 -0.002,-0.00937 0.002,-0.016263 0,-0.025747 -0.19031,-0.00862 -0.37123,0.050434 -0.55124,0.1201549 z m 0.55124,-0.094408 c 0.36661,1.6220622 -4.62886,1.585321 -1.87587,2.8408808 1.42517,0.6029145 6.23006,-0.4349445 4.35236,-2.1456805 -0.76101,-0.2865736 -1.63302,-0.2585771 -2.32839,-0.7209469 -0.0264,0.011069 -0.11556,0.014269 -0.1481,0.025747 z"
           style="fill:#edf1f3;fill-opacity:1;fill-rule:evenodd;stroke:none;stroke-width:4.30246592px;stroke-linecap:butt;stroke-linejoin:miter;stroke-opacity:1"
           inkscape:connector-curvature="0" />
      </g>
    </g>
  </g>
</svg>
